<?xml version="1.0" standalone="no"?>
<!DOCTYPE svg PUBLIC "-//W3C//DTD SVG 1.1//EN" "//www.w3.org/Graphics/SVG/1.1/DTD/svg11.dtd" >
<svg xmlns="//www.w3.org/2000/svg" xmlns:xlink="//www.w3.org/1999/xlink" version="1.1">
<metadata>
Created by FontForge 20170812 at Mon Mar 30 09:09:16 2020
 By www-data
</metadata>
<defs>
<font id="HomeplusRA" horiz-adv-x="879" >
  <font-face 
    font-family="HomeplusRA"
    font-weight="400"
    font-stretch="normal"
    units-per-em="1000"
    panose-1="2 0 5 3 0 0 0 0 0 0"
    ascent="800"
    descent="-200"
    x-height="486"
    cap-height="766"
    bbox="-70 -269 1164 993"
    underline-thickness="50"
    underline-position="-150"
    unicode-range="U+0020-FFE6"
  />
<missing-glyph horiz-adv-x="1000" 
d="M100 -100h800v800h-800v-800zM150 -50v700h700v-700h-700z" />
    <glyph glyph-name=".notdef" horiz-adv-x="1000" 
d="M100 -100h800v800h-800v-800zM150 -50v700h700v-700h-700z" />
    <glyph glyph-name=".null" horiz-adv-x="0" 
 />
    <glyph glyph-name="nonmarkingreturn" horiz-adv-x="333" 
 />
    <glyph glyph-name="Korea1.1" unicode=" " horiz-adv-x="278" 
 />
    <glyph glyph-name="Korea1.2" unicode="!" horiz-adv-x="307" 
d="M87 -27q0 29 19.5 48t47.5 19q29 0 48.5 -19.5t19.5 -47.5q0 -29 -20 -48.5t-48 -19.5t-47.5 19.5t-19.5 48.5zM113 134l-29 636h139l-30 -636h-80z" />
    <glyph glyph-name="Korea1.3" unicode="&#x22;" horiz-adv-x="356" 
d="M55 870h101l-17 -241h-67zM200 870h100l-16 -241h-67z" />
    <glyph glyph-name="Korea1.4" unicode="#" horiz-adv-x="659" 
d="M31 541h150l46 221h80l-44 -221h207l45 221h80l-46 -221h99v-78h-116l-39 -189h135v-80h-151l-46 -218h-79l45 218h-206l-47 -218h-79l45 218h-99v80h116l37 189h-133v78zM453 463h-207l-40 -189h208z" />
    <glyph glyph-name="Korea1.5" unicode="$" horiz-adv-x="575" 
d="M509 651l-34 -90q-60 49 -136 63v-222q91 -30 141 -89t50 -126q0 -71 -45.5 -129t-145.5 -75v-76h-86v75q-95 8 -196 70v128q40 -36 78.5 -58.5t62 -29.5t55.5 -13v244q-185 60 -195 198q0 69 49 127.5t146 70.5v75h86v-74q49 -6 91.5 -23.5t60.5 -31.5zM253 436v186
q-42 -6 -67 -32t-25 -56q0 -33 21 -53t71 -45zM339 283v-201q86 26 86 94q0 38 -20 59.5t-66 47.5z" />
    <glyph glyph-name="Korea1.6" unicode="%" horiz-adv-x="763" 
d="M182 755q65 0 110.5 -49.5t45.5 -125.5q0 -75 -44.5 -124t-111.5 -49q-66 0 -111 48t-45 125q0 70 43.5 122.5t112.5 52.5zM656 757l-475 -781h-81l477 781h79zM181 482q33 0 55 27t22 69q0 45 -22 72.5t-55 27.5t-54.5 -27.5t-21.5 -72.5q0 -42 21.5 -69t54.5 -27z
M579 332q66 0 111 -48.5t45 -125.5q0 -74 -43 -124t-113 -50q-68 0 -112 50t-44 124q0 71 44.5 122.5t111.5 51.5zM579 59q33 0 54 27t21 69q0 45 -21.5 72.5t-53.5 27.5q-34 0 -55.5 -27.5t-21.5 -72.5q0 -42 22 -69t55 -27z" />
    <glyph glyph-name="Korea1.7" unicode="&#x26;" horiz-adv-x="649" 
d="M507 163l136 -173h-132l-75 94q-64 -55 -108.5 -77.5t-109.5 -22.5q-75 0 -130.5 52.5t-55.5 130.5q0 60 38 115t128 112q-30 34 -53.5 81t-23.5 91q0 65 47 117.5t132 52.5q80 0 127.5 -47t47.5 -113q0 -43 -22.5 -83t-47 -63t-63.5 -53l101 -133q52 82 70 123h105
q-34 -97 -111 -204zM372 169l-117 150q-37 -29 -48 -38.5t-32.5 -31t-28.5 -39t-7 -39.5q0 -33 24 -58.5t62 -29.5q45 0 84 23t63 63zM286 452q92 59 92 121q0 31 -21.5 52.5t-56.5 21.5q-30 0 -52.5 -21t-22.5 -50q0 -13 4 -27.5t9.5 -26t13.5 -24.5t14 -20.5t13 -16
t7 -9.5z" />
    <glyph glyph-name="Korea1.8" unicode="'" horiz-adv-x="211" 
d="M55 870h101l-17 -241h-67z" />
    <glyph glyph-name="Korea1.9" unicode="(" horiz-adv-x="344" 
d="M332 -163h-60q-103 131 -152 248t-49 263q0 85 17 161t51 142.5t61 108.5t72 101h60q-35 -54 -55.5 -93t-46 -103t-37.5 -143.5t-12 -175.5q0 -299 151 -509z" />
    <glyph glyph-name="Korea1.10" unicode=")" horiz-adv-x="343" 
d="M14 861h58q107 -142 153.5 -248.5t46.5 -263.5q0 -85 -16.5 -160.5t-50.5 -142t-61 -108t-72 -101.5h-58q33 52 53.5 91t45.5 102.5t37 144t12 176.5q0 303 -148 510z" />
    <glyph glyph-name="Korea1.11" unicode="*" horiz-adv-x="450" 
d="M264 566q0 -6 -1 -9q166 -45 166 -89q0 -14 -10 -24t-24 -10q-13 0 -23 7q-55 29 -121 95q-8 -6 -14 -9q24 -90 24 -149q0 -20 -10.5 -31.5t-25.5 -11.5t-26 11t-11 29q0 75 23 152q-9 4 -15 8q-65 -65 -120 -96q-9 -5 -23 -5q-13 0 -23.5 9t-10.5 23q0 25 22 36
q55 32 142 56v8q0 7 1 10q-117 35 -148 61q-17 14 -17 28q0 12 4 17q12 18 30 18q13 0 23 -6q64 -39 121 -98q1 2 14 9q-23 99 -23 148q0 21 10.5 33.5t26.5 12.5t26 -11.5t10 -30.5q0 -69 -25 -152q6 -3 13 -10l13 13t18.5 17.5t20.5 18.5t23.5 20t23.5 17t24 14q12 5 22 5
q14 0 24.5 -10t10.5 -24q0 -21 -21 -34q-48 -29 -145 -58q1 -2 1 -8z" />
    <glyph glyph-name="Korea1.12" unicode="+" horiz-adv-x="651" 
d="M281 110v217h-218v91h218v218h91v-218h216v-91h-216v-217h-91z" />
    <glyph glyph-name="Korea1.13" unicode="," horiz-adv-x="248" 
d="M108 80h100l-95 -208h-61z" />
    <glyph glyph-name="Korea1.14" unicode="-" horiz-adv-x="458" 
d="M413 327h-368v91h368v-91z" />
    <glyph glyph-name="Korea1.15" unicode="." horiz-adv-x="244" 
d="M54 -9q0 28 19.5 47.5t47.5 19.5q29 0 48.5 -19.5t19.5 -47.5q0 -29 -19.5 -48.5t-48.5 -19.5q-28 0 -47.5 20t-19.5 48z" />
    <glyph glyph-name="Korea1.16" unicode="/" horiz-adv-x="311" 
d="M2 -18l216 772h79l-215 -772h-80z" />
    <glyph glyph-name="Korea1.17" unicode="0" horiz-adv-x="579" 
d="M289 -22q-66 0 -116.5 32t-79.5 87.5t-43.5 123.5t-14.5 147t14.5 147t43.5 123t79.5 87t116.5 32q67 0 117.5 -32t79.5 -87t43.5 -123t14.5 -147t-14.5 -147t-43.5 -123.5t-79.5 -87.5t-117.5 -32zM289 662q-44 0 -75.5 -28.5t-47 -75.5t-22 -93.5t-6.5 -96.5
q0 -49 6.5 -95.5t22 -93.5t47 -75.5t75.5 -28.5t75.5 28.5t47 75.5t22.5 93.5t7 95.5t-7 96t-22.5 94t-47 75.5t-75.5 28.5z" />
    <glyph glyph-name="Korea1.18" unicode="1" horiz-adv-x="579" 
d="M102 600l197 146h86v-756h-103v632l-148 -105z" />
    <glyph glyph-name="Korea1.19" unicode="2" horiz-adv-x="579" 
d="M274 755q65 0 113.5 -23t73 -58.5t35.5 -69.5t11 -65q0 -124 -110 -253l-168 -204h287v-92h-471v30l302 365q51 67 51 141q0 57 -35.5 96.5t-100.5 39.5q-90 0 -163 -72l-32 86q85 79 207 79z" />
    <glyph glyph-name="Korea1.20" unicode="3" horiz-adv-x="579" 
d="M258 661q-80 0 -149 -64l-34 86q77 74 197 74q96 0 161.5 -56.5t65.5 -140.5q0 -76 -35 -117.5t-77 -56.5q18 -6 35.5 -15.5t42 -30t40 -55.5t15.5 -79q0 -101 -69 -164t-184 -63q-121 0 -200 57v117q85 -76 202 -76q12 0 29.5 3.5t46.5 14.5t48.5 40.5t19.5 72.5
q0 51 -41 87t-122 36h-86v90h97q19 1 39 7t42.5 18.5t36.5 37.5t14 59q0 52 -36.5 85t-98.5 33z" />
    <glyph glyph-name="Korea1.21" unicode="4" horiz-adv-x="579" 
d="M-1 148v34l368 564h96v-508h118v-90h-118v-158h-104v158h-360zM146 238h213v335z" />
    <glyph glyph-name="Korea1.22" unicode="5" horiz-adv-x="579" 
d="M245 -24q-107 0 -180 44v114q71 -58 177 -58q12 0 27 1.5t41.5 10t47 22.5t36 42.5t15.5 66.5q0 17 -2.5 32.5t-14 39.5t-31.5 41t-60.5 30t-95.5 13q-67 0 -116 -15l27 386h376v-93h-278l-16 -198q29 7 66 7q119 0 187.5 -68.5t68.5 -177.5q0 -98 -66 -164
q-45 -43 -104 -59.5t-105 -16.5z" />
    <glyph glyph-name="Korea1.23" unicode="6" horiz-adv-x="579" 
d="M416 746l-193 -314q35 16 77 16q106 0 171.5 -64t65.5 -168q0 -101 -72.5 -170.5t-178.5 -69.5q-108 0 -178.5 67t-70.5 174q0 49 16.5 100t31 77.5t17.5 28.5l194 323h120zM141 213q0 -62 42 -102t105 -40q62 0 104 41t42 101q0 63 -40 103.5t-106 40.5
q-63 0 -105 -40.5t-42 -103.5z" />
    <glyph glyph-name="Korea1.24" unicode="7" horiz-adv-x="579" 
d="M124 -10l263 660h-334v94h473v-31l-286 -723h-116z" />
    <glyph glyph-name="Korea1.25" unicode="8" horiz-adv-x="579" 
d="M419 390q125 -51 125 -195q0 -94 -71.5 -156.5t-183.5 -62.5q-110 0 -182 62.5t-72 156.5q0 144 126 195q-107 50 -107 163q0 87 65 146q64 59 170 59q107 0 172 -59q64 -59 64 -146q0 -114 -106 -163zM289 66q64 0 107.5 40t43.5 98q0 59 -43 98.5t-108 39.5
q-64 0 -107 -39.5t-43 -98.5q0 -58 43 -98t107 -40zM289 666q-56 0 -94 -34.5t-38 -84.5q0 -52 38 -86t94 -34q58 0 96 34t38 86q0 50 -38.5 84.5t-95.5 34.5z" />
    <glyph glyph-name="Korea1.26" unicode="9" horiz-adv-x="579" 
d="M161 -10l193 313q-34 -16 -79 -16q-104 0 -170 64t-66 168q0 101 73 170t179 69q107 0 178 -67t71 -172q0 -98 -65 -208l-194 -321h-120zM142 521q0 -64 40.5 -104t105.5 -40t106.5 41.5t41.5 102.5t-41 102t-107 41q-61 0 -103.5 -42t-42.5 -101z" />
    <glyph glyph-name="Korea1.27" unicode=":" horiz-adv-x="299" 
d="M84 587q0 28 18.5 47.5t46.5 19.5q27 0 47 -19.5t20 -47.5t-20 -47t-47 -19q-28 0 -46.5 19t-18.5 47zM84 143q0 28 18.5 47t46.5 19q27 0 47 -19.5t20 -46.5q0 -28 -20 -47t-47 -19q-28 0 -46.5 19t-18.5 47z" />
    <glyph glyph-name="Korea1.28" unicode=";" horiz-adv-x="299" 
d="M84 587q0 28 18.5 47.5t46.5 19.5q27 0 47 -19.5t20 -47.5t-20 -47t-47 -19q-28 0 -46.5 19t-18.5 47zM117 237h100l-95 -208h-61z" />
    <glyph glyph-name="Korea1.29" unicode="&#x3c;" horiz-adv-x="650" 
d="M61 318v91l527 222v-97l-417 -171l417 -173v-96z" />
    <glyph glyph-name="Korea1.30" unicode="=" horiz-adv-x="651" 
d="M588 207h-525v91h525v-91zM588 449h-525v91h525v-91z" />
    <glyph glyph-name="Korea1.31" unicode="&#x3e;" horiz-adv-x="649" 
d="M587 407v-92l-526 -222v97l419 171l-419 173v97z" />
    <glyph glyph-name="Korea1.32" unicode="?" horiz-adv-x="534" 
d="M238 688q-36 0 -72.5 -14t-54.5 -28l-18 -15l-32 85q92 59 192 59q94 0 158 -52.5t64 -164.5q0 -43 -20 -85.5t-45.5 -72t-54.5 -69t-42 -73.5q-17 -43 -19 -123h-106q0 95 29.5 159.5t81.5 129.5q61 74 61 143q0 49 -29 83q-38 38 -93 38zM178 -27q0 29 19 48t48 19
t48.5 -19.5t19.5 -47.5q0 -29 -19.5 -48.5t-48.5 -19.5q-28 0 -47.5 19.5t-19.5 48.5z" />
    <glyph glyph-name="Korea1.33" unicode="@" horiz-adv-x="1089" 
d="M687 570l17 80h99l-73 -357q-1 -12 -9 -44t-8 -45q0 -19 10.5 -28t23.5 -9q24 0 57.5 21t66 57t55.5 94t23 123q0 148 -107 242t-265 94q-129 0 -229.5 -62t-153 -165t-52.5 -227q0 -88 25.5 -159t68 -117t100.5 -76.5t120 -43.5t130 -13q232 0 364 150h103
q-13 -20 -18.5 -27.5t-30.5 -37t-46 -46.5t-61.5 -43t-82 -41t-101.5 -26.5t-125 -11.5q-133 0 -236 39t-166 107t-95 154t-32 186q0 68 16 139t55.5 144t97 129.5t149 92.5t204.5 36q109 0 197 -37t141.5 -97.5t82 -134t28.5 -150.5q0 -79 -25.5 -146.5t-65.5 -111
t-77.5 -70.5t-72.5 -41q-35 -13 -78 -13q-31 0 -51.5 7.5t-30.5 23t-13.5 25.5t-6.5 28q-79 -84 -159 -84q-83 0 -137.5 67.5t-54.5 173.5q0 80 34.5 159t98.5 133t139 54q96 0 157 -95zM363 306q0 -66 30.5 -106t76.5 -40q77 0 130.5 84.5t53.5 193.5q0 69 -33 107.5
t-81 38.5q-55 0 -97.5 -48.5t-61 -110.5t-18.5 -119z" />
    <glyph glyph-name="Korea1.34" unicode="A" horiz-adv-x="720" 
d="M605 -10l-84 205h-323l-84 -205h-109l315 762h80l315 -762h-110zM360 590l-123 -300h245z" />
    <glyph glyph-name="Korea1.35" unicode="B" horiz-adv-x="610" 
d="M75 746h207q46 0 86.5 -10t77 -31.5t58 -61t21.5 -92.5q0 -47 -27 -91t-84 -69q76 -20 121 -71t45 -122q0 -94 -73.5 -151t-172.5 -57h-259v756zM264 652h-84v-232h87q148 0 148 125q0 107 -151 107zM180 84h110q180 0 180 122q0 120 -181 120h-109v-242z" />
    <glyph glyph-name="Korea1.36" unicode="C" horiz-adv-x="710" 
d="M668 711l-38 -93q-82 46 -175 46q-133 0 -218.5 -82t-85.5 -214q0 -137 88 -216.5t226 -79.5q103 0 195 51v-102q-99 -45 -200 -45q-178 0 -296.5 106t-118.5 286q0 178 117 285t296 107q56 0 108.5 -12t77.5 -24z" />
    <glyph glyph-name="Korea1.37" unicode="D" horiz-adv-x="760" 
d="M310 746q193 -1 299 -105.5t106 -272.5q0 -162 -111.5 -270t-303.5 -108h-225v756h235zM310 85q126 0 212.5 75.5t86.5 207.5q0 128 -80 205t-224 77h-124v-565h129z" />
    <glyph glyph-name="Korea1.38" unicode="E" horiz-adv-x="540" 
d="M490 746v-96h-309v-230h297v-95h-297v-240h321v-95h-427v756h415z" />
    <glyph glyph-name="Korea1.39" unicode="F" horiz-adv-x="505" 
d="M470 746v-97h-289v-213h284v-95h-284v-351h-106v756h395z" />
    <glyph glyph-name="Korea1.40" unicode="G" horiz-adv-x="755" 
d="M668 711l-38 -93q-82 46 -175 46q-133 0 -218.5 -82t-85.5 -214q0 -135 85 -215.5t218 -80.5q32 0 64.5 5t49.5 11l16 5v182h-128v95h234v-348q-114 -46 -230 -46q-178 0 -296.5 106t-118.5 286q0 178 117 285t296 107q56 0 108.5 -12t77.5 -24z" />
    <glyph glyph-name="Korea1.41" unicode="H" horiz-adv-x="780" 
d="M705 746v-756h-107v330h-417v-330h-106v756h106v-329h417v329h107z" />
    <glyph glyph-name="Korea1.42" unicode="I" horiz-adv-x="270" 
d="M188 746v-756h-106v756h106z" />
    <glyph glyph-name="Korea1.43" unicode="J" horiz-adv-x="265" 
d="M-40 -201l-30 88q6 -2 28 -2q79 0 103 33q11 14 16 36t6 39.5t1 51.5v701h106v-701q0 -146 -59 -202q-52 -47 -135 -47z" />
    <glyph glyph-name="Korea1.44" unicode="K" horiz-adv-x="675" 
d="M181 746v-756h-106v756h106zM614 746l-309 -358l365 -398h-125l-359 393l304 363h124z" />
    <glyph glyph-name="Korea1.45" unicode="L" horiz-adv-x="500" 
d="M181 746v-659h309v-97h-415v756h106z" />
    <glyph glyph-name="Korea1.46" unicode="M" horiz-adv-x="860" 
d="M785 746v-756h-105v602l-235 -331h-30l-235 331v-602h-105v756h101l254 -346l256 346h99z" />
    <glyph glyph-name="Korea1.47" unicode="N" horiz-adv-x="780" 
d="M705 746v-756h-95l-430 585v-585h-105v756h95l430 -586v586h105z" />
    <glyph glyph-name="Korea1.48" unicode="O" horiz-adv-x="880" 
d="M45 368q0 166 110 279t285 113t285 -113t110 -279t-110 -279t-285 -113t-285 113t-110 279zM151 368q0 -125 81.5 -211t207.5 -86t207.5 86t81.5 211t-81.5 211t-207.5 86t-207.5 -86t-81.5 -211z" />
    <glyph glyph-name="Korea1.49" unicode="P" horiz-adv-x="570" 
d="M181 309v-319h-106v756h244q101 0 166 -57.5t65 -162.5q0 -217 -280 -217h-89zM181 652v-249h125q58 0 96 33t38 92q0 60 -35.5 92t-105.5 32h-118z" />
    <glyph glyph-name="Korea1.50" unicode="Q" horiz-adv-x="880" 
d="M45 368q0 166 110 279t285 113t285 -113t110 -279q0 -135 -75 -238t-202 -138q41 -24 93 -40.5t78 -16.5q43 0 66 7l-77 -97q-159 12 -316 133q-160 13 -258.5 123.5t-98.5 266.5zM151 368q0 -125 81.5 -211t207.5 -86t207.5 86t81.5 211t-81.5 211t-207.5 86t-207.5 -86
t-81.5 -211z" />
    <glyph glyph-name="Korea1.51" unicode="R" horiz-adv-x="610" 
d="M364 354q42 -28 78.5 -79t87.5 -145t80 -140h-124q-31 50 -80 139.5t-78 127.5t-66 53q-23 11 -81 11v-331h-106v756h185q106 0 175.5 -53.5t69.5 -152.5q0 -141 -141 -186zM181 417h50q72 0 98 13q67 30 67 108q0 56 -38.5 86t-113.5 30h-63v-237z" />
    <glyph glyph-name="Korea1.52" unicode="S" horiz-adv-x="470" 
d="M445 692l-37 -91q-70 59 -148 59q-55 0 -86.5 -23.5t-31.5 -61.5q0 -46 38.5 -83.5t139.5 -101.5q36 -24 60.5 -47t47 -67.5t22.5 -97.5q0 -89 -60.5 -143.5t-157.5 -54.5q-104 0 -192 60v130q29 -35 76.5 -65t107.5 -30q24 0 49.5 8t48 30.5t22.5 56.5q0 41 -30.5 77.5
t-63.5 57.5q-129 82 -171.5 131t-42.5 124q0 81 59 138.5t162 57.5q51 0 98 -16t69 -32z" />
    <glyph glyph-name="Korea1.53" unicode="T" horiz-adv-x="610" 
d="M590 746v-94h-232v-662h-106v662h-232v94h570z" />
    <glyph glyph-name="Korea1.54" unicode="U" horiz-adv-x="750" 
d="M375 -24q-41 0 -79 6.5t-81.5 26.5t-75.5 52t-53 88.5t-21 130.5v466h106v-496q0 -78 53 -127.5t151 -49.5t151 49.5t53 127.5v496h106v-466q0 -74 -21 -130.5t-53 -88.5t-75.5 -52t-81.5 -26.5t-79 -6.5z" />
    <glyph glyph-name="Korea1.55" unicode="V" horiz-adv-x="670" 
d="M665 746l-315 -761h-30l-315 761h109l221 -546l221 546h109z" />
    <glyph glyph-name="Korea1.56" unicode="W" horiz-adv-x="1060" 
d="M1055 746l-275 -761h-30l-220 605l-220 -605h-30l-275 761h110l181 -522l184 522h100l184 -522l181 522h110z" />
    <glyph glyph-name="Korea1.57" unicode="X" horiz-adv-x="700" 
d="M10 -10l282 391l-262 365h116l204 -286l205 286h115l-262 -364l282 -392h-116l-224 312l-225 -312h-115z" />
    <glyph glyph-name="Korea1.58" unicode="Y" horiz-adv-x="660" 
d="M655 746l-272 -381v-375h-106v375l-272 381h115l210 -296l210 296h115z" />
    <glyph glyph-name="Korea1.59" unicode="Z" horiz-adv-x="590" 
d="M570 746l-390 -663h385v-93h-555l390 662h-355v94h525z" />
    <glyph glyph-name="Korea1.60" unicode="[" horiz-adv-x="357" 
d="M341 842v-89h-142v-828h142v-88h-246v1005h246z" />
    <glyph glyph-name="Korea1.61" unicode="\" horiz-adv-x="313" 
d="M230 -31l-216 774h78l218 -774h-80z" />
    <glyph glyph-name="Korea1.62" unicode="]" horiz-adv-x="357" 
d="M17 -163v88h142v829h-142v88h245v-1005h-245z" />
    <glyph glyph-name="Korea1.63" unicode="^" horiz-adv-x="522" 
d="M129 325h-100l193 436h78l193 -436h-99l-133 325z" />
    <glyph glyph-name="Korea1.64" unicode="_" horiz-adv-x="537" 
d="M-16 -93h570v-55h-570v55z" />
    <glyph glyph-name="Korea1.65" unicode="`" horiz-adv-x="359" 
d="M177 808l65 -164h-60l-115 164h110z" />
    <glyph glyph-name="Korea1.66" unicode="a" horiz-adv-x="476" 
d="M70 347l-35 71q-4 0 17.5 20.5t64.5 41t92 20.5q78 0 129 -39t51 -119v-257q0 -26 19 -26t52 26v-66q-35 -24 -53.5 -30.5t-41.5 -6.5q-66 0 -77 51q-64 -51 -141 -51q-56 0 -90.5 36.5t-34.5 83.5q0 81 57.5 125t208.5 91v7q0 46 -21 65t-66 19q-66 0 -131 -62zM288 97
v158q-9 -3 -30 -10.5t-30 -11t-26.5 -11t-26 -13t-20.5 -15.5t-17.5 -20t-9.5 -24t-4 -30q0 -31 20.5 -49t51.5 -18q46 0 92 44z" />
    <glyph glyph-name="Korea1.67" unicode="b" horiz-adv-x="545" 
d="M60 10v736h100v-293q57 45 135 45q98 0 156.5 -74t58.5 -182q0 -73 -25.5 -127.5t-66.5 -82t-83 -40t-85 -12.5q-116 0 -190 30zM160 360v-280q31 -11 76 -11q75 0 123.5 41.5t48.5 129.5q0 76 -37.5 122.5t-100.5 46.5q-65 0 -110 -49z" />
    <glyph glyph-name="Korea1.68" unicode="c" horiz-adv-x="485" 
d="M450 466l-34 -81q-52 27 -104 27q-76 0 -125.5 -47t-49.5 -125q0 -86 50.5 -131.5t132.5 -45.5q64 0 120 33v-90q-67 -30 -130 -30q-120 0 -197.5 69.5t-77.5 194.5q0 118 79 189t198 71q37 0 71.5 -8.5t50.5 -17.5z" />
    <glyph glyph-name="Korea1.69" unicode="d" horiz-adv-x="545" 
d="M380 475v271h105v-736q-70 -30 -165 -30q-142 0 -213.5 74t-71.5 191q0 115 69.5 184.5t170.5 69.5q57 0 105 -24zM380 80v305q-40 28 -90 28q-64 0 -108.5 -46t-44.5 -132q0 -44 14.5 -77t34 -49t46 -25.5t42 -11.5t31.5 -2q45 0 75 10z" />
    <glyph glyph-name="Korea1.70" unicode="e" horiz-adv-x="520" 
d="M35 240q0 116 64 188t169 72q96 0 156.5 -70.5t60.5 -188.5v-28h-350q5 -67 45 -106t110 -39q99 0 175 59v-97q-67 -50 -180 -50q-31 0 -62.5 6.5t-66 25t-61 46t-43.5 75t-17 107.5zM138 285h246q-4 57 -34 93t-82 36q-54 0 -88 -37t-42 -92z" />
    <glyph glyph-name="Korea1.71" unicode="f" horiz-adv-x="280" 
d="M326 745v-87q-28 5 -38 5q-66 0 -87 -35t-21 -98v-44h90v-86h-90v-410h-100v410h-70v86h70v34q0 111 47.5 171t122.5 60q43 0 76 -6z" />
    <glyph glyph-name="Korea1.72" unicode="g" horiz-adv-x="483" 
d="M474 488l-15 -75h-77q47 -42 47 -111q0 -30 -8.5 -55t-19 -41.5t-30 -30t-31.5 -20t-34 -12.5t-26 -6.5t-19 -3.5q-39 -5 -58.5 -13.5t-19.5 -26.5q0 -23 29 -35.5t106 -27.5q159 -32 159 -140q0 -75 -66.5 -116.5t-175.5 -41.5q-101 0 -169 41.5t-68 108.5q0 99 131 133
q-54 29 -54 65q0 25 23 44.5t61 28.5q-119 43 -119 160q0 84 60 129.5t163 45.5h211zM372 -116q0 24 -19.5 41.5t-48.5 24.5t-51 10t-39 3q-50 0 -81 -21.5t-31 -54.5q0 -76 135 -76q62 0 98.5 19t36.5 54zM330 311q0 39 -28 68t-66 29q-41 0 -68.5 -29t-27.5 -69
q0 -44 26 -70t71 -26q40 0 66.5 28t26.5 69z" />
    <glyph glyph-name="Korea1.73" unicode="h" horiz-adv-x="535" 
d="M160 746v-322q62 75 150 75q83 0 126.5 -59t43.5 -164v-286h-100v304q0 63 -29.5 94.5t-69.5 31.5q-60 0 -121 -70v-360h-100v756h100z" />
    <glyph glyph-name="Korea1.74" unicode="i" horiz-adv-x="241" 
d="M170 487v-497h-100v497h100zM60 653q0 24 17.5 41.5t42.5 17.5t42.5 -17.5t17.5 -41.5q0 -26 -17.5 -43.5t-42.5 -17.5t-42.5 18t-17.5 43z" />
    <glyph glyph-name="Korea1.75" unicode="j" horiz-adv-x="230" 
d="M-7 -215l-38 78q68 13 90 47q20 32 20 127v449h100v-456q0 -90 -20.5 -142.5t-84.5 -83.5q-33 -18 -67 -19zM55 653q0 24 17.5 41.5t42.5 17.5t42.5 -17.5t17.5 -41.5q0 -26 -17.5 -43.5t-42.5 -17.5t-42.5 18t-17.5 43z" />
    <glyph glyph-name="Korea1.76" unicode="k" horiz-adv-x="519" 
d="M160 746v-756h-100v756h100zM497 486l-209 -240l247 -256h-131l-239 253l210 243h122z" />
    <glyph glyph-name="Korea1.77" unicode="l" horiz-adv-x="240" 
d="M170 746v-756h-100v756h100z" />
    <glyph glyph-name="Korea1.78" unicode="m" horiz-adv-x="820" 
d="M60 487h100v-61q43 38 75 55t69 17q94 0 144 -87q47 47 82 67t77 20q163 0 163 -199v-309h-100v302q0 122 -96 122q-60 0 -108 -61v-363h-100v297q0 60 -18.5 94t-74.5 34q-33 0 -58 -15t-55 -47v-363h-100v497z" />
    <glyph glyph-name="Korea1.79" unicode="n" horiz-adv-x="530" 
d="M60 487h100v-60q31 35 72 53t78 18q59 0 109.5 -42.5t58.5 -124.5q2 -28 2 -51v-290h-100v290q0 69 -23.5 102.5t-76.5 33.5q-32 0 -65 -18t-55 -50v-358h-100v497z" />
    <glyph glyph-name="Korea1.80" unicode="o" horiz-adv-x="600" 
d="M35 238q0 109 77.5 185.5t187.5 76.5t187.5 -76.5t77.5 -185.5t-77.5 -185.5t-187.5 -76.5t-187.5 76.5t-77.5 185.5zM137 238q0 -76 47 -125t116 -49t116 49t47 125t-47 125t-116 49t-116 -49t-47 -125z" />
    <glyph glyph-name="Korea1.81" unicode="p" horiz-adv-x="545" 
d="M60 -265v738q78 27 169 27q134 0 207.5 -70.5t73.5 -194.5q0 -111 -67 -182t-172 -71q-69 0 -111 24v-271h-100zM160 400v-310q33 -28 96 -28q65 0 108.5 47.5t43.5 135.5t-47.5 127.5t-120.5 39.5q-20 0 -40 -3t-30 -6z" />
    <glyph glyph-name="Korea1.82" unicode="q" horiz-adv-x="545" 
d="M485 473v-738h-100v271q-42 -24 -111 -24q-105 0 -172 71t-67 182q0 124 73.5 194.5t207.5 70.5q40 0 82.5 -7t64.5 -13zM385 90v310q-36 12 -80 12q-73 0 -120.5 -39.5t-47.5 -127.5t43.5 -135.5t108.5 -47.5q63 0 96 28z" />
    <glyph glyph-name="Korea1.83" unicode="r" horiz-adv-x="408" 
d="M405 465l-35 -97q-48 37 -85 37q-41 0 -83 -52t-42 -118v-245h-100v497h100v-117q59 128 145 128q53 0 100 -33z" />
    <glyph glyph-name="Korea1.84" unicode="s" horiz-adv-x="400" 
d="M370 454l-30 -78q-77 39 -140 39q-59 0 -59 -43q0 -19 23 -38t68.5 -45.5t67.5 -43.5q75 -58 75 -129q0 -48 -42.5 -92t-129.5 -44q-88 0 -173 40v107q45 -32 92 -48t73 -16q33 0 53 14t20 37q0 25 -31.5 49t-81.5 53.5t-75 53.5q-45 45 -45 103q0 52 43 89.5t117 37.5
q86 0 175 -46z" />
    <glyph glyph-name="Korea1.85" unicode="t" horiz-adv-x="380" 
d="M230 -22q-75 3 -110 44q-23 26 -29 59.5t-6 93.5v224h-85v10l185 186v-110h150v-86h-150v-214q0 -28 0.5 -41t4 -32t10 -27.5t19.5 -15t33 -6.5q22 0 49 8t43 16l16 8v-90q0 -1 -18.5 -7.5t-51 -13t-60.5 -6.5z" />
    <glyph glyph-name="Korea1.86" unicode="u" horiz-adv-x="530" 
d="M470 -11h-100v60q-31 -35 -72 -53t-78 -18q-59 0 -109.5 42.5t-58.5 124.5q-2 28 -2 51v290h100v-290q0 -69 23.5 -102.5t76.5 -33.5q32 0 65 18t55 50v358h100v-497z" />
    <glyph glyph-name="Korea1.87" unicode="v" horiz-adv-x="490" 
d="M380 486h108l-223 -498h-40l-223 498h108l135 -321z" />
    <glyph glyph-name="Korea1.88" unicode="w" horiz-adv-x="771" 
d="M768 486l-208 -498h-30l-145 332l-145 -332h-30l-212 498h112l120 -301l120 301h70l120 -301l120 301h108z" />
    <glyph glyph-name="Korea1.89" unicode="x" horiz-adv-x="520" 
d="M500 486l-182 -242l192 -254h-116l-134 179l-134 -179h-116l192 254l-182 242h116l124 -167l124 167h116z" />
    <glyph glyph-name="Korea1.90" unicode="y" horiz-adv-x="480" 
d="M478 486l-328 -716h-108l150 329l-190 387h110l132 -275l126 275h108z" />
    <glyph glyph-name="Korea1.91" unicode="z" horiz-adv-x="440" 
d="M420 486l-245 -408h240v-88h-405l245 407h-225v89h390z" />
    <glyph glyph-name="Korea1.92" unicode="{" horiz-adv-x="371" 
d="M314 854h33v-83h-18q-25 0 -39.5 -1.5t-26 -11.5t-16 -18.5t-7.5 -36t-3.5 -48.5t-0.5 -72q0 -64 -7.5 -106.5t-25 -68t-35 -38.5t-47.5 -27q68 -29 91.5 -82t23.5 -162q0 -47 0.5 -72t4 -49t8.5 -33.5t17 -17.5t25.5 -9.5t37.5 -1.5h18v-84h-33q-28 0 -47 2.5
t-44.5 13.5t-41 30.5t-26.5 58t-11 91.5q0 161 -18.5 214.5t-94.5 57.5v86q69 4 90.5 49.5t21.5 158.5q0 71 9 120.5t22 76.5t37.5 41.5t46 18t56.5 3.5z" />
    <glyph glyph-name="Korea1.93" unicode="|" horiz-adv-x="289" 
d="M103 -157v1023h84v-1023h-84z" />
    <glyph glyph-name="Korea1.94" unicode="}" horiz-adv-x="371" 
d="M25 854h33q35 0 56.5 -3.5t45.5 -18t37 -41.5t22 -76.5t9 -120.5q0 -112 21.5 -158t90.5 -50v-86q-76 -4 -94.5 -57.5t-18.5 -214.5q0 -66 -15 -108.5t-43 -60t-52 -22.5t-59 -5h-33v84h18q24 0 37.5 1.5t25.5 9.5t17 17.5t8.5 33.5t4 49t0.5 72q0 109 23 162t91 82
q-30 14 -47 27t-34.5 38.5t-25 68t-7.5 106.5q0 51 -0.5 72t-3.5 48.5t-7.5 36t-16 18.5t-26 11.5t-39.5 1.5h-18v83z" />
    <glyph glyph-name="Korea1.95" unicode="~" horiz-adv-x="654" 
d="M47 289v104q63 66 152 66q58 0 149 -40q36 -16 49.5 -21.5t32 -10t35.5 -4.5q65 0 143 74v-108q-69 -63 -150 -63q-51 0 -141.5 38.5t-124.5 38.5q-29 0 -58 -13t-44.5 -25t-42.5 -36z" />
    <glyph glyph-name="Korea1.96" horiz-adv-x="0" 
 />
    <glyph glyph-name="Korea1.97" horiz-adv-x="0" 
 />
    <glyph glyph-name="Korea1.98" horiz-adv-x="0" 
 />
    <glyph glyph-name="Korea1.99" horiz-adv-x="0" 
 />
    <glyph glyph-name="Korea1.100" horiz-adv-x="0" 
 />
    <glyph glyph-name="Korea1.101" unicode="&#x3000;" 
 />
    <glyph glyph-name="Korea1.102" unicode="&#x3001;" horiz-adv-x="339" 
d="M324 -38l-79 -84q-85 96 -208 187l53 62q74 -40 121.5 -74t112.5 -91z" />
    <glyph glyph-name="Korea1.103" unicode="&#x3002;" horiz-adv-x="339" 
d="M42 43q0 50 36.5 84t85.5 34q51 0 87 -34t36 -84q0 -49 -36 -82.5t-87 -33.5q-50 0 -86 33.5t-36 82.5zM108 43q0 -25 15.5 -40.5t40.5 -15.5q26 0 42 15.5t16 40.5q0 26 -16.5 42.5t-41.5 16.5t-40.5 -16.5t-15.5 -42.5z" />
    <glyph glyph-name="Korea1.104" horiz-adv-x="0" 
 />
    <glyph glyph-name="Korea1.105" unicode="&#x2025;" horiz-adv-x="624" 
d="M90 355q0 28 19.5 47.5t47.5 19.5q29 0 48.5 -19.5t19.5 -47.5q0 -29 -19.5 -48.5t-48.5 -19.5q-28 0 -47.5 20t-19.5 48zM398 355q0 28 19.5 47.5t47.5 19.5q29 0 48.5 -19.5t19.5 -47.5q0 -29 -19.5 -48.5t-48.5 -19.5q-28 0 -47.5 20t-19.5 48z" />
    <glyph glyph-name="Korea1.106" unicode="&#x2026;" horiz-adv-x="950" 
d="M90 355q0 28 19.5 47.5t47.5 19.5q29 0 48.5 -19.5t19.5 -47.5q0 -29 -19.5 -48.5t-48.5 -19.5q-28 0 -47.5 20t-19.5 48zM407 355q0 28 19.5 47.5t47.5 19.5q29 0 48.5 -19.5t19.5 -47.5q0 -29 -20 -48.5t-48 -19.5t-47.5 20t-19.5 48zM724 355q0 28 19.5 47.5
t47.5 19.5q29 0 48.5 -19.5t19.5 -47.5q0 -29 -19.5 -48.5t-48.5 -19.5q-28 0 -47.5 20t-19.5 48z" />
    <glyph glyph-name="Korea1.107" unicode="&#xa8;" horiz-adv-x="528" 
d="M63 755q0 28 19.5 47.5t47.5 19.5q29 0 48.5 -19.5t19.5 -47.5q0 -29 -20 -48.5t-48 -19.5t-47.5 20t-19.5 48zM323 755q0 28 19.5 47.5t47.5 19.5q29 0 48.5 -19.5t19.5 -47.5q0 -29 -20 -48.5t-48 -19.5t-47.5 20t-19.5 48z" />
    <glyph glyph-name="Korea1.108" unicode="&#x3003;" horiz-adv-x="950" 
d="M281 317l123 238h113l-158 -238h-78zM434 317l132 238h113l-167 -238h-78z" />
    <glyph glyph-name="Korea1.109" horiz-adv-x="0" 
 />
    <glyph glyph-name="Korea1.110" horiz-adv-x="0" 
 />
    <glyph glyph-name="Korea1.111" horiz-adv-x="0" 
 />
    <glyph glyph-name="Korea1.112" unicode="&#xff3c;" horiz-adv-x="1000" 
d="M569 -31l-217 774h79l217 -774h-79z" />
    <glyph glyph-name="Korea1.113" unicode="&#xff5e;" horiz-adv-x="1000" 
d="M218 289v104q65 66 153 66q60 0 148 -40q82 -36 118 -36q66 0 144 74v-108q-73 -63 -152 -63q-51 0 -141.5 38.5t-124.5 38.5q-29 0 -58 -12.5t-45 -25.5t-42 -36z" />
    <glyph glyph-name="Korea1.114" unicode="&#x2018;" horiz-adv-x="296" 
d="M170 637h-100l94 207h62z" />
    <glyph glyph-name="Korea1.115" unicode="&#x2019;" horiz-adv-x="296" 
d="M126 825h100l-95 -207h-61z" />
    <glyph glyph-name="Korea1.116" unicode="&#x201c;" horiz-adv-x="455" 
d="M329 637h-100l95 207h61zM170 637h-100l95 207h61z" />
    <glyph glyph-name="Korea1.117" unicode="&#x201d;" horiz-adv-x="455" 
d="M127 825h99l-94 -207h-62zM286 825h99l-94 -207h-62z" />
    <glyph glyph-name="Korea1.118" unicode="&#x3014;" horiz-adv-x="495" 
d="M104 675l237 171l49 -58l-210 -149v-620l210 -143l-45 -60l-241 168v691z" />
    <glyph glyph-name="Korea1.119" unicode="&#x3015;" horiz-adv-x="495" 
d="M152 846l238 -171v-691l-242 -168l-44 60l209 143v620l-209 149z" />
    <glyph glyph-name="Korea1.120" unicode="&#x3008;" horiz-adv-x="495" 
d="M162 317l254 -468l-61 -29l-277 497l277 499l61 -32z" />
    <glyph glyph-name="Korea1.121" unicode="&#x3009;" horiz-adv-x="495" 
d="M78 -151l254 468l-254 467l61 32l277 -499l-277 -497z" />
    <glyph glyph-name="Korea1.122" unicode="&#x300a;" horiz-adv-x="495" 
d="M470 786l-228 -455l228 -451l-57 -32l-247 483l247 485zM328 786l-229 -455l229 -451l-57 -32l-248 483l248 485z" />
    <glyph glyph-name="Korea1.123" unicode="&#x300b;" horiz-adv-x="495" 
d="M251 331l-228 455l58 30l247 -485l-247 -483l-58 31zM395 331l-229 455l57 30l247 -485l-247 -483l-57 31z" />
    <glyph glyph-name="Korea1.124" unicode="&#x300c;" horiz-adv-x="495" 
d="M160 397h-75v419h324v-67h-249v-352z" />
    <glyph glyph-name="Korea1.125" unicode="&#x300d;" horiz-adv-x="495" 
d="M335 286h74v-420h-324v67h250v353z" />
    <glyph glyph-name="Korea1.126" unicode="&#x300e;" horiz-adv-x="495" 
d="M73 824h349v-144h-193v-282h-156v426zM369 726v51h-244v-332h53v281h191z" />
    <glyph glyph-name="Korea1.127" unicode="&#x300f;" horiz-adv-x="495" 
d="M422 -138h-349v145h193v281h156v-426zM126 -39v-51h244v332h-53v-281h-191z" />
    <glyph glyph-name="Korea1.128" unicode="&#x3010;" horiz-adv-x="495" 
d="M97 -149v973h301v-18q-83 -70 -138 -196.5t-55 -271.5t55 -273t138 -195v-19h-301z" />
    <glyph glyph-name="Korea1.129" unicode="&#x3011;" horiz-adv-x="495" 
d="M97 824h301v-973h-301v19q84 68 138.5 191t54.5 267q0 146 -55 277.5t-138 200.5v18z" />
    <glyph glyph-name="Korea1.130" unicode="&#xb1;" horiz-adv-x="650" 
d="M272 408h-225v91h225v207h104v-207h226v-91h-226v-213h-104v213zM580 29h-513v89h513v-89z" />
    <glyph glyph-name="Korea1.131" unicode="&#xd7;" horiz-adv-x="573" 
d="M291 291l-142 -156l-72 78l143 156l-146 161l72 79l146 -161l142 157l72 -79l-143 -157l149 -163l-72 -78z" />
    <glyph glyph-name="Korea1.132" unicode="&#xf7;" horiz-adv-x="573" 
d="M520 326h-467v94h467v-94zM354 660v-136h-133v136h133zM354 221v-136h-133v136h133z" />
    <glyph glyph-name="Korea1.133" unicode="&#x2260;" horiz-adv-x="950" 
d="M670 699l-64 -129h212v-90h-256l-87 -171h343v-91h-386l-108 -198l-91 44l80 154h-181v91h225l85 171h-310v90h355l83 169z" />
    <glyph glyph-name="Korea1.134" unicode="&#x2264;" horiz-adv-x="950" 
d="M817 48h-686v91h686v-91zM773 216l-638 243l636 238l30 -77l-445 -162l451 -166z" />
    <glyph glyph-name="Korea1.135" unicode="&#x2265;" horiz-adv-x="950" 
d="M817 48h-686v91h686v-91zM813 459l-638 -243l-34 76l451 166l-446 162l31 77z" />
    <glyph glyph-name="Korea1.136" unicode="&#x221e;" horiz-adv-x="950" 
d="M782 395q0 51 -35 87.5t-85 36.5q-48 0 -83 -35.5t-52 -90.5q12 -47 52 -87t83 -40q49 0 84.5 37.5t35.5 91.5zM283 266q49 0 86.5 38.5t51.5 90.5q-14 54 -51 89t-87 35q-48 0 -81.5 -36t-33.5 -88t33.5 -90.5t81.5 -38.5zM870 395q0 -81 -62.5 -141t-147.5 -60
q-58 0 -106.5 27t-79.5 72q-67 -99 -188 -99q-84 0 -146 58.5t-62 142.5q0 81 61 141.5t147 60.5q58 0 107 -27.5t79 -73.5q73 101 188 101q83 0 146.5 -60t63.5 -142z" />
    <glyph glyph-name="Korea1.137" unicode="&#x2234;" horiz-adv-x="950" 
d="M411 584q0 34 22 56.5t57 22.5q33 0 55 -23t22 -56t-22 -55t-55 -22q-34 0 -56.5 22t-22.5 55zM653 168q0 32 22 54.5t57 22.5q34 0 56.5 -22.5t22.5 -54.5q0 -34 -22.5 -55.5t-56.5 -21.5q-35 0 -57 22t-22 55zM168 169q0 32 22 54.5t55 22.5q35 0 57.5 -22.5
t22.5 -54.5q0 -34 -22.5 -55.5t-57.5 -21.5q-33 0 -55 22t-22 55z" />
    <glyph glyph-name="Korea1.138" unicode="&#xb0;" horiz-adv-x="388" 
d="M194 834q51 0 88 -32t37 -86q0 -52 -37 -84.5t-88 -32.5q-50 0 -86 32.5t-36 84.5q0 54 36 86t86 32zM194 761q-18 0 -30 -13.5t-12 -31.5t12 -31t30 -13q20 0 32.5 13t12.5 31t-12.5 31.5t-32.5 13.5z" />
    <glyph glyph-name="Korea1.139" unicode="&#x2032;" horiz-adv-x="354" 
d="M62 542l78 283h128l-124 -283h-82z" />
    <glyph glyph-name="Korea1.140" unicode="&#x2033;" horiz-adv-x="593" 
d="M62 542l78 283h128l-124 -283h-82zM244 542l78 283h128l-124 -283h-82z" />
    <glyph glyph-name="Korea1.141" unicode="&#x2103;" horiz-adv-x="976" 
d="M300 726q0 -52 -35 -87.5t-87 -35.5t-87.5 35.5t-35.5 87.5t35.5 87t87.5 35t87 -35t35 -87zM243 726q0 27 -19 46.5t-46 19.5q-26 0 -45.5 -20t-19.5 -46q0 -28 19.5 -47.5t45.5 -19.5q27 0 46 19.5t19 47.5zM920 706l-38 -95q-80 45 -168 45q-134 0 -221 -79.5
t-87 -210.5q0 -136 91.5 -213.5t228.5 -77.5q94 0 186 51v-104q-99 -45 -200 -45q-178 0 -296.5 104.5t-118.5 284.5q0 177 117.5 283t296.5 106q56 0 108.5 -12.5t76.5 -24.5z" />
    <glyph glyph-name="Korea1.142" unicode="&#x212b;" horiz-adv-x="950" 
d="M128 0l290 739h114l290 -739h-121l-71 176h-310l-74 -176h-118zM352 267h246l-123 328zM364 886q0 46 32 73t78 27t78.5 -27t32.5 -73t-32.5 -73t-78.5 -27t-78 27t-32 73zM434 887q0 -20 11.5 -31t28.5 -11t28.5 11t11.5 31q0 16 -11.5 27.5t-28.5 11.5q-16 0 -28 -11.5
t-12 -27.5z" />
    <glyph glyph-name="Korea1.143" unicode="&#xffe0;" horiz-adv-x="1000" 
d="M616 755l31 111h79l-34 -119q32 -7 62 -17t44 -17l14 -7l-40 -95q-48 29 -108 39l-159 -561q49 -14 112 -14q95 0 186 51v-104q-98 -45 -199 -45q-51 0 -126 15l-35 -122h-79l43 148q-102 45 -160.5 134.5t-58.5 213.5q0 177 118 283t297 106h13zM298 366
q0 -84 36.5 -147t100.5 -100l152 537q-128 -7 -208.5 -85t-80.5 -205z" />
    <glyph glyph-name="Korea1.144" unicode="&#xffe1;" horiz-adv-x="1000" 
d="M285 342h-88v91h75q-5 37 -5 76q0 60 14.5 110.5t44.5 91.5t82 64t122 23q95 0 166.5 -56t75.5 -140h-129q-4 58 -32.5 92t-74.5 34q-156 0 -156 -224q0 -38 3 -71h282v-91h-269q5 -28 5 -64q-2 -121 -42 -196h198q152 0 152 92h123q-1 -51 -16 -86t-36.5 -54t-59.5 -29
t-68.5 -12t-81.5 -2h-403v92h83q39 90 39 195q0 39 -4 64z" />
    <glyph glyph-name="Korea1.145" unicode="&#xffe5;" horiz-adv-x="1000" 
d="M447 196h-222v91h222v80l-28 37h-194v92h129l-182 251h126l180 -251h42l182 251h126l-182 -251h127v-92h-192l-27 -37v-80h219v-91h-219v-205h-107v205z" />
    <glyph glyph-name="Korea1.146" unicode="&#x2642;" horiz-adv-x="950" 
d="M656 268q0 -103 -76 -180t-192 -77q-114 0 -191 74t-77 183q0 111 78 184.5t190 73.5q88 0 162 -53l147 150l-112 9l6 69l219 -21l20 -213l-71 -15l-11 117l-145 -147q53 -69 53 -154zM579 265q0 79 -53.5 134.5t-137.5 55.5q-81 0 -136.5 -51t-55.5 -139
q0 -76 55 -129.5t137 -53.5t136.5 52.5t54.5 130.5z" />
    <glyph glyph-name="Korea1.147" unicode="&#x2640;" horiz-adv-x="950" 
d="M743 491q0 -93 -64 -167.5t-164 -88.5v-88h173v-64h-173v-144h-76v144h-176v64h176v88q-100 11 -166 83t-66 173q0 110 77.5 183.5t189.5 73.5q113 0 191 -74.5t78 -182.5zM665 487q0 79 -53.5 135t-137.5 56q-80 0 -136.5 -51.5t-56.5 -139.5q0 -75 56 -129t137 -54
t136 53t55 130z" />
    <glyph glyph-name="Korea1.148" unicode="&#x2220;" horiz-adv-x="950" 
d="M820 580l-500 -500h553v-80h-760l642 643z" />
    <glyph glyph-name="Korea1.149" unicode="&#x22a5;" horiz-adv-x="950" 
d="M159 0v79h292v536h97v-536h290v-79h-679z" />
    <glyph glyph-name="Korea1.150" unicode="&#x2312;" horiz-adv-x="950" 
d="M254 -1h-96q27 144 115.5 233t225.5 89q141 0 228.5 -92.5t112.5 -229.5h-96q-25 111 -85.5 177t-159.5 66t-163.5 -68.5t-81.5 -174.5z" />
    <glyph glyph-name="Korea1.151" unicode="&#x2202;" horiz-adv-x="950" 
d="M456 124q133 0 177 225q-76 16 -141 16q-69 0 -107.5 -32.5t-38.5 -96.5q0 -50 32.5 -81t77.5 -31zM413 602l-87 66q82 88 199 88q118 0 181 -79.5t63 -197.5q0 -52 -14 -122t-37 -126q-40 -93 -105 -151t-151 -58q-102 0 -167.5 63.5t-65.5 156.5q0 107 76 163.5
t184 56.5q93 0 164 -14q4 19 4 48q0 64 -36 113.5t-93 49.5q-64 0 -115 -57z" />
    <glyph glyph-name="Korea1.152" unicode="&#x2207;" horiz-adv-x="950" 
d="M769 592h-546l269 -432zM888 646l-422 -644l-415 644h837z" />
    <glyph glyph-name="Korea1.153" unicode="&#x2261;" horiz-adv-x="950" 
d="M818 492h-686v84h686v-84zM818 324h-686v86h686v-86zM818 158h-686v86h686v-86z" />
    <glyph glyph-name="Korea1.154" unicode="&#x2252;" horiz-adv-x="950" 
d="M331 622q0 -27 -20.5 -46.5t-47.5 -19.5q-29 0 -50 19.5t-21 46.5q0 26 21.5 45.5t49.5 19.5q26 0 47 -20t21 -45zM764 115q0 -26 -20.5 -46t-48.5 -20t-49 20t-21 46t21 45.5t49 19.5t48.5 -19.5t20.5 -45.5zM818 327v-90h-686v90h686zM818 500v-91h-686v91h686z" />
    <glyph glyph-name="Korea1.155" unicode="&#xa7;" horiz-adv-x="436" 
d="M364 734l-35 -92q-40 20 -87 29q-40 8 -61 -1.5t-17 -35.5q5 -27 76 -74q47 -31 73 -50.5t49.5 -52t23.5 -65.5q0 -76 -66 -119q73 -57 73 -126q0 -64 -48 -106t-143 -42q-83 0 -154 36l30 89q80 -31 124 -31q40 0 62 14t22 38q0 12 -6.5 24t-14.5 20.5t-23 20t-24.5 17
t-27 15.5t-21.5 12q-26 15 -39 24t-32 26t-27 37.5t-8 46.5q0 62 84 112q-45 32 -68.5 62.5t-23.5 68.5q0 66 47.5 102.5t131.5 30.5q73 -5 130 -30zM279 391q0 22 -35 47q-31 -2 -52.5 -17.5t-21.5 -31.5q0 -29 54 -55q23 8 39 25t16 32z" />
    <glyph glyph-name="Korea1.156" unicode="&#x203b;" horiz-adv-x="950" 
d="M219 554l62 65l201 -201l201 201l62 -64l-200 -201l200 -199l-64 -64l-199 200l-199 -199l-63 64l199 198zM410 95q0 28 19.5 47.5t47.5 19.5q29 0 48.5 -19.5t19.5 -47.5q0 -29 -19.5 -48.5t-48.5 -19.5q-28 0 -47.5 20t-19.5 48zM410 624q0 28 19.5 47.5t47.5 19.5
q29 0 48.5 -19.5t19.5 -47.5t-19.5 -48t-48.5 -20q-28 0 -47.5 20t-19.5 48zM153 355q0 28 19.5 47.5t47.5 19.5q29 0 48.5 -19.5t19.5 -47.5q0 -29 -20 -48.5t-48 -19.5t-47.5 20t-19.5 48zM670 355q0 28 19.5 47.5t47.5 19.5q29 0 48.5 -19.5t19.5 -47.5
q0 -29 -19.5 -48.5t-48.5 -19.5q-28 0 -47.5 20t-19.5 48z" />
    <glyph glyph-name="Korea1.157" unicode="&#x2606;" horiz-adv-x="950" 
d="M571 473h310l-251 -187l104 -303l-264 195l-255 -189l97 302l-243 182h304l97 291zM560 303l160 116h-196l-52 169l-52 -169h-195l157 -115l-65 -176l152 116l160 -121z" />
    <glyph glyph-name="Korea1.158" unicode="&#x2605;" horiz-adv-x="950" 
d="M571 473h310l-251 -187l104 -303l-264 195l-255 -189l97 302l-243 182h304l97 291z" />
    <glyph glyph-name="Korea1.159" unicode="&#x25cb;" horiz-adv-x="950" 
d="M151 352q0 -133 96 -230.5t228 -97.5q133 0 229 97.5t96 230.5q0 134 -96 231t-229 97t-228.5 -97t-95.5 -231zM862 352q0 -159 -114 -273.5t-273 -114.5q-158 0 -272.5 115t-114.5 273q0 159 114 273t273 114q160 0 273.5 -113.5t113.5 -273.5z" />
    <glyph glyph-name="Korea1.160" unicode="&#x25cf;" horiz-adv-x="950" 
d="M862 352q0 -159 -114 -273.5t-273 -114.5q-158 0 -272.5 115t-114.5 273q0 159 114 273t273 114q160 0 273.5 -113.5t113.5 -273.5z" />
    <glyph glyph-name="Korea1.161" unicode="&#x25ce;" horiz-adv-x="950" 
d="M151 352q0 -133 96 -230.5t228 -97.5q133 0 229 97.5t96 230.5q0 134 -96 231t-229 97t-228.5 -97t-95.5 -231zM862 352q0 -159 -114 -273.5t-273 -114.5q-158 0 -272.5 115t-114.5 273q0 159 114 273t273 114q160 0 273.5 -113.5t113.5 -273.5zM295 352
q0 -75 52.5 -129.5t127.5 -54.5t128.5 54.5t53.5 129.5t-53.5 129.5t-128.5 54.5t-127.5 -54.5t-52.5 -129.5zM714 352q0 -99 -70 -169.5t-169 -70.5q-98 0 -169 71t-71 169q0 99 70.5 169t169.5 70t169 -70t70 -169z" />
    <glyph glyph-name="Korea1.162" unicode="&#x25c7;" horiz-adv-x="950" 
d="M921 352l-446 -449l-445 448l444 450zM118 355l357 -362l355 362l-356 363z" />
    <glyph glyph-name="Korea1.163" unicode="&#x25c6;" horiz-adv-x="950" 
d="M921 352l-446 -449l-445 448l444 450z" />
    <glyph glyph-name="Korea1.164" unicode="&#x25a1;" horiz-adv-x="950" 
d="M857 -32h-765v768h765v-768zM798 28v649h-645v-649h645z" />
    <glyph glyph-name="Korea1.165" unicode="&#x25a0;" horiz-adv-x="950" 
d="M857 -31h-765v767h765v-767z" />
    <glyph glyph-name="Korea1.166" unicode="&#x25b3;" horiz-adv-x="950" 
d="M480 710l397 -620h-804zM189 153h570l-279 437z" />
    <glyph glyph-name="Korea1.167" unicode="&#x25b2;" horiz-adv-x="950" 
d="M877 91h-804l405 617z" />
    <glyph glyph-name="Korea1.168" unicode="&#x25bd;" horiz-adv-x="950" 
d="M877 623l-397 -620l-407 620h804zM759 560h-570l291 -437z" />
    <glyph glyph-name="Korea1.169" unicode="&#x25bc;" horiz-adv-x="950" 
d="M877 623l-404 -619l-400 619h804z" />
    <glyph glyph-name="Korea1.170" unicode="&#x2192;" horiz-adv-x="950" 
d="M903 367l-291 -190l-16 17l131 152h-685v42h687l-132 143l11 18z" />
    <glyph glyph-name="Korea1.171" unicode="&#x2190;" horiz-adv-x="950" 
d="M211 346l133 -152l-15 -17l-292 190l294 184l12 -20l-133 -143h688v-42h-687z" />
    <glyph glyph-name="Korea1.172" unicode="&#x2191;" horiz-adv-x="950" 
d="M452 663l-145 -133l-23 14l191 306l191 -308l-22 -14l-147 138v-822h-45v819z" />
    <glyph glyph-name="Korea1.173" unicode="&#x2193;" horiz-adv-x="950" 
d="M307 171l145 -134v820h45v-823l147 139l22 -15l-191 -307l-191 305z" />
    <glyph glyph-name="Korea1.174" unicode="&#x2194;" horiz-adv-x="950" 
d="M760 346h-575l105 -152l-15 -12l-241 181l238 183l13 -15l-100 -143h575l-98 143l12 15l238 -183l-241 -181l-14 12z" />
    <glyph glyph-name="Korea1.175" unicode="&#x3013;" horiz-adv-x="950" 
d="M237 502h474v-64h-474v64zM237 278h474v-66h-474v66z" />
    <glyph glyph-name="Korea1.176" unicode="&#xab;" horiz-adv-x="950" 
d="M905 619l-410 -257l403 -254l-55 -68l-503 323l510 323zM662 621l-417 -259l407 -254l-55 -68l-504 323l511 323z" />
    <glyph glyph-name="Korea1.177" unicode="&#xbb;" horiz-adv-x="950" 
d="M752 362l-414 259l55 65l512 -323l-503 -323l-55 68zM503 362l-410 257l57 67l509 -323l-503 -323l-56 68z" />
    <glyph glyph-name="Korea1.178" unicode="&#x221a;" horiz-adv-x="950" 
d="M920 877l-468 -939h-84l-158 353h-131v63h238l119 -276l403 799h81z" />
    <glyph glyph-name="Korea1.179" unicode="&#x223d;" horiz-adv-x="950" 
d="M607 488q65 0 110.5 -46.5t63.5 -107.5l-80 -26q-10 37 -34.5 69t-54.5 32t-80 -37q-80 -47 -144 -47t-112 50t-59 120l82 15q6 -42 32 -75.5t58 -33.5q40 0 98 36q28 18 39.5 25t36 16.5t44.5 9.5z" />
    <glyph glyph-name="Korea1.180" unicode="&#x221d;" horiz-adv-x="950" 
d="M329 268q51 0 88 34t69 94q-30 57 -64 90.5t-85 33.5q-53 0 -85.5 -38t-32.5 -91q0 -47 31.5 -85t78.5 -38zM827 307l28 -78q-57 -37 -132 -37q-55 0 -105 35.5t-80 85.5q-39 -49 -94 -85t-109 -36q-88 0 -143.5 55t-55.5 143q0 91 57.5 149.5t148.5 58.5q112 0 194 -121
q29 50 80.5 85t108.5 35q71 0 130 -35l-28 -73q-62 30 -104 30q-44 0 -80 -35t-55 -89l1 2q19 -57 55 -93t83 -36q48 0 100 39z" />
    <glyph glyph-name="Korea1.181" unicode="&#x2235;" horiz-adv-x="950" 
d="M411 171q0 32 22.5 54t56.5 22q33 0 55 -22t22 -54q0 -33 -22 -56.5t-55 -23.5q-35 0 -57 23t-22 57zM653 587q0 33 22 54.5t57 21.5q34 0 56.5 -21.5t22.5 -54.5t-22.5 -55.5t-56.5 -22.5q-35 0 -57 22.5t-22 55.5zM168 586q0 33 22 55t55 22q34 0 57 -22t23 -55
t-22.5 -55.5t-57.5 -22.5q-33 0 -55 22.5t-22 55.5z" />
    <glyph glyph-name="Korea1.182" unicode="&#x222b;" horiz-adv-x="950" 
d="M571 598l-69 -485q-4 -29 -11.5 -50.5t-25.5 -44.5t-53 -35.5t-86 -12.5l5 76q34 1 54 17t24 40l70 497q27 163 192 149l-8 -76q-36 2 -60 -18t-32 -57z" />
    <glyph glyph-name="Korea1.183" unicode="&#x222c;" horiz-adv-x="950" 
d="M456 598l-68 -485q-5 -30 -13 -50.5t-26 -44t-53 -36t-86 -12.5l4 76q73 3 80 56l71 498q9 68 54 112.5t138 36.5l-9 -76q-36 2 -60 -18t-32 -57zM688 598l-69 -485q-4 -23 -9 -40t-17 -37.5t-30 -33.5t-49 -22.5t-72 -9.5l5 76q70 3 79 57l71 497q21 164 191 149l-9 -76
q-36 2 -59.5 -18t-31.5 -57z" />
    <glyph glyph-name="Korea1.184" unicode="&#x2208;" horiz-adv-x="950" 
d="M827 312h-594q9 -63 57 -105.5t110 -42.5h429v-85h-425q-118 0 -196.5 77t-78.5 196q0 118 73 196t196 78h426v-86h-421q-64 0 -111.5 -41t-57.5 -106h593v-81z" />
    <glyph glyph-name="Korea1.185" unicode="&#x220b;" horiz-adv-x="950" 
d="M741 310h-588v82h589q-9 63 -57 104t-113 41h-418v88h422q117 0 193 -78t78 -196q2 -120 -73.5 -196.5t-201.5 -76.5h-422v86h425q67 0 111 40.5t55 105.5z" />
    <glyph glyph-name="Korea1.186" unicode="&#x2286;" horiz-adv-x="950" 
d="M147 121h688v-87h-688v87zM826 599h-412q-74 0 -121.5 -39t-47.5 -115q0 -74 45 -117t120 -43h416v-83h-423q-107 0 -183.5 67t-76.5 172t74.5 173t185.5 68h423v-83z" />
    <glyph glyph-name="Korea1.187" unicode="&#x2287;" horiz-adv-x="950" 
d="M153 121h688v-87h-688v87zM574 599h-412v83h423q111 0 185.5 -68t74.5 -173t-76.5 -172t-183.5 -67h-423v83h416q75 0 120 43t45 117q0 76 -47.5 115t-121.5 39z" />
    <glyph glyph-name="Korea1.188" unicode="&#x2282;" horiz-adv-x="950" 
d="M255 355q0 -85 42.5 -139t123.5 -54h423v-84h-420q-119 0 -194.5 77t-75.5 199q0 124 81 197t199 73h408v-88h-406q-77 0 -129 -50t-52 -131z" />
    <glyph glyph-name="Korea1.189" unicode="&#x2283;" horiz-adv-x="950" 
d="M740 355q0 80 -49 130.5t-128 50.5h-407v88h409q117 0 198 -73t81 -197q0 -122 -73.5 -199t-198.5 -77h-418v84h422q75 0 119.5 55t44.5 138z" />
    <glyph glyph-name="Korea1.190" unicode="&#x222a;" horiz-adv-x="950" 
d="M498 100q79 0 126 49.5t47 133.5v416h97v-417q0 -116 -74 -191t-195 -75q-128 0 -198 75t-70 190v422h97v-420q0 -81 44.5 -132t125.5 -51z" />
    <glyph glyph-name="Korea1.191" unicode="&#x2229;" horiz-adv-x="950" 
d="M498 620q-81 0 -125.5 -52t-44.5 -133v-421h-97v422q0 116 70 190.5t198 74.5q124 0 196.5 -75t72.5 -190v-419h-97v418q0 80 -46 132.5t-127 52.5z" />
    <glyph glyph-name="Korea1.192" unicode="&#x2227;" horiz-adv-x="950" 
d="M180 91l321 635l317 -638l-89 -40l-229 459l-232 -467z" />
    <glyph glyph-name="Korea1.193" unicode="&#x2228;" horiz-adv-x="950" 
d="M180 637l88 52l232 -467l229 459l89 -43l-317 -634z" />
    <glyph glyph-name="Korea1.194" unicode="&#xffe2;" horiz-adv-x="1000" 
d="M10 179h980v-388h-89v300h-891v88z" />
    <glyph glyph-name="Korea1.195" unicode="&#x21d2;" horiz-adv-x="950" 
d="M55 340h704l73 72l-73 74h-704v45h660l-137 136l31 29l285 -286l-286 -287l-32 33l143 139h-664v45z" />
    <glyph glyph-name="Korea1.196" unicode="&#x21d4;" horiz-adv-x="950" 
d="M756 295h-561l145 -138l-33 -29l-287 285l286 286l34 -26l-141 -142h554l-141 138l32 28l286 -287l-286 -286l-33 30zM158 340h637l75 72l-74 74h-641l-74 -73z" />
    <glyph glyph-name="Korea1.197" unicode="&#x2200;" horiz-adv-x="950" 
d="M421 0l-283 759h104l75 -202h317l74 202h104l-283 -759h-108zM607 478h-263l130 -350z" />
    <glyph glyph-name="Korea1.198" unicode="&#x2203;" horiz-adv-x="950" 
d="M216 0v85h405v269h-373v84h373v238h-394v84h507v-760h-518z" />
    <glyph glyph-name="Korea1.199" unicode="&#xb4;" horiz-adv-x="279" 
d="M47 623l60 214h130l-105 -214h-85z" />
    <glyph glyph-name="Korea1.200" horiz-adv-x="0" 
 />
    <glyph glyph-name="Korea1.201" unicode="&#x2c7;" horiz-adv-x="395" 
d="M142 645l-138 166h118l72 -88l73 88h119l-138 -166h-106z" />
    <glyph glyph-name="Korea1.202" unicode="&#x2d8;" horiz-adv-x="366" 
d="M253 796h106q-4 -81 -53.5 -123.5t-123.5 -42.5q-79 0 -125 44.5t-51 121.5h106q5 -84 70 -84q33 0 51 22.5t20 61.5z" />
    <glyph glyph-name="Korea1.203" unicode="&#x2dd;" horiz-adv-x="408" 
d="M9 611l60 213h130l-105 -213h-85zM212 611l61 213h130l-105 -213h-86z" />
    <glyph glyph-name="Korea1.204" unicode="&#x2da;" horiz-adv-x="310" 
d="M40 705q0 46 32 73t78 27q47 0 79 -27t32 -73t-32 -73t-79 -27q-46 0 -78 27t-32 73zM110 706q0 -19 11.5 -30.5t28.5 -11.5t28.5 11t11.5 31q0 16 -12 28t-28 12t-28 -12t-12 -28z" />
    <glyph glyph-name="Korea1.205" unicode="&#x2d9;" horiz-adv-x="204" 
d="M169 771v-135h-136v135h136z" />
    <glyph glyph-name="Korea1.206" unicode="&#xb8;" horiz-adv-x="362" 
d="M107 27l107 -10l-21 -69q40 -7 62.5 -33.5t20.5 -68.5q-2 -51 -47.5 -78.5t-98.5 -27.5q-34 0 -60 2v83q43 -4 71.5 5t28.5 25q0 13 -1 18t-8 9.5t-22 4.5l-65 -1z" />
    <glyph glyph-name="Korea1.207" unicode="&#x2db;" horiz-adv-x="234" 
d="M127 72l50 -68q-90 -36 -79 -89q3 -14 21 -25t41 -11h65v-81h-35q-25 0 -51.5 3.5t-59.5 12.5t-55 31.5t-23 54.5q-5 112 126 172z" />
    <glyph glyph-name="Korea1.208" unicode="&#xa1;" horiz-adv-x="950" 
d="M404 710q0 29 19.5 48.5t47.5 19.5q29 0 48.5 -20t19.5 -48t-19.5 -47.5t-48.5 -19.5t-48 19.5t-19 47.5zM401 -87l29 636h80l30 -636h-139z" />
    <glyph glyph-name="Korea1.209" unicode="&#xbf;" horiz-adv-x="950" 
d="M506 -2q36 0 72 14t54 28l19 15l32 -85q-92 -59 -192 -59q-94 0 -158 52.5t-64 164.5q0 43 20 85.5t45.5 72t54.5 69t42 73.5q17 43 19 123h106q0 -95 -29.5 -159.5t-81.5 -129.5q-61 -74 -61 -143q0 -49 29 -83q38 -38 93 -38zM566 713q0 -29 -19 -48t-48 -19
t-48.5 19.5t-19.5 47.5q0 29 19.5 48.5t48.5 19.5q28 0 47.5 -19.5t19.5 -48.5z" />
    <glyph glyph-name="Korea1.210" horiz-adv-x="0" 
 />
    <glyph glyph-name="Korea1.211" unicode="&#x222e;" horiz-adv-x="950" 
d="M514 224l-15 -102q-4 -30 -11 -49.5t-24.5 -42.5t-52.5 -34.5t-87 -11.5v74q69 0 78 55l18 123q-53 19 -84 63.5t-31 97.5q0 63 40.5 106.5t117.5 52.5l6 36q10 65 57 108.5t138 35.5l-1 -77q-37 4 -63 -14.5t-34 -55.5q-1 -8 -2.5 -19.5t-1.5 -16.5q66 -16 100 -63
t31 -110q-6 -62 -54 -106t-125 -50zM600 385q2 29 -10.5 55t-37.5 37l-28 -181q32 7 53 32t23 57zM396 397q-2 -54 33 -84l25 166q-54 -18 -58 -82z" />
    <glyph glyph-name="Korea1.212" unicode="&#x2211;" horiz-adv-x="950" 
d="M792 0h-654v26l338 357l-336 334v59h652v-62h-491l301 -298l-301 -319h491v-97z" />
    <glyph glyph-name="Korea1.213" unicode="&#x220f;" horiz-adv-x="950" 
d="M833 631h-135v-631h-103v631h-184v-631h-103v631h-133v79h658v-79z" />
    <glyph glyph-name="Korea1.214" unicode="&#xa4;" horiz-adv-x="950" 
d="M207 378q0 82 41 142q-58 62 -59 63l79 79l60 -62q66 43 148 43q79 0 147 -42l59 60l78 -79l-59 -60q45 -66 45 -144q0 -80 -48 -151l63 -62l-78 -78l-65 65q-64 -39 -142 -39q-80 0 -143 41l-66 -66l-79 78l64 64q-45 67 -45 148zM320 378q0 -74 46 -120.5t110 -46.5
q65 0 110.5 46.5t45.5 120.5q0 79 -45 123t-111 44t-111 -44t-45 -123z" />
    <glyph glyph-name="Korea1.215" unicode="&#x2109;" horiz-adv-x="848" 
d="M300 726q0 -52 -35 -87.5t-87 -35.5t-87.5 35.5t-35.5 87.5t35.5 87t87.5 35t87 -35t35 -87zM243 726q0 27 -19 46.5t-46 19.5q-26 0 -45.5 -20t-19.5 -46q0 -28 19.5 -47.5t45.5 -19.5q27 0 46 19.5t19 47.5zM793 747v-97h-286v-213h283v-95h-283v-351h-107v756h393z
" />
    <glyph glyph-name="Korea1.216" unicode="&#x2030;" horiz-adv-x="950" 
d="M583 731l-421 -730h-96l423 730h94zM318 559q0 -65 -33.5 -106.5t-101.5 -41.5t-102 39.5t-34 108.5q0 70 34.5 112t101.5 42q70 0 102.5 -43.5t32.5 -110.5zM238 559q0 87 -55 87t-55 -87q0 -81 55 -81q31 0 43 20.5t12 60.5zM598 158q0 -67 -34.5 -108.5t-102.5 -41.5
q-69 0 -103 39.5t-34 110.5q0 67 35 109t102 42q70 0 103.5 -43t33.5 -108zM516 158q0 85 -55 85t-55 -85q0 -84 55 -84t55 84zM902 158q0 -67 -34 -108.5t-103 -41.5q-68 0 -101.5 39.5t-33.5 110.5q0 67 34.5 109t100.5 42q70 0 103.5 -43t33.5 -108zM822 158q0 85 -57 85
q-54 0 -54 -85q0 -84 54 -84q57 0 57 84z" />
    <glyph glyph-name="Korea1.217" unicode="&#x25c1;" horiz-adv-x="950" 
d="M766 -43l-621 393l621 410v-803zM701 76v568l-435 -292z" />
    <glyph glyph-name="Korea1.218" unicode="&#x25c0;" horiz-adv-x="950" 
d="M765 -43l-620 393l620 410v-803z" />
    <glyph glyph-name="Korea1.219" unicode="&#x25b7;" horiz-adv-x="950" 
d="M805 350l-621 -393v803zM249 644v-568l436 276z" />
    <glyph glyph-name="Korea1.220" unicode="&#x25b6;" horiz-adv-x="950" 
d="M804 350l-620 -393v803z" />
    <glyph glyph-name="Korea1.221" unicode="&#x2664;" horiz-adv-x="950" 
d="M417 -23h116q-27 86 -31 153q-2 56 29 56q12 0 38 -14q70 -42 107 -42q46 0 65 37t19 85q0 42 -23 91.5t-49 84.5t-70 87q-94 103 -144 177q-45 -68 -141 -177q-44 -52 -70 -87t-49 -84.5t-23 -91.5q0 -48 19 -85t65 -37q40 0 106 42q25 14 38 14q32 0 29 -56
q-4 -65 -31 -153zM607 -81h-265v31q42 76 52 163q-66 -41 -119 -41q-67 0 -105.5 51t-38.5 123q0 43 12 83.5t38 82t48 70t62 74.5q10 11 39 43t42.5 47.5t35 42t37.5 50t30 48.5q61 -101 184 -231q42 -48 64 -76t48 -69t37.5 -81t11.5 -84q0 -71 -39 -122.5t-105 -51.5
q-48 0 -119 41q10 -85 50 -163v-31z" />
    <glyph glyph-name="Korea1.222" unicode="&#x2660;" horiz-adv-x="950" 
d="M607 -81h-265v31q42 76 52 163q-59 -41 -119 -41q-67 0 -105.5 51t-38.5 123q0 43 12 83.5t38 82t48 70t62 74.5q10 11 39 43t42.5 47.5t35 42t37.5 50t30 48.5q61 -101 184 -231q42 -48 64 -76t48 -69t37.5 -81t11.5 -84q0 -71 -39 -122.5t-105 -51.5q-53 0 -119 41
q10 -85 50 -163v-31z" />
    <glyph glyph-name="Korea1.223" unicode="&#x2661;" horiz-adv-x="950" 
d="M761 534q0 58 -33 98.5t-93 40.5q-22 0 -41.5 -7t-32.5 -15.5t-28 -26t-21.5 -27.5t-19.5 -31.5t-17 -27.5q-14 25 -24.5 41.5t-31 41.5t-45 38.5t-51.5 13.5q-57 0 -95.5 -35t-38.5 -101q0 -31 9 -65.5t19.5 -62.5t35.5 -68t38.5 -61t48 -64.5t45.5 -56.5t49.5 -57
t41.5 -48q53 57 92.5 105t89 116.5t76.5 135t27 123.5zM823 536q0 -211 -349 -560q-55 58 -91 98.5t-89.5 108t-85.5 121.5t-56.5 119.5t-24.5 120.5q0 87 52 135.5t133 48.5q56 0 97.5 -29t64.5 -69q38 47 74.5 72.5t87.5 25.5q90 0 138.5 -51t48.5 -141z" />
    <glyph glyph-name="Korea1.224" unicode="&#x2665;" horiz-adv-x="950" 
d="M823 536q0 -211 -349 -560q-55 58 -91 98.5t-89.5 108t-85.5 121.5t-56.5 119.5t-24.5 120.5q0 87 52 135.5t133 48.5q56 0 97.5 -29t64.5 -69q38 47 74.5 72.5t87.5 25.5q90 0 138.5 -51t48.5 -141z" />
    <glyph glyph-name="Korea1.225" unicode="&#x2667;" horiz-adv-x="950" 
d="M405 -12h140q-15 32 -25.5 84.5t-10.5 90.5q0 18 6.5 31.5t14.5 15.5q25 4 47 -16q79 -75 136 -75q56 0 85.5 39t29.5 96q0 55 -31 93.5t-83 38.5q-40 0 -64.5 -6t-66.5 -24q-18 -13 -40 -1.5t-22 33.5q0 6 2 12.5t4 11t7.5 12.5t7 10t8.5 10l7 9q59 72 59 141
q0 55 -39.5 86t-102.5 31q-56 0 -97 -28.5t-41 -88.5q0 -62 81 -171q13 -17 13 -33q0 -22 -18 -35t-40 -2q-61 33 -137 33q-50 0 -81.5 -39t-31.5 -93q0 -57 29.5 -96t84.5 -39q54 0 138 78q19 17 46 13q22 -5 22 -41q0 -77 -37 -181zM604 -25v-29h-258v27q45 83 50 179
q-16 -11 -37 -33q-47 -51 -124 -51q-75 0 -123 53.5t-48 132.5q0 73 47.5 126.5t122.5 53.5q71 0 134 -32q6 -4 7 2q0 5 -4 10q-90 107 -90 180q0 75 56.5 119.5t136.5 44.5q84 0 139.5 -45.5t55.5 -118.5q0 -77 -84 -176q-5 -7 -5.5 -11t3 -4t8.5 2q51 29 124 29
q77 0 124.5 -53t47.5 -127q0 -79 -48.5 -132.5t-124.5 -53.5q-74 0 -122 51q-23 24 -36 32q9 -99 48 -176z" />
    <glyph glyph-name="Korea1.226" unicode="&#x2663;" horiz-adv-x="950" 
d="M604 -25v-29h-258v27q45 83 50 179q-16 -11 -37 -33q-47 -51 -124 -51q-75 0 -123 53.5t-48 132.5q0 73 47.5 126.5t122.5 53.5q76 0 134 -33v1q6 -4 7 2q0 5 -4 10v-1q-90 104 -90 181q0 75 56.5 119.5t136.5 44.5q84 0 139.5 -45.5t55.5 -118.5q0 -77 -84 -176
q-5 -7 -5.5 -11t3 -4t8.5 2q51 29 124 29q77 0 124.5 -53t47.5 -127q0 -79 -48.5 -132.5t-124.5 -53.5q-74 0 -122 51q-23 24 -36 32q9 -99 48 -176z" />
    <glyph glyph-name="Korea1.227" horiz-adv-x="0" 
 />
    <glyph glyph-name="Korea1.228" unicode="&#x25c8;" horiz-adv-x="950" 
d="M704 355l-233 -233l-233 233l233 234zM921 352l-446 -449l-445 448l444 450zM118 355l357 -362l355 362l-356 363z" />
    <glyph glyph-name="Korea1.229" unicode="&#x25a3;" horiz-adv-x="950" 
d="M672 151h-397v399h397v-399zM857 -32h-765v768h765v-768zM798 28v649h-645v-649h645z" />
    <glyph glyph-name="Korea1.230" unicode="&#x25d0;" horiz-adv-x="950" 
d="M479 680v-656q132 2 226.5 99t94.5 229t-94.5 229t-226.5 99zM862 352q0 -159 -114 -273.5t-273 -114.5q-158 0 -272.5 115t-114.5 273q0 159 114 273t273 114q160 0 273.5 -113.5t113.5 -273.5z" />
    <glyph glyph-name="Korea1.231" unicode="&#x25d1;" horiz-adv-x="950" 
d="M470 24v656q-131 -2 -225.5 -99t-94.5 -229q0 -131 94.5 -228.5t225.5 -99.5zM88 352q0 160 113.5 273.5t272.5 113.5q160 0 274 -113.5t114 -273.5q0 -159 -114.5 -273.5t-273.5 -114.5t-272.5 114.5t-113.5 273.5z" />
    <glyph glyph-name="Korea1.232" unicode="&#x2592;" horiz-adv-x="950" 
d="M520 -29h-91v93h91v-93zM653 -29v93h91v-93h-91zM632 64v-93h-92v93h92zM298 64v-93h-91v93h91zM184 64v-93h-92v93h92zM407 64v-93h-89v93h89zM764 -29v93h93v-93h-93zM520 84h-91v90h91v-90zM653 84v90h91v-90h-91zM632 174v-90h-92v90h92zM298 174v-90h-91v90h91z
M184 174v-90h-92v90h92zM407 174v-90h-89v90h89zM764 84v90h93v-90h-93zM520 194h-91v89h91v-89zM653 194v89h91v-89h-91zM632 283v-89h-92v89h92zM298 283v-89h-91v89h91zM184 283v-89h-92v89h92zM407 283v-89h-89v89h89zM764 194v89h93v-89h-93zM520 305h-91v92h91v-92z
M653 305v92h91v-92h-91zM632 397v-92h-92v92h92zM298 397v-92h-91v92h91zM184 397v-92h-92v92h92zM407 397v-92h-89v92h89zM764 305v92h93v-92h-93zM520 419h-91v88h91v-88zM653 419v88h91v-88h-91zM632 507v-88h-92v88h92zM298 507v-88h-91v88h91zM184 507v-88h-92v88h92z
M407 507v-88h-89v88h89zM764 419v88h93v-88h-93zM520 528h-91v91h91v-91zM653 528v91h91v-91h-91zM632 619v-91h-92v91h92zM298 619v-91h-91v91h91zM184 619v-91h-92v91h92zM407 619v-91h-89v91h89zM764 528v91h93v-91h-93zM520 639h-91v96h91v-96zM653 639v96h91v-96h-91z
M632 735v-96h-92v96h92zM298 735v-96h-91v96h91zM184 735v-96h-92v96h92zM407 735v-96h-89v96h89zM764 639v96h93v-96h-93z" />
    <glyph glyph-name="Korea1.233" unicode="&#x25a4;" horiz-adv-x="950" 
d="M92 736h765v-766h-765v766zM147 150v-123h655v123h-655zM147 328v-124h655v124h-655zM147 505v-124h655v124h-655zM147 683v-124h655v124h-655z" />
    <glyph glyph-name="Korea1.234" unicode="&#x25a5;" horiz-adv-x="950" 
d="M92 -30v766h765v-766h-765zM678 23h124v660h-124v-660zM501 23h123v660h-123v-660zM324 23h122v660h-122v-660zM147 23h123v660h-123v-660z" />
    <glyph glyph-name="Korea1.235" unicode="&#x25a8;" horiz-adv-x="950" 
d="M92 736h765v-766h-765v766zM802 23v83l-81 -83h81zM802 180v189l-344 -346h190zM802 448v196l-613 -621h189zM147 60l616 624h-195l-421 -424v-200zM147 337l341 347h-190l-151 -157v-190zM147 600l81 84h-81v-84z" />
    <glyph glyph-name="Korea1.236" unicode="&#x25a7;" horiz-adv-x="950" 
d="M857 -30h-765v766h765v-766zM802 600v83h-81zM802 338v188l-154 157h-190zM802 62v196l-424 425h-189zM763 23l-616 623v-199l421 -424h195zM488 23l-341 347v-191l151 -156h190zM228 23l-81 83v-83h81z" />
    <glyph glyph-name="Korea1.237" unicode="&#x25a6;" horiz-adv-x="950" 
d="M92 736h765v-766h-765v766zM501 328v-124h123v124h-123zM501 505v-124h123v124h-123zM324 328v-124h122v124h-122zM324 505v-124h122v124h-122zM501 150v-127h123v127h-123zM679 328v-124h123v124h-123zM324 150v-127h122v127h-122zM679 505v-124h123v124h-123zM147 328
v-124h122v124h-122zM624 559v124h-123v-124h123zM679 150v-127h123v127h-123zM147 505v-124h122v124h-122zM446 559v124h-122v-124h122zM147 150v-127h122v127h-122zM802 559v124h-123v-124h123zM147 683v-124h122v124h-122z" />
    <glyph glyph-name="Korea1.238" unicode="&#x25a9;" horiz-adv-x="950" 
d="M857 -30h-765v766h765v-766zM240 353l99 -99l98 99l-98 99zM377 213l95 -96l99 100l-96 97zM571 489l-99 99l-95 -95l98 -101zM515 353l95 -97l97 97l-97 96zM299 493l-94 95l-58 -61v-80l54 -56zM147 260v-81l58 -61l94 95l-98 101zM512 79l55 -56h81l57 58l-95 96z
M802 448v78l-58 59l-94 -94l97 -99zM378 23l56 56l-95 96l-97 -96l55 -56h81zM147 60l22 23l-22 24v-47zM802 600v44l-22 -21zM802 62v44l-22 -23zM742 45l-21 -22h41zM227 23l-18 20l-20 -20h38zM209 663l18 20h-38zM147 338l15 15l-15 16v-31zM787 353l15 -15v31zM458 683
l13 -16l16 16h-29zM458 23h29l-16 16zM650 215l94 -95l58 60v78l-55 55zM742 662l21 21h-43zM648 683h-81l-55 -55l98 -99l95 96zM242 628l97 -96l95 97l-56 54h-81zM147 646v-47l22 25z" />
    <glyph glyph-name="Korea1.239" unicode="&#x2668;" horiz-adv-x="950" 
d="M662 328q0 -44 -36.5 -113.5t-42.5 -109.5h-14q-12 31 -9 69q2 25 14 80.5t12 86.5q0 40 -18 103q-19 74 -19 112q0 34 29.5 95t35.5 88h16q11 -24 8 -59q-1 -17 -8.5 -62.5t-7.5 -69.5q0 -35 19 -107q21 -69 21 -113zM544 341q0 -41 -16.5 -82.5t-40.5 -85.5t-33 -75
h-16q-11 46 -7 75q3 21 17 75.5t14 85.5q0 38 -21 105q-22 77 -22 112q0 44 32.5 120t34.5 114l18 -1q21 -39 19 -86q-1 -26 -11.5 -71.5t-10.5 -70.5q0 -30 21 -103q22 -70 22 -112zM409 328q0 -49 -35 -118.5t-38 -104.5h-16q-17 30 -15 70q2 25 15 78t13 83q0 34 -16 104
q-16 72 -16 116q0 30 29 91t32 93h16q9 -23 7 -59q-1 -22 -8 -65t-7 -66q0 -49 20 -114q19 -74 19 -108zM855 176q0 -63 -40.5 -106.5t-105.5 -63.5t-121 -27.5t-113 -7.5q-43 0 -88 4t-99.5 17t-95.5 33t-69 56t-28 82q0 34 21.5 64t56 50.5t67.5 34t65 21.5l5 -19
q-50 -20 -95 -56t-45 -74q0 -30 21 -51.5t50 -32.5t74 -17.5t76.5 -7.5t74.5 -1q44 0 91 4.5t103.5 16t92 38t35.5 63.5q0 54 -113 110l10 18q67 -19 118.5 -56t51.5 -92z" />
    <glyph glyph-name="Korea1.240" unicode="&#x260f;" horiz-adv-x="950" 
d="M794 38h-637q-45 0 -45 37q0 8 9 55q17 87 42 132q15 30 58 76q3 4 18 20t23 26.5t15 23.5q36 57 31 129l-4 51q-18 1 -30 -8.5t-15 -26.5q-1 -13 9 -39q6 -20 6 -30q2 -34 -49 -58q-49 -22 -121 -32q-28 -3 -43.5 19t-13.5 58q8 100 98 161q108 72 331 72q222 0 329 -72
q90 -61 98 -161q2 -36 -13 -58t-43 -19q-72 10 -121 32q-52 24 -50 58q0 13 7 30q10 26 9 39q-3 17 -15.5 26.5t-30.5 8.5l-4 -51q-5 -69 31 -129q12 -20 57 -70q40 -43 58 -76q25 -48 42 -132q1 -7 3 -19.5t3.5 -21.5t1.5 -14q0 -37 -44 -37zM176 78h598q17 0 19 7.5
t-2 27.5q-14 88 -40 133q-20 36 -58 76q-28 29 -54 66q-32 55 -32 115q0 61 3 100q1 11 5 17t16 5q48 -4 74.5 -30.5t23.5 -54.5q-1 -13 -11 -31q-6 -12 -6 -15q0 -15 30 -32q51 -25 98 -28q13 -2 20 8t5 29q-20 109 -144 160q-92 38 -246 38q-153 0 -245 -38
q-124 -50 -145 -160q-2 -19 5 -29t20 -8q49 4 98 28q30 16 30 32q0 5 -5 15q-10 18 -11 31q-4 28 23 54.5t75 30.5q11 1 15 -5t5 -17q3 -39 3 -100q0 -63 -32 -115q-18 -26 -53 -66q-41 -43 -58 -76q-26 -43 -40 -133q-5 -20 -2.5 -27.5t18.5 -7.5zM475 108
q-69 0 -119.5 44.5t-50.5 117.5q0 71 49.5 116.5t120.5 45.5t120.5 -45.5t49.5 -116.5q0 -73 -50.5 -117.5t-119.5 -44.5zM475 402q-56 0 -96 -37t-40 -95q0 -55 40 -92.5t96 -37.5t96 37.5t40 92.5q0 58 -40 95t-96 37zM570 603v-66q0 -35 -50 -35h-95q-48 0 -48 34v73
q65 -12 103 -12q36 0 90 6zM539 545v31q-32 -5 -60 -5q-31 0 -73 8v-30q0 -27 27 -27h80q15 0 20.5 5t5.5 18z" />
    <glyph glyph-name="Korea1.241" unicode="&#x260e;" horiz-adv-x="950" 
d="M475 704q221 0 329 -72q89 -60 97 -161q2 -36 -13 -58t-43 -19q-69 9 -121 32q-52 25 -50 58q0 10 8 30q9 25 9 39q0 15 -14.5 25t-32.5 10l-3 -51q-4 -69 29 -125q12 -22 58 -74q53 -55 70 -101q13 -42 31 -113q7 -42 7 -44q0 -42 -31 -42h-660q-32 0 -32 42q0 20 8 44
q7 21 17.5 62t13.5 51q14 39 70 101q43 49 56 74q35 58 31 125l-4 51q-18 1 -30.5 -8.5t-14.5 -26.5q-2 -11 9 -39q6 -20 6 -30q2 -35 -49 -58q-45 -22 -121 -32q-28 -3 -43.5 19t-13.5 58q8 100 98 161q108 72 329 72zM643 270q0 74 -50 118t-120 44q-71 0 -120 -45.5
t-49 -116.5q0 -73 50 -117.5t119 -44.5q72 0 121 45.5t49 116.5zM571 537v66q-54 -6 -90 -6q-38 0 -103 12v-73q0 -34 48 -34h95q50 0 50 35z" />
    <glyph glyph-name="Korea1.242" unicode="&#x261c;" horiz-adv-x="950" 
d="M198 409q-26 0 -42.5 1t-37.5 5t-31.5 14.5t-10.5 27.5q0 50 125 50q93 0 138 1h133q83 0 120 -2q51 -4 112 -41q31 -17 46 -17h15v30h110v-248h-111v22h-12q-77 -59 -276 -59q-56 0 -94 5q-34 5 -47 28t3 40q-19 6 -26 25t3 35q-29 9 -29 35q0 28 34 42q-24 1 -64 3
t-58 3zM378 433q14 27 38 47q-174 -2 -214 -4q-89 -3 -89 -17q0 -9 17 -12t72 -5q10 0 76 -4.5t100 -4.5zM822 261v187h-24v-187h24zM455 378q-44 7 -69 7q-44 0 -61 -13q-11 -8 6 -16l10 -3q24 -4 74 -4q41 0 56 6q5 4 1 12t-17 11zM510 248q0 5 -2 7t-14 3.5t-37 0.5
l-80 -1q-10 0 -11 -10t10 -15q23 -7 60 -7q74 0 74 22zM494 307q0 12 -35 12h-99q-7 0 -10.5 -5t-1.5 -11.5t9 -9.5q14 -4 93 -4q12 0 28 5t16 13zM765 418h-15q-32 0 -60 19q-20 14 -51 27.5t-50 14.5q-85 4 -111 1q-35 -15 -47.5 -26.5t-31.5 -41.5q6 -1 10.5 -1.5t9 0
t7.5 1t6 2.5t5 2.5t4.5 3.5t3.5 3.5t4 4.5l3 3q13 14 27 14q4 0 6.5 -6t1.5 -12q24 -6 54 9q9 5 16.5 3.5t8.5 -6.5q0 -12 -10 -32q4 -8 24 -18t37 -14q22 -6 44 -9q42 -8 42 -18q0 -22 -97 -3q-65 21 -86 62q-16 -5 -45 0q34 -11 34 -38q0 -15 -6 -25q25 -13 25 -34
q0 -14 -7 -21q23 -11 23 -31q0 -15 -7 -27q152 13 207 59h21v134z" />
    <glyph glyph-name="Korea1.243" unicode="&#x261e;" horiz-adv-x="950" 
d="M753 409q-19 -1 -59.5 -3t-63.5 -3q34 -13 34 -42q0 -26 -29 -35q10 -16 3 -35t-25 -25q15 -17 2 -40t-47 -28q-38 -5 -94 -5q-198 0 -275 59h-13v-22h-110v248h109v-30h16q16 0 45 17q61 37 113 41q37 2 119 2h134q45 -1 138 -1q125 0 125 -50q0 -17 -10.5 -27.5
t-32 -14.5t-37.5 -5t-42 -1zM201 418h-16v-134h22q54 -46 206 -59q-7 12 -7 27q0 19 24 31q-7 7 -7 21q0 20 24 34q-6 10 -6 25q0 26 32 37q-25 -5 -42 1q-23 -41 -87 -62q-97 -21 -97 3q0 9 39 17q3 1 4 1q19 3 44 9q16 4 36.5 14t24.5 18q-10 20 -10 32q1 5 8.5 6.5
t15.5 -3.5q31 -15 55 -9q-1 6 1.5 12t5.5 6q15 0 28 -14q20 -25 53 -19q-19 30 -31.5 41.5t-48.5 26.5q-26 3 -110 -1q-19 -1 -50.5 -14.5t-50.5 -27.5q-30 -19 -60 -19zM572 433q26 0 55 1.5t64.5 4t57.5 3.5q55 2 72 5t17 12q0 14 -89 17q-39 2 -215 4q27 -20 38 -47z
M496 378q-13 -3 -18 -11t1 -12q17 -6 56 -6q52 0 74 4q19 3 20 13q0 3 -3 6q-17 13 -61 13q-25 0 -69 -7zM129 448v-187h23v187h-23zM440 248q0 -22 74 -22q39 0 60 7q8 3 10 9t-1 11t-10 5l-79 1q-25 1 -37.5 -0.5t-14.5 -3.5t-2 -7zM457 307q0 -8 16 -13t28 -5q79 0 93 4
q10 5 9 15.5t-12 10.5h-99q-35 0 -35 -12z" />
    <glyph glyph-name="Korea1.244" unicode="&#xb6;" horiz-adv-x="950" 
d="M480 788h181v-914h-70v837h-56v-837h-68v463q-93 5 -148 69t-55 159q0 92 59 157.5t157 65.5z" />
    <glyph glyph-name="Korea1.245" unicode="&#x2020;" horiz-adv-x="950" 
d="M519 9h-87v494h-139v68h139v163h87v-163h139v-68h-139v-494z" />
    <glyph glyph-name="Korea1.246" unicode="&#x2021;" horiz-adv-x="950" 
d="M519 9h-87v321h-139v71h139v111h-139v69h139v153h87v-153h139v-69h-139v-111h139v-71h-139v-321z" />
    <glyph glyph-name="Korea1.247" unicode="&#x2195;" horiz-adv-x="950" 
d="M497 701v-690l142 102l17 -11l-182 -239l-180 239l15 11l144 -102v690l-144 -103l-15 12l180 239l182 -239l-17 -12z" />
    <glyph glyph-name="Korea1.248" unicode="&#x2197;" horiz-adv-x="950" 
d="M727 391l-7 202l-579 -578l-31 29l580 581l-206 8l-5 27l358 82l-83 -352z" />
    <glyph glyph-name="Korea1.249" unicode="&#x2199;" horiz-adv-x="950" 
d="M218 374l8 -200l579 577l31 -29l-580 -581l206 -9l5 -25l-358 -84l83 352z" />
    <glyph glyph-name="Korea1.250" unicode="&#x2196;" horiz-adv-x="950" 
d="M226 593l-8 -202l-26 -1l-83 352l358 -82l-5 -27l-206 -8l580 -581l-31 -29z" />
    <glyph glyph-name="Korea1.251" unicode="&#x2198;" horiz-adv-x="950" 
d="M720 174l7 200l27 1l83 -352l-358 84l5 25l206 9l-580 581l31 29z" />
    <glyph glyph-name="Korea1.252" unicode="&#x266d;" horiz-adv-x="950" 
d="M663 318q0 -71 -51 -138t-125 -108.5t-149 -52.5v683h56v-293q58 56 128 56q60 0 100.5 -44.5t40.5 -102.5zM554 327q0 35 -16 57.5t-48 22.5q-49 0 -96 -61v-265q72 39 116 104t44 142z" />
    <glyph glyph-name="Korea1.253" unicode="&#x2669;" horiz-adv-x="950" 
d="M501 752h43v-618q0 -70 -63 -135q-48 -51 -109 -45q-27 4 -41 23.5t-8 52.5q8 41 53 77.5t95 44.5q18 3 24 8.5t6 22.5v569z" />
    <glyph glyph-name="Korea1.254" unicode="&#x266a;" horiz-adv-x="950" 
d="M440 566v-432q0 -68 -63 -135q-50 -51 -109 -45q-27 4 -41.5 23.5t-8.5 52.5q8 40 53.5 77t95.5 45q18 3 24 8.5t6 22.5v569h33q47 -75 126 -134q35 -27 55 -44t49 -46.5t45 -61t20 -65.5q9 -84 -48 -155t-141 -123l-20 18q138 124 130 212q-3 31 -24.5 60.5t-39 43.5
t-54.5 41q-50 33 -88 68z" />
    <glyph glyph-name="Korea1.255" unicode="&#x266c;" horiz-adv-x="950" 
d="M723 509l-419 -93v-272q0 -75 -59 -136q-51 -54 -109 -45q-27 4 -41 24t-8 53q9 40 54 76t94 45q18 3 24.5 9t6.5 23v487l495 108v-556q0 -24 -13 -56t-35 -57q-44 -56 -101 -56q-27 0 -48.5 14t-22.5 39q-3 58 50.5 101t104.5 47q27 2 27 19v226zM304 525l419 98v44
l-419 -96v-46z" />
    <glyph glyph-name="Korea1.256" unicode="&#x327f;" horiz-adv-x="1112" 
d="M336 304h-269v34q0 207 142 348.5t352 141.5q109 0 206 -45.5t167.5 -131.5t97.5 -198h-60q-42 150 -158.5 236t-252.5 86q-97 0 -178.5 -35.5t-135.5 -94.5t-85.5 -133t-36.5 -153h211v-55zM561 -103q163 0 287.5 117t140.5 290h-211v55h268v-25q0 -104 -39 -196
t-105 -156.5t-155 -101.5t-186 -37q-174 0 -306 100.5t-174 265.5h63q37 -130 150 -221t267 -91zM402 96v502h98v-180q73 79 164 180h107l-213 -234q194 -196 264 -268h-109l-213 214v-214h-98z" />
    <glyph glyph-name="Korea1.257" unicode="&#x321c;" horiz-adv-x="1141" 
d="M210 775h82q-133 -242 -133 -445q0 -201 133 -445h-82q-140 224 -140 445q0 226 140 445zM849 775h83q139 -217 139 -445q0 -223 -139 -445h-83q133 241 133 445q0 206 -133 445zM796 631v-69h-173q-7 -29 -26 -59q33 -8 66 -30.5t52.5 -41.5t54 -57t49.5 -53h-95
q-14 13 -40.5 40t-41.5 41.5t-37 30t-41 22.5q-77 -86 -202 -144l-43 54q163 83 209 197h-183v69h451zM265 191v68h612v-68h-265v-215h-82v215h-265z" />
    <glyph glyph-name="Korea1.258" unicode="&#x2116;" horiz-adv-x="1223" 
d="M547 -9h-129l-246 594v-594h-100v756h127l246 -602v602h102v-756zM1041 273q0 -140 -58 -215t-165 -75q-106 0 -164 74.5t-58 215.5q0 118 60 199t162 81t162.5 -79.5t60.5 -200.5zM938 273q0 83 -30 143t-90 60q-61 0 -91 -60t-30 -143q0 -96 29.5 -154.5t91.5 -58.5
q61 0 90.5 58.5t29.5 154.5zM1040 48q0 27 18 47.5t43 20.5q26 0 44.5 -20.5t18.5 -47.5q0 -28 -18.5 -46.5t-44.5 -18.5t-43.5 18.5t-17.5 46.5z" />
    <glyph glyph-name="Korea1.259" unicode="&#x33c7;" horiz-adv-x="1005" 
d="M415 140l67 -69q-67 -97 -171 -97q-121 0 -190 109t-69 281q0 175 71.5 283t184.5 110q87 0 157 -65l-50 -74q-54 48 -108 48q-67 0 -108 -86.5t-41 -215.5q0 -126 44 -213t109 -87q57 0 104 76zM674 474q-43 0 -68.5 -55.5t-25.5 -154.5q0 -53 8 -96.5t30.5 -75.5
t55.5 -32q35 0 58 32t31.5 75.5t8.5 96.5q0 210 -98 210zM674 555q91 0 145.5 -77t54.5 -214q0 -133 -54.5 -209t-145.5 -76q-68 0 -113.5 40.5t-64 102.5t-18.5 142q0 138 52 214.5t144 76.5zM862 -53v106h98v-106h-98z" />
    <glyph glyph-name="Korea1.260" unicode="&#x2122;" horiz-adv-x="1091" 
d="M922 747h57v-457h-92v313l-133 -149h-20l-134 148v-312h-91v457h55l180 -195zM452 676h-161v-386h-94v386h-158v71h413v-71z" />
    <glyph glyph-name="Korea1.261" unicode="&#x33c2;" horiz-adv-x="1059" 
d="M938 -55v102h88v-102h-88zM387 -55v102h87v-102h-87zM90 407l-46 68q75 72 161 69q73 -1 111.5 -46t38.5 -124v-267q0 -72 11 -116h-102v31q-42 -44 -98 -44q-59 0 -102 46.5t-43 123.5q0 32 9.5 63.5t29.5 60t56.5 46.5t84.5 18h63v44q0 38 -17 60.5t-52 22.5
q-24 0 -54 -16.5t-51 -39.5zM264 258h-57q-47 0 -68.5 -33.5t-22.5 -77.5q0 -89 65 -89q38 0 60.5 33.5t22.5 78.5v88zM590 540v-36q23 36 62 36q23 0 43 -15t28 -40q25 55 79 55q43 0 75 -37.5t32 -119.5v-392h-93v383q0 31 -7.5 55.5t-22.5 24.5q-37 0 -37 -93v-370h-90
v367q0 97 -35 97q-17 0 -26.5 -27.5t-9.5 -70.5v-366h-93v549h95z" />
    <glyph glyph-name="Korea1.262" unicode="&#x33d8;" horiz-adv-x="1068" 
d="M350 53l-5 -12q-37 -69 -109 -69q-44 0 -71 27v-239h-96v778h96v-31q28 32 71 32q72 0 109.5 -74.5t37.5 -208.5q0 -120 -33 -203zM229 455q-64 0 -64 -167v-53q0 -85 16.5 -133.5t47.5 -48.5q28 0 40.5 59t12.5 144q0 199 -53 199zM938 -55v102h88v-102h-88zM590 540
v-36q23 36 62 36q23 0 43 -15t28 -40q25 55 79 55q43 0 75 -37.5t32 -119.5v-392h-93v383q0 31 -7.5 55.5t-22.5 24.5q-37 0 -37 -93v-370h-90v367q0 97 -35 97q-17 0 -26.5 -27.5t-9.5 -70.5v-366h-93v549h95zM364 -55v102h87v-102h-87z" />
    <glyph glyph-name="Korea1.263" unicode="&#x2121;" horiz-adv-x="1171" 
d="M552 661l-198 2v-672h-101v670h-198v86h497v-86zM869 115v-100q-74 -42 -160 -42q-119 0 -180.5 72t-61.5 214q0 41 5.5 79t21 77t38.5 68t61.5 47t87.5 18q218 0 218 -321h-332q13 -174 147 -174q81 0 155 62zM567 305h230q-8 167 -110 167q-55 0 -86 -49.5t-34 -117.5z
M1068 -9h-98v756h98v-756z" />
    <glyph glyph-name="Korea1.264" unicode="&#xff01;" horiz-adv-x="1000" 
d="M433 -27q0 29 19.5 48t47.5 19q29 0 48.5 -19.5t19.5 -47.5q0 -29 -20 -48.5t-48 -19.5t-47.5 19.5t-19.5 48.5zM460 134l-30 636h139l-30 -636h-79z" />
    <glyph glyph-name="Korea1.265" unicode="&#xff02;" horiz-adv-x="1000" 
d="M377 870h101l-17 -241h-67zM522 870h100l-16 -241h-67z" />
    <glyph glyph-name="Korea1.266" unicode="&#xff03;" horiz-adv-x="1000" 
d="M182 541h170l45 221h81l-45 -221h207l45 221h80l-46 -221h99v-78h-116l-39 -189h155v-80h-170l-45 -218h-81l46 218h-207l-45 -218h-81l46 218h-99v80h116l38 189h-154v78zM624 463h-208l-40 -189h209z" />
    <glyph glyph-name="Korea1.267" unicode="&#xff04;" horiz-adv-x="1000" 
d="M715 651l-34 -90q-62 49 -135 63v-222q91 -30 140.5 -89t49.5 -126q0 -71 -45 -129t-145 -75v-76h-86v75q-94 8 -197 70v128q58 -52 102.5 -72t94.5 -29v244q-186 60 -196 198q0 43 18.5 83t64.5 73.5t113 41.5v75h86v-74q49 -6 91 -23.5t60 -31.5zM460 436v186
q-43 -6 -68 -32t-25 -56q0 -34 21 -54t72 -44zM546 283v-201q85 25 85 94q0 38 -20 59.5t-65 47.5z" />
    <glyph glyph-name="Korea1.268" unicode="&#xff05;" horiz-adv-x="1000" 
d="M302 755q65 0 110.5 -49.5t45.5 -125.5q0 -75 -44.5 -124t-111.5 -49q-66 0 -111 48t-45 125q0 70 43 122.5t113 52.5zM776 757l-475 -781h-82l477 781h80zM301 482q32 0 53.5 27t21.5 69q0 45 -21.5 72.5t-53.5 27.5q-34 0 -55.5 -27.5t-21.5 -72.5q0 -42 22 -69t55 -27
zM698 332q66 0 111 -48.5t45 -125.5q0 -74 -42.5 -124t-113.5 -50q-68 0 -112 50t-44 124q0 71 44.5 122.5t111.5 51.5zM698 59q33 0 54 26.5t21 69.5q0 45 -21.5 72.5t-53.5 27.5q-33 0 -55 -27.5t-22 -72.5q0 -42 22 -69t55 -27z" />
    <glyph glyph-name="Korea1.269" unicode="&#xff06;" horiz-adv-x="1000" 
d="M669 163l136 -173h-132l-77 94q-62 -54 -107 -77t-109 -23q-75 0 -130.5 52.5t-55.5 130.5q0 60 38 115t128 112q-30 34 -53.5 81t-23.5 91q0 65 47 117.5t132 52.5q80 0 127.5 -47t47.5 -113q0 -43 -22.5 -83t-47 -63t-63.5 -53l101 -133q3 6 17 27t27 44t26 52h105
q-34 -97 -111 -204zM533 169l-116 150q-37 -29 -48 -38.5t-32.5 -31t-28.5 -39t-7 -39.5q0 -33 24 -58.5t62 -29.5q45 0 84 23.5t62 62.5zM448 452q92 59 92 121q0 31 -22.5 52.5t-55.5 21.5q-30 0 -52.5 -20.5t-22.5 -50.5q0 -13 4 -27.5t9.5 -26t13.5 -24.5t14 -20.5
t13 -16t7 -9.5z" />
    <glyph glyph-name="Korea1.270" unicode="&#xff07;" horiz-adv-x="1000" 
d="M450 870h100l-17 -241h-67z" />
    <glyph glyph-name="Korea1.271" unicode="&#xff08;" horiz-adv-x="1000" 
d="M630 -163h-59q-103 131 -152 248t-49 263q0 85 17 161t51 142.5t61 108.5t72 101h59q-34 -54 -55 -93t-46 -103t-37 -143.5t-12 -175.5q0 -300 150 -509z" />
    <glyph glyph-name="Korea1.272" unicode="&#xff09;" horiz-adv-x="1000" 
d="M370 861h59q107 -143 153.5 -249.5t46.5 -262.5q0 -85 -16.5 -160.5t-50.5 -142t-61 -108t-72 -101.5h-59q34 53 54 91t45 102.5t37.5 144.5t12.5 176q0 304 -149 510z" />
    <glyph glyph-name="Korea1.273" unicode="&#xff0a;" horiz-adv-x="1000" 
d="M539 566q0 -6 -1 -9q167 -45 167 -89q0 -14 -10 -24t-24 -10q-13 0 -24 7q-49 26 -121 95l-13 -9q23 -99 23 -149q0 -20 -10.5 -31.5t-25.5 -11.5t-26 11t-11 29q0 66 23 152q-5 2 -15 8q-65 -65 -119 -96q-10 -5 -24 -5t-24 9t-10 23q0 24 23 36q55 33 142 56v8
q0 7 1 10q-126 36 -155 66q-11 11 -11 23t5 17q11 18 29 18q12 0 24 -6q64 -39 120 -98q3 2 14 9q-23 99 -23 148q0 21 10.5 33.5t26.5 12.5t26 -11.5t10 -30.5q0 -69 -25 -152q6 -3 13 -10q3 3 21.5 20.5t31.5 29.5t33.5 27t36.5 23q13 5 23 5q14 0 24.5 -10t10.5 -24
q0 -21 -22 -34q-46 -28 -145 -58q1 -2 1 -8z" />
    <glyph glyph-name="Korea1.274" unicode="&#xff0b;" horiz-adv-x="1000" 
d="M454 110v217h-218v91h218v218h92v-218h217v-91h-217v-217h-92z" />
    <glyph glyph-name="Korea1.275" unicode="&#xff0c;" horiz-adv-x="1000" 
d="M478 80h99l-94 -208h-61z" />
    <glyph glyph-name="Korea1.276" unicode="&#xff0d;" horiz-adv-x="1000" 
d="M683 223h-367v92h367v-92z" />
    <glyph glyph-name="Korea1.277" unicode="&#xff0e;" horiz-adv-x="1000" 
d="M432 -9q0 29 19 48t48 19t48.5 -19.5t19.5 -47.5q0 -29 -19.5 -48.5t-48.5 -19.5q-28 0 -47.5 19.5t-19.5 48.5z" />
    <glyph glyph-name="Korea1.278" unicode="&#xff0f;" horiz-adv-x="1000" 
d="M352 -18l216 772h79l-216 -772h-79z" />
    <glyph glyph-name="Korea1.279" unicode="&#xff10;" horiz-adv-x="1000" 
d="M500 -22q-66 0 -116 32t-79 87.5t-43.5 123.5t-14.5 147t14.5 147t43.5 123t79 87t116 32t116 -32t79 -87t43.5 -123t14.5 -147t-14.5 -147t-43.5 -123.5t-79 -87.5t-116 -32zM500 662q-35 0 -62.5 -19.5t-44 -50t-27 -71t-14 -77.5t-3.5 -76q0 -49 6.5 -95.5t22 -93.5
t47 -75.5t75.5 -28.5q43 0 74.5 28.5t47 75.5t22.5 93.5t7 95.5t-7 96t-22.5 94t-47 75.5t-74.5 28.5z" />
    <glyph glyph-name="Korea1.280" unicode="&#xff11;" horiz-adv-x="1000" 
d="M358 601l197 146h86v-756h-103v632l-148 -105z" />
    <glyph glyph-name="Korea1.281" unicode="&#xff12;" horiz-adv-x="1000" 
d="M494 756q53 0 94.5 -15.5t66.5 -39t42 -54t23 -57t6 -50.5q0 -121 -110 -253l-167 -204h287v-92h-472v30l302 365q51 68 51 141q0 57 -35.5 96.5t-100.5 39.5q-90 0 -163 -72l-32 86q86 79 208 79z" />
    <glyph glyph-name="Korea1.282" unicode="&#xff13;" horiz-adv-x="1000" 
d="M463 661q-79 0 -147 -64l-34 86q76 74 197 74q96 0 161.5 -56.5t65.5 -140.5q0 -76 -35 -117.5t-78 -56.5q18 -6 35.5 -15.5t42.5 -30t40.5 -55.5t15.5 -79q0 -101 -69.5 -164t-184.5 -63q-121 0 -200 57v117q85 -76 203 -76q8 0 20 1.5t35 9t41.5 20t32.5 39t14 61.5
q0 51 -41 87t-121 36h-86v90h95q19 1 39.5 7t43 18.5t36.5 37.5t14 59q0 52 -36 85t-100 33z" />
    <glyph glyph-name="Korea1.283" unicode="&#xff14;" horiz-adv-x="1000" 
d="M209 149v34l368 564h97v-508h117v-90h-117v-158h-104v158h-361zM356 239h214v335z" />
    <glyph glyph-name="Korea1.284" unicode="&#xff15;" horiz-adv-x="1000" 
d="M452 -27q-106 0 -180 44v115q73 -58 177 -58q12 0 27 1.5t41.5 10t47.5 22.5t36.5 42.5t15.5 66.5q0 14 -2.5 28.5t-14.5 39.5t-32 43.5t-60.5 32.5t-95.5 14q-67 0 -116 -15l27 386h376v-93h-279l-14 -198q29 7 65 7q119 0 188 -69t69 -179q0 -15 -2 -33t-18.5 -60.5
t-46.5 -71.5q-45 -43 -103.5 -59.5t-105.5 -16.5z" />
    <glyph glyph-name="Korea1.285" unicode="&#xff16;" horiz-adv-x="1000" 
d="M628 747l-193 -314q38 16 79 16q105 0 170.5 -64.5t65.5 -167.5q0 -101 -72.5 -170.5t-178.5 -69.5q-108 0 -178.5 67t-70.5 174q0 49 16.5 101t30 76.5t17.5 28.5l194 323h120zM354 214q0 -62 41.5 -102t105.5 -40q62 0 104 41t42 101q0 64 -40.5 104t-105.5 40
q-64 0 -105.5 -40.5t-41.5 -103.5z" />
    <glyph glyph-name="Korea1.286" unicode="&#xff17;" horiz-adv-x="1000" 
d="M335 -9l263 660h-334v94h472v-31l-286 -723h-115z" />
    <glyph glyph-name="Korea1.287" unicode="&#xff18;" horiz-adv-x="1000" 
d="M629 391q125 -51 125 -194q0 -94 -71.5 -156.5t-182.5 -62.5q-110 0 -182 62.5t-72 156.5q0 143 126 194q-107 50 -107 163q0 87 64 146q65 59 171 59q105 0 172 -59q63 -58 63 -146q0 -114 -106 -163zM500 68q64 0 107.5 40t43.5 98q0 59 -43 98.5t-108 39.5t-108 -39.5
t-43 -98.5q0 -58 43.5 -98t107.5 -40zM500 667q-56 0 -94.5 -34.5t-38.5 -84.5q0 -52 38 -86t95 -34t95.5 34t38.5 86q0 50 -38.5 84.5t-95.5 34.5z" />
    <glyph glyph-name="Korea1.288" unicode="&#xff19;" horiz-adv-x="1000" 
d="M372 -9l193 313q-34 -16 -80 -16q-104 0 -169.5 64t-65.5 168q0 101 73 170t179 69q107 0 177.5 -67t70.5 -172q0 -98 -65 -208l-193 -321h-120zM353 522q0 -64 40.5 -104t105.5 -40t106 41t41 103q0 61 -41 102t-106 41q-61 0 -103.5 -42t-42.5 -101z" />
    <glyph glyph-name="Korea1.289" unicode="&#xff1a;" horiz-adv-x="1000" 
d="M433 587q0 28 19 47.5t47 19.5t47.5 -19.5t19.5 -47.5t-19.5 -47t-47.5 -19t-47 19t-19 47zM433 143q0 28 19 47t47 19t47.5 -19t19.5 -47t-19.5 -47t-47.5 -19t-47 19t-19 47z" />
    <glyph glyph-name="Korea1.290" unicode="&#xff1b;" horiz-adv-x="1000" 
d="M444 587q0 28 19 47.5t47 19.5t47 -19.5t19 -47.5t-19 -47t-47 -19t-47 19t-19 47zM478 237h99l-94 -208h-61z" />
    <glyph glyph-name="Korea1.291" unicode="&#xff1c;" horiz-adv-x="1000" 
d="M236 318v91l528 222v-97l-419 -171l419 -173v-96z" />
    <glyph glyph-name="Korea1.292" unicode="&#xff1d;" horiz-adv-x="1000" 
d="M763 207h-527v91h527v-91zM763 449h-527v91h527v-91z" />
    <glyph glyph-name="Korea1.293" unicode="&#xff1e;" horiz-adv-x="1000" 
d="M763 407v-92l-527 -222v97l419 171l-419 173v97z" />
    <glyph glyph-name="Korea1.294" unicode="&#xff1f;" horiz-adv-x="1000" 
d="M470 688q-36 0 -72.5 -14t-54.5 -28l-18 -15l-32 85q92 59 192 59q94 0 158 -53t64 -164q0 -43 -20 -85.5t-45.5 -72t-54.5 -69t-42 -73.5q-18 -45 -20 -123h-106q0 95 29.5 159t82.5 130q61 74 61 143q0 49 -29 83q-40 38 -93 38zM410 -27q0 29 19 48t48 19t48.5 -19.5
t19.5 -47.5q0 -29 -19.5 -48.5t-48.5 -19.5q-28 0 -47.5 19.5t-19.5 48.5z" />
    <glyph glyph-name="Korea1.295" unicode="&#xff20;" horiz-adv-x="1000" 
d="M635 570l17 80h100l-73 -357q-1 -12 -9 -44t-8 -45q0 -19 10.5 -28t23.5 -9q24 0 57 21t65.5 57t55.5 94t23 123q0 148 -107 242t-265 94q-129 0 -229.5 -62t-152.5 -164.5t-52 -227.5q0 -88 25.5 -159t68 -117t100.5 -76.5t120 -43.5t130 -13q62 0 116 11.5t89 26.5
t67.5 38.5t47.5 38.5t33 35h103q-140 -233 -454 -233q-133 0 -236.5 39t-166 107t-94.5 154t-32 186q0 69 16 139.5t55 143.5t96.5 129.5t149 92.5t204.5 36q110 0 198 -37t141.5 -97.5t82 -134t28.5 -150.5q0 -79 -25.5 -146.5t-65.5 -111t-77.5 -70.5t-73.5 -41
q-33 -13 -77 -13q-31 0 -52 7.5t-30.5 22.5t-13 26t-6.5 28q-81 -84 -159 -84q-83 0 -138 67.5t-55 173.5q0 80 35 159t99 133t138 54q96 0 157 -95zM311 306q0 -66 31 -106t76 -40q77 0 131 84.5t54 193.5q0 69 -33.5 107.5t-81.5 38.5q-55 0 -97.5 -48.5t-61 -110.5
t-18.5 -119z" />
    <glyph glyph-name="Korea1.296" unicode="&#xff21;" horiz-adv-x="1000" 
d="M532 754l321 -763h-109l-89 211h-319l-86 -211h-104l309 763h77zM374 298h240l-121 291z" />
    <glyph glyph-name="Korea1.297" unicode="&#xff22;" horiz-adv-x="1000" 
d="M248 747h204q46 0 86.5 -10t77 -31.5t58 -61t21.5 -92.5q0 -47 -27 -91t-84 -69q77 -18 122 -70t45 -123q0 -43 -16 -79.5t-41.5 -59t-45.5 -35t-40 -19.5q-41 -15 -103 -15h-257v756zM435 651h-82v-227h86q147 0 147 118v5q0 104 -151 104zM353 85h109q180 0 180 122
q0 120 -181 120h-108v-242z" />
    <glyph glyph-name="Korea1.298" unicode="&#xff23;" horiz-adv-x="1000" 
d="M812 706l-40 -95q-77 45 -166 45q-134 0 -221 -79.5t-87 -210.5q0 -136 91 -213.5t228 -77.5q95 0 186 51v-104q-98 -45 -199 -45q-116 0 -209.5 45t-150 134.5t-56.5 209.5q0 177 118 283t297 106q56 0 108 -12.5t77 -24.5z" />
    <glyph glyph-name="Korea1.299" unicode="&#xff24;" horiz-adv-x="1000" 
d="M179 747h237q38 0 68 -2t76.5 -13.5t83 -31t75.5 -58t66 -92.5q36 -71 36 -182q0 -205 -162 -318q-87 -59 -251 -59h-229v756zM410 651h-126v-565h133q42 0 79.5 6.5t78.5 25.5t70.5 49.5t48.5 83.5t19 122q0 181 -138 248q-39 19 -73 24.5t-92 5.5z" />
    <glyph glyph-name="Korea1.300" unicode="&#xff25;" horiz-adv-x="1000" 
d="M701 747v-96h-306v-230h296v-95h-296v-240h316v-95h-423v756h413z" />
    <glyph glyph-name="Korea1.301" unicode="&#xff26;" horiz-adv-x="1000" 
d="M696 747v-97h-286v-213h284v-95h-284v-351h-107v756h393z" />
    <glyph glyph-name="Korea1.302" unicode="&#xff27;" horiz-adv-x="1000" 
d="M717 96v179h-129v95h235v-348q-112 -45 -230 -45q-116 0 -209.5 45t-150 134.5t-56.5 209.5q0 177 118 283t296 106q56 0 108.5 -12.5t76.5 -24.5l24 -12l-38 -95q-80 45 -168 45q-134 0 -220.5 -79.5t-86.5 -210.5q0 -62 20 -113t52 -83.5t73 -54.5t80.5 -31t77.5 -9
q32 0 64 5.5t48 10.5z" />
    <glyph glyph-name="Korea1.303" unicode="&#xff28;" horiz-adv-x="1000" 
d="M815 747v-756h-107v330h-417v-330h-107v756h107v-329h417v329h107z" />
    <glyph glyph-name="Korea1.304" unicode="&#xff29;" horiz-adv-x="1000" 
d="M552 747v-756h-105v756h105z" />
    <glyph glyph-name="Korea1.305" unicode="&#xff2a;" horiz-adv-x="1000" 
d="M401 -203l-38 88q17 -2 39 -2q78 0 104 33q11 14 16 36t6 39.5t1 51.5v704h107v-704q0 -147 -60 -203q-51 -46 -135 -46z" />
    <glyph glyph-name="Korea1.306" unicode="&#xff2b;" horiz-adv-x="1000" 
d="M309 747v-756h-106v756h106zM740 747l-307 -363l364 -393h-125l-358 393l299 363h127z" />
    <glyph glyph-name="Korea1.307" unicode="&#xff2c;" horiz-adv-x="1000" 
d="M396 747v-659h312v-97h-417v756h105z" />
    <glyph glyph-name="Korea1.308" unicode="&#xff2d;" horiz-adv-x="1000" 
d="M847 747v-756h-104v592l-228 -321h-28l-229 322v-593h-105v756h100l248 -336l248 336h98z" />
    <glyph glyph-name="Korea1.309" unicode="&#xff2e;" horiz-adv-x="1000" 
d="M814 747v-756h-90l-440 575v-575h-99v756h86l443 -577v577h100z" />
    <glyph glyph-name="Korea1.310" unicode="&#xff2f;" horiz-adv-x="1000" 
d="M899 368q0 -165 -112.5 -278t-286.5 -113q-179 0 -289 112.5t-110 278.5t111 279.5t288 113.5t288 -113.5t111 -279.5zM500 660q-128 0 -208.5 -84t-80.5 -208t80 -207.5t209 -83.5q126 0 207 84t81 207q0 124 -80.5 208t-207.5 84z" />
    <glyph glyph-name="Korea1.311" unicode="&#xff30;" horiz-adv-x="1000" 
d="M374 -9h-107v756h235q107 0 169 -59q62 -57 62 -156q0 -68 -32 -117q-33 -51 -88 -73q-52 -22 -161 -22h-78v-329zM483 653h-109v-239h115q68 0 100 31q36 33 36 90q0 118 -142 118z" />
    <glyph glyph-name="Korea1.312" unicode="&#xff31;" horiz-adv-x="1000" 
d="M899 368q0 -135 -79 -239t-210 -138q42 -24 95.5 -41.5t79.5 -17.5q43 0 66 7l-78 -97q-160 12 -320 137q-159 16 -255.5 125.5t-96.5 263.5q0 166 111 279.5t288 113.5t288 -113.5t111 -279.5zM500 660q-128 0 -208 -84t-80 -208t79.5 -207.5t208.5 -83.5
q126 0 207.5 84t81.5 207q0 124 -80.5 208t-208.5 84z" />
    <glyph glyph-name="Korea1.313" unicode="&#xff32;" horiz-adv-x="1000" 
d="M521 355q43 -28 79 -78.5t88 -146t79 -139.5h-124q-29 47 -65.5 112t-56 98t-47 64.5t-56.5 43.5q-27 13 -80 13v-331h-106v756h185q106 0 175.5 -53.5t69.5 -152.5q0 -141 -141 -186zM338 418h50q72 0 98 12q67 32 67 109q0 55 -38.5 85.5t-112.5 30.5h-64v-237z" />
    <glyph glyph-name="Korea1.314" unicode="&#xff33;" horiz-adv-x="1000" 
d="M692 692l-37 -91q-59 58 -138 58q-53 0 -84 -23t-31 -60q0 -47 36.5 -84t132.5 -101q125 -83 125 -211q0 -89 -57.5 -143.5t-150.5 -54.5q-100 0 -182 60v130q83 -95 175 -95q40 0 77 22t37 71q0 41 -28 77t-61 57q-121 80 -162 130.5t-41 126.5q0 81 56 138t156 57
q48 0 92.5 -16t64.5 -32z" />
    <glyph glyph-name="Korea1.315" unicode="&#xff34;" horiz-adv-x="1000" 
d="M786 747v-94h-235v-662h-107v662h-231v94h573z" />
    <glyph glyph-name="Korea1.316" unicode="&#xff35;" horiz-adv-x="1000" 
d="M501 -21q-41 0 -79 6t-82 25.5t-76 51t-53.5 87.5t-21.5 130v468h110v-500q0 -77 52.5 -124t149.5 -47t149 47t52 124v500h109v-468q0 -74 -21 -130t-53 -87.5t-75.5 -51t-81.5 -25.5t-79 -6z" />
    <glyph glyph-name="Korea1.317" unicode="&#xff36;" horiz-adv-x="1000" 
d="M803 747l-284 -761h-34l-289 761h108l196 -527l196 527h107z" />
    <glyph glyph-name="Korea1.318" unicode="&#xff37;" horiz-adv-x="1000" 
d="M989 747l-258 -761h-32l-198 593l-200 -593h-32l-257 761h107l165 -518l169 518h97l168 -521l165 521h106z" />
    <glyph glyph-name="Korea1.319" unicode="&#xff38;" horiz-adv-x="1000" 
d="M830 747l-265 -363l286 -393h-126l-224 306l-227 -306h-126l287 393l-265 363h126l205 -281l203 281h126z" />
    <glyph glyph-name="Korea1.320" unicode="&#xff39;" horiz-adv-x="1000" 
d="M828 747l-274 -380v-376h-107v376l-275 380h126l201 -281l203 281h126z" />
    <glyph glyph-name="Korea1.321" unicode="&#xff3a;" horiz-adv-x="1000" 
d="M803 747l-422 -663h422v-93h-607l424 662h-395v94h578z" />
    <glyph glyph-name="Korea1.322" unicode="&#xff3b;" horiz-adv-x="1000" 
d="M623 842v-89h-142v-828h142v-88h-246v1005h246z" />
    <glyph glyph-name="Korea1.323" unicode="&#xffe6;" horiz-adv-x="1000" 
d="M10 375v88h98l-96 284h107l90 -284h151l93 284h97l91 -284h152l90 284h106l-97 -284h98v-88h-128l-131 -389h-32l-130 389h-137l-131 -389h-32l-132 389h-127zM670 375l48 -149l47 149h-95zM237 375l47 -146l47 146h-94zM501 579l-39 -116h77z" />
    <glyph glyph-name="Korea1.324" unicode="&#xff3d;" horiz-adv-x="1000" 
d="M377 -163v88h143v829h-143v88h245v-1005h-245z" />
    <glyph glyph-name="Korea1.325" unicode="&#xff3e;" horiz-adv-x="1000" 
d="M367 325h-99l192 436h79l192 -436h-99l-133 325z" />
    <glyph glyph-name="Korea1.326" unicode="&#xff3f;" horiz-adv-x="1000" 
d="M215 -93h570v-55h-570v55z" />
    <glyph glyph-name="Korea1.327" unicode="&#xff40;" horiz-adv-x="1000" 
d="M522 808l65 -164h-59l-116 164h110z" />
    <glyph glyph-name="Korea1.328" unicode="&#xff41;" horiz-adv-x="1000" 
d="M328 347l-35 71q-3 0 18.5 20.5t64.5 41t92 20.5q77 0 128.5 -39t51.5 -119v-257q0 -26 18 -26q19 0 52 26v-66q-33 -23 -51.5 -30t-42.5 -7q-67 0 -77 51q-65 -51 -141 -51q-57 0 -91 36t-34 84q0 81 57.5 125t208.5 91v7q0 46 -21 65t-66 19q-67 0 -132 -62zM547 97
v158q-6 -2 -33.5 -11.5t-35.5 -13t-29 -13t-28.5 -17t-19 -20t-15.5 -27.5t-4 -33q0 -31 20.5 -49t51.5 -18q45 0 93 44z" />
    <glyph glyph-name="Korea1.329" unicode="&#xff42;" horiz-adv-x="1000" 
d="M277 13v734h103v-292q55 45 131 45q99 0 155 -73.5t56 -182.5q0 -74 -24.5 -128.5t-64.5 -82t-80.5 -39.5t-83.5 -12q-114 0 -192 31zM380 362v-279q32 -12 72 -12q74 0 120.5 40.5t46.5 129.5q0 73 -36.5 121.5t-98.5 48.5q-59 0 -104 -49z" />
    <glyph glyph-name="Korea1.330" unicode="&#xff43;" horiz-adv-x="1000" 
d="M707 464l-34 -81q-54 27 -104 27q-76 0 -126 -47t-50 -124q0 -85 51.5 -129t131.5 -44q65 0 122 33v-90q-66 -30 -129 -30q-121 0 -199 67.5t-78 191.5q0 118 79 189t198 71q37 0 71.5 -8.5t50.5 -17.5z" />
    <glyph glyph-name="Korea1.331" unicode="&#xff44;" horiz-adv-x="1000" 
d="M620 476v271h104v-739q-76 -26 -166 -26q-141 0 -211.5 73t-70.5 190q0 116 69.5 185.5t169.5 69.5q55 0 105 -24zM620 82v306q-38 27 -89 27q-64 0 -107.5 -46t-43.5 -133q0 -44 15 -77t34.5 -49t46 -25.5t41 -11t28.5 -1.5q44 0 75 10z" />
    <glyph glyph-name="Korea1.332" unicode="&#xff45;" horiz-adv-x="1000" 
d="M275 240q0 116 63.5 187.5t168.5 71.5q99 0 158.5 -69.5t59.5 -188.5v-18h-352q5 -64 49 -107t114 -43q99 0 169 54v-97q-8 -6 -22 -14.5t-59.5 -22.5t-92.5 -14q-9 0 -21 1t-38.5 6.5t-50.5 14.5t-51.5 29t-47.5 46.5t-33.5 69t-13.5 94.5zM376 295h250q-4 55 -35 86.5
t-84 31.5q-55 0 -89 -32.5t-42 -85.5z" />
    <glyph glyph-name="Korea1.333" unicode="&#xff46;" horiz-adv-x="1000" 
d="M657 749v-92q-32 5 -39 5q-35 0 -57 -10.5t-31.5 -32t-12.5 -41.5t-3 -51v-39h84v-86h-84v-411h-103v411h-68v86h68v33q0 112 47 173t123 61q43 0 76 -6z" />
    <glyph glyph-name="Korea1.334" unicode="&#xff47;" horiz-adv-x="1000" 
d="M736 488l-16 -75h-77q49 -41 49 -111q0 -141 -170 -169q-38 -5 -57 -13.5t-19 -26.5q0 -23 29 -35.5t106 -27.5q159 -32 159 -141q0 -75 -67 -116.5t-176 -41.5q-101 0 -169.5 41.5t-68.5 108.5q0 100 132 133q-53 28 -53 66q0 25 22 44.5t60 28.5q-118 42 -118 160
q0 84 60 129.5t162 45.5h212zM634 -117q0 24 -19.5 41.5t-49 24.5t-51 10t-38.5 3q-51 0 -82 -21.5t-31 -54.5q0 -76 136 -76q62 0 98.5 19t36.5 54zM591 311q0 39 -27.5 68t-65.5 29q-41 0 -68.5 -29t-27.5 -69q0 -45 25.5 -70.5t71.5 -25.5q40 0 66 27.5t26 69.5z" />
    <glyph glyph-name="Korea1.335" unicode="&#xff48;" horiz-adv-x="1000" 
d="M393 747v-322q61 75 150 75q83 0 123.5 -58.5t40.5 -164.5v-286h-102v304q0 63 -26 94.5t-64 31.5q-63 0 -122 -70v-360h-100v756h100z" />
    <glyph glyph-name="Korea1.336" unicode="&#xff49;" horiz-adv-x="1000" 
d="M550 488v-497h-100v497h100zM440 653q0 24 17.5 41.5t42.5 17.5t42.5 -17.5t17.5 -41.5q0 -25 -17.5 -43t-42.5 -18t-42.5 17.5t-17.5 43.5z" />
    <glyph glyph-name="Korea1.337" unicode="&#xff4a;" horiz-adv-x="1000" 
d="M427 -226l-37 78q66 12 89 48q20 32 20 127v461h104v-468q0 -90 -21 -143t-85 -84q-33 -18 -70 -19zM488 653q0 24 18 41.5t43 17.5t42.5 -17.5t17.5 -41.5q0 -26 -17.5 -43.5t-42.5 -17.5t-43 18t-18 43z" />
    <glyph glyph-name="Korea1.338" unicode="&#xff4b;" horiz-adv-x="1000" 
d="M363 747v-756h-102v756h102zM700 488l-206 -243l245 -254h-131l-240 253l214 244h118z" />
    <glyph glyph-name="Korea1.339" unicode="&#xff4c;" horiz-adv-x="1000" 
d="M550 747v-756h-101v756h101z" />
    <glyph glyph-name="Korea1.340" unicode="&#xff4d;" horiz-adv-x="1000" 
d="M144 488h99v-61q81 72 146 72q94 0 144 -87q47 47 82.5 67t78.5 20q162 0 162 -199v-309h-101v302q0 122 -95 122q-59 0 -110 -61v-363h-100v297q0 60 -18 94t-74 34q-33 0 -58.5 -15t-56.5 -47v-363h-99v497z" />
    <glyph glyph-name="Korea1.341" unicode="&#xff4e;" horiz-adv-x="1000" 
d="M293 488h104v-60q65 71 145 71q59 0 109.5 -42.5t54.5 -124.5q1 -14 1 -54v-287h-102v286q0 140 -95 140q-62 0 -113 -68v-358h-104v497z" />
    <glyph glyph-name="Korea1.342" unicode="&#xff4f;" horiz-adv-x="1000" 
d="M767 242q0 -109 -75.5 -184t-192.5 -75q-119 0 -193 74.5t-74 184.5t74.5 185t192.5 75t193 -75t75 -185zM499 413q-74 0 -120 -49.5t-46 -122.5q0 -72 45.5 -120.5t120.5 -48.5q72 0 118.5 49t46.5 120q0 73 -46 122.5t-119 49.5z" />
    <glyph glyph-name="Korea1.343" unicode="&#xff50;" horiz-adv-x="1000" 
d="M276 -266v739q76 27 167 27q134 0 207.5 -70.5t73.5 -194.5q0 -111 -66.5 -182t-172.5 -71q-63 0 -105 24v-272h-104zM380 398v-308q32 -28 89 -28q64 0 107.5 47t43.5 135t-47.5 127t-120.5 39q-20 0 -38 -3t-26 -6z" />
    <glyph glyph-name="Korea1.344" unicode="&#xff51;" horiz-adv-x="1000" 
d="M724 473v-739h-104v272q-48 -24 -105 -24q-98 0 -168.5 68t-70.5 185q0 52 14.5 97t45.5 84t87.5 61.5t133.5 22.5q40 0 82 -7t63 -13zM620 90v308q-28 12 -72 12q-73 0 -120.5 -39t-47.5 -127q0 -85 41.5 -133.5t109.5 -48.5q54 0 89 28z" />
    <glyph glyph-name="Korea1.345" unicode="&#xff52;" horiz-adv-x="1000" 
d="M669 464l-34 -94q-49 36 -85 36q-41 0 -79.5 -50.5t-38.5 -116.5v-248h-102v497h102v-117q35 61 67.5 94.5t76.5 33.5q42 0 93 -35z" />
    <glyph glyph-name="Korea1.346" unicode="&#xff53;" horiz-adv-x="1000" 
d="M657 454l-30 -78q-74 39 -125 39q-58 0 -58 -43q0 -18 20 -36t61 -44t63 -43q76 -64 76 -131q0 -48 -41 -92t-127 -44q-72 0 -160 42v105q44 -32 86 -48t66 -16q32 0 50.5 14t18.5 37q0 25 -28 49t-74.5 54t-70.5 53q-45 45 -45 101q0 53 42 90t115 37q72 0 161 -46z" />
    <glyph glyph-name="Korea1.347" unicode="&#xff54;" horiz-adv-x="1000" 
d="M550 -17q-75 3 -110 44q-23 26 -29 60.5t-6 95.5v219h-85v10l185 186v-110h151v-86h-151v-210q0 -33 1.5 -50.5t7.5 -37t21 -28t39 -8.5q22 0 48.5 8t41.5 16l16 8v-90q0 -1 -18.5 -7.5t-51 -13t-60.5 -6.5z" />
    <glyph glyph-name="Korea1.348" unicode="&#xff55;" horiz-adv-x="1000" 
d="M707 -9h-102v62q-63 -70 -146 -70q-78 0 -129 58q-37 45 -37 163v284h103v-283q0 -25 0.5 -38.5t5.5 -36.5t14.5 -35.5t29 -22.5t46.5 -10q59 0 113 68v358h102v-497z" />
    <glyph glyph-name="Korea1.349" unicode="&#xff56;" horiz-adv-x="1000" 
d="M632 488h110l-222 -506h-37l-225 506h111l133 -303z" />
    <glyph glyph-name="Korea1.350" unicode="&#xff57;" horiz-adv-x="1000" 
d="M887 488l-213 -506h-32l-142 338l-140 -338h-32l-215 506h107l123 -294l123 294h69l123 -296l122 296h107z" />
    <glyph glyph-name="Korea1.351" unicode="&#xff58;" horiz-adv-x="1000" 
d="M752 488l-195 -245l210 -252h-126l-146 177l-138 -177h-124l199 252l-199 245h124l138 -167l132 167h125z" />
    <glyph glyph-name="Korea1.352" unicode="&#xff59;" horiz-adv-x="1000" 
d="M740 488l-329 -721h-111l151 327l-191 394h114l130 -275l123 275h113z" />
    <glyph glyph-name="Korea1.353" unicode="&#xff5a;" horiz-adv-x="1000" 
d="M713 488l-256 -409h256v-88h-427l254 408h-241v89h414z" />
    <glyph glyph-name="Korea1.354" unicode="&#xff5b;" horiz-adv-x="1000" 
d="M625 854h32v-83h-18q-24 0 -38.5 -1.5t-26 -11.5t-16.5 -18.5t-7.5 -36t-3 -48.5t-0.5 -72q0 -64 -7.5 -106.5t-25 -68t-35 -38.5t-47.5 -27q68 -29 91.5 -82t23.5 -162q0 -57 1.5 -84t5.5 -51.5t15 -32t26 -11.5t44 -4h18v-84h-32q-36 0 -59.5 5t-52 22.5t-43.5 60
t-15 108.5q0 161 -18.5 214.5t-94.5 57.5v86q69 4 90.5 49.5t21.5 158.5q0 71 9 120.5t22 76.5t37.5 41.5t46 18t56.5 3.5z" />
    <glyph glyph-name="Korea1.355" unicode="&#xff5c;" horiz-adv-x="1000" 
d="M458 -157v1023h84v-1023h-84z" />
    <glyph glyph-name="Korea1.356" unicode="&#xff5d;" horiz-adv-x="1000" 
d="M342 854h32q35 0 56.5 -3.5t46 -18t37.5 -41.5t22 -76.5t9 -120.5q0 -113 21.5 -158.5t90.5 -49.5v-86q-76 -4 -95 -57.5t-19 -214.5q0 -53 -11 -91.5t-26.5 -58t-40.5 -30.5t-44 -13.5t-47 -2.5h-32v84h18q29 0 44 4t26 11.5t15 32t5.5 51.5t1.5 84q0 109 23.5 162
t91.5 82q-30 14 -47.5 27t-35 38.5t-25 68t-7.5 106.5q0 51 -0.5 72t-3 48.5t-7.5 36t-16.5 18.5t-26 11.5t-38.5 1.5h-18v83z" />
    <glyph glyph-name="Korea1.357" unicode="&#xffe3;" horiz-adv-x="1000" 
d="M10 792v88h980v-88h-980z" />
    <glyph glyph-name="Korea1.358" unicode="&#x3131;" 
d="M728 149h-108v371h-486v91h562q16 0 24 -8.5t8 -19.5v-434z" />
    <glyph glyph-name="Korea1.359" unicode="&#x3132;" 
d="M733 147h-107v378h-189v91h264q32 0 32 -28v-441zM369 147h-104l33 378h-188v91h265q32 0 32 -28z" />
    <glyph glyph-name="Korea1.360" unicode="&#x3133;" 
d="M620 560v-39q0 -38 -14 -102q39 -17 71 -67t70 -145h-106q-4 11 -13.5 37t-15 39.5t-15 31t-20.5 29.5q-41 -81 -119 -147l-58 64q5 4 12 12t26.5 33.5t34 53t26.5 69.5t12 83v48h109zM353 558q30 0 30 -29v-324h-106v269h-154v84h230z" />
    <glyph glyph-name="Korea1.361" unicode="&#x3134;" 
d="M241 587v-320h492v-91h-505q-51 0 -72.5 19t-21.5 63v329h107z" />
    <glyph glyph-name="Korea1.362" unicode="&#x3135;" 
d="M730 472h-97q-5 -43 -14 -71q41 -19 73.5 -64t73.5 -131h-105q-7 14 -22.5 46t-26.5 50t-25 31q-46 -71 -135 -133l-59 71q5 3 13.5 8t30 23t39.5 39t34.5 56.5t20.5 74.5h-109v84h308v-84zM381 208h-145q-47 0 -66 16t-19 58v274h106v-263h124v-85z" />
    <glyph glyph-name="Korea1.363" unicode="&#x3136;" 
d="M383 455h371v-78h-60q26 -29 26 -75q0 -61 -40.5 -96t-111.5 -35q-70 0 -111 35t-41 95q0 44 27 76h-60v78zM396 188h-159q-47 0 -66 16t-19 57v286h106v-274h138v-85zM674 557v-76q-147 0 -210 28v88q61 -40 210 -40zM567 376q-23 0 -36.5 -18.5t-13.5 -50.5t13.5 -50.5
t36.5 -18.5q49 0 52 69q-3 69 -52 69z" />
    <glyph glyph-name="Korea1.364" unicode="&#x3137;" 
d="M241 500v-234h492v-92h-505q-51 0 -72.5 19.5t-21.5 63.5v334h589v-91h-482z" />
    <glyph glyph-name="Korea1.365" unicode="&#x3138;" 
d="M402 590h331v-91h-226v-235h236v-92h-525q-50 0 -72 19.5t-22 63.5v335h241v-91h-136v-235h173v326z" />
    <glyph glyph-name="Korea1.366" unicode="&#x3139;" 
d="M733 614v-270h-492v-102h507v-91h-520q-51 0 -72.5 19t-21.5 64v201h492v87h-492v92h599z" />
    <glyph glyph-name="Korea1.367" unicode="&#x313a;" 
d="M710 575q31 0 31 -30v-354h-106v294h-172v90h247zM245 344v-66h205v-87h-230q-46 0 -64.5 15.5t-18.5 53.5v168h189v60h-189v87h295v-231h-187z" />
    <glyph glyph-name="Korea1.368" unicode="&#x313b;" 
d="M741 575v-384h-206q-48 0 -66.5 16.5t-18.5 58.5v309h291zM638 486h-84v-204h84v204zM245 344v-66h185v-87h-210q-46 0 -64.5 15.5t-18.5 53.5v168h170v60h-170v87h275v-231h-167z" />
    <glyph glyph-name="Korea1.369" unicode="&#x313c;" 
d="M624 580h101v-393h-190q-49 0 -67.5 16.5t-18.5 57.5v319h101v-116h74v116zM267 344v-72h162v-85h-184q-47 0 -65 15t-18 54v172h145v69h-145v83h249v-236h-144zM624 379h-74v-106h74v106z" />
    <glyph glyph-name="Korea1.370" unicode="&#x313d;" 
d="M238 343v-66h188v-87h-211q-46 0 -64.5 15.5t-18.5 53.5v168h170v60h-170v87h275v-231h-169zM667 575v-62q0 -50 -20 -107q98 -36 151 -212h-107q-3 6 -13.5 37t-25.5 60t-36 47q-47 -87 -128 -155l-58 70q5 3 13 9.5t28.5 30t36.5 50.5t29 71.5t13 92.5v68h117z" />
    <glyph glyph-name="Korea1.371" unicode="&#x313e;" 
d="M563 274h170v-85h-187q-48 0 -66.5 16.5t-18.5 58.5v308h266v-85h-164v-63h156v-83h-156v-67zM267 341v-67h175v-85h-197q-47 0 -65 15t-18 54v166h157v63h-157v85h262v-231h-157z" />
    <glyph glyph-name="Korea1.372" unicode="&#x313f;" 
d="M746 572v-89h-28v-139q0 -46 -20 -66h52v-90h-309v90h37v205h-33v89h301zM245 341v-66h170v-87h-195q-46 0 -64.5 15.5t-18.5 53.5v167h165v61h-165v87h270v-231h-162zM603 278q17 15 17 49v156h-43v-205h26z" />
    <glyph glyph-name="Korea1.373" unicode="&#x3140;" 
d="M238 339v-66h188v-87h-211q-46 0 -64.5 15.5t-18.5 53.5v166h160v62h-160v87h265v-231h-159zM428 457h350v-81h-61q30 -32 30 -78q0 -57 -38.5 -90.5t-105.5 -33.5t-106.5 33.5t-39.5 90.5q0 48 30 78h-59v81zM706 556v-75q-150 0 -209 29v85q62 -39 209 -39zM601 373
q-25 0 -39.5 -18.5t-14.5 -47.5q0 -30 14.5 -48t39.5 -18t39 18t15 48q-1 30 -15.5 48t-38.5 18z" />
    <glyph glyph-name="Korea1.374" unicode="&#x3141;" 
d="M740 592v-422h-508q-50 0 -71.5 19.5t-21.5 63.5v339h601zM633 261v240h-387v-240h387z" />
    <glyph glyph-name="Korea1.375" unicode="&#x3142;" 
d="M631 605h109v-443h-508q-50 0 -71.5 18.5t-21.5 62.5v362h107v-140h385v140zM631 374h-385v-121h385v121z" />
    <glyph glyph-name="Korea1.376" unicode="&#x3143;" 
d="M492 605v-137h149v138h104v-443h-521q-50 0 -71.5 19t-21.5 62v362h104v-138h152v137h105zM235 379v-127h152v127h-152zM641 379h-149v-127h149v127z" />
    <glyph glyph-name="Korea1.377" unicode="&#x3144;" 
d="M315 562h103v-354h-211q-48 0 -66.5 16t-18.5 58v280h103v-93h90v93zM661 562v-32q0 -52 -23 -117q85 -31 149 -202h-107q-3 8 -10.5 26.5t-10.5 26t-9 21t-10 20.5t-9.5 16t-11 15t-11.5 11q-45 -79 -125 -147l-58 71q5 3 13 9.5t28.5 30t36.5 50.5t29 71t13 92v38h116z
M315 380h-90v-83h90v83z" />
    <glyph glyph-name="Korea1.378" unicode="&#x3145;" 
d="M387 629h125q-14 -101 -57 -178q60 -14 112 -47.5t82 -67.5t76 -88t78 -85h-140q-11 13 -55.5 64.5t-64.5 72.5t-57 48.5t-70 37.5q-107 -152 -284 -240l-60 70q49 26 95 62t93 86.5t81 119.5t46 145z" />
    <glyph glyph-name="Korea1.379" unicode="&#x3146;" 
d="M323 139l-55 69q45 25 90 71q-27 41 -60 64q-68 -108 -166 -169l-56 69q89 56 136.5 153t58.5 206h117q-11 -97 -52 -190q43 -19 82 -56q74 121 84 246h118q-10 -97 -54 -193q30 -12 54 -28.5t46 -42.5t37.5 -46.5t43 -61t45.5 -66.5h-128q-14 21 -37 56.5t-33.5 50
t-29 33t-39.5 29.5q-83 -135 -202 -194z" />
    <glyph glyph-name="Korea1.380" unicode="&#x3147;" 
d="M439 630q131 0 217.5 -64.5t86.5 -185.5q0 -119 -86.5 -183.5t-217.5 -64.5q-132 0 -218.5 64.5t-86.5 183.5q0 122 86.5 186t218.5 64zM439 543q-90 0 -143 -44t-53 -119t53 -118t143 -43q91 0 144 43t53 118t-53 119t-144 44z" />
    <glyph glyph-name="Korea1.381" unicode="&#x3148;" 
d="M163 150l-59 72q23 13 51 32.5t70 55t81.5 87.5t64.5 111h-234v92h605v-92h-239q-12 -33 -29 -65q43 -14 88 -48.5t74 -65.5t76 -86.5t69 -78.5h-132q-18 21 -55 64t-56 64t-49 45.5t-59 37.5q-101 -140 -267 -225z" />
    <glyph glyph-name="Korea1.382" unicode="&#x3149;" 
d="M142 176l-55 66q82 59 116 120.5t44 143.5h-121v91h296v-91h-58q-7 -58 -23 -100q55 -26 95 -81q70 80 83 181h-70v91h295v-91h-107q-10 -74 -35 -122q23 -11 43 -26.5t38.5 -38.5t32 -42.5t37 -54.5t39.5 -58h-128q-12 19 -29.5 47.5t-27 44t-22.5 33t-25 28.5
q-82 -115 -217 -175l-55 67q38 21 74 49q-26 44 -58 72q-55 -86 -162 -154z" />
    <glyph glyph-name="Korea1.383" unicode="&#x314a;" 
d="M144 525h590v-91h-221q-19 -35 -38 -62q46 -12 86.5 -36t65.5 -47t73.5 -71.5t82.5 -79.5h-144q-22 21 -60.5 57.5t-56.5 53t-44 35.5t-50 29q-99 -104 -266 -188l-59 70q192 103 273 239h-232v91zM581 658v-85q-193 0 -287 28v93q92 -36 287 -36z" />
    <glyph glyph-name="Korea1.384" unicode="&#x314b;" 
d="M728 109h-108v169h-481v92h481v160h-486v91h562q32 0 32 -29v-483z" />
    <glyph glyph-name="Korea1.385" unicode="&#x314c;" 
d="M241 250h502v-92h-515q-51 0 -72.5 19t-21.5 63v366h599v-92h-492v-86h482v-90h-482v-88z" />
    <glyph glyph-name="Korea1.386" unicode="&#x314d;" 
d="M624 254h137v-92h-645v92h115v258h-105v91h624v-91h-97v-169q0 -30 -9 -54.5t-20 -34.5zM339 254h174q32 18 32 67v191h-206v-258z" />
    <glyph glyph-name="Korea1.387" unicode="&#x314e;" 
d="M778 514v-93h-137q51 -48 51 -123q0 -90 -71 -142q-70 -48 -182 -48q-68 0 -123.5 18.5t-93 63t-37.5 108.5q0 76 51 123h-137v93h679zM439 419q-67 0 -106 -30t-39 -83t39 -83.5t106 -30.5q68 0 107 30.5t39 83.5t-39 83t-107 30zM289 595v100q85 -49 300 -49v-86
q-202 0 -300 35z" />
    <glyph glyph-name="Korea1.388" unicode="&#x314f;" 
d="M455 798v-317h139v-93h-139v-501h-107v911h107z" />
    <glyph glyph-name="Korea1.389" unicode="&#x3150;" 
d="M401 781v-300h76v317h105v-911h-105v501h-76v-479h-105v872h105z" />
    <glyph glyph-name="Korea1.390" unicode="&#x3151;" 
d="M445 798v-183h139v-93h-139v-180h139v-93h-139v-362h-107v911h107z" />
    <glyph glyph-name="Korea1.391" unicode="&#x3152;" 
d="M401 781v-166h76v183h105v-911h-105v362h-76v-340h-105v872h105zM401 522v-180h76v180h-76z" />
    <glyph glyph-name="Korea1.392" unicode="&#x3153;" 
d="M242 375v91h221v332h106v-911h-106v488h-221z" />
    <glyph glyph-name="Korea1.393" unicode="&#x3154;" 
d="M222 375v91h126v315h105v-872h-105v466h-126zM623 798v-911h-105v911h105z" />
    <glyph glyph-name="Korea1.394" unicode="&#x3155;" 
d="M250 519v91h227v188h107v-911h-107v363h-227v91h227v178h-227z" />
    <glyph glyph-name="Korea1.395" unicode="&#x3156;" 
d="M228 519v91h127v171h104v-872h-104v331h-127v91h127v188h-127zM628 798v-911h-105v911h105z" />
    <glyph glyph-name="Korea1.396" unicode="&#x3157;" 
d="M30 186v91h354v217h110v-217h354v-91h-818z" />
    <glyph glyph-name="Korea1.397" unicode="&#x3158;" 
d="M728 798v-357h128v-94h-128v-460h-106v911h106zM335 324v-180q155 4 228 38v-89q-115 -40 -295 -40h-247v91h204v180h110z" />
    <glyph glyph-name="Korea1.398" unicode="&#x3159;" 
d="M645 781v-340h75v357h105v-911h-105v460h-75v-438h-105v872h105zM52 40v91h169v195h106v-195q128 4 180 30v-90q-25 -12 -104 -21.5t-162 -9.5h-189z" />
    <glyph glyph-name="Korea1.399" unicode="&#x315a;" 
d="M802 798v-911h-107v911h107zM391 324v-180q169 2 247 38v-89q-112 -40 -295 -40h-267v91h206v180h109z" />
    <glyph glyph-name="Korea1.400" unicode="&#x315b;" 
d="M30 186v91h204v226h109v-226h191v226h109v-226h205v-91h-818z" />
    <glyph glyph-name="Korea1.401" unicode="&#x315c;" 
d="M30 378v91h818v-91h-354v-285h-110v285h-354z" />
    <glyph glyph-name="Korea1.402" unicode="&#x315d;" 
d="M517 54v93h178v651h107v-911h-107v167h-178zM354 275q198 0 284 37v-89q-106 -34 -249 -39v-296h-109v296h-204v91h278z" />
    <glyph glyph-name="Korea1.403" unicode="&#x315e;" 
d="M414 44v94h136v643h105v-872h-105v135h-136zM825 798v-911h-105v911h105zM221 -112v296h-169v91h198q199 0 257 29v-90q-37 -19 -180 -28v-298h-106z" />
    <glyph glyph-name="Korea1.404" unicode="&#x315f;" 
d="M802 798v-911h-107v911h107zM354 275q198 0 284 37v-89q-103 -33 -244 -38v-297h-108v296h-210v91h278z" />
    <glyph glyph-name="Korea1.405" unicode="&#x3160;" 
d="M30 378v91h818v-91h-196v-285h-110v285h-207v-276h-110v276h-195z" />
    <glyph glyph-name="Korea1.406" unicode="&#x3161;" 
d="M30 278v92h818v-92h-818z" />
    <glyph glyph-name="Korea1.407" unicode="&#x3162;" 
d="M802 798v-911h-107v911h107zM354 144q198 0 284 38v-89q-112 -40 -295 -40h-267v91h278z" />
    <glyph glyph-name="Korea1.408" unicode="&#x3163;" 
d="M493 798v-911h-107v911h107z" />
    <glyph glyph-name="Korea1.409" unicode="&#x3165;" 
d="M426 208h-145q-47 0 -66 16t-19 58v274h106v-263h124v-85zM696 208h-145q-47 0 -66 16t-19 58v274h106v-263h124v-85z" />
    <glyph glyph-name="Korea1.410" unicode="&#x3166;" 
d="M687 208h-145q-47 0 -66 16t-19 58v274h230v-85h-124v-178h124v-85zM417 208h-145q-47 0 -66 16t-19 58v274h106v-263h124v-85z" />
    <glyph glyph-name="Korea1.411" unicode="&#x3167;" 
d="M391 208h-145q-47 0 -66 16t-19 58v274h106v-263h124v-85zM619 560v-39q0 -38 -14 -102q39 -17 71 -67t70 -145h-106q-4 11 -13.5 37t-15 39.5t-15 31t-20.5 29.5q-41 -81 -119 -147l-58 64q5 4 12 12t26.5 33.5t34 53t26.5 69.5t12 83v48h109z" />
    <glyph glyph-name="Korea1.412" unicode="&#x3168;" 
d="M410 208l170 387l170 -387h-340zM523 279h114l-57 142zM388 208h-145q-47 0 -66 16t-19 58v274h106v-263h124v-85z" />
    <glyph glyph-name="Korea1.413" unicode="&#x3169;" 
d="M506 575q30 0 30 -30v-354h-100v294h-134v90h204zM124 344v-66h165v-87h-189q-43 0 -60.5 15.5t-17.5 53.5v168h150v60h-150v87h250v-231h-148zM763 575v-62q0 -50 -19 -107q46 -18 73 -67.5t56 -144.5h-101q-1 3 -8 39.5t-18 61.5t-31 43q-38 -86 -107 -155l-54 70
q4 3 10.5 9.5t24 30t30.5 50.5t23.5 71.5t10.5 92.5v68h110z" />
    <glyph glyph-name="Korea1.414" unicode="&#x316a;" 
d="M555 274h170v-85h-187q-48 0 -66.5 16.5t-18.5 58.5v308h266v-85h-164v-213zM259 341v-67h175v-85h-197q-47 0 -65 15t-18 54v166h157v63h-157v85h262v-231h-157z" />
    <glyph glyph-name="Korea1.415" unicode="&#x316b;" 
d="M436 580h101v-393h-160q-49 0 -67.5 16.5t-18.5 57.5v319h101v-116h44v116zM139 344v-72h132v-85h-154q-47 0 -65 15t-18 54v172h115v69h-115v83h219v-236h-114zM436 379h-44v-106h44v106zM750 575v-62q0 -50 -19 -107q46 -18 73 -67.5t56 -144.5h-101q-1 3 -8 39.5
t-18 61.5t-31 43q-38 -86 -107 -155l-54 70q4 3 10.5 9.5t24 30t30.5 50.5t23.5 71.5t10.5 92.5v68h110z" />
    <glyph glyph-name="Korea1.416" unicode="&#x316c;" 
d="M226 343v-66h188v-87h-211q-46 0 -64.5 15.5t-18.5 53.5v168h170v60h-170v87h275v-231h-169zM423 190l170 404l170 -404h-340zM536 264h114l-57 148z" />
    <glyph glyph-name="Korea1.417" unicode="&#x316d;" 
d="M240 339v-66h188v-87h-211q-46 0 -64.5 15.5t-18.5 53.5v166h160v62h-160v87h265v-231h-159zM588 463q64 0 105.5 -37.5t41.5 -107.5t-41.5 -107t-105.5 -37t-105 37t-41 107t41 107.5t105 37.5zM588 385q-44 0 -44 -65t44 -65q21 0 33.5 17t12.5 48t-12.5 48t-33.5 17z
M745 570v-87h-313v87h313z" />
    <glyph glyph-name="Korea1.418" unicode="&#x316e;" 
d="M420 575v-384h-206q-48 0 -66.5 16.5t-18.5 58.5v309h291zM317 486h-84v-204h84v204zM633 580h101v-393h-190q-49 0 -67.5 16.5t-18.5 57.5v319h101v-116h74v116zM633 379h-74v-106h74v106z" />
    <glyph glyph-name="Korea1.419" unicode="&#x316f;" 
d="M415 575v-384h-206q-48 0 -66.5 16.5t-18.5 58.5v309h291zM312 486h-84v-204h84v204zM667 575v-62q0 -50 -20 -107q98 -36 151 -212h-107q-3 6 -13.5 37t-25.5 60t-36 47q-47 -87 -128 -155l-58 70q5 3 13 9.5t28.5 30t36.5 50.5t29 71.5t13 92.5v68h117z" />
    <glyph glyph-name="Korea1.420" unicode="&#x3170;" 
d="M412 575v-384h-206q-48 0 -66.5 16.5t-18.5 58.5v309h291zM309 486h-84v-204h84v204zM430 190l170 404l170 -404h-340zM543 264h114l-57 148z" />
    <glyph glyph-name="Korea1.421" unicode="&#x3171;" 
d="M439 268q64 0 105.5 -37.5t41.5 -107.5t-41.5 -107t-105.5 -37t-105 37t-41 107t41 107.5t105 37.5zM439 190q-44 0 -44 -65t44 -65q21 0 33.5 17t12.5 48t-12.5 48t-33.5 17zM738 712v-392h-508q-50 0 -71.5 19.5t-21.5 63.5v309h601zM631 411v210h-387v-210h387z" />
    <glyph glyph-name="Korea1.422" unicode="&#x3172;" 
d="M320 580h101v-393h-190q-49 0 -67.5 16.5t-18.5 57.5v319h101v-116h74v116zM320 379h-74v-106h74v106zM696 575q31 0 31 -30v-354h-106v294h-172v90h247z" />
    <glyph glyph-name="Korea1.423" unicode="&#x3173;" 
d="M320 580h101v-393h-190q-49 0 -67.5 16.5t-18.5 57.5v319h101v-116h74v116zM320 379h-74v-106h74v106zM565 274h170v-85h-187q-48 0 -66.5 16.5t-18.5 58.5v308h266v-85h-164v-213z" />
    <glyph glyph-name="Korea1.424" unicode="&#x3174;" 
d="M196 580h101v-393h-160q-49 0 -67.5 16.5t-18.5 57.5v319h101v-116h44v116zM196 379h-44v-106h44v106zM510 575v-62q0 -50 -19 -107q46 -18 73 -67.5t56 -144.5h-101q-1 3 -8 39.5t-18 61.5t-31 43q-38 -86 -107 -155l-54 70q4 3 10.5 9.5t24 30t30.5 50.5t23.5 71.5
t10.5 92.5v68h110zM795 575q31 0 31 -30v-354h-106v294h-142v90h217z" />
    <glyph glyph-name="Korea1.425" unicode="&#x3175;" 
d="M176 580h101v-393h-160q-49 0 -67.5 16.5t-18.5 57.5v319h101v-116h44v116zM176 379h-44v-106h44v106zM490 575v-62q0 -50 -19 -107q46 -18 73 -67.5t56 -144.5h-101q-1 3 -8 39.5t-18 61.5t-31 43q-38 -86 -107 -155l-54 70q4 3 10.5 9.5t24 30t30.5 50.5t23.5 71.5
t10.5 92.5v68h110zM725 274h130v-85h-147q-48 0 -66.5 16.5t-18.5 58.5v308h226v-85h-124v-213z" />
    <glyph glyph-name="Korea1.426" unicode="&#x3176;" 
d="M303 562h103v-354h-211q-48 0 -66.5 16t-18.5 58v280h103v-93h90v93zM303 380h-90v-83h90v83zM768 478h-97q-5 -43 -14 -71q41 -19 73.5 -64t73.5 -131h-105q-7 14 -22.5 46t-26.5 50t-25 31q-46 -71 -135 -133l-59 71q5 3 13.5 8t30 23t39.5 39t34.5 56.5t20.5 74.5
h-109v84h308v-84z" />
    <glyph glyph-name="Korea1.427" unicode="&#x3177;" 
d="M567 274h170v-85h-187q-48 0 -66.5 16.5t-18.5 58.5v308h266v-85h-164v-63h156v-83h-156v-67zM318 580h101v-393h-190q-49 0 -67.5 16.5t-18.5 57.5v319h101v-116h74v116zM318 379h-74v-106h74v106z" />
    <glyph glyph-name="Korea1.428" unicode="&#x3178;" 
d="M439 268q64 0 105.5 -37.5t41.5 -107.5t-41.5 -107t-105.5 -37t-105 37t-41 107t41 107.5t105 37.5zM439 190q-44 0 -44 -65t44 -65q21 0 33.5 17t12.5 48t-12.5 48t-33.5 17zM630 715h109v-413h-508q-50 0 -71.5 18.5t-21.5 62.5v332h107v-125h385v125zM630 499h-385
v-106h385v106z" />
    <glyph glyph-name="Korea1.429" unicode="&#x3179;" 
d="M439 268q64 0 105.5 -37.5t41.5 -107.5t-41.5 -107t-105.5 -37t-105 37t-41 107t41 107.5t105 37.5zM439 190q-44 0 -44 -65t44 -65q21 0 33.5 17t12.5 48t-12.5 48t-33.5 17zM491 715v-122h149v123h104v-413h-521q-50 0 -71.5 19t-21.5 62v332h104v-123h152v122h105z
M234 504v-112h152v112h-152zM640 504h-149v-112h149v112z" />
    <glyph glyph-name="Korea1.430" unicode="&#x317a;" 
d="M340 560v-39q0 -38 -14 -102q39 -17 71 -67t70 -145h-106q-4 11 -13.5 37t-15 39.5t-15 31t-20.5 29.5q-41 -81 -119 -147l-58 64q5 4 12 12t26.5 33.5t34 53t26.5 69.5t12 83v48h109zM673 558q30 0 30 -29v-324h-106v269h-154v84h230z" />
    <glyph glyph-name="Korea1.431" unicode="&#x317b;" 
d="M731 208h-145q-47 0 -66 16t-19 58v274h106v-263h124v-85zM349 560v-39q0 -38 -14 -102q39 -17 71 -67t70 -145h-106q-4 11 -13.5 37t-15 39.5t-15 31t-20.5 29.5q-41 -81 -119 -147l-58 64q5 4 12 12t26.5 33.5t34 53t26.5 69.5t12 83v48h109z" />
    <glyph glyph-name="Korea1.432" unicode="&#x317c;" 
d="M731 208h-145q-47 0 -66 16t-19 58v274h230v-85h-124v-178h124v-85zM349 560v-39q0 -38 -14 -102q39 -17 71 -67t70 -145h-106q-4 11 -13.5 37t-15 39.5t-15 31t-20.5 29.5q-41 -81 -119 -147l-58 64q5 4 12 12t26.5 33.5t34 53t26.5 69.5t12 83v48h109z" />
    <glyph glyph-name="Korea1.433" unicode="&#x317d;" 
d="M661 562h103v-354h-211q-48 0 -66.5 16t-18.5 58v280h103v-93h90v93zM317 562v-32q0 -52 -23 -117q85 -31 149 -202h-107q-3 8 -10.5 26.5t-10.5 26t-9 21t-10 20.5t-9.5 16t-11 15t-11.5 11q-45 -79 -125 -147l-58 71q5 3 13 9.5t28.5 30t36.5 50.5t29 71t13 92v38h116z
M661 380h-90v-83h90v83z" />
    <glyph glyph-name="Korea1.434" unicode="&#x317e;" 
d="M776 472h-97q-5 -43 -14 -71q41 -19 73.5 -64t73.5 -131h-105q-7 14 -22.5 46t-26.5 50t-25 31q-46 -71 -135 -133l-59 71q5 3 13.5 8t30 23t39.5 39t34.5 56.5t20.5 74.5h-109v84h308v-84zM298 562v-32q0 -52 -23 -117q85 -31 149 -202h-107q-3 8 -10.5 26.5t-10.5 26
t-9 21t-10 20.5t-9.5 16t-11 15t-11.5 11q-45 -79 -125 -147l-58 71q5 3 13 9.5t28.5 30t36.5 50.5t29 71t13 92v38h116z" />
    <glyph glyph-name="Korea1.435" unicode="&#x317f;" 
d="M123 134l306 551l306 -551h-612zM273 225h310l-154 287z" />
    <glyph glyph-name="Korea1.436" unicode="&#x3180;" 
d="M228 592q89 0 143.5 -57.5t54.5 -158.5q0 -99 -54.5 -158t-143.5 -59q-93 0 -145.5 60t-52.5 157q0 99 54 157.5t144 58.5zM229 509q-43 0 -67.5 -36t-24.5 -97t24.5 -96.5t67.5 -35.5q42 0 66.5 35.5t24.5 96.5t-24.5 97t-66.5 36zM648 592q89 0 143.5 -57.5
t54.5 -158.5q0 -99 -54.5 -158t-143.5 -59q-93 0 -145.5 60t-52.5 157q0 99 54 157.5t144 58.5zM649 509q-43 0 -67.5 -36t-24.5 -97t24.5 -96.5t67.5 -35.5q42 0 66.5 35.5t24.5 96.5t-24.5 97t-66.5 36z" />
    <glyph glyph-name="Korea1.437" unicode="&#x3181;" 
d="M383 699h108v-130q66 -16 105 -71t39 -139q0 -99 -54.5 -158t-143.5 -59q-93 0 -145.5 60t-52.5 157q0 83 38.5 138t105.5 71v131zM438 492q-43 0 -67.5 -36t-24.5 -97t24.5 -96.5t67.5 -35.5q42 0 66.5 35.5t24.5 96.5t-24.5 97t-66.5 36z" />
    <glyph glyph-name="Korea1.438" unicode="&#x3182;" 
d="M201 565h108v-97q44 -13 70.5 -48t26.5 -90q0 -70 -41.5 -107t-105.5 -37t-105 37t-41 107q0 52 23.5 86.5t64.5 48.5v100zM259 397q-44 0 -44 -65t44 -65q21 0 33.5 17t12.5 48t-12.5 48t-33.5 17zM660 562v-32q0 -52 -23 -117q85 -31 149 -202h-107q-3 8 -10.5 26.5
t-10.5 26t-9 21t-10 20.5t-9.5 16t-11 15t-11.5 11q-45 -79 -125 -147l-58 71q5 3 13 9.5t28.5 30t36.5 50.5t29 71t13 92v38h116z" />
    <glyph glyph-name="Korea1.439" unicode="&#x3183;" 
d="M201 565h108v-97q44 -13 70.5 -48t26.5 -90q0 -70 -41.5 -107t-105.5 -37t-105 37t-41 107q0 52 23.5 86.5t64.5 48.5v100zM259 397q-44 0 -44 -65t44 -65q21 0 33.5 17t12.5 48t-12.5 48t-33.5 17zM413 190l170 404l170 -404h-340zM526 264h114l-57 148z" />
    <glyph glyph-name="Korea1.440" unicode="&#x3184;" 
d="M439 268q64 0 105.5 -37.5t41.5 -107.5t-41.5 -107t-105.5 -37t-105 37t-41 107t41 107.5t105 37.5zM439 190q-44 0 -44 -65t44 -65q21 0 33.5 17t12.5 48t-12.5 48t-33.5 17zM623 394h137v-92h-645v92h115v228h-105v91h624v-91h-97v-139q0 -30 -9 -54.5t-20 -34.5z
M338 394h174q32 18 32 67v161h-206v-228z" />
    <glyph glyph-name="Korea1.441" unicode="&#x3185;" 
d="M600 463q64 0 105.5 -37.5t41.5 -107.5t-41.5 -107t-105.5 -37t-105 37t-41 107t41 107.5t105 37.5zM600 385q-44 0 -44 -65t44 -65q21 0 33.5 17t12.5 48t-12.5 48t-33.5 17zM757 570v-87h-303v87h303zM270 463q64 0 105.5 -37.5t41.5 -107.5t-41.5 -107t-105.5 -37
t-105 37t-41 107t41 107.5t105 37.5zM270 385q-44 0 -44 -65t44 -65q21 0 33.5 17t12.5 48t-12.5 48t-33.5 17zM417 570v-87h-303v87h303z" />
    <glyph glyph-name="Korea1.442" unicode="&#x3186;" 
d="M130 518v91h617v-91h-617zM438 460q123 0 203.5 -48t80.5 -137q0 -88 -80.5 -136t-203.5 -48t-203 47.5t-80 136.5t80 137t203 48zM438 373q-80 0 -127 -26t-47 -72q0 -45 47 -71t127 -26q82 0 129.5 26t47.5 71q0 46 -47.5 72t-129.5 26z" />
    <glyph glyph-name="Korea1.443" unicode="&#x3187;" 
d="M733 798v-247h128v-94h-128v-106h128v-94h-128v-370h-106v911h106zM370 324v-180q129 6 198 38v-89q-115 -40 -295 -40h-247v91h84v180h110v-180h40v180h110z" />
    <glyph glyph-name="Korea1.444" unicode="&#x3188;" 
d="M650 781v-240h75v257h105v-911h-105v370h-75v-348h-105v872h105zM57 40v91h53v193h110v-193h36v195h106v-195q102 6 150 30v-90q-25 -12 -104 -21.5t-162 -9.5h-189zM650 447v-96h75v96h-75z" />
    <glyph glyph-name="Korea1.445" unicode="&#x3189;" 
d="M807 798v-911h-107v911h107zM426 324v-180q141 4 217 38v-89q-112 -40 -295 -40h-267v91h79v180h110v-180h47v180h109z" />
    <glyph glyph-name="Korea1.446" unicode="&#x318a;" 
d="M522 -46v94h178v26h-178v93h178v631h107v-911h-107v67h-178zM265 -112h-110v296h-74v91h278q198 0 284 37v-89q-106 -34 -219 -39v-296h-109v296h-50v-296z" />
    <glyph glyph-name="Korea1.447" unicode="&#x318b;" 
d="M419 -46v94h136v26h-136v94h136v613h105v-872h-105v45h-136zM225 -112h-110v296h-58v91h198q199 0 257 29v-90q-32 -17 -150 -28v-298h-106v296h-31v-296zM830 798v-911h-105v911h105z" />
    <glyph glyph-name="Korea1.448" unicode="&#x318c;" 
d="M265 -112h-110v296h-74v91h278q198 0 284 37v-89q-102 -33 -214 -38v-297h-108v296h-56v-296zM807 798v-911h-107v911h107z" />
    <glyph glyph-name="Korea1.449" unicode="&#x318d;" 
d="M361 345q0 30 21 51t51 21t51 -21t21 -51t-21 -51t-51 -21t-51 21t-21 51z" />
    <glyph glyph-name="Korea1.450" unicode="&#x318e;" 
d="M588 798v-911h-107v911h107zM251 345q0 30 21 51t51 21t51 -21t21 -51t-21 -51t-51 -21t-51 21t-21 51z" />
    <glyph glyph-name="Korea1.451" unicode="&#x2170;" horiz-adv-x="950" 
d="M427 -9v535h96v-535h-96zM412 636v115h125v-115h-125z" />
    <glyph glyph-name="Korea1.452" unicode="&#x2171;" horiz-adv-x="950" 
d="M549 -9v535h96v-535h-96zM534 636v115h126v-115h-126zM306 -9v535h96v-535h-96zM291 636v115h125v-115h-125z" />
    <glyph glyph-name="Korea1.453" unicode="&#x2172;" horiz-adv-x="950" 
d="M427 -9v535h96v-535h-96zM412 636v115h125v-115h-125zM214 -9v535h96v-535h-96zM199 636v115h125v-115h-125zM640 -9v535h96v-535h-96zM626 636v115h125v-115h-125z" />
    <glyph glyph-name="Korea1.454" unicode="&#x2173;" horiz-adv-x="950" 
d="M159 -9v535h96v-535h-96zM145 636v115h125v-115h-125zM428 527l145 -410l148 410h103l-203 -536h-95l-201 536h103z" />
    <glyph glyph-name="Korea1.455" unicode="&#x2174;" horiz-adv-x="950" 
d="M327 527l146 -414l148 414h104l-204 -536h-96l-200 536h102z" />
    <glyph glyph-name="Korea1.456" unicode="&#x2175;" horiz-adv-x="950" 
d="M782 526v-535h-96v535h96zM797 751v-115h-125v115h125zM368 117l145 410h103l-201 -536h-96l-202 536h103z" />
    <glyph glyph-name="Korea1.457" unicode="&#x2176;" horiz-adv-x="950" 
d="M660 526v-535h-96v535h96zM674 751v-115h-125v115h125zM293 108l118 419h102l-172 -536h-96l-175 536h103zM838 526v-535h-96v535h96zM854 751v-115h-125v115h125z" />
    <glyph glyph-name="Korea1.458" unicode="&#x2177;" horiz-adv-x="950" 
d="M556 526v-535h-96v535h96zM566 751v-115h-121v115h121zM226 118l99 409h103l-153 -536h-97l-156 536h103zM717 526v-535h-96v535h96zM727 751v-115h-120v115h120zM876 526v-535h-96v535h96zM889 751v-115h-120v115h120z" />
    <glyph glyph-name="Korea1.459" unicode="&#x2178;" horiz-adv-x="950" 
d="M322 -9l188 272l-184 264h108l131 -188l131 190h107l-184 -267l189 -271h-107l-135 193l-133 -193h-111zM169 -9v535h96v-535h-96zM154 636v115h125v-115h-125z" />
    <glyph glyph-name="Korea1.460" unicode="&#x2179;" horiz-adv-x="950" 
d="M232 -9l188 272l-184 264h107l130 -188l133 190h107l-184 -267l189 -271h-107l-137 193l-132 -193h-110z" />
    <glyph glyph-name="Korea1.461" unicode="&#x2160;" horiz-adv-x="950" 
d="M523 750v-759h-95v759h95z" />
    <glyph glyph-name="Korea1.462" unicode="&#x2161;" horiz-adv-x="950" 
d="M401 751v-760h-95v760h95zM645 751v-760h-95v760h95z" />
    <glyph glyph-name="Korea1.463" unicode="&#x2162;" horiz-adv-x="950" 
d="M301 751v-760h-95v760h95zM527 751v-760h-95v760h95zM745 751v-760h-95v760h95z" />
    <glyph glyph-name="Korea1.464" unicode="&#x2163;" horiz-adv-x="950" 
d="M194 751v-760h-95v760h95zM769 751h101l-245 -760h-105l-246 760h102l195 -627z" />
    <glyph glyph-name="Korea1.465" unicode="&#x2164;" horiz-adv-x="950" 
d="M691 751h101l-264 -760h-106l-264 760h103l213 -627z" />
    <glyph glyph-name="Korea1.466" unicode="&#x2165;" horiz-adv-x="950" 
d="M746 -9v760h95v-760h-95zM71 751h100l199 -627l195 627h103l-247 -760h-105z" />
    <glyph glyph-name="Korea1.467" unicode="&#x2166;" horiz-adv-x="950" 
d="M611 -9v760h95v-760h-95zM38 751h100l161 -627l157 627h103l-208 -760h-106zM789 -9v760h95v-760h-95z" />
    <glyph glyph-name="Korea1.468" unicode="&#x2167;" horiz-adv-x="950" 
d="M491 -9v760h95v-760h-95zM37 751h101l113 -617l110 617h103l-161 -760h-106zM644 -9v760h95v-760h-95zM792 -9v760h95v-760h-95z" />
    <glyph glyph-name="Korea1.469" unicode="&#x2168;" horiz-adv-x="950" 
d="M283 -9l222 386l-214 374h111l159 -282l161 282h108l-214 -374l223 -386h-110l-167 294l-168 -294h-111zM235 751v-760h-95v760h95z" />
    <glyph glyph-name="Korea1.470" unicode="&#x2169;" horiz-adv-x="950" 
d="M187 -9l233 386l-224 374h110l169 -286l169 286h110l-224 -374l232 -386h-109l-178 298l-177 -298h-111z" />
    <glyph glyph-name="Korea1.471" unicode="&#x391;" horiz-adv-x="688" 
d="M29 -9l265 775h99l265 -775h-107l-67 197h-281l-67 -197h-107zM230 277h227l-114 334z" />
    <glyph glyph-name="Korea1.472" unicode="&#x392;" horiz-adv-x="644" 
d="M551 575q0 -50 -21.5 -94.5t-60.5 -73.5q116 -65 116 -194q0 -96 -66.5 -159t-189.5 -63h-247v773h247q95 0 158.5 -47.5t63.5 -141.5zM331 675h-150v-233h156q48 0 80 36t32 92q0 53 -32.5 79t-85.5 26zM181 80h159q68 0 105 38t37 105q0 58 -38 95t-99 37h-164v-275z
" />
    <glyph glyph-name="Korea1.473" unicode="&#x393;" horiz-adv-x="573" 
d="M522 764v-92h-343v-681h-105v773h448z" />
    <glyph glyph-name="Korea1.474" unicode="&#x394;" horiz-adv-x="650" 
d="M636 -9h-622l259 772h105zM325 609l-171 -529h344z" />
    <glyph glyph-name="Korea1.475" unicode="&#x395;" horiz-adv-x="602" 
d="M549 80v-89h-467v773h459v-90h-360v-239h340v-88h-340v-267h368z" />
    <glyph glyph-name="Korea1.476" unicode="&#x396;" horiz-adv-x="597" 
d="M551 80v-89h-498v76l363 609h-336v89h462v-73l-366 -612h375z" />
    <glyph glyph-name="Korea1.477" unicode="&#x397;" horiz-adv-x="693" 
d="M604 765v-774h-100v359h-314v-359h-99v774h99v-327h314v327h100z" />
    <glyph glyph-name="Korea1.478" unicode="&#x398;" horiz-adv-x="779" 
d="M252 328v97h279v-97h-279zM69 372q0 171 84 286.5t234 115.5q101 0 176 -56t111.5 -146t36.5 -200q0 -171 -86 -287t-238 -116q-101 0 -174.5 56t-108.5 146t-35 201zM387 58q72 0 123.5 46t74 115.5t22.5 152.5q0 82 -23.5 151t-74.5 115.5t-122 46.5q-102 0 -159 -92.5
t-57 -220.5q0 -130 56 -222t160 -92z" />
    <glyph glyph-name="Korea1.479" unicode="&#x399;" horiz-adv-x="287" 
d="M192 765v-774h-99v774h99z" />
    <glyph glyph-name="Korea1.480" unicode="&#x39a;" horiz-adv-x="639" 
d="M177 765v-293l273 293h140l-345 -366l392 -408h-143l-317 337v-337h-105v774h105z" />
    <glyph glyph-name="Korea1.481" unicode="&#x39b;" horiz-adv-x="650" 
d="M533 -9l-208 619l-207 -619h-107l264 774h101l264 -774h-107z" />
    <glyph glyph-name="Korea1.482" unicode="&#x39c;" horiz-adv-x="831" 
d="M738 766v-775h-98v569l-180 -372h-90l-179 374v-571h-98v775h97l226 -471l224 471h98z" />
    <glyph glyph-name="Korea1.483" unicode="&#x39d;" horiz-adv-x="696" 
d="M609 765v-774h-107l-312 601v-601h-99v774h110l310 -596v596h98z" />
    <glyph glyph-name="Korea1.484" unicode="&#x39e;" horiz-adv-x="599" 
d="M552 669h-490v95h490v-95zM34 84h527v-93h-527v93zM514 341h-414v95h414v-95z" />
    <glyph glyph-name="Korea1.485" unicode="&#x39f;" horiz-adv-x="765" 
d="M66 372q0 110 35 200t108.5 146t173.5 56q101 0 176 -56t111.5 -146t36.5 -200q0 -171 -86 -287t-238 -116q-101 0 -174 56t-108 146t-35 201zM383 58q72 0 123.5 46t74 115.5t22.5 152.5q0 82 -23.5 151t-74.5 115.5t-122 46.5q-102 0 -159 -92.5t-57 -220.5
q0 -130 56.5 -222t159.5 -92z" />
    <glyph glyph-name="Korea1.486" unicode="&#x3a0;" horiz-adv-x="667" 
d="M79 -9v774h508v-774h-105v676h-297v-676h-106z" />
    <glyph glyph-name="Korea1.487" unicode="&#x3a1;" horiz-adv-x="595" 
d="M72 765h240q103 0 173.5 -69t70.5 -175q0 -107 -71 -175.5t-173 -68.5h-140v-286h-100v774zM314 676h-142v-310h142q59 0 99.5 44t40.5 111t-40.5 111t-99.5 44z" />
    <glyph glyph-name="Korea1.488" unicode="&#x3a3;" horiz-adv-x="599" 
d="M543 668h-368l244 -291l-235 -291h367v-95h-508v81l248 303l-247 293h-1v96h500v-96z" />
    <glyph glyph-name="Korea1.489" unicode="&#x3a4;" horiz-adv-x="612" 
d="M570 765v-91h-216v-683h-99v683h-211v91h526z" />
    <glyph glyph-name="Korea1.490" unicode="&#x3a5;" horiz-adv-x="595" 
d="M467 765h108l-230 -491v-283h-100v282l-230 492h108l172 -374z" />
    <glyph glyph-name="Korea1.491" unicode="&#x3a6;" horiz-adv-x="724" 
d="M419 771v-133q105 -6 181 -77t76 -183q0 -117 -75.5 -186.5t-181.5 -75.5v-125h-103v125q-51 3 -98 21.5t-84.5 50t-59.5 81t-22 109.5q0 120 78.5 187t185.5 73v133h103zM157 378q0 -72 49.5 -118t109.5 -49v332q-62 -2 -110.5 -46.5t-48.5 -118.5zM571 378
q0 74 -46 118.5t-106 46.5v-332q59 2 105.5 49t46.5 118z" />
    <glyph glyph-name="Korea1.492" unicode="&#x3a7;" horiz-adv-x="622" 
d="M32 -9l223 394l-213 380h111l157 -281l160 281h111l-213 -380l223 -394h-112l-168 295l-165 -295h-114z" />
    <glyph glyph-name="Korea1.493" unicode="&#x3a8;" horiz-adv-x="696" 
d="M62 451v304h104v-303q0 -63 39 -108t96 -60v471h105v-469q52 15 88.5 59t36.5 107v303h103v-304q0 -106 -67.5 -179.5t-160.5 -91.5v-189h-105v187q-99 19 -169 91t-70 182z" />
    <glyph glyph-name="Korea1.494" unicode="&#x3a9;" horiz-adv-x="690" 
d="M320 212v-221h-257v93h154v65q-81 36 -127 115.5t-46 191.5q0 152 88.5 241.5t213.5 89.5q128 0 214.5 -89.5t86.5 -241.5q0 -113 -48 -192.5t-129 -115.5v-64h156v-93h-259v218q82 29 128 87t46 160q0 111 -54.5 173.5t-140.5 62.5q-84 0 -140 -62t-56 -174
q0 -101 48.5 -163t121.5 -81z" />
    <glyph glyph-name="Korea1.495" unicode="&#x3b1;" horiz-adv-x="637" 
d="M575 72l-54 -92q-61 41 -91 88q-57 -87 -165 -87q-203 0 -203 307q0 59 9.5 109.5t31 97t63 73t99.5 26.5q56 0 90.5 -16.5t62.5 -52.5q10 31 30 69h110q-73 -151 -73 -309q0 -162 90 -213zM168 288q5 -211 110 -211q38 4 62 41.5t32 80.5t8 89q0 82 -26 145.5t-76 64.5
q-34 1 -57.5 -20t-34 -56t-14.5 -67.5t-4 -66.5z" />
    <glyph glyph-name="Korea1.496" unicode="&#x3b2;" horiz-adv-x="594" 
d="M207 -5v-190h-101v759q0 83 45.5 136.5t132.5 53.5t138.5 -50.5t51.5 -138.5q0 -99 -68 -163q48 -28 78.5 -79.5t30.5 -103.5q0 -113 -65 -176.5t-155 -63.5q-49 0 -88 16zM414 219q0 66 -42.5 99.5t-105.5 33.5h-14v89h14q46 0 76 31t30 93q0 100 -88 100
q-39 0 -58 -28.5t-19 -69.5v-459q41 -27 91 -27q52 0 84 39.5t32 98.5z" />
    <glyph glyph-name="Korea1.497" unicode="&#x3b3;" horiz-adv-x="602" 
d="M568 503l-218 -427q6 -27 16.5 -68t15 -68t4.5 -57q0 -51 -29 -81.5t-82 -30.5q-50 0 -78 28t-30 74q0 72 25 122l46 87l-58 345q-6 39 -26 39q-25 0 -51 -52l-69 67q55 88 128 88q42 0 73.5 -28.5t39.5 -83.5l38 -250l170 348zM272 -145h2q25 0 25 31q0 14 -16 105
q-31 -88 -31 -108q0 -27 20 -28z" />
    <glyph glyph-name="Korea1.498" unicode="&#x3b4;" horiz-adv-x="604" 
d="M529 259q0 -134 -56.5 -212.5t-170.5 -78.5q-112 0 -169 79.5t-57 211.5q0 88 23 147.5t77 103.5q-63 57 -63 112q0 69 49.5 108.5t143.5 39.5q103 0 193 -80l-65 -75q-74 61 -129 61q-79 0 -79 -51q0 -23 18 -41t51 -26l50 -12q184 -44 184 -287zM422 259
q-4 196 -120 196q-119 0 -119 -196t119 -196q64 0 92.5 56.5t27.5 139.5z" />
    <glyph glyph-name="Korea1.499" unicode="&#x3b5;" horiz-adv-x="575" 
d="M76 182q0 36 20 70.5t53 55.5q-25 19 -42 49.5t-17 60.5q0 86 60 127.5t152 41.5q59 0 115.5 -34t90.5 -91l-78 -61q-20 38 -58 64.5t-70 26.5q-50 0 -77.5 -18t-27.5 -52q0 -27 19 -49t42 -22h101v-95h-101q-32 0 -52.5 -21.5t-20.5 -51.5q0 -101 121 -101q68 0 137 96
l78 -74q-95 -117 -213 -117q-232 0 -232 195z" />
    <glyph glyph-name="Korea1.500" unicode="&#x3b6;" horiz-adv-x="632" 
d="M349 120h68q71 0 120.5 -44.5t45.5 -120.5q-1 -31 -13.5 -60t-41 -59t-85.5 -48.5t-137 -19.5v101q77 0 123.5 23t47.5 64q1 30 -18 49t-51 19h-59q-108 0 -188 83q-90 93 -84 259q5 76 36.5 155t83.5 136q-80 8 -121 18v100q195 -50 392 -3v-99q-67 -18 -109 -20
q-48 -10 -88 -58.5t-61.5 -111t-23.5 -121.5q-5 -121 53 -188q49 -54 110 -54z" />
    <glyph glyph-name="Korea1.501" unicode="&#x3b7;" horiz-adv-x="637" 
d="M534 364v-598h-107v589q0 50 -26 87.5t-86 37.5q-40 0 -71.5 -39.5t-31.5 -100.5v-349h-108v566h108v-21q51 38 113 38q96 0 152.5 -60t56.5 -150z" />
    <glyph glyph-name="Korea1.502" unicode="&#x3b8;" horiz-adv-x="602" 
d="M534 377q0 -89 -10.5 -156.5t-35 -124.5t-72 -87.5t-115.5 -30.5q-66 0 -113 29t-73 84.5t-37 125t-10 160.5q0 70 6.5 126.5t22.5 108.5t41.5 87t66.5 55.5t96 20.5q233 0 233 -398zM301 72q119 0 125 255h-250q1 -123 29.5 -189t95.5 -66zM301 683q-116 0 -124 -253
h248q-6 253 -124 253z" />
    <glyph glyph-name="Korea1.503" unicode="&#x3b9;" horiz-adv-x="315" 
d="M215 571v-580h-112v580h112z" />
    <glyph glyph-name="Korea1.504" unicode="&#x3ba;" horiz-adv-x="571" 
d="M295 515q41 75 97 75q42 0 96 -46l-39 -96q-43 42 -52 42q-17 0 -41 -57q-50 -104 -83 -134l248 -308h-115l-212 253v-253h-96v581h96v-211q38 34 101 154z" />
    <glyph glyph-name="Korea1.505" unicode="&#x3bb;" horiz-adv-x="681" 
d="M262 363l-115 -372h-110l171 537l-29 91q-17 49 -61 61l-46 17l22 92l46 -16q34 -10 53.5 -19t42.5 -32t34 -59l183 -543q16 -48 43 -48q16 0 36.5 23.5t35.5 55.5l59 -88q-19 -35 -59.5 -61.5t-80.5 -26.5q-42 0 -78 27t-52 80z" />
    <glyph glyph-name="Korea1.506" unicode="&#x3bc;" horiz-adv-x="623" 
d="M541 572v-581h-108v60q-19 -27 -55.5 -46t-73.5 -19q-60 0 -102 33v-254h-107v807h107v-371q0 -44 25.5 -79t75.5 -40q53 0 91 36t38 93v361h109z" />
    <glyph glyph-name="Korea1.507" unicode="&#x3bd;" horiz-adv-x="559" 
d="M375 573h109q11 -68 11 -124q0 -104 -38.5 -224.5t-113.5 -233.5h-95l-179 582h108l131 -439q81 165 81 301q0 62 -14 138z" />
    <glyph glyph-name="Korea1.508" unicode="&#x3be;" horiz-adv-x="604" 
d="M76 684v98q94 -27 206 -27q102 0 185 24v-96q-81 -22 -174 -22q-21 0 -36.5 -19.5t-15.5 -45.5q0 -27 13 -48t43 -21h170v-92h-119q-58 0 -91 -17q-38 -20 -58 -71.5t-17 -97.5q8 -162 157 -162h34q187 0 184 -158q0 -28 -12.5 -54t-41.5 -52.5t-87 -43t-138 -16.5v100
q172 0 174 66q1 31 -18 46.5t-68 15.5h-27q-75 0 -125.5 17.5t-78.5 54t-40 79.5t-17 106q-4 59 25.5 130.5t74.5 104.5q-42 39 -42 111q0 42 28 75q-8 1 -41.5 6.5t-46.5 8.5z" />
    <glyph glyph-name="Korea1.509" unicode="&#x3bf;" horiz-adv-x="653" 
d="M327 480q-64 0 -107.5 -56.5t-43.5 -156.5q0 -85 40 -146.5t111 -61.5t112.5 62t41.5 146q0 87 -40.5 150t-113.5 63zM327 570q113 0 185.5 -81t72.5 -222q0 -140 -72.5 -218.5t-185.5 -78.5q-120 0 -187.5 83.5t-67.5 213.5q0 141 72 222t183 81z" />
    <glyph glyph-name="Korea1.510" unicode="&#x3c0;" horiz-adv-x="690" 
d="M63 467v94h562v-94h-129v-331q0 -34 13 -51t32 -17q35 0 76 36l28 -93q-42 -45 -108 -45q-62 0 -105 36t-43 115v350h-98l-12 -249q-4 -102 -38 -159.5t-101 -97.5l-61 81q90 66 95 177l10 248h-121z" />
    <glyph glyph-name="Korea1.511" unicode="&#x3c1;" horiz-adv-x="578" 
d="M526 282q0 -126 -56.5 -213t-161.5 -87q-77 0 -135 40v-257h-100v516q0 160 65.5 231t166.5 71q107 0 164 -87t57 -214zM425 281q2 101 -30 155t-95 54q-56 0 -91.5 -49t-35.5 -160q0 -100 17 -138q12 -26 42 -47.5t61 -21.5q127 0 132 207z" />
    <glyph glyph-name="Korea1.512" unicode="&#x3c3;" horiz-adv-x="635" 
d="M537 278q0 -138 -63.5 -222t-178.5 -84q-118 0 -180 84.5t-62 221.5q0 138 62 222.5t180 84.5h312v-96h-125q55 -77 55 -211zM432 278q-4 211 -137 211q-72 0 -105 -61.5t-33 -149.5q0 -90 32.5 -150t105.5 -60q74 0 107 62t30 148z" />
    <glyph glyph-name="Korea1.513" unicode="&#x3c4;" horiz-adv-x="499" 
d="M456 568v-97h-158v-331q0 -25 11 -38.5t21 -16t25 -2.5h62v-94h-78q-31 0 -63.5 12.5t-49.5 34.5q-33 39 -33 111v324h-150v97h413z" />
    <glyph glyph-name="Korea1.514" unicode="&#x3c5;" horiz-adv-x="591" 
d="M99 568h104v-375q0 -125 99 -125q53 0 83.5 68.5t30.5 190.5q0 105 -68 188l75 62q44 -45 70 -118t26 -132q0 -71 -11 -128.5t-27 -93.5t-39.5 -63t-43.5 -40t-44 -20.5t-36 -8.5t-24 -1q-90 0 -142.5 61.5t-52.5 159.5v375z" />
    <glyph glyph-name="Korea1.515" unicode="&#x3c6;" horiz-adv-x="696" 
d="M396 579q122 0 180 -79t58 -222q0 -132 -56 -216.5t-170 -84.5h-12v-197h-98v197h-9q-59 0 -104.5 26t-71.5 70.5t-38.5 97.5t-11.5 111q1 200 144 304l62 -81q-43 -34 -73.5 -90.5t-29.5 -132.5q1 -54 12.5 -99t40 -78t70.5 -33h9v401q0 45 29 75.5t69 30.5zM396 72h12
q35 0 59.5 18.5t37 50t17.5 65.5t5 72q-1 50 -9 92.5t-33 78t-65 35.5h-6.5t-6.5 -1.5t-6 -4t-3.5 -7.5t-1.5 -12v-387z" />
    <glyph glyph-name="Korea1.516" unicode="&#x3c7;" horiz-adv-x="621" 
d="M309 263l150 271h120l-210 -379l217 -390h-116l-159 285l-157 -285h-119l216 393l-207 376h116z" />
    <glyph glyph-name="Korea1.517" unicode="&#x3c8;" horiz-adv-x="677" 
d="M80 234v334h105v-333q0 -129 103 -163v496h105v-496q100 31 100 163v333h104v-334q0 -113 -57 -176t-147 -83v-195h-105v195q-91 18 -149.5 81.5t-58.5 177.5z" />
    <glyph glyph-name="Korea1.518" unicode="&#x3c9;" horiz-adv-x="713" 
d="M308 353h98v-140q0 -32 1.5 -51.5t7 -42.5t18.5 -34t34 -11q25 0 42.5 20t25.5 52.5t11 61.5t3 60q0 208 -101 215v97q205 -21 205 -312q0 -53 -9 -101.5t-29.5 -92.5t-58.5 -70.5t-89 -26.5q-71 0 -110 51q-38 -51 -110 -51q-43 0 -77 19t-54.5 48.5t-33.5 69.5
t-18 77.5t-5 76.5q0 62 10 114t32.5 97.5t64.5 72t100 27.5v-97q-103 -11 -103 -214q0 -33 3.5 -63t11.5 -61.5t26 -50.5t43 -19q21 0 34 11.5t18.5 35t7 43.5t1.5 51v138z" />
    <glyph glyph-name="Korea1.519" unicode="&#x2500;" horiz-adv-x="950" 
d="M951 289h-951v73h951v-73z" />
    <glyph glyph-name="Korea1.520" unicode="&#x2502;" horiz-adv-x="950" 
d="M513 -171h-76v999h76v-999z" />
    <glyph glyph-name="Korea1.521" unicode="&#x250c;" horiz-adv-x="950" 
d="M951 289h-438v-460h-76v533h514v-73z" />
    <glyph glyph-name="Korea1.522" unicode="&#x2510;" horiz-adv-x="950" 
d="M513 -171h-76v460h-437v73h513v-533z" />
    <glyph glyph-name="Korea1.523" unicode="&#x2518;" horiz-adv-x="950" 
d="M513 290h-513v73h437v466h76v-539z" />
    <glyph glyph-name="Korea1.524" unicode="&#x2514;" horiz-adv-x="950" 
d="M951 289h-514v540h76v-467h438v-73z" />
    <glyph glyph-name="Korea1.525" unicode="&#x251c;" horiz-adv-x="950" 
d="M951 289h-438v-460h-76v1000h76v-467h438v-73z" />
    <glyph glyph-name="Korea1.526" unicode="&#x252c;" horiz-adv-x="950" 
d="M951 289h-438v-460h-76v460h-437v73h951v-73z" />
    <glyph glyph-name="Korea1.527" unicode="&#x2524;" horiz-adv-x="950" 
d="M513 -171h-76v460h-437v73h437v467h76v-1000z" />
    <glyph glyph-name="Korea1.528" unicode="&#x2534;" horiz-adv-x="950" 
d="M951 289h-951v73h437v467h76v-467h438v-73z" />
    <glyph glyph-name="Korea1.529" unicode="&#x253c;" horiz-adv-x="950" 
d="M951 290h-438v-461h-76v461h-437v73h437v466h76v-466h438v-73z" />
    <glyph glyph-name="Korea1.530" unicode="&#x2501;" horiz-adv-x="950" 
d="M951 267h-951v117h951v-117z" />
    <glyph glyph-name="Korea1.531" unicode="&#x2503;" horiz-adv-x="950" 
d="M533 -171h-117v999h117v-999z" />
    <glyph glyph-name="Korea1.532" unicode="&#x250f;" horiz-adv-x="950" 
d="M951 267h-418v-438h-117v555h535v-117z" />
    <glyph glyph-name="Korea1.533" unicode="&#x2513;" horiz-adv-x="950" 
d="M533 -171h-117v438h-416v117h533v-555z" />
    <glyph glyph-name="Korea1.534" unicode="&#x251b;" horiz-adv-x="950" 
d="M533 267h-533v117h416v445h117v-562z" />
    <glyph glyph-name="Korea1.535" unicode="&#x2517;" horiz-adv-x="950" 
d="M951 268h-535v561h117v-444h418v-117z" />
    <glyph glyph-name="Korea1.536" unicode="&#x2523;" horiz-adv-x="950" 
d="M951 268h-418v-439h-117v1000h117v-444h418v-117z" />
    <glyph glyph-name="Korea1.537" unicode="&#x2533;" horiz-adv-x="950" 
d="M951 267h-418v-438h-117v438h-416v117h951v-117z" />
    <glyph glyph-name="Korea1.538" unicode="&#x252b;" horiz-adv-x="950" 
d="M533 -171h-117v438h-416v117h416v445h117v-1000z" />
    <glyph glyph-name="Korea1.539" unicode="&#x253b;" horiz-adv-x="950" 
d="M951 269h-951v117h416v443h117v-443h418v-117z" />
    <glyph glyph-name="Korea1.540" unicode="&#x254b;" horiz-adv-x="950" 
d="M951 267h-418v-438h-117v438h-416v117h416v445h117v-445h418v-117z" />
    <glyph glyph-name="Korea1.541" unicode="&#x2520;" horiz-adv-x="950" 
d="M951 289h-418v-460h-117v1000h117v-467h418v-73z" />
    <glyph glyph-name="Korea1.542" unicode="&#x252f;" horiz-adv-x="950" 
d="M951 267h-438v-438h-76v438h-437v117h951v-117z" />
    <glyph glyph-name="Korea1.543" unicode="&#x2528;" horiz-adv-x="950" 
d="M533 -171h-117v460h-416v73h416v467h117v-1000z" />
    <glyph glyph-name="Korea1.544" unicode="&#x2537;" horiz-adv-x="950" 
d="M951 268h-951v117h437v444h76v-444h438v-117z" />
    <glyph glyph-name="Korea1.545" unicode="&#x253f;" horiz-adv-x="950" 
d="M951 268h-438v-439h-76v439h-437v117h437v444h76v-444h438v-117z" />
    <glyph glyph-name="Korea1.546" unicode="&#x251d;" horiz-adv-x="950" 
d="M951 267h-438v-438h-76v1000h76v-445h438v-117z" />
    <glyph glyph-name="Korea1.547" unicode="&#x2530;" horiz-adv-x="950" 
d="M951 289h-418v-460h-118v460h-415v73h951v-73z" />
    <glyph glyph-name="Korea1.548" unicode="&#x2525;" horiz-adv-x="950" 
d="M513 -171h-76v438h-437v117h437v445h76v-1000z" />
    <glyph glyph-name="Korea1.549" unicode="&#x2538;" horiz-adv-x="950" 
d="M951 290h-951v73h416v466h117v-466h418v-73z" />
    <glyph glyph-name="Korea1.550" unicode="&#x2542;" horiz-adv-x="950" 
d="M951 290h-418v-461h-117v461h-416v73h416v466h117v-466h418v-73z" />
    <glyph glyph-name="Korea1.551" unicode="&#x2512;" horiz-adv-x="950" 
d="M533 -171h-117v460h-416v73h533v-533z" />
    <glyph glyph-name="Korea1.552" unicode="&#x2511;" horiz-adv-x="950" 
d="M513 -171h-76v438h-437v117h513v-555z" />
    <glyph glyph-name="Korea1.553" unicode="&#x251a;" horiz-adv-x="950" 
d="M533 289h-533v73h416v467h117v-540z" />
    <glyph glyph-name="Korea1.554" unicode="&#x2519;" horiz-adv-x="950" 
d="M513 267h-513v117h437v445h76v-562z" />
    <glyph glyph-name="Korea1.555" unicode="&#x2516;" horiz-adv-x="950" 
d="M951 290h-535v539h117v-466h418v-73z" />
    <glyph glyph-name="Korea1.556" unicode="&#x2515;" horiz-adv-x="950" 
d="M951 267h-514v562h76v-445h438v-117z" />
    <glyph glyph-name="Korea1.557" unicode="&#x250e;" horiz-adv-x="950" 
d="M951 289h-418v-460h-117v533h535v-73z" />
    <glyph glyph-name="Korea1.558" unicode="&#x250d;" horiz-adv-x="950" 
d="M951 267h-438v-438h-76v555h514v-117z" />
    <glyph glyph-name="Korea1.559" unicode="&#x251e;" horiz-adv-x="950" 
d="M951 289h-438v-460h-76v460h-21v540h117v-467h418v-73z" />
    <glyph glyph-name="Korea1.560" unicode="&#x251f;" horiz-adv-x="950" 
d="M951 289h-418v-460h-117v533h21v467h76v-467h438v-73z" />
    <glyph glyph-name="Korea1.561" unicode="&#x2521;" horiz-adv-x="950" 
d="M951 267h-438v-438h-76v438h-21v562h117v-445h418v-117z" />
    <glyph glyph-name="Korea1.562" unicode="&#x2522;" horiz-adv-x="950" 
d="M951 267h-418v-438h-117v555h21v445h57v-445h457v-117z" />
    <glyph glyph-name="Korea1.563" unicode="&#x2526;" horiz-adv-x="950" 
d="M533 289h-20v-460h-76v460h-437v73h416v467h117v-540z" />
    <glyph glyph-name="Korea1.564" unicode="&#x2527;" horiz-adv-x="950" 
d="M533 -171h-117v460h-416v73h437v467h76v-467h20v-533z" />
    <glyph glyph-name="Korea1.565" unicode="&#x2529;" horiz-adv-x="950" 
d="M533 267h-20v-438h-76v438h-437v117h416v445h117v-562z" />
    <glyph glyph-name="Korea1.566" unicode="&#x252a;" horiz-adv-x="950" 
d="M533 -171h-117v438h-416v117h437v445h76v-445h20v-555z" />
    <glyph glyph-name="Korea1.567" unicode="&#x252d;" horiz-adv-x="950" 
d="M951 289h-438v-460h-76v438h-437v117h513v-22h438v-73z" />
    <glyph glyph-name="Korea1.568" unicode="&#x252e;" horiz-adv-x="950" 
d="M951 267h-438v-438h-76v460h-437v73h437v22h514v-117z" />
    <glyph glyph-name="Korea1.569" unicode="&#x2531;" horiz-adv-x="950" 
d="M951 289h-418v-460h-118v438h-415v117h533v-22h418v-73z" />
    <glyph glyph-name="Korea1.570" unicode="&#x2532;" horiz-adv-x="950" 
d="M951 267h-418v-438h-117v460h-416v73h416v22h535v-117z" />
    <glyph glyph-name="Korea1.571" unicode="&#x2535;" horiz-adv-x="950" 
d="M951 290h-438v-22h-513v117h437v444h76v-466h438v-73z" />
    <glyph glyph-name="Korea1.572" unicode="&#x2536;" horiz-adv-x="950" 
d="M951 268h-514v22h-437v73h437v466h76v-444h438v-117z" />
    <glyph glyph-name="Korea1.573" unicode="&#x2539;" horiz-adv-x="950" 
d="M951 290h-418v-22h-533v117h416v444h117v-466h418v-73z" />
    <glyph glyph-name="Korea1.574" unicode="&#x253a;" horiz-adv-x="950" 
d="M951 268h-535v22h-416v73h416v466h117v-444h418v-117z" />
    <glyph glyph-name="Korea1.575" unicode="&#x253d;" horiz-adv-x="950" 
d="M951 289h-438v-460h-76v438h-437v117h437v445h76v-467h438v-73z" />
    <glyph glyph-name="Korea1.576" unicode="&#x253e;" horiz-adv-x="950" 
d="M951 268h-438v-439h-76v461h-437v73h437v466h76v-444h438v-117z" />
    <glyph glyph-name="Korea1.577" unicode="&#x2540;" horiz-adv-x="950" 
d="M951 289h-438v-461h-76v461h-437v73h416v467h117v-467h418v-73z" />
    <glyph glyph-name="Korea1.578" unicode="&#x2541;" horiz-adv-x="950" 
d="M951 290h-418v-461h-117v461h-416v73h437v466h76v-466h438v-73z" />
    <glyph glyph-name="Korea1.579" unicode="&#x2543;" horiz-adv-x="950" 
d="M951 290h-438v-461h-76v439h-437v117h416v444h117v-466h418v-73z" />
    <glyph glyph-name="Korea1.580" unicode="&#x2544;" horiz-adv-x="950" 
d="M951 268h-438v-439h-76v461h-437v73h416v466h117v-444h418v-117z" />
    <glyph glyph-name="Korea1.581" unicode="&#x2545;" horiz-adv-x="950" 
d="M951 289h-418v-460h-117v438h-416v117h437v445h76v-467h438v-73z" />
    <glyph glyph-name="Korea1.582" unicode="&#x2546;" horiz-adv-x="950" 
d="M951 267h-418v-438h-117v460h-416v73h437v467h76v-445h438v-117z" />
    <glyph glyph-name="Korea1.583" unicode="&#x2547;" horiz-adv-x="950" 
d="M951 267h-438v-438h-76v438h-437v117h416v445h117v-445h418v-117z" />
    <glyph glyph-name="Korea1.584" unicode="&#x2548;" horiz-adv-x="950" 
d="M951 267h-418v-438h-117v438h-416v117h437v445h76v-445h438v-117z" />
    <glyph glyph-name="Korea1.585" unicode="&#x2549;" horiz-adv-x="950" 
d="M951 289h-418v-460h-117v438h-416v117h416v445h117v-467h418v-73z" />
    <glyph glyph-name="Korea1.586" unicode="&#x254a;" horiz-adv-x="950" 
d="M951 267h-418v-438h-117v460h-416v73h416v467h117v-445h418v-117z" />
    <glyph glyph-name="Korea1.587" unicode="&#x3395;" horiz-adv-x="941" 
d="M88 -239l-93 22l163 766l98 -21l-87 -435q1 -10 17.5 -21.5t31.5 -12.5q55 -2 60 31l96 459l95 -19l-91 -455q-5 -26 18 -26q26 0 56 60l45 -45q69 54 101 96q-31 75 -31 226q0 50 10 107.5t31 117.5t62 99t96 39q111 0 111 -166q0 -78 -22 -162q-40 -153 -148 -280
q7 -23 20.5 -43.5t26.5 -20.5q12 0 22 9.5t15 18t13 24.5l65 -45q-39 -100 -120 -100q-19 0 -36 8.5t-31.5 25t-21.5 27t-18 28.5q-35 -45 -97 -90l-39 54q-46 -64 -105 -67q-53 -5 -90 30q-31 -22 -87 -22q-41 0 -77 20zM757 669q-40 0 -67.5 -113.5t-27.5 -193.5
q0 -61 10 -117q64 95 93 205q22 90 22 148q0 71 -30 71z" />
    <glyph glyph-name="Korea1.588" unicode="&#x3396;" horiz-adv-x="950" 
d="M572 -15l-51 78q52 38 87 86q-32 74 -32 237q0 39 5.5 83.5t20.5 95t36.5 91t57 67t79.5 26.5q60 0 86.5 -46.5t26.5 -119.5q0 -70 -24 -162q-22 -82 -62.5 -160.5t-85.5 -130.5q8 -22 21 -38.5t27 -16.5q12 0 22 10t14.5 17.5t12.5 25.5l65 -46q-19 -51 -51 -75.5
t-68 -24.5q-62 0 -107 80q-38 -49 -80 -77zM766 669q-40 0 -67 -113t-27 -194q0 -78 9 -128q60 89 93 216q23 85 23 148q0 71 -31 71zM163 540v-26q35 26 66 26q24 0 45.5 -15t28.5 -41q13 26 36.5 41t48.5 15q48 0 78.5 -37t30.5 -120v-392h-97v393q0 22 -1 34t-8.5 24
t-20.5 12q-39 0 -39 -93v-370h-93v367q0 97 -35 97q-38 0 -38 -98v-366h-96v549h94z" />
    <glyph glyph-name="Korea1.589" unicode="&#x3397;" horiz-adv-x="886" 
d="M225 541q65 0 105 -53v258h96v-755h-96v32q-31 -47 -105 -47q-79 0 -126.5 72t-47.5 204q0 135 48.5 212t125.5 77zM237 463q-86 0 -86 -211q0 -83 21.5 -140t64.5 -57q47 0 70 47.5t23 124.5v66q0 83 -26 126.5t-67 43.5zM507 -15l-52 78q51 36 86 86q-31 75 -31 237
q0 39 5.5 83.5t20.5 95t36.5 91t57.5 67t80 26.5q59 0 85.5 -46.5t26.5 -119.5q0 -74 -23 -162q-42 -163 -148 -291q19 -55 48 -55q26 0 47 53l67 -46q-20 -51 -52 -75.5t-68 -24.5q-62 0 -107 80q-38 -48 -79 -77zM702 669q-41 0 -68.5 -113t-27.5 -194q0 -70 9 -128
q60 90 94 216q22 81 22 148q0 71 -29 71z" />
    <glyph glyph-name="Korea1.590" unicode="&#x2113;" horiz-adv-x="579" 
d="M459 89l78 -58q-29 -56 -76.5 -89.5t-105.5 -33.5q-78 0 -151 89q-61 -18 -132 -18l-29 84q77 0 118 9q-58 117 -58 281q0 59 12.5 126.5t37.5 136.5t72.5 114t108.5 45q48 0 82 -34t49 -87t20.5 -96t5.5 -82q0 -121 -52.5 -249t-139.5 -185q29 -46 65 -46q26 0 52 26
t43 67zM334 688q-33 0 -59 -35.5t-39.5 -87.5t-20.5 -98.5t-7 -78.5q0 -189 44 -268q64 55 97 165.5t33 212.5q0 46 -11.5 118t-36.5 72z" />
    <glyph glyph-name="Korea1.591" unicode="&#x3398;" horiz-adv-x="868" 
d="M489 -15l-52 78q53 38 86 86q-32 77 -32 237q0 39 6 83.5t20.5 95t36.5 91t58 67t80 26.5q59 0 85.5 -46.5t26.5 -119.5q0 -74 -23 -162q-21 -81 -62.5 -159t-86.5 -132q21 -55 49 -55q26 0 47 53l66 -46q-19 -51 -51 -75.5t-68 -24.5q-62 0 -107 80q-38 -48 -79 -77z
M683 669q-40 0 -67.5 -113.5t-27.5 -193.5q0 -70 9 -128q60 90 94 216q22 81 22 148q0 71 -30 71zM66 -9v755h100v-413l151 207h109l-146 -209l160 -340h-104l-121 262l-49 -68v-194h-100z" />
    <glyph glyph-name="Korea1.592" unicode="&#x33c4;" horiz-adv-x="895" 
d="M379 123l63 -65q-37 -44 -74 -64.5t-88 -20.5q-61 -1 -107.5 25t-72 69.5t-38 92.5t-12.5 103q0 119 59.5 202t169.5 83q91 0 164 -91l-69 -58q-47 67 -95 67q-43 0 -71.5 -34t-39.5 -78t-11 -91q0 -40 6.5 -75t19.5 -66t38 -49t59 -18q53 0 99 68zM787 124l66 -66
q-39 -44 -76 -64.5t-88 -20.5q-61 -1 -107.5 25t-72 69.5t-37.5 92.5t-12 103q0 77 23.5 140t76.5 104t128 41q90 0 166 -91l-71 -58q-47 67 -95 67q-61 0 -92 -63.5t-31 -139.5q0 -87 29 -147.5t95 -60.5q54 0 98 69z" />
    <glyph glyph-name="Korea1.593" unicode="&#x33a3;" horiz-adv-x="1105" 
d="M642 540v-36q23 36 62 36q23 0 42.5 -15t27.5 -40q27 55 80 55q43 0 75 -37.5t32 -119.5v-392h-97v383q0 80 -28 80q-33 0 -33 -93v-370h-94v367q0 97 -32 97q-34 0 -34 -98v-366h-96v549h95zM163 540v-36q25 36 63 36q22 0 42 -15t28 -40q25 55 79 55q43 0 75 -37.5
t32 -119.5v-392h-96v383q0 80 -28 80q-20 0 -27 -23t-7 -70v-370h-94v367q0 97 -32 97q-33 0 -33 -98v-366h-97v549h95zM1065 652q0 -37 -25.5 -63.5t-63.5 -26.5q-30 0 -55 18.5t-36 51.5l50 17q10 -30 39 -30q13 0 22.5 9.5t9.5 23.5q0 38 -32 38h-31v57h32q11 0 19 9.5
t8 21.5q0 25 -29 25q-23 0 -31 -28l-50 16q8 30 31 51t51 21q33 0 58 -20t26 -58q0 -41 -26 -63q33 -22 33 -70z" />
    <glyph glyph-name="Korea1.594" unicode="&#x33a4;" horiz-adv-x="1050" 
d="M1004 652q0 -37 -25.5 -63.5t-63.5 -26.5q-30 0 -55 18.5t-36 51.5l50 17q10 -30 39 -30q13 0 22.5 9.5t9.5 23.5q0 38 -32 38h-31v57h32q11 0 19 9.5t8 21.5q0 25 -29 25q-23 0 -31 -28l-50 16q8 30 31 51t51 21q33 0 58 -20t26 -58q0 -41 -26 -63q33 -22 33 -70z
M368 127l60 -63q-37 -42 -74 -63t-86 -22q-62 -1 -108 24.5t-71.5 70t-37.5 94t-12 104.5q0 119 58.5 201t168.5 82q43 0 77.5 -16t49 -31t35.5 -41l-64 -55q-43 65 -98 65q-44 0 -74.5 -34.5t-42 -78.5t-11.5 -92q0 -89 31 -151t99 -62q59 0 100 68zM552 540v-29
q31 29 67 29q23 0 44.5 -15t29.5 -41q13 26 36 41t48 15q48 0 78.5 -36.5t30.5 -120.5v-392h-96v393q0 70 -30 70q-39 0 -39 -93v-370h-93v367q0 97 -36 97q-38 0 -38 -98v-366h-95v549h93z" />
    <glyph glyph-name="Korea1.595" unicode="&#x33a5;" horiz-adv-x="941" 
d="M168 540v-58q49 58 121 58q52 0 93.5 -26t60.5 -62q22 44 65.5 66t82.5 22q85 0 141 -48t56 -137v-364h-101v376q0 43 -29.5 68t-73.5 25q-42 0 -73.5 -32t-31.5 -89v-348h-100v356q0 52 -31.5 82.5t-72.5 30.5q-42 0 -74.5 -30.5t-32.5 -87.5v-351h-102v549h102z
M895 652q0 -37 -26 -63.5t-64 -26.5q-29 0 -54 18.5t-36 51.5l49 17q11 -30 40 -30q13 0 22.5 9.5t9.5 23.5q0 38 -32 38h-31v57h31q12 0 20 9.5t8 21.5q0 13 -9.5 19t-19.5 6q-23 0 -31 -28l-50 16q8 30 30.5 51t51.5 21q33 0 58 -20t26 -58q0 -39 -26 -63q33 -22 33 -70z
" />
    <glyph glyph-name="Korea1.596" unicode="&#x33a6;" horiz-adv-x="1032" 
d="M66 -9v754h100v-413l149 208h110l-145 -210l160 -339h-103l-123 262l-48 -70v-192h-100zM552 540v-29q31 29 67 29q23 0 44.5 -15t29.5 -41q13 26 36 41t48 15q48 0 78.5 -36.5t30.5 -120.5v-392h-96v393q0 70 -30 70q-39 0 -39 -93v-370h-93v367q0 97 -36 97
q-38 0 -38 -98v-366h-95v549h93zM986 652q0 -37 -26 -63.5t-64 -26.5q-29 0 -54 18.5t-36 51.5l49 17q11 -30 40 -30q13 0 22.5 9.5t9.5 23.5q0 38 -32 38h-31v57h31q12 0 20 9.5t8 21.5q0 13 -9.5 19t-19.5 6q-23 0 -31 -28l-50 16q8 30 30.5 51t51.5 21q33 0 58 -20
t26 -58q0 -39 -26 -63q33 -22 33 -70z" />
    <glyph glyph-name="Korea1.597" unicode="&#x3399;" horiz-adv-x="859" 
d="M304 520v-82h-106v-447h-99v447h-76v82h76v90q0 59 34.5 97.5t91.5 38.5h83v-80h-57q-53 0 -53 -65v-81h106zM441 540v-32q30 32 70 32q24 0 46.5 -15t29.5 -41q13 26 37.5 41t49.5 15q49 0 80.5 -37t31.5 -120v-392h-96v393q0 70 -33 70q-42 0 -42 -93v-370h-93v367
q0 97 -38 97q-41 0 -41 -98v-366h-95v549h93z" />
    <glyph glyph-name="Korea1.598" unicode="&#x339a;" horiz-adv-x="1005" 
d="M402 358v-367h-98v357q0 117 -64 117q-33 0 -53 -30t-20 -87v-357h-100v551h100v-38q33 38 82 38q73 0 113 -47.5t40 -136.5zM568 540v-32q29 32 74 32q24 0 49 -15t32 -41q13 26 39.5 41t51.5 15q49 0 83 -37t34 -120v-392h-97v393q0 70 -37 70q-22 0 -34 -25t-12 -68
v-370h-93v367q0 48 -12.5 72.5t-30.5 24.5q-21 0 -33 -27.5t-12 -70.5v-366h-96v549h94z" />
    <glyph glyph-name="Korea1.599" unicode="&#x339b;" horiz-adv-x="1032" 
d="M595 540v-32q29 32 74 32q24 0 49 -15t32 -41q13 26 39.5 41t52.5 15q49 0 82.5 -37t33.5 -120v-392h-96v393q0 70 -38 70q-22 0 -34 -25t-12 -68v-370h-93v367q0 48 -12.5 72.5t-30.5 24.5q-21 0 -33 -27.5t-12 -70.5v-366h-96v549h94zM88 -239l-93 22l163 766l98 -21
l-87 -435q1 -11 15.5 -22t29.5 -12q50 -2 55 31l96 459l95 -19l-91 -455q-5 -26 18 -26q19 0 41 50l58 -52q-38 -77 -103 -80q-42 -4 -81 33q-31 -22 -83 -22q-36 0 -72 20z" />
    <glyph glyph-name="Korea1.600" unicode="&#x339c;" horiz-adv-x="1032" 
d="M163 540v-36q25 36 63 36q22 0 42 -15t28 -40q25 55 79 55q43 0 75 -37.5t32 -119.5v-392h-93v383q0 30 -8 55t-23 25q-36 0 -36 -93v-370h-90v367q0 97 -34 97q-17 0 -26.5 -27.5t-9.5 -70.5v-366h-94v549h95zM641 540v-36q23 36 62 36q23 0 43 -15t27 -40q27 55 80 55
q43 0 75 -37.5t32 -119.5v-392h-93v383q0 31 -8.5 55.5t-23.5 24.5q-35 0 -35 -93v-370h-90v367q0 97 -34 97q-36 0 -36 -98v-366h-94v549h95z" />
    <glyph glyph-name="Korea1.601" unicode="&#x339d;" horiz-adv-x="959" 
d="M368 127l60 -63q-37 -42 -74 -63t-86 -22q-62 -1 -108 24.5t-71.5 70t-37.5 94t-12 104.5q0 119 58.5 201t168.5 82q43 0 77.5 -16t49 -31t35.5 -41l-64 -55q-43 65 -98 65q-44 0 -74.5 -34.5t-42 -78.5t-11.5 -92q0 -89 31 -151t99 -62q59 0 100 68zM552 540v-29
q31 29 67 29q23 0 44.5 -15t29.5 -41q13 26 36 41t48 15q48 0 78.5 -36.5t30.5 -120.5v-392h-96v393q0 70 -30 70q-39 0 -39 -93v-370h-93v367q0 97 -36 97q-38 0 -38 -98v-366h-95v549h93z" />
    <glyph glyph-name="Korea1.602" unicode="&#x339e;" horiz-adv-x="959" 
d="M66 -9v754h100v-413l149 208h110l-145 -210l160 -339h-103l-123 262l-48 -70v-192h-100zM552 540v-29q31 29 67 29q23 0 44.5 -15t29.5 -41q13 26 36 41t48 15q48 0 78.5 -36.5t30.5 -120.5v-392h-96v393q0 70 -30 70q-39 0 -39 -93v-370h-93v367q0 97 -36 97
q-38 0 -38 -98v-366h-95v549h93z" />
    <glyph glyph-name="Korea1.603" unicode="&#x339f;" horiz-adv-x="1114" 
d="M1072 636v-61h-155v51l63 92q26 37 26 58q0 11 -8 18t-18 7q-17 0 -31 -40l-49 18q23 82 87 82q33 0 55.5 -23t22.5 -56q0 -42 -36 -93l-33 -53h76zM163 540v-36q25 36 63 36q22 0 42 -15t28 -40q25 55 79 55q43 0 75 -37.5t32 -119.5v-392h-93v383q0 30 -8 55t-23 25
q-36 0 -36 -93v-370h-90v367q0 97 -34 97q-17 0 -26.5 -27.5t-9.5 -70.5v-366h-94v549h95zM641 540v-36q23 36 62 36q23 0 43 -15t27 -40q27 55 80 55q43 0 75 -37.5t32 -119.5v-392h-93v383q0 31 -8.5 55.5t-23.5 24.5q-35 0 -35 -93v-370h-90v367q0 97 -34 97
q-36 0 -36 -98v-366h-94v549h95z" />
    <glyph glyph-name="Korea1.604" unicode="&#x33a0;" horiz-adv-x="1059" 
d="M368 127l60 -63q-37 -42 -74 -63t-86 -22q-62 -1 -108 24.5t-71.5 70t-37.5 94t-12 104.5q0 119 58.5 201t168.5 82q43 0 77.5 -16t49 -31t35.5 -41l-64 -55q-43 65 -98 65q-44 0 -74.5 -34.5t-42 -78.5t-11.5 -92q0 -89 31 -151t99 -62q59 0 100 68zM552 540v-29
q31 29 67 29q23 0 44.5 -15t29.5 -41q13 26 36 41t48 15q48 0 78.5 -36.5t30.5 -120.5v-392h-96v393q0 70 -30 70q-39 0 -39 -93v-370h-93v367q0 97 -36 97q-38 0 -38 -98v-366h-95v549h93zM1008 636v-61h-154v51l62 92q26 35 26 58q0 11 -8 18t-18 7q-16 0 -31 -40l-49 18
q23 82 88 82q33 0 55 -23t22 -56q0 -40 -35 -93l-34 -53h76z" />
    <glyph glyph-name="Korea1.605" unicode="&#x33a1;" horiz-adv-x="941" 
d="M168 540v-58q49 58 121 58q52 0 93.5 -26t60.5 -62q22 44 65.5 66t82.5 22q85 0 141 -48t56 -137v-364h-101v376q0 43 -29.5 68t-73.5 25q-42 0 -73.5 -32t-31.5 -89v-348h-100v356q0 52 -31.5 82.5t-72.5 30.5q-42 0 -74.5 -30.5t-32.5 -87.5v-351h-102v549h102z
M896 636v-61h-154v51l62 92q26 35 26 58q0 11 -8 18t-18 7q-16 0 -31 -40l-49 18q25 82 88 82q33 0 55 -23t22 -56q0 -43 -35 -93l-34 -53h76z" />
    <glyph glyph-name="Korea1.606" unicode="&#x33a2;" horiz-adv-x="1032" 
d="M66 -9v754h100v-413l149 208h110l-145 -210l160 -339h-103l-123 262l-48 -70v-192h-100zM552 540v-29q31 29 67 29q23 0 44.5 -15t29.5 -41q13 26 36 41t48 15q48 0 78.5 -36.5t30.5 -120.5v-392h-96v393q0 70 -30 70q-39 0 -39 -93v-370h-93v367q0 97 -36 97
q-38 0 -38 -98v-366h-95v549h93zM979 636v-61h-155v51l63 92q26 35 26 58q0 11 -8 18t-18 7q-17 0 -31 -40l-49 18q23 82 88 82q33 0 55 -23t22 -56q0 -42 -36 -93l-33 -53h76z" />
    <glyph glyph-name="Korea1.607" unicode="&#x33ca;" horiz-adv-x="932" 
d="M167 747v-256q41 49 100 49q84 0 124.5 -58t40.5 -158v-333h-102v338q0 55 -21.5 91.5t-55.5 36.5q-35 0 -60.5 -33t-25.5 -81v-352h-101v756h101zM572 405l-52 65q31 32 85.5 54t96.5 20q81 -3 121.5 -51.5t40.5 -126.5v-257q0 -75 13 -118h-113v34q-40 -46 -110 -46
q-69 0 -116.5 49t-47.5 118q0 74 54.5 132.5t161.5 58.5h58v31q-1 37 -19.5 63.5t-53.5 26.5q-58 0 -119 -53zM764 254h-51q-59 0 -89.5 -32t-30.5 -78q0 -36 21 -58.5t55 -22.5q46 0 70.5 24t24.5 65v102z" />
    <glyph glyph-name="Korea1.608" unicode="&#x338d;" horiz-adv-x="959" 
d="M693 540q56 0 94 -47v47h97v-531q0 -93 -49.5 -164.5t-143.5 -71.5q-91 0 -166 60l51 75q63 -54 110 -54q52 0 76.5 45.5t24.5 106.5v20q-41 -46 -94 -46q-83 0 -129.5 71t-46.5 204q0 131 47.5 208t128.5 77zM702 460q-45 0 -66.5 -61.5t-21.5 -143.5q0 -75 22.5 -133
t65.5 -58q85 0 85 158v73q0 82 -22.5 123.5t-62.5 41.5zM88 -239l-93 22l163 766l98 -21l-87 -435q1 -10 17.5 -21.5t31.5 -12.5q55 -2 60 31l96 459l95 -19l-91 -455q-5 -26 18 -26q26 0 56 60l61 -62q-47 -74 -112 -77q-53 -5 -90 30q-31 -22 -87 -22q-41 0 -77 20z" />
    <glyph glyph-name="Korea1.609" unicode="&#x338e;" horiz-adv-x="986" 
d="M730 540q54 0 94 -47v47h96v-531q0 -43 -11.5 -83.5t-33.5 -75.5t-60.5 -56t-87.5 -21q-89 0 -166 60l51 75q65 -54 111 -54q52 0 76.5 45.5t24.5 106.5v20q-40 -46 -94 -46q-83 0 -130 71t-47 204q0 130 48 207.5t129 77.5zM738 460q-45 0 -66 -61.5t-21 -143.5
q0 -75 22 -133t65 -58q86 0 86 158v73q0 81 -23 123t-63 42zM163 540v-26q35 26 66 26q24 0 45.5 -15t28.5 -41q13 26 36.5 41t48.5 15q48 0 78.5 -37t30.5 -120v-392h-97v393q0 22 -1 34t-8.5 24t-20.5 12q-39 0 -39 -93v-370h-93v367q0 97 -35 97q-38 0 -38 -98v-366h-96
v549h94z" />
    <glyph glyph-name="Korea1.610" unicode="&#x338f;" horiz-adv-x="877" 
d="M610 540q55 0 93 -47v47h98v-531q0 -93 -49.5 -164.5t-143.5 -71.5q-92 0 -166 60l51 75q65 -54 110 -54q52 0 76 45.5t24 106.5v20q-36 -46 -93 -46q-82 0 -128.5 71t-46.5 204q0 131 47.5 208t127.5 77zM618 460q-31 0 -51 -33t-27.5 -77t-7.5 -95q0 -75 22 -133
t64 -58q85 0 85 158v73q0 82 -22.5 123.5t-62.5 41.5zM66 -9v755h100v-413l151 207h109l-146 -209l160 -340h-104l-121 262l-49 -68v-194h-100z" />
    <glyph glyph-name="Korea1.611" unicode="&#x33cf;" horiz-adv-x="795" 
d="M66 -9v754h101v-414l149 208h110l-146 -209l161 -339h-104l-123 259l-47 -64v-195h-101zM528 542v205h105v-205h106v-86h-106v-342q0 -23 6.5 -31t23.5 -8h84v-84h-110q-109 0 -109 120v345h-79v86h79z" />
    <glyph glyph-name="Korea1.612" unicode="&#x3388;" horiz-adv-x="959" 
d="M326 118l63 -60q-56 -83 -137 -84q-54 0 -94.5 26t-62 70t-32 93.5t-10.5 104.5q0 120 50 201.5t148 81.5q48 0 83.5 -26t54.5 -65l-63 -49q-33 63 -71 63q-36 0 -60.5 -34.5t-33 -78.5t-8.5 -93q0 -56 8.5 -101.5t32.5 -79t62 -33.5q19 0 38 19.5t32 44.5zM460 407
l-47 68q77 72 161 69q73 -1 111.5 -46t38.5 -124v-267q0 -72 11 -116h-102v31q-40 -44 -98 -44q-59 0 -102 46.5t-43 123.5q0 32 9.5 63.5t29.5 60t57 46.5t85 18h62v44q0 38 -17 60.5t-52 22.5q-23 0 -53 -16.5t-51 -39.5zM633 258h-56q-47 0 -68.5 -33.5t-22.5 -77.5
q-1 -43 16 -66t49 -23q38 0 60 34t22 78v88zM788 -9v755h98v-755h-98z" />
    <glyph glyph-name="Korea1.613" unicode="&#x3389;" horiz-adv-x="1023" 
d="M67 -9v755h93v-375l85 167h99l-109 -212l105 -335h-88l-79 249l-14 -27v-222h-92zM521 102l54 -55q-21 -35 -46.5 -54t-67.5 -19q-142 0 -142 294q0 118 39.5 200.5t111.5 82.5q71 0 108 -73l-62 -45q-19 41 -43 41q-30 0 -46.5 -65t-16.5 -141q0 -217 58 -217
q31 0 53 51zM673 -22q-52 0 -84.5 52t-32.5 116q0 45 12.5 85.5t47 72.5t84.5 32h36v40q0 88 -42 88q-34 0 -78 -56l-39 67q59 69 124 69q119 0 119 -165v-291q0 -54 11 -97h-92v24q-26 -37 -66 -37zM863 -9v754h92v-754h-92zM736 258h-31q-31 0 -45 -33.5t-15 -77.5
q-2 -89 40 -89q24 0 37.5 25t13.5 67v108z" />
    <glyph glyph-name="Korea1.614" unicode="&#x33c8;" horiz-adv-x="950" 
d="M235 552q63 0 104 -47v242h100v-756h-100v36q-44 -49 -104 -49q-89 0 -138.5 75t-49.5 210q0 133 51 211t137 78zM247 468q-45 0 -70.5 -51t-25.5 -154q0 -96 28 -150t68 -54q92 0 92 157v99q0 65 -27 109t-65 44zM672 -9h-155v755h155q103 0 159.5 -58t56.5 -146
q0 -107 -81 -163q94 -44 94 -173q0 -59 -21 -103t-55.5 -67.5t-72.5 -34t-80 -10.5zM802 206q0 129 -130 129h-58v-261h58q61 0 95.5 36t34.5 96zM788 542q0 52 -29.5 86t-86.5 34h-58v-244h58q51 0 83.5 32t32.5 92z" />
    <glyph glyph-name="Korea1.615" unicode="&#x33a7;" horiz-adv-x="1032" 
d="M480 562v-344h-88v350q0 70 -37 70q-13 0 -23.5 -20.5t-10.5 -49.5v-350h-87v347q0 32 -9.5 52.5t-25.5 20.5q-14 0 -26 -19t-12 -43v-358h-87v500h86v-33q24 34 63 34q18 0 37.5 -10.5t29.5 -27.5q12 19 35 28.5t43 9.5q112 0 112 -157zM654 815h96l-218 -884h-92z
M986 115q0 -68 -48 -107t-116 -39q-100 0 -159 81l55 68q50 -64 104 -64q28 0 47.5 13t19.5 41q0 45 -50 75l-80 48q-73 46 -73 115q0 62 40 100.5t98 38.5q85 0 145 -66l-44 -60q-46 49 -97 46q-44 -3 -44 -53q0 -9 2 -16.5t7.5 -14.5t9.5 -11.5t13.5 -11t13 -9t15.5 -9.5
t14 -8q38 -22 64 -43q63 -53 63 -114z" />
    <glyph glyph-name="Korea1.616" unicode="&#x33a8;" horiz-adv-x="1059" 
d="M480 562v-344h-88v350q0 70 -37 70q-13 0 -23.5 -20.5t-10.5 -49.5v-350h-87v347q0 32 -9.5 52.5t-25.5 20.5q-14 0 -26 -19t-12 -43v-358h-87v500h86v-33q24 34 63 34q18 0 37.5 -10.5t29.5 -27.5q12 19 35 28.5t43 9.5q112 0 112 -157zM986 115q0 -68 -48 -107
t-116 -39q-100 0 -159 81l55 68q50 -64 104 -64q28 0 47.5 13t19.5 41q0 45 -50 75l-80 48q-73 46 -73 115q0 62 40 100.5t98 38.5q85 0 145 -66l-44 -60q-46 49 -97 46q-44 -3 -44 -53q0 -9 2 -16.5t7.5 -14.5t9.5 -11.5t13.5 -11t13 -9t15.5 -9.5t14 -8q38 -22 64 -43
q63 -53 63 -114zM654 815h96l-218 -884h-92zM1008 592v-60h-148v50l63 78q24 29 24 58q0 11 -7.5 18t-16.5 7q-19 0 -31 -40l-50 18q24 82 87 82q33 0 55 -23t22 -56q0 -43 -35 -93l-29 -39h66z" />
    <glyph glyph-name="Korea1.617" unicode="&#x33b0;" horiz-adv-x="886" 
d="M268 540q82 0 130.5 -74.5t48.5 -211.5q0 -140 -47 -211t-132 -71q-60 0 -100 37v-248h-100v779h100v-41q43 41 100 41zM680 308q85 -36 119.5 -72.5t34.5 -104.5q0 -77 -52 -121.5t-130 -44.5q-93 0 -180 90l64 72q62 -74 118 -74q35 0 56.5 19t21.5 58q0 35 -18 54.5
t-67 38.5q-91 33 -126 70t-35 97q0 66 43 112t127 46q78 0 154 -72l-47 -68q-2 1 -11 8t-12 9t-11 8.5t-12 8.5t-12 6.5t-13 6.5t-12 4.5t-13.5 3.5t-12.5 1q-68 0 -68 -73q0 -29 18 -44.5t76 -38.5zM256 456q-88 0 -88 -181v-31q0 -191 88 -191q42 0 65.5 50.5t23.5 150.5
q0 105 -21.5 153.5t-67.5 48.5z" />
    <glyph glyph-name="Korea1.618" unicode="&#x33b1;" horiz-adv-x="895" 
d="M685 308q85 -36 119.5 -72.5t34.5 -104.5q0 -77 -51.5 -121.5t-130.5 -44.5q-49 0 -91 21t-89 69l64 72q64 -74 119 -74q34 0 55.5 19t21.5 58q0 35 -18 54.5t-67 38.5q-91 33 -126 70t-35 97q0 66 43 112t128 46q79 0 153 -72l-47 -68q-2 2 -7 5q-68 48 -101 51
q-69 0 -69 -73q0 -29 18.5 -44t75.5 -39zM429 348v-357h-100v351q0 45 -17.5 79t-58.5 34q-87 0 -87 -113v-351h-100v549h94v-38q39 38 102 38q79 0 123 -51t44 -141z" />
    <glyph glyph-name="Korea1.619" unicode="&#x33b2;" horiz-adv-x="923" 
d="M713 308q85 -36 119 -72.5t34 -104.5q0 -77 -51.5 -121.5t-130.5 -44.5q-88 0 -172 81q-48 -73 -111 -76q-53 -5 -90 30q-31 -22 -87 -22q-41 0 -77 20l-59 -237l-93 22l163 766l98 -21l-87 -435q1 -10 17.5 -21.5t31.5 -12.5q55 -2 60 31l96 459l95 -19l-91 -455
q-5 -26 18 -26q26 0 56 60l52 -54l65 72q62 -74 118 -74q35 0 56 19t21 58q0 35 -18 54.5t-66 38.5q-91 33 -126 70t-35 97q0 66 43 112t127 46q78 0 154 -72l-48 -68q-72 56 -108 56q-68 0 -68 -73q0 -29 18 -44.5t76 -38.5z" />
    <glyph glyph-name="Korea1.620" unicode="&#x33b3;" horiz-adv-x="950" 
d="M742 308q86 -36 120.5 -72.5t34.5 -104.5q0 -77 -52.5 -121.5t-131.5 -44.5q-92 0 -178 90l65 72q62 -74 116 -74q36 0 57.5 19t21.5 58q0 35 -18 54.5t-67 38.5q-92 33 -126.5 70t-34.5 97q0 65 43 111.5t127 46.5q79 0 155 -72l-50 -68q-24 19 -35.5 27t-33 18.5
t-39.5 10.5q-68 0 -68 -73q0 -29 18.5 -44t75.5 -39zM163 540v-26q35 26 66 26q24 0 45.5 -15t28.5 -41q13 26 36.5 41t48.5 15q48 0 78.5 -37t30.5 -120v-392h-97v393q0 22 -1 34t-8.5 24t-20.5 12q-39 0 -39 -93v-370h-93v367q0 97 -35 97q-38 0 -38 -98v-366h-96v549h94z
" />
    <glyph glyph-name="Korea1.621" unicode="&#x33b4;" horiz-adv-x="914" 
d="M631 194l118 552h112l-186 -755h-94l-183 755h112zM264 540q81 0 128.5 -74.5t47.5 -211.5q0 -140 -46 -211t-130 -71q-57 0 -98 38v-249h-100v779h100v-41q44 41 98 41zM251 456q-85 0 -85 -181v-31q0 -191 85 -191q88 0 88 201q0 105 -21.5 153.5t-66.5 48.5z" />
    <glyph glyph-name="Korea1.622" unicode="&#x33b5;" horiz-adv-x="923" 
d="M644 194l119 552h112l-186 -755h-94l-184 755h112zM430 348v-357h-101v351q0 45 -17.5 79t-58.5 34q-86 0 -86 -113v-351h-101v549h95v-38q38 38 102 38q79 0 123 -51t44 -141z" />
    <glyph glyph-name="Korea1.623" unicode="&#x33b6;" horiz-adv-x="950" 
d="M678 194l109 552h113l-177 -755h-94l-175 755h112zM88 -239l-93 22l163 766l98 -21l-87 -435q1 -10 17.5 -21.5t31.5 -12.5q55 -2 60 31l96 459l95 -19l-91 -455q-5 -26 18 -26q26 0 56 60l61 -62q-47 -74 -112 -77q-53 -5 -90 30q-31 -22 -87 -22q-41 0 -77 20z" />
    <glyph glyph-name="Korea1.624" unicode="&#x33b7;" horiz-adv-x="968" 
d="M693 194l111 552h111l-177 -755h-95l-173 755h112zM163 540v-26q35 26 66 26q24 0 45.5 -15t28.5 -41q13 26 36.5 41t48.5 15q48 0 78.5 -37t30.5 -120v-392h-97v393q0 22 -1 34t-8.5 24t-20.5 12q-39 0 -39 -93v-370h-93v367q0 97 -35 97q-38 0 -38 -98v-366h-96v549h94
z" />
    <glyph glyph-name="Korea1.625" unicode="&#x33b8;" horiz-adv-x="905" 
d="M66 -9v755h100v-413l144 207h110l-145 -209l160 -340h-105l-122 262l-42 -68v-194h-100zM626 194l118 552h112l-186 -755h-94l-183 755h112z" />
    <glyph glyph-name="Korea1.626" unicode="&#x33b9;" horiz-adv-x="968" 
d="M709 200l100 546h111l-167 -755h-93l-164 755h111zM473 746v-755h-94v427l-66 -271h-83l-69 266v-422h-94v755h94l111 -426l109 426h92z" />
    <glyph glyph-name="Korea1.627" unicode="&#x3380;" horiz-adv-x="959" 
d="M270 540q88 0 134.5 -69.5t46.5 -207.5q0 -135 -44.5 -210t-126.5 -75q-73 0 -113 47v-262h-101v777h101v-47q45 47 103 47zM559 -9h-103l176 755h85l186 -755h-105l-45 203h-152zM259 461q-92 0 -92 -199q0 -103 21 -153.5t71 -50.5q92 0 92 205q0 198 -92 198zM733 273
l-59 269l-54 -269h113z" />
    <glyph glyph-name="Korea1.628" unicode="&#x3381;" horiz-adv-x="968" 
d="M430 348v-357h-100v351q0 45 -17 79t-59 34q-87 0 -87 -113v-351h-100v549h95v-38q38 38 102 38q79 0 122.5 -51t43.5 -141zM572 -9h-102l175 755h86l185 -755h-104l-46 204h-152zM747 274l-59 268l-55 -268h114z" />
    <glyph glyph-name="Korea1.629" unicode="&#x3382;" horiz-adv-x="950" 
d="M551 -8h-67q-37 -21 -72 -21q-55 0 -92 35q-38 -32 -103 -28q-49 2 -78 24l-52 -236l-92 21l167 759l94 -20l-92 -429q1 -15 19.5 -26t34.5 -11q25 0 44.5 12t22.5 32l96 442l95 -19l-91 -442q-3 -14 5.5 -24.5t29.5 -10.5q31 0 50 29l155 667h85l186 -754h-102l-49 203
h-149zM728 274l-60 268l-55 -268h115z" />
    <glyph glyph-name="Korea1.630" unicode="&#x3383;" horiz-adv-x="1014" 
d="M622 -9h-103l176 755h85l186 -755h-104l-47 204h-151zM798 274l-61 268l-55 -268h116zM163 540v-36q26 36 66 36q24 0 45.5 -15t28.5 -41q13 26 36.5 41t48.5 15q48 0 78.5 -37t30.5 -120v-392h-97v393q0 22 -1 34t-8.5 24t-20.5 12q-39 0 -39 -93v-370h-93v367
q0 97 -35 97q-38 0 -38 -98v-366h-96v549h94z" />
    <glyph glyph-name="Korea1.631" unicode="&#x3384;" horiz-adv-x="932" 
d="M66 -9v755h100v-413l150 207h110l-146 -209l158 -334l174 749h86l186 -755h-104l-47 204h-152l-41 -204h-204l-122 262l-48 -68v-194h-100zM714 274l-60 268l-52 -268h112z" />
    <glyph glyph-name="Korea1.632" unicode="&#x33ba;" horiz-adv-x="977" 
d="M827 749h105l-118 -758h-85l-58 405l-59 -405h-85l-116 758h104l62 -495l55 495h80l51 -498zM266 540q81 0 128.5 -74.5t47.5 -211.5q0 -140 -46 -211t-130 -71q-55 0 -98 38v-249h-100v779h100v-41q44 41 98 41zM254 456q-86 0 -86 -181v-31q0 -191 86 -191t86 201
q0 105 -20.5 153.5t-65.5 48.5z" />
    <glyph glyph-name="Korea1.633" unicode="&#x33bb;" horiz-adv-x="996" 
d="M841 746h104l-117 -755h-85l-59 402l-57 -402h-86l-116 755h105l61 -495l54 495h81l51 -499zM430 348v-357h-101v351q0 45 -17.5 79t-58.5 34q-86 0 -86 -113v-351h-101v549h95v-38q38 38 102 38q79 0 123 -51t44 -141z" />
    <glyph glyph-name="Korea1.634" unicode="&#x33bc;" horiz-adv-x="1014" 
d="M856 749h104l-117 -758h-86l-58 405l-57 -405h-87l-115 758h104l61 -495l56 495h80l51 -498zM88 -239l-93 22l163 766l98 -21l-87 -435q1 -11 15.5 -22t29.5 -12q50 -2 55 31l96 459l95 -19l-91 -455q-5 -26 18 -26q19 0 41 50l58 -52q-38 -77 -103 -80q-42 -4 -81 33
q-31 -22 -83 -22q-36 0 -72 20z" />
    <glyph glyph-name="Korea1.635" unicode="&#x33bd;" horiz-adv-x="1041" 
d="M893 749h103l-117 -758h-85l-59 405l-56 -405h-88l-114 758h104l61 -495l55 495h80l51 -498zM163 540v-36q25 36 63 36q22 0 42 -15t28 -40q25 55 79 55q43 0 75 -37.5t32 -119.5v-392h-96v383q0 80 -28 80q-20 0 -27 -23t-7 -70v-370h-94v367q0 97 -32 97q-33 0 -33 -98
v-366h-97v549h95z" />
    <glyph glyph-name="Korea1.636" unicode="&#x33be;" horiz-adv-x="968" 
d="M820 746h103l-118 -755h-84l-59 402l-58 -402h-85l-116 755h104l61 -495l56 495h79l52 -499zM65 -9v754h99v-415l150 209h110l-144 -209l160 -339h-103l-122 254l-51 -68v-186h-99z" />
    <glyph glyph-name="Korea1.637" unicode="&#x33bf;" horiz-adv-x="1023" 
d="M444 746v-755h-95v404l-55 -227h-76l-54 233v-410h-96v755h93l96 -400l94 400h93zM867 746h104l-112 -755h-89l-52 388l-52 -388h-87l-110 755h102l52 -477l59 477h77l54 -481z" />
    <glyph glyph-name="Korea1.638" unicode="&#x3390;" horiz-adv-x="877" 
d="M455 746v-755h-99v356h-190v-356h-100v755h100v-318h190v318h99zM828 72v-81h-319v68l206 397h-203v84h312v-71l-206 -397h210z" />
    <glyph glyph-name="Korea1.639" unicode="&#x3391;" horiz-adv-x="986" 
d="M652 745v-754h-95v351h-103v-351h-96v754h96v-323h103v323h95zM169 205l-11 -24v-190h-92v754h92v-403l89 197h96l-114 -243l115 -305h-92zM940 71v-80h-266v68l154 397h-152v82h256v-72l-155 -395h163z" />
    <glyph glyph-name="Korea1.640" unicode="&#x3392;" horiz-adv-x="1014" 
d="M407 746v-755h-89v414l-52 -237h-55l-52 244v-421h-90v755h84l86 -434l86 434h82zM713 746v-755h-95v351h-73v-351h-95v755h95v-326h73v326h95zM967 71v-80h-226v69l124 396h-122v84h217v-74l-123 -395h130z" />
    <glyph glyph-name="Korea1.641" unicode="&#x3393;" horiz-adv-x="1005" 
d="M391 375v-319q-48 -78 -144 -78q-101 0 -144.5 95t-43.5 291q0 55 5 106t18 104t34 91.5t55.5 63t78.5 24.5q61 0 93 -33.5t49 -90.5l-71 -46q-28 88 -71 88q-26 0 -45.5 -30.5t-29.5 -79t-15 -98.5t-5 -99q0 -305 93 -305q28 0 56 26v207h-89v83h176zM699 746v-755h-95
v351h-73v-351h-95v755h95v-326h73v326h95zM957 71v-80h-226v69l125 396h-123v84h217v-74l-124 -395h131z" />
    <glyph glyph-name="Korea1.642" unicode="&#x3394;" horiz-adv-x="977" 
d="M353 746v-82h-115v-673h-100v673h-120v82h335zM652 746v-755h-95v351h-83v-351h-95v755h95v-326h83v326h95zM927 71v-80h-244v68l143 397h-141v84h235v-74l-141 -395h148z" />
    <glyph glyph-name="Korea1.643" unicode="&#x2126;" horiz-adv-x="716" 
d="M329 213v-213h-239v75h145v89q-178 99 -177 272q1 76 27.5 136.5t70.5 97t96.5 55.5t109.5 19q123 0 210.5 -79.5t87.5 -227.5q0 -96 -48.5 -164t-126.5 -109v-89h146v-75h-242v213q69 20 120.5 77.5t51.5 146.5q0 110 -56.5 169.5t-142.5 59.5t-145.5 -59.5
t-60.5 -170.5q-1 -88 52 -146t121 -77z" />
    <glyph glyph-name="Korea1.644" unicode="&#x33c0;" horiz-adv-x="986" 
d="M658 221v-230h-194v86h99v84q-65 35 -102 110.5t-37 167.5q0 139 76 223.5t183 84.5q109 0 184 -85.5t75 -221.5q0 -95 -39 -171.5t-105 -111.5v-80h103v-86h-196v230q66 15 100.5 77.5t34.5 141.5q0 99 -41.5 160t-115.5 61q-68 0 -111.5 -66.5t-45.5 -155.5
q-1 -84 32.5 -144.5t99.5 -73.5zM66 -9v754h100v-415l151 209h108l-144 -209l159 -339h-102l-121 254l-51 -68v-186h-100z" />
    <glyph glyph-name="Korea1.645" unicode="&#x33c1;" horiz-adv-x="1059" 
d="M722 221v-230h-194v86h99v84q-65 35 -102 110.5t-37 167.5q0 139 76 223.5t183 84.5q109 0 184 -85.5t75 -221.5q0 -95 -39.5 -171.5t-104.5 -111.5v-80h103v-86h-196v230q66 15 100.5 77.5t34.5 141.5q0 99 -41.5 160t-115.5 61q-68 0 -111.5 -66.5t-45.5 -155.5
q-1 -84 32.5 -144.5t99.5 -73.5zM444 746v-755h-95v404l-55 -227h-76l-54 233v-410h-96v755h93l96 -400l94 400h93z" />
    <glyph glyph-name="Korea1.646" unicode="&#x338a;" horiz-adv-x="895" 
d="M273 540q81 0 130.5 -72t49.5 -207q0 -134 -48.5 -207.5t-131.5 -73.5q-66 0 -106 40v-257h-99v777h99v-49q40 49 106 49zM850 746v-82h-248v-246h226v-81h-226v-346h-102v755h350zM262 461q-47 0 -71 -41.5t-24 -137.5v-32q0 -95 21 -144t74 -49q43 0 67 51t24 153
q0 105 -22 152.5t-69 47.5z" />
    <glyph glyph-name="Korea1.647" unicode="&#x338b;" horiz-adv-x="914" 
d="M870 746v-82h-259v-244h244v-81h-244v-348h-101v755h360zM429 358v-367h-100v361q0 45 -17.5 79t-58.5 34q-35 0 -60.5 -29.5t-25.5 -84.5v-360h-100v547h100v-32q42 38 95 38q79 0 123 -48t44 -138z" />
    <glyph glyph-name="Korea1.648" unicode="&#x338c;" horiz-adv-x="941" 
d="M88 -239l-93 22l163 766l98 -21l-87 -435q1 -10 17.5 -21.5t31.5 -12.5q55 -2 60 31l96 459l95 -19l-91 -455q-5 -26 18 -26q26 0 56 60l61 -62q-47 -74 -112 -77q-53 -5 -90 30q-31 -22 -87 -22q-41 0 -77 20zM894 746v-82h-260v-244h245v-81h-245v-348h-101v755h361z
" />
    <glyph glyph-name="Korea1.649" unicode="&#x33d6;" horiz-adv-x="1032" 
d="M821 264q0 -136 -40 -209.5t-119 -73.5q-78 0 -117.5 74t-39.5 209t40 209.5t117 74.5q82 0 120.5 -77t38.5 -207zM725 264q-3 200 -63 200t-60 -200q0 -195 60 -195q32 0 48 53t15 142zM862 -9v754h100v-754h-100zM166 540v-26q28 26 56 26q19 0 38 -15.5t28 -38.5
q26 54 73 54q42 0 72 -37.5t30 -119.5v-392h-91v383q0 80 -27 80q-19 0 -24.5 -22t-5.5 -71v-370h-91v367q0 97 -27 97q-33 0 -33 -98v-366h-93v549h95z" />
    <glyph glyph-name="Korea1.650" unicode="&#x33c5;" horiz-adv-x="932" 
d="M656 552q65 0 107 -47v242h98v-756h-98v37q-47 -49 -107 -49q-88 0 -139 75t-51 209q0 132 52 210.5t138 78.5zM668 468q-45 0 -71.5 -51.5t-26.5 -153.5q0 -95 29 -149t69 -54q47 0 71 41.5t24 114.5v99q0 64 -28.5 108.5t-66.5 44.5zM379 123l64 -65
q-39 -44 -75.5 -64.5t-89.5 -20.5q-61 0 -106.5 26t-71 69.5t-37.5 92.5t-12 102q0 119 59.5 202t169.5 83q90 0 165 -91l-70 -58q-47 67 -95 67q-33 0 -58 -19.5t-38.5 -50.5t-20 -65t-6.5 -68q0 -40 6.5 -75t20 -66t38.5 -49t59 -18q52 0 98 68z" />
    <glyph glyph-name="Korea1.651" unicode="&#x33ad;" horiz-adv-x="986" 
d="M371 403l-43 51l-41 -47q-26 39 -55 39q-27 0 -43.5 -26t-16.5 -69v-360h-105v549h102v-37q39 37 82 37q45 0 84 -47q47 47 105 47q141 0 141 -175v-263q0 -71 14 -111h-102v18q-26 -29 -66 -29q-60 0 -99.5 42.5t-39.5 116.5q0 75 43 131.5t121 56.5h39v36
q0 37 -14.5 62.5t-39.5 25.5q-26 0 -66 -48zM755 540q34 0 59 -25v231h99v-755h-99v24q-20 -33 -59 -33q-65 0 -101 69t-36 203q0 135 34.5 210.5t102.5 75.5zM768 447q-28 0 -39.5 -48.5t-11.5 -145.5q0 -184 51 -184q49 0 49 152v80q0 146 -49 146zM491 138v105h-32
q-31 0 -50.5 -32t-19.5 -67q2 -77 49 -77q20 0 36.5 20t16.5 51z" />
    <glyph glyph-name="Korea1.652" unicode="&#x33ae;" horiz-adv-x="1054" 
d="M308 399v49q-8 1 -18 1q-23 4 -39.5 -19.5t-15.5 -59.5q0 -29 6.5 -46t12 -21t11.5 -4q20 0 31.5 26.5t11.5 73.5zM475 454q0 -62 3.5 -96t9 -43.5t13.5 -9.5q30 0 30 147q0 170 -30 170q-26 0 -26 -168zM761 805h79l-187 -867h-80zM1011 115q0 -63 -32.5 -103.5
t-87.5 -40.5q-69 0 -148 107l61 65q52 -84 87 -84q36 0 36 55q0 38 -66 94q-93 81 -93 160q0 60 31 99t78 39q33 0 57.5 -19.5t55.5 -60.5l-55 -70q-17 31 -31.5 46.5t-26.5 14.5q-27 -3 -26 -50q1 -45 56 -84q58 -47 81 -91.5t23 -76.5zM614 923v-706h-83v18
q-14 -28 -38 -28q-46 0 -70.5 53.5t-24.5 193.5q0 265 95 265q22 0 38 -25v229h83zM381 564v-347h-73v17q-18 -27 -44 -27q-108 0 -103 161q2 85 44.5 131.5t102.5 36.5v26q0 62 -20 62q-21 0 -45 -64l-46 48q-3 -6 -20 -31q-5 18 -14 33t-14 15q-7 0 -13 -19t-10 -56.5
t-4 -83.5v-249h-80v501h80v-24q17 25 32 25q35 0 58 -60q38 60 76 60q93 0 93 -155z" />
    <glyph glyph-name="Korea1.653" unicode="&#x33af;" horiz-adv-x="1060" 
d="M308 399v49q-8 1 -18 1q-23 4 -39.5 -19.5t-15.5 -59.5q0 -29 6.5 -46t12 -21t11.5 -4q20 0 31.5 26.5t11.5 73.5zM475 454q0 -62 3.5 -96t9 -43.5t13.5 -9.5q30 0 30 147q0 170 -30 170q-26 0 -26 -168zM761 805h79l-187 -867h-80zM1011 115q0 -63 -32.5 -103.5
t-87.5 -40.5q-69 0 -148 107l61 65q52 -84 87 -84q36 0 36 55q0 38 -66 94q-93 81 -93 160q0 60 31 99t78 39q33 0 57.5 -19.5t55.5 -60.5l-55 -70q-17 31 -31.5 46.5t-26.5 14.5q-27 -3 -26 -50q1 -45 56 -84q58 -47 81 -91.5t23 -76.5zM614 923v-706h-83v18
q-14 -28 -38 -28q-46 0 -70.5 53.5t-24.5 193.5q0 265 95 265q22 0 38 -25v229h83zM381 564v-347h-73v17q-18 -27 -44 -27q-108 0 -103 161q2 85 44.5 131.5t102.5 36.5v26q0 62 -20 62q-21 0 -45 -64l-46 48q-3 -6 -20 -31q-5 18 -14 33t-14 15q-7 0 -13 -19t-10 -56.5
t-4 -83.5v-249h-80v501h80v-24q17 25 32 25q35 0 58 -60q38 60 76 60q93 0 93 -155zM1026 592v-60h-148v50l63 78q25 31 25 58q0 11 -7.5 18t-17.5 7q-19 0 -31 -40l-50 18q24 82 87 82q33 0 55.5 -23t22.5 -56q0 -42 -36 -93l-29 -39h66z" />
    <glyph glyph-name="Korea1.654" unicode="&#x33db;" horiz-adv-x="823" 
d="M791 477l-64 -75q-45 54 -85 54q-36 0 -58 -33t-22 -85v-347h-102v548h102v-44q35 46 111 46q56 0 118 -64zM249 308q86 -36 120 -72.5t34 -104.5q0 -77 -51.5 -121.5t-130.5 -44.5q-93 0 -179 90l64 72q62 -74 118 -74q35 0 56 19t21 58q0 35 -18 54.5t-66 38.5
q-91 33 -126 70t-35 97q0 66 43 112t127 46q79 0 153 -72l-48 -68q-2 2 -11 8.5t-12 9t-11 8t-12 8t-11.5 7t-13 6.5t-12 4.5t-12.5 3.5t-12 1q-68 0 -68 -73q0 -29 18 -44.5t75 -38.5z" />
    <glyph glyph-name="Korea1.655" unicode="&#x33a9;" horiz-adv-x="905" 
d="M66 746h149q106 0 167.5 -66.5t61.5 -169.5q0 -108 -61 -173t-168 -65h-47v-281h-102v755zM217 661h-49v-304h49q58 0 89 42t31 111q0 68 -31 109.5t-89 41.5zM541 407l-53 64q35 32 84 53t96 21q81 0 122.5 -50t41.5 -128v-258q0 -75 13 -118h-112v34q-44 -46 -123 -46
q-71 0 -112 47t-41 127q0 71 54.5 127.5t161.5 56.5h60v35q0 40 -19.5 63.5t-55.5 23.5q-51 0 -117 -52zM733 254h-53q-58 0 -89 -30.5t-31 -72.5q0 -88 68 -88q48 0 76.5 24.5t28.5 64.5v102z" />
    <glyph glyph-name="Korea1.656" unicode="&#x33aa;" horiz-adv-x="986" 
d="M717 394l-48 54q-12 -75 -47.5 -125.5t-98.5 -54.5h-54v-277h-99v755h153q70 0 109.5 -73t39.5 -165v-31q45 68 124 68q66 0 94.5 -43t28.5 -110v-287q0 -64 12 -114h-104v18q-19 -30 -73 -30q-58 0 -92.5 47t-34.5 123q0 78 46 128t111 50h40v53q0 77 -34 77
q-33 0 -73 -63zM173 203l-8 -20v-192h-98v755h99v-398l85 190h101l-114 -248l110 -299h-99zM579 508q0 54 -16.5 103.5t-48.5 49.5h-45v-307h45q32 0 48.5 49t16.5 105zM824 138v106h-22q-31 0 -51.5 -27.5t-20.5 -69.5q0 -39 12.5 -59.5t32.5 -20.5q49 0 49 71z" />
    <glyph glyph-name="Korea1.657" unicode="&#x33ab;" horiz-adv-x="1032" 
d="M764 394l-29 34q-12 -67 -47.5 -111.5t-94.5 -48.5h-54v-277h-99v755h153q47 0 82.5 -38t51.5 -91.5t16 -111.5v-4q44 44 97 44q66 0 94.5 -43t28.5 -110v-287q0 -72 13 -114h-99v18q-21 -30 -74 -30q-59 0 -93.5 47t-34.5 123q0 79 46 128.5t112 49.5h42v53q0 37 -12 57
t-29 20q-13 0 -25.5 -9t-20 -18.5t-20.5 -29.5q-3 -4 -4 -6zM402 745v-754h-94v405l-45 -228h-54l-44 228v-405h-95v754h79l89 -406l85 406h79zM649 508q0 55 -16.5 104t-48.5 49h-45v-307h45q32 0 48.5 49t16.5 105zM875 138v106h-25q-30 0 -51 -27.5t-21 -69.5
q0 -80 45 -80q25 0 38.5 20t13.5 51z" />
    <glyph glyph-name="Korea1.658" unicode="&#x33ac;" horiz-adv-x="1023" 
d="M749 394l-30 34q-30 -152 -141 -160h-56v-277h-97v755h153q70 0 109 -73t39 -165v-4q43 41 100 41q66 0 94 -43t28 -110v-287q0 -71 12 -114h-98v18q-24 -30 -76 -30q-58 0 -92.5 47t-34.5 123q0 78 46 128t112 50h42v53q0 38 -10.5 57.5t-27.5 19.5q-34 0 -72 -63z
M380 375v-318q-48 -78 -135 -78q-101 0 -151 91.5t-50 293.5q0 70 9.5 133.5t30 123.5t60.5 96t94 36q60 0 93 -33t51 -91l-75 -46q-30 88 -69 88q-26 0 -45.5 -30.5t-29.5 -79.5t-15 -98t-5 -99q-3 -304 104 -304q26 0 44 26v206h-88v83h177zM632 508q0 54 -17 103.5
t-49 49.5h-44v-307h47q32 0 47.5 49t15.5 105zM859 138v106h-28q-30 0 -49 -27.5t-19 -69.5q0 -80 44 -80q25 0 38.5 20t13.5 51z" />
    <glyph glyph-name="Korea1.659" unicode="&#x33dd;" horiz-adv-x="977" 
d="M763 -20q-57 0 -101 42v-31h-99v754h101v-223q32 32 102 32q75 0 118 -78t43 -205q0 -138 -44 -214.5t-120 -76.5zM746 65q81 0 81 206q0 99 -22.5 151t-58.5 52q-84 0 -84 -175v-49q0 -185 84 -185zM430 745h103l-107 -754h-85l-59 402l-56 -402h-87l-105 754h103
l51 -494l57 494h79l52 -498z" />
    <glyph glyph-name="Korea1.660" unicode="&#x33d0;" horiz-adv-x="814" 
d="M66 -9v755h101v-755h-101zM366 540v-27q25 27 77 27q23 0 48.5 -15.5t36.5 -40.5q13 26 40.5 41t53.5 15q52 0 88.5 -39t36.5 -121v-389h-100v377q0 35 -12.5 60.5t-30.5 25.5q-23 0 -35.5 -25t-12.5 -68v-370h-97v368q0 48 -12.5 72t-30.5 24q-23 0 -35.5 -27t-12.5 -71
v-366h-100v549h98z" />
    <glyph glyph-name="Korea1.661" unicode="&#x33d3;" horiz-adv-x="732" 
d="M222 -9l174 279l-169 270h119l109 -174l109 174h120l-169 -271l173 -278h-118l-113 183l-112 -183h-123zM64 -9v755h103v-755h-103z" />
    <glyph glyph-name="Korea1.662" unicode="&#x33c3;" horiz-adv-x="941" 
d="M670 541q64 0 100 -40v39h100v-779h-100v249q-42 -37 -100 -37q-84 0 -131.5 71t-47.5 210q0 137 49 212t130 75zM682 457q-88 0 -88 -203q0 -98 24.5 -148.5t63.5 -50.5q88 0 88 189v31q0 182 -88 182zM223 -9h-157v755h157q103 0 159 -58t56 -146q0 -107 -81 -163
q93 -44 93 -173q0 -59 -20.5 -103t-55 -67.5t-72 -34t-79.5 -10.5zM352 206q0 129 -129 129h-58v-261h58q60 0 94.5 36t34.5 96zM338 542q0 52 -29 86t-86 34h-58v-244h58q50 0 82.5 32t32.5 92z" />
    <glyph glyph-name="Korea1.663" unicode="&#x33c9;" horiz-adv-x="950" 
d="M696 166l98 373h107l-201 -677q-14 -47 -52.5 -72.5t-79.5 -25.5h-77v93h77q35 0 43 32l31 115l-154 535h108zM465 651l-70 -60q-16 33 -44.5 55.5t-65.5 22.5q-31 0 -56 -31.5t-40.5 -79.5t-23.5 -99.5t-8 -97.5q0 -141 40 -219.5t110 -78.5q28 0 47 14.5t25 35.5v178
h-111v84h208v-291q-17 -46 -61 -77t-108 -31q-68 0 -119 31t-79.5 86t-42 122t-13.5 146q0 72 12.5 139t39 126t73.5 94.5t109 35.5q66 0 106 -28.5t72 -76.5z" />
    <glyph glyph-name="Korea1.664" unicode="&#x33dc;" horiz-adv-x="959" 
d="M476 667l-62 -76q-73 73 -141 73q-45 0 -71 -31t-26 -75q0 -21 8 -39.5t16 -30t28.5 -25.5t30.5 -19.5t37.5 -19t33.5 -16.5l18 -9q46 -23 67.5 -36t48.5 -38.5t38 -60t11 -83.5q0 -93 -65 -150t-158 -57q-64 0 -127 32t-109 90l70 71q29 -42 76 -69.5t89 -27.5
q53 0 86 33t33 76q0 33 -7.5 55.5t-29.5 40t-35.5 25t-51.5 24.5q-11 6 -42 21t-44 22t-37.5 23t-36 30t-25.5 35t-19.5 47t-5.5 58q0 86 56 139.5t144 53.5q110 0 202 -86zM801 535h108l-171 -544h-87l-171 544h111l103 -382z" />
    <glyph glyph-name="Korea1.665" unicode="&#x33c6;" horiz-adv-x="1041" 
d="M694 -170l55 69q37 -37 66 -37t46 32.5t17 89.5v22q-23 -30 -55 -30q-131 0 -131 273q0 271 131 271q34 0 55 -24v24h89v-540q0 -96 -41.5 -151t-110.5 -55q-63 0 -121 56zM360 814h84l-79 -885h-88l12 130q-33 -48 -90 -48q-78 0 -118.5 81t-40.5 274q0 187 43 282
t116 95q79 0 122 -110l-73 -52q-22 72 -49 72q-30 0 -46 -91.5t-16 -196.5q0 -110 16.5 -186t45.5 -76q30 0 47 54l49 -35zM551 195l-14 -31v-173h-87v696h87v-350l78 183h88l-94 -232l107 -297h-91zM833 438q-49 0 -49 -189q0 -76 12 -131t37 -55q45 0 45 118v137
q0 120 -45 120z" />
    <glyph glyph-name="Korea1.666" unicode="&#xc6;" horiz-adv-x="878" 
d="M850 80v-89h-425v198h-191l-100 -198h-107l401 772h414v-90h-329v-239h311v-89h-311v-265h337zM278 278h147v277z" />
    <glyph glyph-name="Korea1.667" unicode="&#xd0;" horiz-adv-x="750" 
d="M147 762h229q148 0 237.5 -113t89.5 -273q0 -163 -90 -274t-237 -111h-229v329h-111v85h111v357zM241 76h127q113 0 174 84t61 216t-63 216t-172 84h-127v-271h158v-85h-158v-244z" />
    <glyph glyph-name="Korea1.668" unicode="&#xaa;" horiz-adv-x="503" 
d="M140 705l-52 73q24 25 72 40t87 15q75 1 117.5 -44.5t42.5 -112.5v-192q0 -50 15 -100h-115v24q-53 -28 -117 -25q-59 5 -98.5 44t-38.5 94q2 116 128 145q56 13 126 17q-3 25 -15.5 44.5t-35.5 19.5q-71 0 -116 -42zM231 589q-73 -12 -75 -69q-1 -22 13.5 -36.5
t35.5 -14.5q39 0 70.5 23t31.5 59v47q-25 -2 -76 -9zM449 248h-407v86h407v-86z" />
    <glyph glyph-name="Korea1.669" unicode="&#x126;" horiz-adv-x="739" 
d="M624 762v-129h79v-86h-79v-556h-93v361h-321v-361h-94v556h-76v86h76v129h94v-129h321v129h93zM210 435h321v112h-321v-112z" />
    <glyph glyph-name="Korea1.670" unicode="&#x132;" horiz-adv-x="672" 
d="M229 40l51 69q57 -50 115 -50q33 0 60 14q52 32 52 111v578h93v-586q0 -124 -106 -181q-39 -23 -97 -23q-92 0 -168 68zM167 762v-771h-93v771h93z" />
    <glyph glyph-name="Korea1.671" unicode="&#x13f;" horiz-adv-x="557" 
d="M496 -62h-419v789h93v-717l2 2h324v-74zM374 326q0 27 17.5 46t43.5 19t43.5 -19t17.5 -46q0 -29 -17.5 -47.5t-43.5 -18.5t-43.5 19.5t-17.5 46.5z" />
    <glyph glyph-name="Korea1.672" unicode="&#x141;" horiz-adv-x="557" 
d="M516 -62h-385v348l-78 -74l-38 47l116 108v360h94v-273l103 95l37 -48l-140 -130v-361l2 2h289v-74z" />
    <glyph glyph-name="Korea1.673" unicode="&#xd8;" horiz-adv-x="726" 
d="M45 371q0 109 35 198.5t108 145t172 55.5q41 0 80 -11l22 69h101l-35 -110q74 -50 114 -142.5t40 -204.5q0 -171 -85.5 -287t-236.5 -116q-30 0 -69 7l-33 -103h-100l45 140q-76 50 -117 145.5t-41 213.5zM140 371q0 -82 23.5 -152.5t68.5 -114.5l182 573q-27 8 -54 8
q-103 0 -161.5 -93t-58.5 -221zM360 53q74 0 125.5 46.5t74 116.5t22.5 155q0 165 -83 254l-181 -568q17 -4 42 -4z" />
    <glyph glyph-name="Korea1.674" unicode="&#x152;" horiz-adv-x="889" 
d="M880 81v-90h-400q-59 -22 -114 -22q-153 0 -237.5 117t-84.5 291t85 291t237 117q31 0 67 -6h438v-94h-366v-243h347v-90h-347v-271h375zM366 64q18 0 43 5v615q-27 5 -43 5q-106 0 -165 -90.5t-59 -221.5q0 -130 58.5 -221.5t165.5 -91.5z" />
    <glyph glyph-name="Korea1.675" unicode="&#xba;" horiz-adv-x="514" 
d="M242 750q-42 0 -71.5 -39t-29.5 -102q0 -55 27 -96.5t74 -41.5q46 0 73.5 42t27.5 96q0 57 -26.5 99t-74.5 42zM242 832q88 0 146 -61t58 -162t-57.5 -160t-146.5 -59q-95 0 -149 62.5t-54 156.5q0 101 58 162t145 61zM453 248h-411v86h411v-86z" />
    <glyph glyph-name="Korea1.676" unicode="&#xde;" horiz-adv-x="580" 
d="M167 779v-136h146q104 0 175 -70t71 -178t-71.5 -177.5t-174.5 -69.5h-146v-157h-96v788h96zM313 550h-146v-310h146q62 0 104 43t42 112t-42 112t-104 43z" />
    <glyph glyph-name="Korea1.677" unicode="&#x166;" horiz-adv-x="609" 
d="M519 350h-171v-359h-98v359h-167v86h167v249h-215v94h531v-94h-218v-249h171v-86z" />
    <glyph glyph-name="Korea1.678" unicode="&#x14a;" horiz-adv-x="693" 
d="M215 -183l57 74q50 -53 117 -53q109 0 109 125v28l-309 587v-587h-100v773h111l301 -588v588h98v-808q0 -132 -109 -186q-43 -23 -101 -23q-104 0 -174 70z" />
    <glyph glyph-name="Korea1.679" unicode="&#x3260;" horiz-adv-x="1141" 
d="M846 94h-103v352h-462v87h534q15 0 23 -8t8 -20v-411zM70 330q0 203 147 350q148 145 354 145t354 -145q146 -146 146 -350q0 -99 -38.5 -190t-107.5 -158q-150 -147 -354 -147t-354 147q-69 68 -108 158.5t-39 189.5zM143 330q0 -88 33 -166.5t91 -136.5
q125 -125 304 -125t304 125q58 58 91 136.5t33 166.5q0 176 -124 305q-126 124 -304 124t-304 -124q-124 -129 -124 -305z" />
    <glyph glyph-name="Korea1.680" unicode="&#x3261;" horiz-adv-x="1141" 
d="M394 521v-304h467v-87h-481q-47 0 -68 18t-21 61v312h103zM70 330q0 203 147 350q148 145 354 145t354 -145q146 -146 146 -350q0 -99 -38.5 -190t-107.5 -158q-150 -147 -354 -147t-354 147q-69 68 -108 158.5t-39 189.5zM143 330q0 -88 33 -166.5t91 -136.5
q125 -125 304 -125t304 125q58 58 91 136.5t33 166.5q0 176 -124 305q-126 124 -304 124t-304 -124q-124 -129 -124 -305z" />
    <glyph glyph-name="Korea1.681" unicode="&#x3262;" horiz-adv-x="1141" 
d="M383 428v-223h468v-87h-481q-48 0 -68.5 18.5t-20.5 60.5v317h559v-86h-457zM70 330q0 203 147 350q148 145 354 145t354 -145q146 -146 146 -350q0 -99 -38.5 -190t-107.5 -158q-150 -147 -354 -147t-354 147q-69 68 -108 158.5t-39 189.5zM143 330q0 -88 33 -166.5
t91 -136.5q125 -125 304 -125t304 125q58 58 91 136.5t33 166.5q0 176 -124 305q-126 124 -304 124t-304 -124q-124 -129 -124 -305z" />
    <glyph glyph-name="Korea1.682" unicode="&#x3263;" horiz-adv-x="1141" 
d="M851 536v-257h-468v-96h482v-87h-494q-49 0 -69 18t-20 60v192h467v83h-467v87h569zM70 330q0 203 147 350q148 145 354 145t354 -145q146 -146 146 -350q0 -99 -38.5 -190t-107.5 -158q-150 -147 -354 -147t-354 147q-69 68 -108 158.5t-39 189.5zM143 330
q0 -88 33 -166.5t91 -136.5q125 -125 304 -125t304 125q58 58 91 136.5t33 166.5q0 176 -124 305q-126 124 -304 124t-304 -124q-124 -129 -124 -305z" />
    <glyph glyph-name="Korea1.683" unicode="&#x3264;" horiz-adv-x="1141" 
d="M856 516v-403h-482q-48 0 -68.5 18t-20.5 61v324h571zM754 200v229h-366v-229h366zM70 330q0 203 147 350q148 145 354 145t354 -145q146 -146 146 -350q0 -99 -38.5 -190t-107.5 -158q-150 -147 -354 -147t-354 147q-69 68 -108 158.5t-39 189.5zM143 330
q0 -88 33 -166.5t91 -136.5q125 -125 304 -125t304 125q58 58 91 136.5t33 166.5q0 176 -124 305q-126 124 -304 124t-304 -124q-124 -129 -124 -305z" />
    <glyph glyph-name="Korea1.684" unicode="&#x3265;" horiz-adv-x="1141" 
d="M753 526h103v-420h-482q-48 0 -68.5 18t-20.5 60v342h103v-132h365v132zM753 307h-365v-115h365v115zM70 330q0 203 147 350q148 145 354 145t354 -145q146 -146 146 -350q0 -99 -38.5 -190t-107.5 -158q-150 -147 -354 -147t-354 147q-69 68 -108 158.5t-39 189.5z
M143 330q0 -88 33 -166.5t91 -136.5q125 -125 304 -125t304 125q58 58 91 136.5t33 166.5q0 176 -124 305q-126 124 -304 124t-304 -124q-124 -129 -124 -305z" />
    <glyph glyph-name="Korea1.685" unicode="&#x3266;" horiz-adv-x="1141" 
d="M70 330q0 203 147 350q148 145 354 145t354 -145q146 -146 146 -350q0 -99 -38.5 -190t-107.5 -158q-150 -147 -354 -147t-354 147q-69 68 -108 158.5t-39 189.5zM143 330q0 -88 33 -166.5t91 -136.5q125 -125 304 -125t304 125q58 58 91 136.5t33 166.5q0 176 -124 305
q-126 124 -304 124t-304 -124q-124 -129 -124 -305zM531 584h119q-12 -92 -54 -170q58 -13 107 -45t78 -64.5t72 -83t74 -80.5h-133q-15 16 -43.5 49t-47 53.5t-44 45t-50.5 40.5t-50 24q-98 -143 -270 -228l-57 66q47 26 90.5 60t88.5 82t77 113t43 138z" />
    <glyph glyph-name="Korea1.686" unicode="&#x3267;" horiz-adv-x="1141" 
d="M571 562q125 0 206.5 -61.5t81.5 -175.5q0 -113 -82 -174.5t-206 -61.5q-125 0 -207 61t-82 175q0 115 81.5 176t207.5 61zM571 480q-85 0 -135.5 -42t-50.5 -113t50.5 -112.5t135.5 -41.5q87 0 137 41.5t50 112.5t-50 113t-137 42zM70 330q0 203 147 350
q148 145 354 145t354 -145q146 -146 146 -350q0 -99 -38.5 -190t-107.5 -158q-150 -147 -354 -147t-354 147q-69 68 -108 158.5t-39 189.5zM143 330q0 -88 33 -166.5t91 -136.5q125 -125 304 -125t304 125q58 58 91 136.5t33 166.5q0 176 -124 305q-126 124 -304 124
t-304 -124q-124 -129 -124 -305z" />
    <glyph glyph-name="Korea1.687" unicode="&#x3268;" horiz-adv-x="1141" 
d="M70 330q0 203 147 350q148 145 354 145t354 -145q146 -146 146 -350q0 -99 -38.5 -190t-107.5 -158q-150 -147 -354 -147t-354 147q-69 68 -108 158.5t-39 189.5zM143 330q0 -88 33 -166.5t91 -136.5q125 -125 304 -125t304 125q58 58 91 136.5t33 166.5q0 176 -124 305
q-126 124 -304 124t-304 -124q-124 -129 -124 -305zM309 95l-56 69q23 13 48 30.5t65.5 51.5t78 83.5t61.5 105.5h-221v87h574v-87h-227q-16 -40 -29 -63q41 -13 84 -45.5t70.5 -62t73 -82.5t65.5 -75h-125q-20 22 -53.5 61t-52.5 60t-47 44.5t-55 35.5q-43 -57 -100.5 -107
t-92.5 -71.5t-61 -34.5z" />
    <glyph glyph-name="Korea1.688" unicode="&#x3269;" horiz-adv-x="1141" 
d="M70 330q0 203 147 350q148 145 354 145t354 -145q146 -146 146 -350q0 -99 -38.5 -190t-107.5 -158q-150 -147 -354 -147t-354 147q-69 68 -108 158.5t-39 189.5zM143 330q0 -88 33 -166.5t91 -136.5q125 -125 304 -125t304 125q58 58 91 136.5t33 166.5q0 176 -124 305
q-126 124 -304 124t-304 -124q-124 -129 -124 -305zM291 464h562v-87h-210q-18 -35 -36 -58q43 -12 81.5 -35t62 -44.5t70.5 -68t79 -75.5h-137q-18 17 -57 54.5t-54.5 51t-41 32t-47.5 28.5q-94 -99 -254 -179l-56 67q184 100 260 227h-222v87zM707 590v-81q-178 0 -272 26
v88q87 -33 272 -33z" />
    <glyph glyph-name="Korea1.689" unicode="&#x326a;" horiz-adv-x="1141" 
d="M70 330q0 203 147 350q148 145 354 145t354 -145q146 -146 146 -350q0 -99 -38.5 -190t-107.5 -158q-150 -147 -354 -147t-354 147q-69 68 -108 158.5t-39 189.5zM143 330q0 -88 33 -166.5t91 -136.5q125 -125 304 -125t304 125q58 58 91 136.5t33 166.5q0 176 -124 305
q-126 124 -304 124t-304 -124q-124 -129 -124 -305zM846 65h-103v162h-458v86h458v153h-462v86h534q31 0 31 -27v-460z" />
    <glyph glyph-name="Korea1.690" unicode="&#x326b;" horiz-adv-x="1141" 
d="M383 189h476v-87h-489q-48 0 -68 18t-20 60v347h569v-86h-468v-83h457v-85h-457v-84zM70 330q0 203 147 350q148 145 354 145t354 -145q146 -146 146 -350q0 -99 -38.5 -190t-107.5 -158q-150 -147 -354 -147t-354 147q-69 68 -108 158.5t-39 189.5zM143 330
q0 -88 33 -166.5t91 -136.5q125 -125 304 -125t304 125q58 58 91 136.5t33 166.5q0 176 -124 305q-126 124 -304 124t-304 -124q-124 -129 -124 -305z" />
    <glyph glyph-name="Korea1.691" unicode="&#x326c;" horiz-adv-x="1141" 
d="M747 194h130v-88h-613v88h109v244h-99v87h593v-87h-94v-160q0 -28 -8 -51.5t-18 -32.5zM476 194h165q17 9 23.5 22.5t6.5 40.5v181h-195v-244zM70 330q0 203 147 350q148 145 354 145t354 -145q146 -146 146 -350q0 -99 -38.5 -190t-107.5 -158q-150 -147 -354 -147
t-354 147q-69 68 -108 158.5t-39 189.5zM143 330q0 -88 33 -166.5t91 -136.5q125 -125 304 -125t304 125q58 58 91 136.5t33 166.5q0 176 -124 305q-126 124 -304 124t-304 -124q-124 -129 -124 -305z" />
    <glyph glyph-name="Korea1.692" unicode="&#x326d;" horiz-adv-x="1141" 
d="M70 330q0 203 147 350q148 145 354 145t354 -145q146 -146 146 -350q0 -99 -38.5 -190t-107.5 -158q-150 -147 -354 -147t-354 147q-69 68 -108 158.5t-39 189.5zM143 330q0 -88 33 -166.5t91 -136.5q125 -125 304 -125t304 125q58 58 91 136.5t33 166.5q0 176 -124 305
q-126 124 -304 124t-304 -124q-124 -129 -124 -305zM892 442v-88h-129q49 -46 49 -117q0 -87 -68 -135q-66 -46 -173 -46q-101 0 -171.5 45.5t-70.5 135.5q0 71 49 117h-130v88h644zM571 351q-64 0 -101 -29t-37 -79t37 -79t101 -29t101 29t37 79t-37 79t-101 29zM429 519
v94q80 -45 284 -45v-83q-191 0 -284 34z" />
    <glyph glyph-name="Korea1.693" unicode="&#x326e;" horiz-adv-x="1141" 
d="M70 330q0 203 147 350q148 145 354 145t354 -145q146 -146 146 -350q0 -99 -38.5 -190t-107.5 -158q-150 -147 -354 -147t-354 147q-69 68 -108 158.5t-39 189.5zM143 330q0 -88 33 -166.5t91 -136.5q125 -125 304 -125t304 125q58 58 91 136.5t33 166.5q0 176 -124 305
q-126 124 -304 124t-304 -124q-124 -129 -124 -305zM793 674v-239h103v-70h-103v-375h-81v684h81zM314 146l-36 53q42 24 70.5 43t64 51t56.5 66t35.5 83.5t14.5 107.5h-225v68h284q24 0 24 -23v-34q0 -137 -67 -240.5t-221 -174.5z" />
    <glyph glyph-name="Korea1.694" unicode="&#x326f;" horiz-adv-x="1141" 
d="M70 330q0 203 147 350q148 145 354 145t354 -145q146 -146 146 -350q0 -99 -38.5 -190t-107.5 -158q-150 -147 -354 -147t-354 147q-69 68 -108 158.5t-39 189.5zM143 330q0 -88 33 -166.5t91 -136.5q125 -125 304 -125t304 125q58 58 91 136.5t33 166.5q0 176 -124 305
q-126 124 -304 124t-304 -124q-124 -129 -124 -305zM786 674v-231h104v-70h-104v-383h-80v684h80zM302 284v336h79v-319q0 -44 19.5 -58t64.5 -14q100 0 193 37v-69q-87 -36 -211 -36q-77 0 -111 28.5t-34 94.5z" />
    <glyph glyph-name="Korea1.695" unicode="&#x3270;" horiz-adv-x="1141" 
d="M70 330q0 203 147 350q148 145 354 145t354 -145q146 -146 146 -350q0 -99 -38.5 -190t-107.5 -158q-150 -147 -354 -147t-354 147q-69 68 -108 158.5t-39 189.5zM143 330q0 -88 33 -166.5t91 -136.5q125 -125 304 -125t304 125q58 58 91 136.5t33 166.5q0 176 -124 305
q-126 124 -304 124t-304 -124q-124 -129 -124 -305zM601 551h-220v-257q0 -43 19.5 -58t63.5 -15q108 0 194 38v-69q-94 -37 -212 -37q-77 0 -111 29t-34 95v342h300v-68zM786 674v-231h104v-70h-104v-383h-80v684h80z" />
    <glyph glyph-name="Korea1.696" unicode="&#x3271;" horiz-adv-x="1141" 
d="M70 330q0 203 147 350q148 145 354 145t354 -145q146 -146 146 -350q0 -99 -38.5 -190t-107.5 -158q-150 -147 -354 -147t-354 147q-69 68 -108 158.5t-39 189.5zM143 330q0 -88 33 -166.5t91 -136.5q125 -125 304 -125t304 125q58 58 91 136.5t33 166.5q0 176 -124 305
q-126 124 -304 124t-304 -124q-124 -129 -124 -305zM461 206q98 0 203 38v-67q-101 -36 -221 -36q-77 0 -111 28.5t-34 94.5v166h220v121h-224v65h303v-253h-220v-84q0 -43 20 -58t64 -15zM795 674v-239h104v-70h-104v-375h-81v684h81z" />
    <glyph glyph-name="Korea1.697" unicode="&#x3272;" horiz-adv-x="1141" 
d="M70 330q0 203 147 350q148 145 354 145t354 -145q146 -146 146 -350q0 -99 -38.5 -190t-107.5 -158q-150 -147 -354 -147t-354 147q-69 68 -108 158.5t-39 189.5zM143 330q0 -88 33 -166.5t91 -136.5q125 -125 304 -125t304 125q58 58 91 136.5t33 166.5q0 176 -124 305
q-126 124 -304 124t-304 -124q-124 -129 -124 -305zM288 282v337h326v-436q-95 -31 -177 -31h-8q-77 1 -109 31.5t-32 98.5zM794 674v-239h105v-70h-105v-375h-81v684h81zM534 233v317h-165v-260q0 -39 17 -55t61 -17q48 0 87 15z" />
    <glyph glyph-name="Korea1.698" unicode="&#x3273;" horiz-adv-x="1141" 
d="M70 330q0 203 147 350q148 145 354 145t354 -145q146 -146 146 -350q0 -99 -38.5 -190t-107.5 -158q-150 -147 -354 -147t-354 147q-69 68 -108 158.5t-39 189.5zM143 330q0 -88 33 -166.5t91 -136.5q125 -125 304 -125t304 125q58 58 91 136.5t33 166.5q0 176 -124 305
q-126 124 -304 124t-304 -124q-124 -129 -124 -305zM533 623h81v-449q-97 -29 -177 -29h-8q-77 1 -109 31.5t-32 97.5v349h81v-162h164v162zM794 674v-239h105v-70h-105v-375h-81v684h81zM533 394h-164v-111q0 -38 17 -54.5t61 -17.5q44 0 86 15v168z" />
    <glyph glyph-name="Korea1.699" unicode="&#x3274;" horiz-adv-x="1141" 
d="M70 330q0 203 147 350q148 145 354 145t354 -145q146 -146 146 -350q0 -99 -38.5 -190t-107.5 -158q-150 -147 -354 -147t-354 147q-69 68 -108 158.5t-39 189.5zM143 330q0 -88 33 -166.5t91 -136.5q125 -125 304 -125t304 125q58 58 91 136.5t33 166.5q0 176 -124 305
q-126 124 -304 124t-304 -124q-124 -129 -124 -305zM788 674v-231h103v-70h-103v-383h-80v684h80zM655 166h-85q-6 9 -49 83t-73 96q-51 -102 -159 -185l-42 48q7 5 18 14t39 40.5t50 67t39.5 92.5t17.5 118v84h84v-83q0 -76 -26 -147q38 -13 66 -43.5t66 -96t54 -88.5z" />
    <glyph glyph-name="Korea1.700" unicode="&#x3275;" horiz-adv-x="1141" 
d="M70 330q0 203 147 350q148 145 354 145t354 -145q146 -146 146 -350q0 -99 -38.5 -190t-107.5 -158q-150 -147 -354 -147t-354 147q-69 68 -108 158.5t-39 189.5zM143 330q0 -88 33 -166.5t91 -136.5q125 -125 304 -125t304 125q58 58 91 136.5t33 166.5q0 176 -124 305
q-126 124 -304 124t-304 -124q-124 -129 -124 -305zM447 625q82 0 130.5 -65t48.5 -175t-48.5 -175t-130.5 -65q-83 0 -131 64.5t-48 175.5q0 110 49 175t130 65zM790 674v-239h105v-70h-105v-375h-80v684h80zM447 560q-45 0 -71.5 -47t-26.5 -129q0 -81 26.5 -128t71.5 -47
q46 0 73 47.5t27 128.5t-27 128t-73 47z" />
    <glyph glyph-name="Korea1.701" unicode="&#x3276;" horiz-adv-x="1141" 
d="M70 330q0 203 147 350q148 145 354 145t354 -145q146 -146 146 -350q0 -99 -38.5 -190t-107.5 -158q-150 -147 -354 -147t-354 147q-69 68 -108 158.5t-39 189.5zM143 330q0 -88 33 -166.5t91 -136.5q125 -125 304 -125t304 125q58 58 91 136.5t33 166.5q0 176 -124 305
q-126 124 -304 124t-304 -124q-124 -129 -124 -305zM567 166q-15 22 -37 63t-41 69.5t-39 44.5q-28 -55 -67.5 -100t-65.5 -63l-26 -17l-40 46q6 5 17 14t38 41t48 68t39 95t19 123h-124v69h335v-69h-123q-1 -78 -28 -156q21 -8 39 -21.5t36 -38.5t30 -44t35.5 -59.5
t37.5 -64.5h-83zM788 674v-239h104v-70h-104v-375h-80v684h80z" />
    <glyph glyph-name="Korea1.702" unicode="&#x3277;" horiz-adv-x="1141" 
d="M70 330q0 203 147 350q148 145 354 145t354 -145q146 -146 146 -350q0 -99 -38.5 -190t-107.5 -158q-150 -147 -354 -147t-354 147q-69 68 -108 158.5t-39 189.5zM143 330q0 -88 33 -166.5t91 -136.5q125 -125 304 -125t304 125q58 58 91 136.5t33 166.5q0 176 -124 305
q-126 124 -304 124t-304 -124q-124 -129 -124 -305zM279 548h340v-68h-123q-13 -66 -23 -95q27 -11 53 -38t41.5 -50.5t43 -71t39.5 -67.5h-83q-14 23 -39.5 68t-42 69t-34.5 38q-54 -102 -160 -180l-40 47q6 4 15 11t34 32.5t45 55.5t39.5 79t25.5 102h-131v68zM788 674
v-246h104v-71h-104v-367h-80v684h80zM353 608v67q72 -26 195 -26v-62q-133 0 -195 21z" />
    <glyph glyph-name="Korea1.703" unicode="&#x3278;" horiz-adv-x="1141" 
d="M70 330q0 203 147 350q148 145 354 145t354 -145q146 -146 146 -350q0 -99 -38.5 -190t-107.5 -158q-150 -147 -354 -147t-354 147q-69 68 -108 158.5t-39 189.5zM143 330q0 -88 33 -166.5t91 -136.5q125 -125 304 -125t304 125q58 58 91 136.5t33 166.5q0 176 -124 305
q-126 124 -304 124t-304 -124q-124 -129 -124 -305zM314 146l-36 53q72 41 123 83.5t82 103.5h-189v69h214q12 48 12 95h-226v68h282q24 0 24 -23v-34q0 -137 -66 -240.5t-220 -174.5zM793 674v-239h103v-70h-103v-375h-81v684h81z" />
    <glyph glyph-name="Korea1.704" unicode="&#x3279;" horiz-adv-x="1141" 
d="M70 330q0 203 147 350q148 145 354 145t354 -145q146 -146 146 -350q0 -99 -38.5 -190t-107.5 -158q-150 -147 -354 -147t-354 147q-69 68 -108 158.5t-39 189.5zM143 330q0 -88 33 -166.5t91 -136.5q125 -125 304 -125t304 125q58 58 91 136.5t33 166.5q0 176 -124 305
q-126 124 -304 124t-304 -124q-124 -129 -124 -305zM657 260v-68q-91 -37 -215 -37q-77 0 -111.5 29t-34.5 95v337h300v-65h-219v-115h212v-65h-212v-77q0 -43 19.5 -58t63.5 -15q108 0 197 39zM785 674v-231h104v-70h-104v-383h-80v684h80z" />
    <glyph glyph-name="Korea1.705" unicode="&#x327a;" horiz-adv-x="1141" 
d="M70 330q0 203 147 350q148 145 354 145t354 -145q146 -146 146 -350q0 -99 -38.5 -190t-107.5 -158q-150 -147 -354 -147t-354 147q-69 68 -108 158.5t-39 189.5zM143 330q0 -88 33 -166.5t91 -136.5q125 -125 304 -125t304 125q58 58 91 136.5t33 166.5q0 176 -124 305
q-126 124 -304 124t-304 -124q-124 -129 -124 -305zM664 264v-68q-92 -38 -218 -38h-183v69h51v323h-48v69h368v-69h-49v-260q0 -38 -17 -55q51 10 96 29zM790 674v-239h103v-70h-103v-375h-80v684h80zM467 227q17 0 26.5 14.5t9.5 36.5v272h-108v-323h72z" />
    <glyph glyph-name="Korea1.706" unicode="&#x327b;" horiz-adv-x="1141" 
d="M70 330q0 203 147 350q148 145 354 145t354 -145q146 -146 146 -350q0 -99 -38.5 -190t-107.5 -158q-150 -147 -354 -147t-354 147q-69 68 -108 158.5t-39 189.5zM143 330q0 -88 33 -166.5t91 -136.5q125 -125 304 -125t304 125q58 58 91 136.5t33 166.5q0 176 -124 305
q-126 124 -304 124t-304 -124q-124 -129 -124 -305zM446 462q75 0 118.5 -44t43.5 -116q0 -73 -43.5 -116.5t-118.5 -43.5q-74 0 -117 43t-43 116t43 117t117 44zM788 674v-246h104v-71h-104v-366h-80v683h80zM446 195q38 0 60.5 29.5t22.5 77.5t-22.5 77.5t-60.5 29.5
q-36 0 -58.5 -30t-22.5 -77q0 -48 22.5 -77.5t58.5 -29.5zM640 551v-67h-389v67h389zM547 650v-62q-132 0 -201 21v67q72 -26 201 -26z" />
    <glyph glyph-name="Korea1.707" unicode="&#x24d0;" horiz-adv-x="1141" 
d="M433 416l-29 61q-4 0 14 17t55 34t79 17q65 0 109 -33t44 -100v-218q0 -23 15 -23q14 0 45 23v-58q-46 -30 -81 -30q-57 0 -65 43q-52 -43 -120 -43q-48 0 -77 31t-29 71q0 69 49 106.5t177 76.5v6q0 39 -18 55t-55 16q-58 0 -113 -52zM619 203v135q-7 -2 -28.5 -10
t-29.5 -11t-24.5 -11t-23.5 -14.5t-16.5 -17t-13 -23t-3.5 -28.5q0 -26 17 -41.5t43 -15.5q40 0 79 37zM70 330q0 203 147 350q148 145 354 145t354 -145q146 -146 146 -350q0 -99 -38.5 -190t-107.5 -158q-150 -147 -354 -147t-354 147q-69 68 -108 158.5t-39 189.5z
M143 330q0 -88 33 -166.5t91 -136.5q125 -125 304 -125t304 125q58 58 91 136.5t33 166.5q0 176 -124 305q-126 124 -304 124t-304 -124q-124 -129 -124 -305z" />
    <glyph glyph-name="Korea1.708" unicode="&#x24d1;" horiz-adv-x="1141" 
d="M424 35v623h87v-248q47 38 111 38q84 0 132 -62.5t48 -154.5q0 -51 -14 -91.5t-36 -64.5t-51.5 -40t-57.5 -22t-57 -6q-94 0 -162 28zM511 330v-236q25 -11 62 -11q63 0 102 34.5t39 109.5q0 63 -30.5 104t-83.5 41q-52 0 -89 -42zM70 330q0 203 147 350q148 145 354 145
t354 -145q146 -146 146 -350q0 -99 -38.5 -190t-107.5 -158q-150 -147 -354 -147t-354 147q-69 68 -108 158.5t-39 189.5zM143 330q0 -88 33 -166.5t91 -136.5q125 -125 304 -125t304 125q58 58 91 136.5t33 166.5q0 176 -124 305q-126 124 -304 124t-304 -124
q-124 -129 -124 -305z" />
    <glyph glyph-name="Korea1.709" unicode="&#x24d2;" horiz-adv-x="1141" 
d="M729 504l-30 -68q-44 23 -88 23q-65 0 -107 -40t-42 -106q0 -72 44 -109.5t113 -37.5q55 0 103 29v-78q-56 -24 -111 -24q-102 0 -168.5 57t-66.5 162q0 100 67 160.5t168 60.5q32 0 61.5 -7.5t43.5 -14.5zM70 330q0 203 147 350q148 145 354 145t354 -145
q146 -146 146 -350q0 -99 -38.5 -190t-107.5 -158q-150 -147 -354 -147t-354 147q-69 68 -108 158.5t-39 189.5zM143 330q0 -88 33 -166.5t91 -136.5q125 -125 304 -125t304 125q58 58 91 136.5t33 166.5q0 176 -124 305q-126 124 -304 124t-304 -124q-124 -129 -124 -305z
" />
    <glyph glyph-name="Korea1.710" unicode="&#x24d3;" horiz-adv-x="1141" 
d="M624 427v231h88v-629q-64 -22 -140 -22q-120 0 -180 62.5t-60 162.5q0 98 59 157t144 59q49 0 89 -21zM624 93v260q-34 23 -75 23q-54 0 -91.5 -39.5t-37.5 -113.5q0 -38 13 -65.5t29.5 -41.5t38.5 -22t35 -9.5t24 -1.5q38 0 64 10zM70 330q0 203 147 350
q148 145 354 145t354 -145q146 -146 146 -350q0 -99 -38.5 -190t-107.5 -158q-150 -147 -354 -147t-354 147q-69 68 -108 158.5t-39 189.5zM143 330q0 -88 33 -166.5t91 -136.5q125 -125 304 -125t304 125q58 58 91 136.5t33 166.5q0 176 -124 305q-126 124 -304 124
t-304 -124q-124 -129 -124 -305z" />
    <glyph glyph-name="Korea1.711" unicode="&#x24d4;" horiz-adv-x="1141" 
d="M362 325q0 98 54.5 158.5t142.5 60.5q84 0 134.5 -58.5t50.5 -159.5v-16h-299q5 -55 42 -91t97 -36q84 0 143 46v-82q-6 -5 -18 -12.5t-51 -19.5t-79 -12q-8 0 -18 0.5t-32.5 5.5t-42.5 13t-44 24.5t-40.5 39t-28 58.5t-11.5 81zM448 372h212q-3 47 -29 73t-72 26
q-47 0 -76.5 -27.5t-34.5 -71.5zM70 330q0 203 147 350q148 145 354 145t354 -145q146 -146 146 -350q0 -99 -38.5 -190t-107.5 -158q-150 -147 -354 -147t-354 147q-69 68 -108 158.5t-39 189.5zM143 330q0 -88 33 -166.5t91 -136.5q125 -125 304 -125t304 125
q58 58 91 136.5t33 166.5q0 176 -124 305q-126 124 -304 124t-304 -124q-124 -129 -124 -305z" />
    <glyph glyph-name="Korea1.712" unicode="&#x24d5;" horiz-adv-x="1141" 
d="M699 650v-78q-20 4 -33 4q-29 0 -48 -9t-27.5 -27t-11 -35t-2.5 -43v-33h72v-73h-72v-350h-87v350h-58v73h58v27q0 95 40.5 147.5t104.5 52.5q36 0 64 -6zM70 330q0 203 147 350q148 145 354 145t354 -145q146 -146 146 -350q0 -99 -38.5 -190t-107.5 -158
q-150 -147 -354 -147t-354 147q-69 68 -108 158.5t-39 189.5zM143 330q0 -88 33 -166.5t91 -136.5q125 -125 304 -125t304 125q58 58 91 136.5t33 166.5q0 176 -124 305q-126 124 -304 124t-304 -124q-124 -129 -124 -305z" />
    <glyph glyph-name="Korea1.713" unicode="&#x24d6;" horiz-adv-x="1141" 
d="M766 643l-13 -64h-65q40 -35 40 -94q0 -35 -13.5 -62t-29 -40.5t-41 -24t-34.5 -12t-25 -4.5q-66 -9 -66 -35q0 -19 24 -29t91 -24q134 -27 134 -120q0 -64 -56.5 -98.5t-148.5 -34.5q-86 0 -144 34.5t-58 91.5q0 84 111 113q-45 26 -45 56q0 45 71 63q-101 35 -101 136
q0 71 51 109.5t138 38.5h180zM679 129q0 21 -16.5 35.5t-41 21t-44 9t-33.5 2.5q-42 0 -68.5 -18.5t-26.5 -46.5q0 -66 116 -66q52 0 83 17t31 46zM643 492q0 34 -23.5 58.5t-55.5 24.5q-35 0 -58.5 -24.5t-23.5 -58.5q0 -38 22 -60t61 -22q34 0 56 23.5t22 58.5zM70 330
q0 203 147 350q148 145 354 145t354 -145q146 -146 146 -350q0 -99 -38.5 -190t-107.5 -158q-150 -147 -354 -147t-354 147q-69 68 -108 158.5t-39 189.5zM143 330q0 -88 33 -166.5t91 -136.5q125 -125 304 -125t304 125q58 58 91 136.5t33 166.5q0 176 -124 305
q-126 124 -304 124t-304 -124q-124 -129 -124 -305z" />
    <glyph glyph-name="Korea1.714" unicode="&#x24d7;" horiz-adv-x="1141" 
d="M508 659v-275q52 64 129 64q70 0 105 -49.5t35 -139.5v-244h-88v259q0 54 -22 81t-55 27q-52 0 -104 -60v-307h-84v644h84zM70 330q0 203 147 350q148 145 354 145t354 -145q146 -146 146 -350q0 -99 -38.5 -190t-107.5 -158q-150 -147 -354 -147t-354 147
q-69 68 -108 158.5t-39 189.5zM143 330q0 -88 33 -166.5t91 -136.5q125 -125 304 -125t304 125q58 58 91 136.5t33 166.5q0 176 -124 305q-126 124 -304 124t-304 -124q-124 -129 -124 -305z" />
    <glyph glyph-name="Korea1.715" unicode="&#x24d8;" horiz-adv-x="1141" 
d="M612 447v-423h-86v423h86zM518 586q0 21 15 36t36 15t36.5 -15t15.5 -36t-15.5 -36t-36.5 -15t-36 14.5t-15 36.5zM70 330q0 203 147 350q148 145 354 145t354 -145q146 -146 146 -350q0 -99 -38.5 -190t-107.5 -158q-150 -147 -354 -147t-354 147q-69 68 -108 158.5
t-39 189.5zM143 330q0 -88 33 -166.5t91 -136.5q125 -125 304 -125t304 125q58 58 91 136.5t33 166.5q0 176 -124 305q-126 124 -304 124t-304 -124q-124 -129 -124 -305z" />
    <glyph glyph-name="Korea1.716" unicode="&#x24d9;" horiz-adv-x="1141" 
d="M480 -40l-31 67q57 11 75 41q17 27 17 109v306h88v-313q0 -77 -18 -121.5t-72 -71.5q-31 -16 -59 -17zM533 623q0 20 15 35.5t36 15.5t36 -15.5t15 -35.5q0 -22 -15 -36.5t-36 -14.5t-36 14.5t-15 36.5zM70 330q0 203 147 350q148 145 354 145t354 -145
q146 -146 146 -350q0 -99 -38.5 -190t-107.5 -158q-150 -147 -354 -147t-354 147q-69 68 -108 158.5t-39 189.5zM143 330q0 -88 33 -166.5t91 -136.5q125 -125 304 -125t304 125q58 58 91 136.5t33 166.5q0 176 -124 305q-126 124 -304 124t-304 -124q-124 -129 -124 -305z
" />
    <glyph glyph-name="Korea1.717" unicode="&#x24da;" horiz-adv-x="1141" 
d="M485 659v-644h-86v644h86zM772 438l-177 -206l209 -217h-110l-204 217l181 206h101zM70 330q0 203 147 350q148 145 354 145t354 -145q146 -146 146 -350q0 -99 -38.5 -190t-107.5 -158q-150 -147 -354 -147t-354 147q-69 68 -108 158.5t-39 189.5zM143 330
q0 -88 33 -166.5t91 -136.5q125 -125 304 -125t304 125q58 58 91 136.5t33 166.5q0 176 -124 305q-126 124 -304 124t-304 -124q-124 -129 -124 -305z" />
    <glyph glyph-name="Korea1.718" unicode="&#x24db;" horiz-adv-x="1141" 
d="M610 638v-644h-87v644h87zM70 330q0 203 147 350q148 145 354 145t354 -145q146 -146 146 -350q0 -99 -38.5 -190t-107.5 -158q-150 -147 -354 -147t-354 147q-69 68 -108 158.5t-39 189.5zM143 330q0 -88 33 -166.5t91 -136.5q125 -125 304 -125t304 125q58 58 91 136.5
t33 166.5q0 176 -124 305q-126 124 -304 124t-304 -124q-124 -129 -124 -305z" />
    </font>
</defs>
</svg>
