<?xml version="1.0" standalone="no"?>
<!DOCTYPE svg PUBLIC "-//W3C//DTD SVG 1.1//EN" "//www.w3.org/Graphics/SVG/1.1/DTD/svg11.dtd" >
<svg xmlns="//www.w3.org/2000/svg" xmlns:xlink="//www.w3.org/1999/xlink" version="1.1">
<metadata>
Created by FontForge 20170812 at Mon Mar 30 09:09:17 2020
 By www-data
</metadata>
<defs>
<font id="HomeplusBA" horiz-adv-x="889" >
  <font-face 
    font-family="HomeplusBA"
    font-weight="400"
    font-stretch="normal"
    units-per-em="1000"
    panose-1="2 0 5 3 0 0 0 0 0 0"
    ascent="800"
    descent="-200"
    x-height="486"
    cap-height="770"
    bbox="-60 -282 1236 1004"
    underline-thickness="50"
    underline-position="-150"
    unicode-range="U+0020-FFE6"
  />
<missing-glyph horiz-adv-x="1000" 
d="M100 -100h800v800h-800v-800zM150 -50v700h700v-700h-700z" />
    <glyph glyph-name=".notdef" horiz-adv-x="1000" 
d="M100 -100h800v800h-800v-800zM150 -50v700h700v-700h-700z" />
    <glyph glyph-name=".null" horiz-adv-x="0" 
 />
    <glyph glyph-name="nonmarkingreturn" horiz-adv-x="333" 
 />
    <glyph glyph-name="Korea1.1" unicode=" " horiz-adv-x="278" 
 />
    <glyph glyph-name="Korea1.2" unicode="!" horiz-adv-x="337" 
d="M224 135h-111l-26 635h162zM86 -28q0 34 23.5 58t56.5 24q34 0 58 -24t24 -58t-24 -58t-58 -24q-33 0 -56.5 24t-23.5 58z" />
    <glyph glyph-name="Korea1.3" unicode="&#x22;" horiz-adv-x="463" 
d="M191 629h-89l-16 241h124zM357 629h-89l-16 241h125z" />
    <glyph glyph-name="Korea1.4" unicode="#" horiz-adv-x="671" 
d="M22 545h153l45 217h111l-45 -217h177l46 217h109l-46 -217h97v-94h-117l-36 -166h133v-97h-153l-46 -212h-110l46 212h-177l-46 -212h-110l46 212h-97v97h117l35 166h-132v94zM442 451h-177l-35 -166h176z" />
    <glyph glyph-name="Korea1.5" unicode="$" horiz-adv-x="604" 
d="M540 644l-43 -110q-66 52 -127 69v-196q90 -33 140 -92.5t50 -124.5q0 -70 -45.5 -128t-144.5 -77v-78h-117v76q-95 11 -196 71v159q112 -97 196 -114v218q-99 33 -145 85.5t-50 111.5q0 68 49 127.5t146 75.5v77h117v-76q48 -8 90.5 -26.5t61.5 -33.5zM253 452v149
q-31 -8 -46 -28.5t-15 -43.5q0 -27 13.5 -43t47.5 -34zM370 262v-156q55 22 55 74q0 30 -13.5 48.5t-41.5 33.5z" />
    <glyph glyph-name="Korea1.6" unicode="%" horiz-adv-x="794" 
d="M207 -24h-114l489 781h111zM595 343q71 0 120 -50t49 -129q0 -77 -46 -128t-123 -51q-76 0 -124 50.5t-48 128.5q0 72 49 125.5t123 53.5zM595 77q25 0 42 23.5t17 61.5t-17.5 61.5t-41.5 23.5q-27 0 -45 -23.5t-18 -61.5t18 -61.5t45 -23.5zM198 754q71 0 120 -50
t49 -129q0 -77 -46 -128t-123 -51q-76 0 -124 50.5t-48 128.5q0 72 49 125.5t123 53.5zM198 488q25 0 42 23.5t17 61.5t-17.5 61.5t-41.5 23.5q-27 0 -45 -23.5t-18 -61.5t18 -61.5t45 -23.5z" />
    <glyph glyph-name="Korea1.7" unicode="&#x26;" horiz-adv-x="689" 
d="M684 -10h-168l-68 84q-58 -48 -104 -69t-111 -21q-82 0 -141.5 53t-59.5 134q0 119 163 223q-30 33 -52 78.5t-22 85.5q0 68 51.5 123t143.5 55q88 0 139 -48.5t51 -117.5q0 -100 -130 -194l80 -107q35 49 61 108h135q-38 -109 -114 -210zM371 173l-104 130
q-97 -72 -97 -127q0 -29 20 -51.5t51 -24.5q37 0 72 20t58 53zM305 463q73 50 73 104q0 26 -17.5 44.5t-44.5 18.5q-24 0 -43 -18t-19 -42q0 -44 51 -107z" />
    <glyph glyph-name="Korea1.8" unicode="'" horiz-adv-x="242" 
d="M162 629h-89l-15 241h124z" />
    <glyph glyph-name="Korea1.9" unicode="(" horiz-adv-x="384" 
d="M371 -163h-93q-106 132 -156.5 249t-50.5 262q0 68 13.5 133.5t31 112.5t49.5 102t54 85.5t59 79.5h92q-37 -56 -58.5 -95.5t-48 -104.5t-39.5 -143t-13 -172q0 -288 160 -509z" />
    <glyph glyph-name="Korea1.10" unicode=")" horiz-adv-x="383" 
d="M14 861h92q55 -73 86 -120.5t62.5 -111t44.5 -131t13 -149.5q0 -85 -17 -159.5t-53 -142.5t-62 -107t-74 -103h-91q36 57 56.5 94t47.5 102.5t40 144.5t13 173q0 291 -158 510z" />
    <glyph glyph-name="Korea1.11" unicode="*" horiz-adv-x="481" 
d="M315 573l-1 -16q146 -40 146 -89q0 -19 -15.5 -31.5t-36.5 -12.5q-41 0 -127 79l-8 -4q17 -64 17 -121q0 -22 -14.5 -37.5t-34.5 -15.5q-22 0 -37.5 14t-15.5 36q0 53 16 121l-10 5q-84 -77 -126 -77q-20 0 -34.5 11.5t-14.5 30.5q0 15 11.5 28t35.5 25t42.5 19t49.5 17
l-1 21q-138 44 -138 89q0 19 14.5 31.5t36.5 12.5q9 0 20 -4.5t20.5 -9.5t23.5 -15.5t20.5 -16t21 -17.5t16.5 -14l10 7q-14 68 -14 114q0 24 15.5 40t37.5 16t35.5 -14.5t13.5 -37.5q0 -60 -17 -120l10 -6q78 78 130 78q19 0 33 -13t14 -30q0 -50 -145 -93z" />
    <glyph glyph-name="Korea1.12" unicode="+" horiz-adv-x="682" 
d="M281 100v218h-218v111h218v216h121v-216h217v-111h-217v-218h-121z" />
    <glyph glyph-name="Korea1.13" unicode="," horiz-adv-x="277" 
d="M133 -130h-88l55 210h127z" />
    <glyph glyph-name="Korea1.14" unicode="-" horiz-adv-x="478" 
d="M434 318h-389v111h389v-111z" />
    <glyph glyph-name="Korea1.15" unicode="." horiz-adv-x="273" 
d="M55 -5q0 33 23.5 56.5t56.5 23.5t56.5 -23.5t23.5 -56.5t-23.5 -56.5t-56.5 -23.5t-56.5 23.5t-23.5 56.5z" />
    <glyph glyph-name="Korea1.16" unicode="/" horiz-adv-x="348" 
d="M2 -18l223 772h109l-223 -772h-109z" />
    <glyph glyph-name="Korea1.17" unicode="0" horiz-adv-x="586" 
d="M293 756q118 0 188.5 -99t70.5 -289q0 -181 -70 -283.5t-189 -102.5q-121 0 -189.5 103t-68.5 283t67 284t191 104zM293 640q-56 0 -87.5 -71t-31.5 -202q0 -128 31.5 -198.5t87.5 -70.5q55 0 87.5 72t32.5 197q0 130 -32 201.5t-88 71.5z" />
    <glyph glyph-name="Korea1.18" unicode="1" horiz-adv-x="588" 
d="M270 600l-139 -97l-39 103l193 140h122v-756h-137v610z" />
    <glyph glyph-name="Korea1.19" unicode="2" horiz-adv-x="588" 
d="M283 755q56 0 100.5 -16t71 -40.5t44.5 -56t24.5 -59.5t6.5 -53q0 -132 -113 -258l-156 -172h275v-110h-494v40l301 352q49 58 49 136q0 53 -31.5 89.5t-90.5 36.5q-88 0 -168 -70l-36 100q87 81 217 81z" />
    <glyph glyph-name="Korea1.20" unicode="3" horiz-adv-x="586" 
d="M267 644q-71 0 -154 -73l-43 106q84 79 213 79q102 0 172 -57.5t70 -144.5q0 -117 -101 -169q121 -54 121 -177q0 -102 -73 -166t-195 -64q-127 0 -214 62v146q107 -94 217 -94q10 0 25.5 3.5t41.5 13.5t43.5 36.5t17.5 65.5q0 46 -37 79t-110 33h-101v106h110
q24 0 49 8.5t47 34.5t22 66q0 47 -32.5 76.5t-88.5 29.5z" />
    <glyph glyph-name="Korea1.21" unicode="4" horiz-adv-x="586" 
d="M-10 140v43l366 563h121v-498h112v-108h-112v-150h-133v150h-354zM169 248h175v280z" />
    <glyph glyph-name="Korea1.22" unicode="5" horiz-adv-x="586" 
d="M251 -26q-111 0 -194 48v142q90 -74 191 -74q11 0 24.5 1.5t38 9t43.5 20.5t33.5 38.5t14.5 60.5q0 12 -2 26t-13.5 37t-30 40t-56.5 30t-89 13q-60 0 -130 -22l27 402h405v-109h-278l-15 -172q25 3 50 3q126 0 199 -69t73 -181q0 -113 -83 -178.5t-208 -65.5z" />
    <glyph glyph-name="Korea1.23" unicode="6" horiz-adv-x="586" 
d="M446 746l-186 -297q24 5 52 5q112 0 181.5 -65t69.5 -170q0 -101 -77 -172t-189 -71q-114 0 -189 68t-75 176q0 28 6 57.5t13.5 51t19.5 46t19.5 37t18.5 29.5t12 18l175 287h149zM166 216q0 -56 38 -93.5t95 -37.5q55 0 93 38.5t38 92.5q0 58 -36 95t-95 37
q-57 0 -95 -37.5t-38 -94.5z" />
    <glyph glyph-name="Korea1.24" unicode="7" horiz-adv-x="593" 
d="M117 -10l262 646h-329v109h501v-38l-289 -717h-145z" />
    <glyph glyph-name="Korea1.25" unicode="8" horiz-adv-x="586" 
d="M542 549q0 -109 -97 -159q117 -56 117 -191q0 -96 -76 -159t-193 -63t-193.5 63t-76.5 159q0 135 118 191q-98 50 -98 159q0 89 70.5 149t179.5 60q110 0 179.5 -60t69.5 -149zM293 83q58 0 96.5 36t38.5 89q0 55 -38.5 91t-96.5 36q-59 0 -97.5 -36t-38.5 -91
q0 -53 39 -89t97 -36zM293 652q-51 0 -84.5 -31.5t-33.5 -78.5q0 -46 33.5 -77t84.5 -31t84.5 31t33.5 77q0 47 -33.5 78.5t-84.5 31.5z" />
    <glyph glyph-name="Korea1.26" unicode="9" horiz-adv-x="586" 
d="M144 -10l188 296q-25 -5 -54 -5q-111 0 -180.5 64.5t-69.5 170.5q0 101 77 171.5t190 70.5t188 -67.5t75 -174.5q0 -99 -67 -208l-197 -318h-150zM160 518q0 -58 37 -94.5t94 -36.5q59 0 96 37.5t37 93.5q0 55 -37 93t-96 38q-55 0 -93 -38.5t-38 -92.5z" />
    <glyph glyph-name="Korea1.27" unicode=":" horiz-adv-x="268" 
d="M134 666q33 0 56.5 -23t23.5 -56q0 -34 -23.5 -57.5t-56.5 -23.5q-34 0 -57 23.5t-23 57.5q0 33 23 56t57 23zM134 223q33 0 56.5 -23t23.5 -56q0 -34 -23.5 -57.5t-56.5 -23.5q-34 0 -57 23.5t-23 57.5q0 33 23 56t57 23z" />
    <glyph glyph-name="Korea1.28" unicode=";" horiz-adv-x="287" 
d="M143 666q33 0 57 -23t24 -56q0 -34 -23.5 -57.5t-57.5 -23.5q-33 0 -56 23.5t-23 57.5q0 33 23 56t56 23zM117 29h-89l56 208h127z" />
    <glyph glyph-name="Korea1.29" unicode="&#x3c;" horiz-adv-x="681" 
d="M61 311v102l558 236v-120l-404 -166q228 -96 404 -168v-120z" />
    <glyph glyph-name="Korea1.30" unicode="=" horiz-adv-x="682" 
d="M619 197h-556v111h556v-111zM619 438h-556v112h556v-112z" />
    <glyph glyph-name="Korea1.31" unicode="&#x3e;" horiz-adv-x="678" 
d="M618 411v-102l-557 -235v121l406 166l-406 168v120z" />
    <glyph glyph-name="Korea1.32" unicode="?" horiz-adv-x="565" 
d="M254 669q-32 0 -70 -14.5t-60 -28.5l-21 -15l-42 107q100 61 209 61q97 0 167 -59.5t70 -172.5q0 -40 -13.5 -74t-33.5 -57t-44 -51t-44 -56t-33.5 -73.5t-13.5 -100.5h-136q0 162 116 292q56 64 56 121q0 18 -4 36t-14.5 38.5t-33 33.5t-55.5 13zM180 -28q0 34 24 58
t58 24q33 0 56.5 -24t23.5 -58t-23.5 -58t-56.5 -24q-34 0 -58 24t-24 58z" />
    <glyph glyph-name="Korea1.33" unicode="@" horiz-adv-x="1127" 
d="M706 654h130l-76 -363q-2 -8 -6.5 -27t-7.5 -34t-3 -24q0 -13 6 -19.5t13 -6.5q53 0 120 81.5t67 198.5q0 140 -102 229.5t-254 89.5q-189 0 -304.5 -125.5t-115.5 -309.5q0 -85 24.5 -152.5t65.5 -111t97 -73t116 -41.5t126 -12q228 0 354 146h135q-13 -20 -19.5 -29
t-32.5 -39.5t-49.5 -49.5t-65.5 -46.5t-85.5 -43.5t-105 -28t-129.5 -12q-137 0 -243 39t-171 107t-98 154t-33 186q0 68 16.5 139t57 144t100 129.5t154 92.5t210.5 36q112 0 203 -37t146.5 -98t85 -135t29.5 -152q0 -63 -18.5 -120t-45.5 -97t-62.5 -72.5t-66.5 -51.5
t-59 -30q-39 -12 -82 -12q-97 0 -111 63q-74 -63 -150 -63q-89 0 -148.5 68.5t-59.5 176.5q0 81 36.5 161t104 134t146.5 54q85 0 148 -70zM393 306q0 -60 27 -97t65 -37q70 0 119.5 81t49.5 184q0 62 -29 97t-70 35q-50 0 -89 -45.5t-56 -104t-17 -113.5z" />
    <glyph glyph-name="Korea1.34" unicode="A" horiz-adv-x="750" 
d="M603 -10l-82 194h-303l-78 -194h-135l309 762h108l323 -762h-142zM367 550l-102 -250h207z" />
    <glyph glyph-name="Korea1.35" unicode="B" horiz-adv-x="630" 
d="M446 393q73 -23 113.5 -72.5t40.5 -117.5q0 -103 -76 -158t-187 -55h-262v756h210q49 0 92.5 -10t82.5 -32t62 -62.5t23 -95.5q0 -109 -99 -153zM210 630v-197h60q135 0 135 106q0 51 -34.5 71t-100.5 20h-60zM210 104h85q165 0 165 107q0 106 -167 106h-83v-213z" />
    <glyph glyph-name="Korea1.36" unicode="C" horiz-adv-x="735" 
d="M480 96q94 0 200 59v-129q-97 -50 -215 -50q-187 0 -303.5 109.5t-116.5 282.5q0 167 112.5 279.5t302.5 112.5q59 0 116 -14.5t84 -29.5l28 -14l-46 -116q-92 54 -182 54q-115 0 -195 -73t-80 -199q0 -117 79 -194.5t216 -77.5z" />
    <glyph glyph-name="Korea1.37" unicode="D" horiz-adv-x="780" 
d="M735 368q0 -163 -107 -270.5t-298 -107.5h-255v756h265q182 0 288.5 -104t106.5 -274zM330 106q124 0 194.5 74t70.5 188q0 118 -68 190t-192 72h-125v-524h120z" />
    <glyph glyph-name="Korea1.38" unicode="E" horiz-adv-x="560" 
d="M510 746v-116h-299v-199h287v-115h-287v-210h311v-116h-447v756h435z" />
    <glyph glyph-name="Korea1.39" unicode="F" horiz-adv-x="525" 
d="M490 746v-117h-279v-183h277v-116h-277v-340h-136v756h415z" />
    <glyph glyph-name="Korea1.40" unicode="G" horiz-adv-x="775" 
d="M465 -24q-187 0 -303.5 109.5t-116.5 282.5q0 167 112.5 279.5t302.5 112.5q60 0 117.5 -14.5t84.5 -29.5l28 -14l-46 -116q-89 54 -184 54q-115 0 -195 -73t-80 -199q0 -117 78.5 -194.5t216.5 -77.5q66 0 95 14v165h-120v115h255v-365q-122 -49 -245 -49z" />
    <glyph glyph-name="Korea1.41" unicode="H" horiz-adv-x="800" 
d="M725 746v-756h-136v319h-378v-319h-136v756h136v-318h378v318h136z" />
    <glyph glyph-name="Korea1.42" unicode="I" horiz-adv-x="300" 
d="M218 746v-756h-136v756h136z" />
    <glyph glyph-name="Korea1.43" unicode="J" horiz-adv-x="295" 
d="M-25 -203l-35 109q20 -5 40 -5q60 0 83 29q21 26 21 122v694h136v-694q0 -68 -12.5 -120t-52.5 -90q-51 -50 -135 -50z" />
    <glyph glyph-name="Korea1.44" unicode="K" horiz-adv-x="695" 
d="M211 746v-756h-136v756h136zM371 388q318 -397 319 -398h-167l-307 393q43 64 129.5 185.5t124.5 177.5h165q-43 -60 -131.5 -178.5t-132.5 -179.5z" />
    <glyph glyph-name="Korea1.45" unicode="L" horiz-adv-x="520" 
d="M211 746v-639h299v-117h-435v756h136z" />
    <glyph glyph-name="Korea1.46" unicode="M" horiz-adv-x="880" 
d="M805 746v-756h-135v558q-33 -48 -102.5 -144.5t-102.5 -144.5h-50l-205 288v-557h-135v756h131q8 -11 234 -326l234 326h131z" />
    <glyph glyph-name="Korea1.47" unicode="N" horiz-adv-x="800" 
d="M725 746v-756h-120q-36 48 -400 544v-544h-130v756h120q77 -105 218.5 -298.5t181.5 -248.5v547h130z" />
    <glyph glyph-name="Korea1.48" unicode="O" horiz-adv-x="900" 
d="M45 368q0 166 113 279t292 113t292 -113t113 -279t-113 -279t-292 -113t-292 113t-113 279zM185 368q0 -114 74.5 -193t190.5 -79t190.5 79t74.5 193t-74.5 193t-190.5 79t-190.5 -79t-74.5 -193z" />
    <glyph glyph-name="Korea1.49" unicode="P" horiz-adv-x="590" 
d="M315 406q49 0 82 29.5t33 82.5q0 51 -32.5 81.5t-92.5 30.5h-94v-224h104zM75 -10v756h210q58 0 106.5 -11t90 -36t65 -71t23.5 -110q0 -41 -14.5 -79.5t-44.5 -72.5t-83 -55t-123 -21h-94v-300h-136z" />
    <glyph glyph-name="Korea1.50" unicode="Q" horiz-adv-x="900" 
d="M45 368q0 166 113 279t292 113t292 -113t113 -279q0 -132 -74.5 -234t-200.5 -139q37 -20 92.5 -39t76.5 -19q43 0 66 7q-10 -13 -28.5 -36t-33.5 -42t-28 -36q-169 21 -321 149q-161 15 -260 124.5t-99 264.5zM185 368q0 -114 74.5 -193t190.5 -79t190.5 79t74.5 193
t-74.5 193t-190.5 79t-190.5 -79t-74.5 -193z" />
    <glyph glyph-name="Korea1.51" unicode="R" horiz-adv-x="637" 
d="M546 136q71 -125 84 -146h-154q-38 58 -76 128q-46 83 -76 124.5t-64 56.5q-22 9 -49 11v-320h-136v756h194q123 0 189.5 -62.5t66.5 -153.5q0 -120 -135 -181q41 -30 75.5 -80t80.5 -133zM264 427q51 0 88 27t37 78q0 50 -34.5 75t-89.5 27h-54v-207h53z" />
    <glyph glyph-name="Korea1.52" unicode="S" horiz-adv-x="485" 
d="M231 91q43 -1 71 20t28 63q0 67 -83 121q-124 83 -167 133.5t-43 126.5q0 85 60 145t167 60q52 0 99.5 -18.5t69.5 -37.5l22 -18l-45 -114q-76 73 -150 73q-43 0 -70 -21q-30 -29 -24 -67.5t37 -66.5q26 -24 66.5 -51.5t70.5 -48t59.5 -49t45 -67.5t15.5 -89
q0 -94 -61 -151.5t-160 -57.5q-109 0 -199 66v163q33 -39 88 -76t103 -38z" />
    <glyph glyph-name="Korea1.53" unicode="T" horiz-adv-x="630" 
d="M610 746v-115h-227v-641h-136v641h-227v115h590z" />
    <glyph glyph-name="Korea1.54" unicode="U" horiz-adv-x="770" 
d="M385 -24q-43 0 -81.5 6t-84.5 25.5t-78 51.5t-54 90.5t-22 135.5v461h139v-486q0 -74 47 -120t134 -46t134.5 46t47.5 120v486h138v-461q0 -77 -22 -135.5t-54 -90.5t-78 -51.5t-84.5 -25.5t-81.5 -6z" />
    <glyph glyph-name="Korea1.55" unicode="V" horiz-adv-x="700" 
d="M695 746l-315 -761h-60q-47 120 -155.5 374.5t-159.5 386.5h142q30 -80 101.5 -250.5t101.5 -250.5q29 78 101 248.5t102 252.5h142z" />
    <glyph glyph-name="Korea1.56" unicode="W" horiz-adv-x="1100" 
d="M1095 746l-285 -761h-53q-38 98 -107 281.5t-100 263.5l-207 -545h-53q-250 666 -285 761h147l164 -481l169 481h130q31 -84 86.5 -245.5t82.5 -235.5l164 481h147z" />
    <glyph glyph-name="Korea1.57" unicode="X" horiz-adv-x="750" 
d="M720 746l-265 -365l285 -391h-160l-205 283l-205 -283h-160q83 112 285 391l-265 365h160l185 -256q56 79 185 256h160z" />
    <glyph glyph-name="Korea1.58" unicode="Y" horiz-adv-x="700" 
d="M695 746l-277 -382v-374h-138v374q-69 94 -275 382h157l186 -261l190 261h157z" />
    <glyph glyph-name="Korea1.59" unicode="Z" horiz-adv-x="640" 
d="M620 746l-385 -642h380v-114h-605q126 194 385 641h-350v115h575z" />
    <glyph glyph-name="Korea1.60" unicode="[" horiz-adv-x="387" 
d="M372 853v-109h-143v-809h143v-107h-277v1025h277z" />
    <glyph glyph-name="Korea1.61" unicode="\" horiz-adv-x="350" 
d="M237 -41l-223 793h108l225 -793h-110z" />
    <glyph glyph-name="Korea1.62" unicode="]" horiz-adv-x="387" 
d="M17 -172v107h142v810h-142v108h274v-1025h-274z" />
    <glyph glyph-name="Korea1.63" unicode="^" horiz-adv-x="562" 
d="M160 315h-131l201 455h101l202 -455h-131q-54 127 -121 296z" />
    <glyph glyph-name="Korea1.64" unicode="_" horiz-adv-x="566" 
d="M-16 -82h599v-76h-599v76z" />
    <glyph glyph-name="Korea1.65" unicode="`" horiz-adv-x="402" 
d="M211 818l73 -183h-88q-17 25 -61.5 86.5t-67.5 96.5h144z" />
    <glyph glyph-name="Korea1.66" unicode="a" horiz-adv-x="510" 
d="M441 75q6 0 22 10t29 20l13 10v-97q-65 -42 -112 -42q-66 0 -88 39q-62 -39 -145 -39q-65 0 -102.5 38.5t-37.5 89.5q0 73 47 115t162 83l69 21q0 73 -81 73q-67 0 -142 -72l-45 87q35 40 92 66.5t103 26.5q81 0 143 -43t62 -126v-247q0 -13 11 -13zM298 100v137l-13 -4
q-28 -9 -39 -13t-33.5 -15t-32.5 -21t-19 -26.5t-9 -36.5q0 -26 16 -41.5t41 -15.5q18 0 46 10.5t43 25.5z" />
    <glyph glyph-name="Korea1.67" unicode="b" horiz-adv-x="575" 
d="M60 15v731h132v-272q51 28 118 28q104 0 167 -75t63 -184q0 -60 -18 -107.5t-45.5 -76t-64.5 -47t-71.5 -25.5t-70.5 -7q-123 0 -210 35zM192 356v-264q29 -8 60 -8q68 0 112 37.5t44 118.5q0 66 -34 111t-89 45t-93 -40z" />
    <glyph glyph-name="Korea1.68" unicode="c" horiz-adv-x="517" 
d="M441 367q-64 32 -111 32q-70 0 -116.5 -44t-46.5 -114q0 -78 47 -119.5t121 -41.5q70 0 140 45v-115q-80 -34 -147 -34q-126 0 -209.5 69.5t-83.5 194.5q0 118 84.5 191t210.5 73q40 0 78.5 -10t57.5 -20l19 -9q-39 -87 -44 -98z" />
    <glyph glyph-name="Korea1.69" unicode="d" horiz-adv-x="575" 
d="M515 746v-731q-87 -35 -210 -35q-36 0 -70.5 7t-71.5 25.5t-64.5 47t-45.5 76t-18 107.5q0 109 63 184t167 75q67 0 118 -28v272h132zM383 92v264q-38 40 -93 40t-89 -45t-34 -111q0 -81 44 -118.5t112 -37.5q31 0 60 8z" />
    <glyph glyph-name="Korea1.70" unicode="e" horiz-adv-x="550" 
d="M514 210h-348q7 -61 43 -94.5t91 -33.5q106 0 195 73v-123q-25 -23 -84.5 -39.5t-110.5 -16.5q-115 0 -190 75.5t-75 188.5q0 111 70 187.5t170 76.5q104 0 172 -75.5t68 -188.5q0 -21 -1 -30zM275 398q-39 0 -65.5 -28t-37.5 -75h206q-6 46 -34 74.5t-69 28.5z" />
    <glyph glyph-name="Korea1.71" unicode="f" horiz-adv-x="310" 
d="M355 739v-113q-40 10 -53 10q-56 0 -73.5 -31.5t-17.5 -89.5v-29h89v-103h-89v-407h-132v407h-69v103h69v23q0 114 52 175.5t134 61.5q37 0 90 -7z" />
    <glyph glyph-name="Korea1.72" unicode="g" horiz-adv-x="512" 
d="M502 488l-19 -93h-64q36 -43 36 -98q0 -42 -17 -75t-37.5 -50t-51 -28.5t-45 -14.5t-32.5 -5q-63 -11 -63 -31q0 -16 27 -27t95 -24q172 -34 172 -145q0 -79 -71 -122.5t-187 -43.5q-107 0 -179 43.5t-72 112.5q0 96 118 133q-42 29 -42 61q0 23 19 42t49 31
q-103 48 -103 155q0 85 64.5 132t173.5 47h229zM367 -111q0 21 -17.5 35.5t-43.5 21t-46 9t-36 2.5q-43 0 -70.5 -18t-27.5 -45q0 -65 121 -65q55 0 87.5 15.5t32.5 44.5zM325 307q0 33 -23.5 58t-55.5 25q-34 0 -57 -25t-23 -59q0 -40 21 -62.5t60 -22.5q34 0 56 24.5
t22 61.5z" />
    <glyph glyph-name="Korea1.73" unicode="h" horiz-adv-x="560" 
d="M192 746v-292q55 50 133 50q90 0 135 -59.5t45 -167.5v-287h-132v305q0 56 -23.5 85.5t-54.5 29.5q-51 0 -103 -61v-359h-132v756h132z" />
    <glyph glyph-name="Korea1.74" unicode="i" horiz-adv-x="270" 
d="M62 651q0 30 21.5 52t52.5 22q30 0 51.5 -22t21.5 -52t-21.5 -52t-51.5 -22q-31 0 -52.5 22t-21.5 52zM201 488v-498h-132v498h132z" />
    <glyph glyph-name="Korea1.75" unicode="j" horiz-adv-x="265" 
d="M-5 -225l-40 95q73 14 95 45q18 30 18 115v458h132v-465q0 -87 -24 -140t-91 -87q-35 -19 -90 -21zM61 651q0 30 21.5 52t52.5 22q30 0 51.5 -22t21.5 -52t-21.5 -52t-51.5 -22q-31 0 -52.5 22t-21.5 52z" />
    <glyph glyph-name="Korea1.76" unicode="k" horiz-adv-x="560" 
d="M192 746v-756h-132v756h132zM348 250q170 -200 222 -260h-165l-207 256l182 248h150q-71 -97 -182 -244z" />
    <glyph glyph-name="Korea1.77" unicode="l" horiz-adv-x="270" 
d="M201 746v-756h-132v756h132z" />
    <glyph glyph-name="Korea1.78" unicode="m" horiz-adv-x="855" 
d="M60 486h130v-43q66 53 130 53q89 0 147 -75q45 41 79 58t78 17q176 0 176 -204v-302h-130v295q0 109 -79 109q-50 0 -96 -52v-352h-130v291q0 54 -15 84t-62 30q-48 0 -98 -53v-352h-130v496z" />
    <glyph glyph-name="Korea1.79" unicode="n" horiz-adv-x="560" 
d="M60 486h132v-40q66 50 133 50q86 0 133 -60.5t47 -160.5v-285h-132v280q0 126 -83 126q-52 0 -98 -58v-348h-132v496z" />
    <glyph glyph-name="Korea1.80" unicode="o" horiz-adv-x="630" 
d="M35 241q0 111 81.5 188t198.5 77t198.5 -77t81.5 -188t-81.5 -188t-198.5 -77t-198.5 77t-81.5 188zM167 241q0 -66 43 -112.5t105 -46.5t105 46.5t43 112.5t-43 112.5t-105 46.5t-105 -46.5t-43 -112.5z" />
    <glyph glyph-name="Korea1.81" unicode="p" horiz-adv-x="575" 
d="M60 -265v733q93 32 185 32q141 0 218 -71t77 -196q0 -113 -71 -185t-184 -72q-38 0 -93 15v-256h-132zM192 388v-293q26 -21 78 -21q57 0 97.5 44t40.5 125q0 79 -44 115t-111 36z" />
    <glyph glyph-name="Korea1.82" unicode="q" horiz-adv-x="575" 
d="M515 468v-733h-132v256q-55 -15 -93 -15q-113 0 -184 72t-71 185q0 125 77 196t218 71q41 0 87 -8t72 -16zM383 95v293q-30 6 -61 6q-67 0 -111 -36t-44 -115q0 -81 40.5 -125t97.5 -44q52 0 78 21z" />
    <glyph glyph-name="Korea1.83" unicode="r" horiz-adv-x="440" 
d="M398 341q-63 46 -98 46q-37 0 -72.5 -45.5t-35.5 -106.5v-245h-132v496h132v-74q59 86 133 86q56 0 115 -42q-9 -22 -24 -64.5t-18 -50.5z" />
    <glyph glyph-name="Korea1.84" unicode="s" horiz-adv-x="425" 
d="M392 454l-38 -96q-91 44 -139 44q-45 0 -45 -33q0 -14 16.5 -29t51.5 -37q7 -5 32.5 -21t37.5 -24.5t33 -26t31.5 -32t19 -35.5t8.5 -44q0 -21 -10 -44.5t-31 -46.5t-59.5 -38t-88.5 -15q-35 0 -69 7.5t-54 15t-58 23.5v131q116 -76 174 -76q20 0 38 11t18 28
q0 14 -14 30.5t-28.5 27t-42.5 28.5q-2 1 -26 16.5t-29 19.5t-24.5 19t-25.5 24t-17 24t-14.5 31t-3.5 34q0 55 47.5 94.5t128.5 39.5t181 -50z" />
    <glyph glyph-name="Korea1.85" unicode="t" horiz-adv-x="415" 
d="M245 -24h-1q-86 4 -121 44q-25 28 -32 63t-7 95v205h-84v21l216 211v-129h149v-103h-149v-195q0 -30 1 -45.5t6 -33t16 -25t30 -7.5q20 0 50 10.5t51 20.5l20 11v-108q0 -3 -21 -11t-56.5 -16t-67.5 -8z" />
    <glyph glyph-name="Korea1.86" unicode="u" horiz-adv-x="560" 
d="M500 -12h-132v38q-55 -46 -132 -46q-87 0 -139 58q-42 50 -42 166v282h132v-281q0 -28 1.5 -44.5t8.5 -39t25 -34t46 -11.5q61 0 100 59v351h132v-498z" />
    <glyph glyph-name="Korea1.87" unicode="v" horiz-adv-x="520" 
d="M382 486h138l-230 -498h-60q-184 396 -230 498h138l122 -291z" />
    <glyph glyph-name="Korea1.88" unicode="w" horiz-adv-x="810" 
d="M810 486l-222 -498h-53l-130 297l-130 -297h-53q-100 222 -222 498h139q19 -44 54.5 -135.5t54.5 -135.5q15 35 53 128.5t59 142.5h90l113 -271q18 44 53.5 135t53.5 136h140z" />
    <glyph glyph-name="Korea1.89" unicode="x" horiz-adv-x="560" 
d="M10 -10l197 254l-187 242h145l115 -150l115 150h145l-188 -242l198 -254h-145l-125 163l-125 -163h-145z" />
    <glyph glyph-name="Korea1.90" unicode="y" horiz-adv-x="515" 
d="M520 486l-340 -721h-140l154 326q-37 75 -110.5 225t-83.5 170h140l121 -251l119 251h140z" />
    <glyph glyph-name="Korea1.91" unicode="z" horiz-adv-x="470" 
d="M210 95h235v-105h-435l240 391h-220v106h420q-226 -370 -240 -392z" />
    <glyph glyph-name="Korea1.92" unicode="{" horiz-adv-x="401" 
d="M330 863h46v-101h-33q-55 0 -66 -29t-11 -150q0 -83 -13.5 -132t-33.5 -69.5t-58 -38.5q61 -31 83 -85.5t22 -158.5q0 -54 1 -79.5t4.5 -49t13 -30.5t22 -11t36.5 -4h33v-104h-46q-30 0 -51.5 2.5t-49 14.5t-44.5 33t-29 61t-12 96q0 155 -18.5 206.5t-94.5 54.5v106
q69 3 90.5 47t21.5 152q0 74 9.5 125t24 79t41 43t50 18.5t62.5 3.5z" />
    <glyph glyph-name="Korea1.93" unicode="|" horiz-adv-x="319" 
d="M103 -167v1043h114v-1043h-114z" />
    <glyph glyph-name="Korea1.94" unicode="}" horiz-adv-x="401" 
d="M25 863h48q38 0 61.5 -3.5t50 -18.5t41 -43t24 -79t9.5 -125q0 -108 21 -152t91 -47v-106q-76 -3 -94.5 -54.5t-18.5 -206.5q0 -56 -12 -96t-29 -61t-44 -33t-48.5 -14.5t-51.5 -2.5h-48v104h17q4 0 11 0.5t10 0.5q22 0 34 4.5t21 12t12.5 30.5t4.5 48.5t1 77.5
q0 104 22 158.5t83 85.5q-35 18 -55.5 40t-35 72t-14.5 128q0 119 -10 148t-62 30q-1 1 -5 1h-34v101z" />
    <glyph glyph-name="Korea1.95" unicode="~" horiz-adv-x="685" 
d="M47 259v136q69 73 168 73q64 0 154 -39q35 -16 48 -21.5t30.5 -10t33.5 -4.5q60 0 158 94v-140q-77 -71 -166 -71q-55 0 -155 43q-87 34 -111 34q-60 0 -160 -94z" />
    <glyph glyph-name="Korea1.96" horiz-adv-x="0" 
 />
    <glyph glyph-name="Korea1.97" horiz-adv-x="0" 
 />
    <glyph glyph-name="Korea1.98" horiz-adv-x="0" 
 />
    <glyph glyph-name="Korea1.99" horiz-adv-x="0" 
 />
    <glyph glyph-name="Korea1.100" horiz-adv-x="0" 
 />
    <glyph glyph-name="Korea1.101" unicode="&#x3000;" 
 />
    <glyph glyph-name="Korea1.102" unicode="&#x3001;" horiz-adv-x="419" 
d="M378 -6l-108 -120q-42 57 -111.5 123.5t-125.5 107.5l78 78q57 -29 108 -63t82 -59.5t77 -66.5z" />
    <glyph glyph-name="Korea1.103" unicode="&#x3002;" horiz-adv-x="419" 
d="M47 54q0 58 45.5 100t109.5 42q63 0 108.5 -42t45.5 -100t-45.5 -99.5t-108.5 -41.5q-64 0 -109.5 41.5t-45.5 99.5zM139 54q0 -24 18.5 -41t44.5 -17t44.5 17t18.5 41t-18.5 41t-44.5 17t-44.5 -17t-18.5 -41z" />
    <glyph glyph-name="Korea1.104" horiz-adv-x="0" 
 />
    <glyph glyph-name="Korea1.105" unicode="&#x2025;" horiz-adv-x="649" 
d="M382 351q0 34 24 58t58 24q33 0 57 -24t24 -58q0 -33 -24 -57t-57 -24q-34 0 -58 24t-24 57zM72 351q0 34 24 58t58 24q33 0 57 -24t24 -58q0 -33 -24 -57t-57 -24q-34 0 -58 24t-24 57z" />
    <glyph glyph-name="Korea1.106" unicode="&#x2026;" horiz-adv-x="970" 
d="M76 351q0 34 24 58t58 24q33 0 57 -24t24 -58q0 -33 -24 -57t-57 -24q-34 0 -58 24t-24 57zM392 351q0 34 24 58t58 24q33 0 57 -24t24 -58q0 -33 -24 -57t-57 -24q-34 0 -58 24t-24 57zM707 351q0 34 24 58t58 24q33 0 57 -24t24 -58q0 -33 -24 -57t-57 -24
q-34 0 -58 24t-24 57z" />
    <glyph glyph-name="Korea1.107" unicode="&#xa8;" horiz-adv-x="797" 
d="M142 773q0 34 24 58t58 24q33 0 57 -24t24 -58q0 -33 -24 -57t-57 -24q-34 0 -58 24t-24 57zM498 773q0 34 24 58t58 24q33 0 57 -24t24 -58q0 -33 -24 -57t-57 -24q-34 0 -58 24t-24 57z" />
    <glyph glyph-name="Korea1.108" unicode="&#x3003;" horiz-adv-x="970" 
d="M433 293l149 304h162l-199 -304h-112zM227 293l148 304h162l-199 -304h-111z" />
    <glyph glyph-name="Korea1.109" horiz-adv-x="0" 
 />
    <glyph glyph-name="Korea1.110" horiz-adv-x="0" 
 />
    <glyph glyph-name="Korea1.111" horiz-adv-x="0" 
 />
    <glyph glyph-name="Korea1.112" unicode="&#xff3c;" horiz-adv-x="1000" 
d="M557 -41l-223 793h108l224 -793h-109z" />
    <glyph glyph-name="Korea1.113" unicode="&#xff5e;" horiz-adv-x="1000" 
d="M203 259v136q69 73 169 73q63 0 153 -39q36 -16 48.5 -21.5t30.5 -10t34 -4.5q55 0 158 94v-140q-77 -71 -167 -71q-56 0 -154 43q-8 3 -24 9.5t-25 9.5t-21.5 7t-22.5 6t-19 2q-26 0 -57 -16t-51 -32.5t-52 -45.5z" />
    <glyph glyph-name="Korea1.114" unicode="&#x2018;" horiz-adv-x="324" 
d="M165 844h89l-56 -207h-128z" />
    <glyph glyph-name="Korea1.115" unicode="&#x2019;" horiz-adv-x="323" 
d="M159 619h-89l56 207h127z" />
    <glyph glyph-name="Korea1.116" unicode="&#x201c;" horiz-adv-x="493" 
d="M334 843h89l-56 -207h-128zM164 843h89l-56 -207h-127z" />
    <glyph glyph-name="Korea1.117" unicode="&#x201d;" horiz-adv-x="493" 
d="M159 618h-89l56 207h127zM329 618h-90l57 207h127z" />
    <glyph glyph-name="Korea1.118" unicode="&#x3014;" horiz-adv-x="582" 
d="M115 682l288 207l71 -96l-230 -163v-561l231 -158l-69 -100l-291 202v669z" />
    <glyph glyph-name="Korea1.119" unicode="&#x3015;" horiz-adv-x="582" 
d="M169 889l287 -207v-669l-291 -202l-69 100l231 158v561l-230 163z" />
    <glyph glyph-name="Korea1.120" unicode="&#x3008;" horiz-adv-x="582" 
d="M228 321l263 -452l-113 -46l-298 498l299 502l111 -55z" />
    <glyph glyph-name="Korea1.121" unicode="&#x3009;" horiz-adv-x="582" 
d="M80 -131l262 452l-261 447l110 55l300 -502l-299 -498z" />
    <glyph glyph-name="Korea1.122" unicode="&#x300a;" horiz-adv-x="660" 
d="M133 351l234 -442l-95 -56l-270 498l271 502l93 -64zM336 351l233 -442l-95 -56l-269 498l270 502l93 -64z" />
    <glyph glyph-name="Korea1.123" unicode="&#x300b;" horiz-adv-x="660" 
d="M292 -91l234 442l-233 438l93 64l271 -502l-270 -498zM89 -91l234 442l-233 438l93 64l271 -502l-270 -498z" />
    <glyph glyph-name="Korea1.124" unicode="&#x300c;" horiz-adv-x="582" 
d="M251 388h-123v450h381v-105h-258v-345z" />
    <glyph glyph-name="Korea1.125" unicode="&#x300d;" horiz-adv-x="582" 
d="M321 298h134v-450h-381v104h247v346z" />
    <glyph glyph-name="Korea1.126" unicode="&#x300e;" horiz-adv-x="582" 
d="M178 456h94v241h181v88h-275v-329zM104 852h422v-220h-182v-234h-240v454z" />
    <glyph glyph-name="Korea1.127" unicode="&#x300f;" horiz-adv-x="582" 
d="M408 231h-93v-241h-181v-88h274v329zM483 -165h-422v220h181v234h241v-454z" />
    <glyph glyph-name="Korea1.128" unicode="&#x3010;" horiz-adv-x="582" 
d="M103 -173v1023h374v-35q-226 -187 -226 -456q0 -141 62 -275t164 -224v-33h-374z" />
    <glyph glyph-name="Korea1.129" unicode="&#x3011;" horiz-adv-x="582" 
d="M477 850v-1023h-374v33q104 92 165 216t61 263q0 142 -61.5 266.5t-164.5 209.5v35h374z" />
    <glyph glyph-name="Korea1.130" unicode="&#xb1;" horiz-adv-x="669" 
d="M261 404h-223v117h223v205h149v-205h221v-117h-221v-214h-149v214zM609 10h-550v117h550v-117z" />
    <glyph glyph-name="Korea1.131" unicode="&#xd7;" horiz-adv-x="579" 
d="M292 283l-138 -155l-89 100l137 155l-141 160l90 100l141 -158l141 154l91 -100l-141 -156l147 -161l-91 -101z" />
    <glyph glyph-name="Korea1.132" unicode="&#xf7;" horiz-adv-x="577" 
d="M518 322h-464v120h464v-120zM360 693v-145h-144v145h144zM360 216v-146h-144v146h144z" />
    <glyph glyph-name="Korea1.133" unicode="&#x2260;" horiz-adv-x="970" 
d="M406 458h-270v106h324l91 183l112 -54l-64 -129h215v-106h-268l-72 -144h340v-108h-394l-92 -184l-112 54l63 130h-143v108h198z" />
    <glyph glyph-name="Korea1.134" unicode="&#x2264;" horiz-adv-x="970" 
d="M794 283l-50 -104l-605 278l606 276l45 -103l-390 -173zM136 155h678v-110h-678v110z" />
    <glyph glyph-name="Korea1.135" unicode="&#x2265;" horiz-adv-x="970" 
d="M136 155h678v-110h-678v110zM189 179l-50 104l394 174l-390 173l45 103l606 -276z" />
    <glyph glyph-name="Korea1.136" unicode="&#x221e;" horiz-adv-x="970" 
d="M873 393q0 -83 -66 -145.5t-158 -62.5q-98 0 -173 75q-79 -75 -174 -75q-91 0 -158 61t-67 147q0 85 65 147t160 62q107 0 173 -75q75 75 174 75q90 0 157 -61.5t67 -147.5zM736 393q0 36 -27 64.5t-60 28.5q-28 0 -61 -29t-54 -67q16 -33 51.5 -60.5t63.5 -27.5
q33 0 60 27t27 64zM302 302q30 0 63 26t51 63q-15 37 -49 66t-65 29q-32 0 -59 -28t-27 -65q0 -35 27 -63t59 -28z" />
    <glyph glyph-name="Korea1.137" unicode="&#x2234;" horiz-adv-x="970" 
d="M168 171q0 37 26.5 64.5t63.5 27.5t63.5 -27.5t26.5 -64.5q0 -38 -26.5 -64.5t-63.5 -26.5t-63.5 26.5t-26.5 64.5zM581 577q0 -37 -27 -64t-64 -27t-63.5 27t-26.5 64t26.5 64t63.5 27t64 -27t27 -64zM814 171q0 -38 -26.5 -64.5t-63.5 -26.5t-63.5 26.5t-26.5 64.5
q0 37 26.5 64.5t63.5 27.5t63.5 -27.5t26.5 -64.5z" />
    <glyph glyph-name="Korea1.138" unicode="&#xb0;" horiz-adv-x="414" 
d="M58 721q0 59 41 100t100 41t100 -41t41 -100t-41 -100t-100 -41t-100 41t-41 100zM142 721q0 -24 16.5 -40.5t40.5 -16.5t40.5 16.5t16.5 40.5t-16.5 40.5t-40.5 16.5t-40.5 -16.5t-16.5 -40.5z" />
    <glyph glyph-name="Korea1.139" unicode="&#x2032;" horiz-adv-x="388" 
d="M64 533l79 298h163l-131 -298h-111z" />
    <glyph glyph-name="Korea1.140" unicode="&#x2033;" horiz-adv-x="640" 
d="M64 533l79 298h156l-129 -298h-106zM269 533l81 298h155l-130 -298h-106z" />
    <glyph glyph-name="Korea1.141" unicode="&#x2103;" horiz-adv-x="1076" 
d="M70 721q0 59 41 100t100 41t100 -41t41 -100t-41 -100t-100 -41t-100 41t-41 100zM154 721q0 -24 16.5 -40.5t40.5 -16.5t40.5 16.5t16.5 40.5t-16.5 40.5t-40.5 16.5t-40.5 -16.5t-16.5 -40.5zM960 583q-94 53 -174 53q-126 0 -205 -73t-79 -197q0 -129 82.5 -200
t213.5 -71q90 0 199 61v-129q-108 -50 -213 -50q-184 0 -303 104t-119 285q0 178 118 283.5t303 105.5q59 0 114.5 -14t82.5 -28l26 -14q-7 -21 -46 -116z" />
    <glyph glyph-name="Korea1.142" unicode="&#x212b;" horiz-adv-x="970" 
d="M137 0l274 736h131l272 -736h-143l-65 179h-260l-67 -179h-142zM386 285h181l-92 255zM353 892q0 47 35.5 79.5t86.5 32.5t86.5 -32.5t35.5 -79.5t-35.5 -80.5t-86.5 -33.5t-86.5 33.5t-35.5 80.5zM426 892q0 -19 14 -31.5t35 -12.5t34.5 12.5t13.5 31.5q0 18 -13.5 31
t-34.5 13t-35 -13t-14 -31z" />
    <glyph glyph-name="Korea1.143" unicode="&#xffe0;" horiz-adv-x="1000" 
d="M344 -118l41 141q-97 46 -152 134t-55 209q0 177 117.5 282.5t301.5 106.5l29 99h109l-32 -111q32 -7 62 -18t43 -19l14 -7q-8 -22 -24 -62t-22 -54q-56 31 -107 44l-151 -521q40 -11 95 -11q91 0 200 61v-129q-108 -50 -213 -50q-58 0 -116 13l-31 -108h-109zM318 366
q0 -145 103 -217l141 485q-111 -12 -177.5 -83.5t-66.5 -184.5z" />
    <glyph glyph-name="Korea1.144" unicode="&#xffe1;" horiz-adv-x="1000" 
d="M285 337h-88v101h75l-3 26q-2 16 -2 45q0 60 14.5 110.5t44.5 91.5t82 64t122 23q95 0 166.5 -56t75.5 -140h-159q-4 60 -21.5 88t-55.5 28q-126 0 -126 -214q0 -33 3 -66h252v-101h-239l3 -22q2 -24 2 -37q-1 -59 -9 -99.5t-33 -86.5h168q33 0 51 2t36.5 9.5t26.5 25
t8 45.5h153q-1 -51 -16 -86t-36.5 -54t-59.5 -29t-68.5 -12t-81.5 -2h-403v102h83q39 90 39 185q0 13 -2 37z" />
    <glyph glyph-name="Korea1.145" unicode="&#xffe5;" horiz-adv-x="1000" 
d="M779 177h-210v-186h-138v186h-209v111h209v77q-10 11 -17 23h-192v112h111l-177 247h157l177 -247h18l180 247h156l-178 -247h113v-112h-194l-16 -23v-77h210v-111z" />
    <glyph glyph-name="Korea1.146" unicode="&#x2642;" horiz-adv-x="970" 
d="M671 279q0 -108 -79.5 -189.5t-202.5 -81.5q-120 0 -200.5 78t-80.5 193q0 118 81 195t200 77q94 0 168 -52l140 141l-111 12l9 81l234 -24l24 -230l-87 -15l-9 116l-138 -141q52 -69 52 -160zM581 275q0 79 -54 136t-138 57q-81 0 -137.5 -52t-56.5 -141
q0 -74 56.5 -128.5t137.5 -54.5t136.5 53t55.5 130z" />
    <glyph glyph-name="Korea1.147" unicode="&#x2640;" horiz-adv-x="970" 
d="M768 510q0 -98 -66 -175.5t-170 -93.5v-80h178v-79h-178v-147h-90v147h-183v79h183v80q-104 14 -171.5 89t-67.5 180q0 117 82 194t200 77q119 0 201 -78.5t82 -192.5zM677 505q0 80 -54 136t-138 56q-82 0 -138 -51t-56 -141q0 -75 56.5 -128.5t137.5 -53.5
q82 0 137 52.5t55 129.5z" />
    <glyph glyph-name="Korea1.148" unicode="&#x2220;" horiz-adv-x="970" 
d="M822 547l-428 -438h480v-109h-761l622 633z" />
    <glyph glyph-name="Korea1.149" unicode="&#x22a5;" horiz-adv-x="970" 
d="M121 -15v109h312v516h128v-516h310v-109h-750z" />
    <glyph glyph-name="Korea1.150" unicode="&#x2312;" horiz-adv-x="970" 
d="M291 0h-145q27 150 117.5 239.5t228.5 89.5q143 0 232 -93.5t116 -235.5h-144q-50 217 -204 217q-81 0 -133.5 -60.5t-67.5 -156.5z" />
    <glyph glyph-name="Korea1.151" unicode="&#x2202;" horiz-adv-x="970" 
d="M417 603l-89 94q61 64 180 64q129 0 194 -80.5t65 -203.5q0 -78 -18.5 -156.5t-54 -148t-95 -112.5t-132.5 -43q-102 0 -175.5 65t-73.5 162q0 57 24.5 101t64.5 68t85.5 36t93.5 12q69 0 144 -10q0 5 0.5 13.5t0.5 11.5q0 168 -114 168q-26 0 -56 -12t-44 -29zM458 131
q66 0 103 61.5t50 145.5q-70 14 -124 14q-132 0 -132 -119q0 -44 30 -73t73 -29z" />
    <glyph glyph-name="Korea1.152" unicode="&#x2207;" horiz-adv-x="970" 
d="M897 649l-420 -651l-413 651h833zM776 586h-540l265 -434z" />
    <glyph glyph-name="Korea1.153" unicode="&#x2261;" horiz-adv-x="970" 
d="M814 498h-678v101h678v-101zM814 331h-678v101h678v-101zM814 168h-678v99h678v-99z" />
    <glyph glyph-name="Korea1.154" unicode="&#x2252;" horiz-adv-x="970" 
d="M819 408h-683v101h683v-101zM819 240h-683v101h683v-101zM340 628q0 -30 -22 -53t-53 -23t-53.5 23t-22.5 53q0 32 22.5 54.5t53.5 22.5t53 -22.5t22 -54.5zM772 129q0 -32 -22.5 -55t-53.5 -23t-53.5 23t-22.5 55q0 31 22 53.5t54 22.5t54 -22.5t22 -53.5z" />
    <glyph glyph-name="Korea1.155" unicode="&#xa7;" horiz-adv-x="469" 
d="M406 751l-43 -106q-23 10 -43 16t-36.5 9.5t-19.5 4.5q-17 8 -42 1.5t-25 -33.5q0 -12 12.5 -25.5t24 -21.5t34.5 -23q161 -99 161 -185q0 -76 -63 -125q70 -60 70 -130q0 -72 -54.5 -119t-162.5 -47q-88 0 -179 45q4 15 38 113q107 -40 141 -40t53 13t19 33
q0 46 -115 105q-54 26 -86.5 60t-32.5 88q0 30 22.5 61.5t59.5 56.5q-46 35 -68 66t-22 71q0 71 56 112t148 38q74 -4 153 -38zM287 387q0 27 -42 49q-23 -4 -34 -19.5t-11 -31.5q0 -27 42 -49q20 6 32.5 22t12.5 29z" />
    <glyph glyph-name="Korea1.156" unicode="&#x203b;" horiz-adv-x="970" 
d="M483 274l-202 -198l-94 94l203 198l-200 201l94 94l199 -201l198 200l95 -94l-199 -200l192 -194l-94 -92zM113 380q0 34 24 58t58 24q33 0 57 -24t24 -58q0 -33 -24 -57t-57 -24q-34 0 -58 24t-24 57zM686 380q0 34 24 58t58 24q33 0 57 -24t24 -58q0 -33 -24 -57
t-57 -24q-34 0 -58 24t-24 57zM398 669q0 34 24 58t58 24q33 0 57 -24t24 -58q0 -33 -24 -57t-57 -24q-34 0 -58 24t-24 57zM398 64q0 34 24 58t58 24q33 0 57 -24t24 -58q0 -33 -24 -57t-57 -24q-34 0 -58 24t-24 57z" />
    <glyph glyph-name="Korea1.157" unicode="&#x2606;" horiz-adv-x="970" 
d="M567 317l155 112h-189l-49 161l-50 -161h-188l151 -111l-64 -171l147 114l152 -116zM589 496h333l-271 -202l113 -326l-282 210l-273 -203l102 324l-262 197h330l103 311z" />
    <glyph glyph-name="Korea1.158" unicode="&#x2605;" horiz-adv-x="970" 
d="M589 496h333l-271 -202l113 -326l-282 210l-273 -203l102 324l-262 197h330l103 311z" />
    <glyph glyph-name="Korea1.159" unicode="&#x25cb;" horiz-adv-x="970" 
d="M155 367q0 -137 97.5 -235.5t232.5 -98.5q136 0 233.5 98.5t97.5 235.5q0 135 -98 233.5t-233 98.5t-232.5 -98.5t-97.5 -233.5zM890 367q0 -167 -119.5 -287.5t-285.5 -120.5t-286 120.5t-120 287.5q0 166 119.5 285.5t286.5 119.5q109 0 202.5 -54.5t148 -148
t54.5 -202.5z" />
    <glyph glyph-name="Korea1.160" unicode="&#x25cf;" horiz-adv-x="970" 
d="M890 367q0 -167 -119.5 -287.5t-285.5 -120.5t-286 120.5t-120 287.5q0 166 119.5 285.5t286.5 119.5q109 0 202.5 -54.5t148 -148t54.5 -202.5z" />
    <glyph glyph-name="Korea1.161" unicode="&#x25ce;" horiz-adv-x="970" 
d="M155 367q0 -137 97.5 -235.5t232.5 -98.5q136 0 233.5 98.5t97.5 235.5q0 135 -98 233.5t-233 98.5t-232.5 -98.5t-97.5 -233.5zM890 367q0 -167 -119.5 -287.5t-285.5 -120.5t-286 120.5t-120 287.5q0 166 119.5 285.5t286.5 119.5q109 0 202.5 -54.5t148 -148
t54.5 -202.5zM304 367q0 -76 53 -131t128 -55t129 55t54 131t-53.5 130t-129.5 54q-75 0 -128 -54t-53 -130zM738 367q0 -105 -74 -179.5t-179 -74.5q-104 0 -178.5 75t-74.5 179t74.5 178t178.5 74q105 0 179 -74t74 -178z" />
    <glyph glyph-name="Korea1.162" unicode="&#x25c7;" horiz-adv-x="970" 
d="M953 367l-467 -472l-468 471l467 471zM845 370l-360 366l-360 -366l361 -367z" />
    <glyph glyph-name="Korea1.163" unicode="&#x25c6;" horiz-adv-x="970" 
d="M953 367l-467 -472l-468 471l467 471z" />
    <glyph glyph-name="Korea1.164" unicode="&#x25a1;" horiz-adv-x="970" 
d="M888 -36h-803v804h803v-804zM816 37v659h-657v-659h657z" />
    <glyph glyph-name="Korea1.165" unicode="&#x25a0;" horiz-adv-x="970" 
d="M888 -36h-803v804h803v-804z" />
    <glyph glyph-name="Korea1.166" unicode="&#x25b3;" horiz-adv-x="970" 
d="M492 743l419 -656h-851zM202 164h566l-276 435z" />
    <glyph glyph-name="Korea1.167" unicode="&#x25b2;" horiz-adv-x="970" 
d="M492 743l419 -656h-851z" />
    <glyph glyph-name="Korea1.168" unicode="&#x25bd;" horiz-adv-x="970" 
d="M911 665l-419 -655l-432 655h851zM768 589h-566l290 -436z" />
    <glyph glyph-name="Korea1.169" unicode="&#x25bc;" horiz-adv-x="970" 
d="M911 665l-419 -655l-432 655h851z" />
    <glyph glyph-name="Korea1.170" unicode="&#x2192;" horiz-adv-x="970" 
d="M907 365l-304 -198l-17 17l124 156h-683v54h685l-133 151l16 21z" />
    <glyph glyph-name="Korea1.171" unicode="&#x2190;" horiz-adv-x="970" 
d="M331 167l-304 198l312 201l16 -21l-133 -151h685v-54h-683l124 -156z" />
    <glyph glyph-name="Korea1.172" unicode="&#x2191;" horiz-adv-x="970" 
d="M281 554l198 303l202 -312l-21 -15l-152 133v-821h-53v819l-156 -125z" />
    <glyph glyph-name="Korea1.173" unicode="&#x2193;" horiz-adv-x="970" 
d="M479 -139l-198 304l18 17l156 -124v819h53v-821l152 133l21 -15z" />
    <glyph glyph-name="Korea1.174" unicode="&#x2194;" horiz-adv-x="970" 
d="M956 365l-303 -198l-18 17l125 156h-555l124 -156l-18 -17l-303 198l312 201l16 -21l-133 -151h558l-132 151l15 21z" />
    <glyph glyph-name="Korea1.175" unicode="&#x3013;" horiz-adv-x="970" 
d="M199 541h541v-116h-541v116zM199 301h541v-117h-541v117z" />
    <glyph glyph-name="Korea1.176" unicode="&#xab;" horiz-adv-x="970" 
d="M574 605l-331 -234l333 -242l-68 -92l-457 329l457 329zM896 605l-330 -234l333 -242l-68 -92l-457 329l456 329z" />
    <glyph glyph-name="Korea1.177" unicode="&#xbb;" horiz-adv-x="970" 
d="M724 371l-332 234l65 90l458 -329l-458 -329l-67 92zM399 371l-330 234l67 90l456 -329l-457 -329l-69 92z" />
    <glyph glyph-name="Korea1.178" unicode="&#x221a;" horiz-adv-x="970" 
d="M922 878l-471 -941h-78l-155 341h-143v75h243l119 -268l400 793h85z" />
    <glyph glyph-name="Korea1.179" unicode="&#x223d;" horiz-adv-x="970" 
d="M592 487q70 0 121.5 -49.5t73.5 -116.5l-114 -40q-8 35 -32 66.5t-44 32.5q-12 0 -25.5 -4.5t-21.5 -9.5t-22 -15t-19 -13q-61 -38 -122 -36q-69 2 -122.5 57.5t-65.5 129.5l111 27q5 -39 30.5 -72.5t49.5 -35.5q26 0 61 21q84 58 141 58z" />
    <glyph glyph-name="Korea1.180" unicode="&#x221d;" horiz-adv-x="970" 
d="M811 352l37 -113q-65 -50 -146 -50q-100 0 -169 92q-70 -92 -186 -92q-89 0 -148 57.5t-59 143.5q0 91 60.5 150t152.5 59q109 0 179 -89q30 38 75.5 63t96.5 25q76 0 145 -42l-38 -111q-70 44 -109 44q-48 0 -97 -92q15 -28 25.5 -45t31.5 -35t44 -18q26 0 105 53z
M343 299q38 0 63 23.5t49 70.5q-16 30 -27.5 47.5t-33 33.5t-45.5 16q-35 0 -56.5 -30.5t-21.5 -70.5q0 -35 20 -62.5t52 -27.5z" />
    <glyph glyph-name="Korea1.181" unicode="&#x2235;" horiz-adv-x="970" 
d="M168 567q0 38 26.5 64.5t63.5 26.5t63.5 -26.5t26.5 -64.5q0 -37 -26.5 -64.5t-63.5 -27.5t-63.5 27.5t-26.5 64.5zM581 161q0 -37 -27 -64t-64 -27t-63.5 27t-26.5 64t26.5 64t63.5 27t64 -27t27 -64zM814 567q0 -37 -26.5 -64.5t-63.5 -27.5t-63.5 27.5t-26.5 64.5
q0 38 26.5 64.5t63.5 26.5t63.5 -26.5t26.5 -64.5z" />
    <glyph glyph-name="Korea1.182" unicode="&#x222b;" horiz-adv-x="970" 
d="M586 606l-77 -486q-4 -23 -9 -40t-19 -38.5t-34.5 -34.5t-58 -22.5t-86.5 -9.5l10 106q35 0 46.5 8t14.5 26l77 500q10 82 70.5 118.5t154.5 27.5l-11 -111q-71 7 -78 -44z" />
    <glyph glyph-name="Korea1.183" unicode="&#x222c;" horiz-adv-x="970" 
d="M475 615l-82 -495q-4 -30 -12.5 -51t-29 -45t-62 -36.5t-101.5 -12.5l10 106q63 0 68 34l82 500q11 82 63 114t152 32l-10 -103q-39 0 -57 -9t-21 -34zM714 615l-82 -495q-4 -29 -12.5 -51t-29 -45.5t-62 -36t-101.5 -12.5l10 106q63 0 68 34l82 500q12 82 63.5 114
t151.5 32l-10 -103q-39 0 -57 -9t-21 -34z" />
    <glyph glyph-name="Korea1.184" unicode="&#x2208;" horiz-adv-x="970" 
d="M821 295h-550q5 -44 40 -75.5t84 -31.5h427v-114h-427q-127 0 -198 77.5t-71 198.5q0 116 72 194.5t192 78.5h430v-112h-419q-53 0 -89 -30.5t-42 -74.5h551v-111z" />
    <glyph glyph-name="Korea1.185" unicode="&#x220b;" horiz-adv-x="970" 
d="M688 295h-551v111h552q-8 44 -44 74.5t-89 30.5h-418v112h430q120 0 192 -78.5t72 -194.5q0 -121 -71 -198.5t-198 -77.5h-427v114h427q49 0 83.5 31.5t41.5 75.5z" />
    <glyph glyph-name="Korea1.186" unicode="&#x2286;" horiz-adv-x="970" 
d="M817 573h-419q-56 0 -92.5 -34t-36.5 -93t35 -96.5t91 -37.5h427v-110h-433q-105 0 -181 68t-76 172q0 103 73.5 171t184.5 68h427v-108zM143 128h686v-107h-686v107z" />
    <glyph glyph-name="Korea1.187" unicode="&#x2287;" horiz-adv-x="970" 
d="M573 573h-419v108h427q111 0 184.5 -68t73.5 -171q0 -104 -76 -172t-181 -68h-433v110h427q56 0 91 37.5t35 96.5t-36.5 93t-92.5 34zM142 128h686v-107h-686v107z" />
    <glyph glyph-name="Korea1.188" unicode="&#x2282;" horiz-adv-x="970" 
d="M269 352q0 -69 33.5 -116.5t92.5 -47.5h435v-114h-432q-118 0 -193 79.5t-75 197.5q0 121 81.5 195.5t194.5 74.5h421v-113h-419q-59 0 -99 -45t-40 -111z" />
    <glyph glyph-name="Korea1.189" unicode="&#x2283;" horiz-adv-x="970" 
d="M701 352q0 66 -40 111t-99 45h-419v113h421q113 0 194.5 -74.5t81.5 -195.5q0 -118 -75 -197.5t-193 -79.5h-432v114h435q59 0 92.5 47.5t33.5 116.5z" />
    <glyph glyph-name="Korea1.190" unicode="&#x222a;" horiz-adv-x="970" 
d="M500 129q62 0 100.5 39.5t38.5 108.5v417h135v-418q0 -113 -76 -186.5t-197 -73.5q-128 0 -200.5 73.5t-72.5 185.5v422h135v-420q0 -65 37.5 -106.5t99.5 -41.5z" />
    <glyph glyph-name="Korea1.191" unicode="&#x2229;" horiz-adv-x="970" 
d="M500 584q-62 0 -99.5 -41.5t-37.5 -106.5v-420h-135v422q0 112 72.5 185.5t200.5 73.5q121 0 197 -73.5t76 -186.5v-418h-135v417q0 69 -38.5 108.5t-100.5 39.5z" />
    <glyph glyph-name="Korea1.192" unicode="&#x2227;" horiz-adv-x="970" 
d="M175 97l318 623l315 -627l-120 -55l-197 392l-200 -404z" />
    <glyph glyph-name="Korea1.193" unicode="&#x2228;" horiz-adv-x="970" 
d="M493 16l-318 622l116 72l200 -405l197 392l120 -55z" />
    <glyph glyph-name="Korea1.194" unicode="&#xffe2;" horiz-adv-x="1000" 
d="M6 179h988v-388h-119v290h-869v98z" />
    <glyph glyph-name="Korea1.195" unicode="&#x21d2;" horiz-adv-x="970" 
d="M921 424l-300 -301l-39 39l145 140h-679v53h728l72 71l-73 73h-727v52h676l-143 144l41 30z" />
    <glyph glyph-name="Korea1.196" unicode="&#x21d4;" horiz-adv-x="970" 
d="M205 542h562l-119 119l40 36l272 -276l-269 -268l-44 34l121 115h-566l122 -115l-43 -34l-270 268l273 277l39 -36zM155 355h662l70 68l-70 70h-662l-70 -70z" />
    <glyph glyph-name="Korea1.197" unicode="&#x2200;" horiz-adv-x="970" 
d="M823 759l-297 -759h-123l-295 759h143l73 -183h281l70 183h148zM563 466h-198l99 -263z" />
    <glyph glyph-name="Korea1.198" unicode="&#x2203;" horiz-adv-x="970" 
d="M210 658v108h529v-766h-517v108h378v220h-361v106h361v224h-390z" />
    <glyph glyph-name="Korea1.199" unicode="&#xb4;" horiz-adv-x="308" 
d="M45 632l69 227h160l-115 -227h-114z" />
    <glyph glyph-name="Korea1.200" horiz-adv-x="0" 
 />
    <glyph glyph-name="Korea1.201" unicode="&#x2c7;" horiz-adv-x="533" 
d="M201 628l-153 201h142l78 -113l76 113h143l-152 -201h-134z" />
    <glyph glyph-name="Korea1.202" unicode="&#x2d8;" horiz-adv-x="465" 
d="M298 810h128q0 -81 -57 -133.5t-136 -52.5q-82 0 -139 53.5t-57 132.5h128q0 -38 20 -59.5t48 -21.5q27 0 45 21t20 60z" />
    <glyph glyph-name="Korea1.203" unicode="&#x2dd;" horiz-adv-x="498" 
d="M34 632l70 223h154l-114 -223h-110zM242 632l69 223h155l-115 -223h-109z" />
    <glyph glyph-name="Korea1.204" unicode="&#x2da;" horiz-adv-x="339" 
d="M30 723q0 59 41 100t100 41t100 -41t41 -100t-41 -100t-100 -41t-100 41t-41 100zM114 723q0 -24 16.5 -40.5t40.5 -16.5t40.5 16.5t16.5 40.5t-16.5 40.5t-40.5 16.5t-40.5 -16.5t-16.5 -40.5z" />
    <glyph glyph-name="Korea1.205" unicode="&#x2d9;" horiz-adv-x="242" 
d="M204 789v-153h-161v153h161z" />
    <glyph glyph-name="Korea1.206" unicode="&#xb8;" horiz-adv-x="388" 
d="M113 34l130 -15l-10 -53q43 -7 71 -40.5t28 -75.5q0 -65 -53.5 -98.5t-115.5 -33.5q-39 0 -93 4v89q23 -3 62 -3q71 0 71 42q0 18 -20.5 33t-67.5 15q-7 0 -31 -2z" />
    <glyph glyph-name="Korea1.207" unicode="&#x2db;" horiz-adv-x="306" 
d="M145 89l72 -98q-53 0 -53 -53q0 -14 15 -23t39 -9h61v-109h-79q-73 0 -127.5 33.5t-54.5 100.5q0 55 35 97t92 61z" />
    <glyph glyph-name="Korea1.208" unicode="&#xa1;" horiz-adv-x="307" 
d="M98 535h111l25 -635h-162zM71 698q0 34 23.5 58t56.5 24q34 0 58 -24t24 -58t-24 -58t-58 -24q-33 0 -56.5 24t-23.5 58z" />
    <glyph glyph-name="Korea1.209" unicode="&#xbf;" horiz-adv-x="970" 
d="M514 1q32 0 70 14.5t60 28.5l21 15l42 -107q-100 -61 -209 -61q-97 0 -167 59.5t-70 172.5q0 36 15 72t31 57t45 54q56 64 72 106q19 55 19 123h136q0 -160 -116 -292q-56 -60 -56 -121q0 -59 25 -85q32 -36 82 -36zM588 698q0 -34 -24 -58t-58 -24q-33 0 -56.5 24
t-23.5 58t23.5 58t56.5 24q34 0 58 -24t24 -58z" />
    <glyph glyph-name="Korea1.210" horiz-adv-x="0" 
 />
    <glyph glyph-name="Korea1.211" unicode="&#x222e;" horiz-adv-x="970" 
d="M246 382q0 82 59 144t147 73q25 165 222 149l-3 -106q-80 11 -88 -44l-3 -15q65 -26 105 -80.5t40 -120.5q0 -82 -62 -145t-152 -74l-6 -44q-3 -24 -8.5 -41.5t-19.5 -39t-35 -35t-58.5 -23t-87.5 -9.5v100q74 0 79 32l12 81q-63 25 -102 79t-39 119zM600 382
q0 51 -40 83l-29 -182q31 11 50 38t19 61zM368 382q0 -47 38 -80l27 176q-29 -12 -47 -37.5t-18 -58.5z" />
    <glyph glyph-name="Korea1.212" unicode="&#x2211;" horiz-adv-x="970" 
d="M791 0h-654v44l312 343l-310 318v70h652v-80h-474l273 -277l-275 -307h476v-111z" />
    <glyph glyph-name="Korea1.213" unicode="&#x220f;" horiz-adv-x="970" 
d="M833 605h-128v-604h-141v604h-127v-604h-140v604h-127v106h663v-106z" />
    <glyph glyph-name="Korea1.214" unicode="&#xa4;" horiz-adv-x="970" 
d="M187 317q0 74 40 137l-81 76l114 115l90 -85q65 31 136 31q70 0 134 -29l88 83l115 -115l-79 -73q42 -69 42 -140q0 -70 -42 -138l79 -72l-116 -113l-86 79q-64 -29 -135 -29q-72 0 -137 31l-87 -81l-116 113l81 74q-40 65 -40 136zM332 317q0 -61 44.5 -102t109.5 -41
t108.5 41t43.5 102t-43.5 101.5t-108.5 40.5t-109.5 -40.5t-44.5 -101.5z" />
    <glyph glyph-name="Korea1.215" unicode="&#x2109;" horiz-adv-x="927" 
d="M70 721q0 59 41 100t100 41t100 -41t41 -100t-41 -100t-100 -41t-100 41t-41 100zM154 721q0 -24 16.5 -40.5t40.5 -16.5t40.5 16.5t16.5 40.5t-16.5 40.5t-40.5 16.5t-40.5 -16.5t-16.5 -40.5zM857 747v-117h-276v-183h274v-116h-274v-340h-136v756h412z" />
    <glyph glyph-name="Korea1.216" unicode="&#x2030;" horiz-adv-x="1000" 
d="M598 755l-381 -761h-130l382 761h129zM324 561q0 -77 -40 -124t-111 -47q-73 0 -112.5 44.5t-39.5 126.5q0 79 41 127t111 48q75 0 113 -49t38 -126zM214 561q0 32 -12.5 46t-28.5 14q-40 0 -40 -60q0 -28 12 -42.5t28 -14.5q17 0 29 14.5t12 42.5zM650 161
q0 -77 -40 -124t-111 -47q-73 0 -112 44.5t-39 126.5q0 80 40.5 127.5t110.5 47.5q75 0 113 -49t38 -126zM541 161q0 61 -42 61q-16 0 -28 -14.5t-12 -46.5q0 -28 12.5 -42.5t27.5 -14.5q18 0 30 14.5t12 42.5zM973 161q0 -77 -40 -124t-111 -47q-73 0 -112.5 44.5
t-39.5 126.5q0 80 41 127.5t111 47.5q75 0 113 -49t38 -126zM863 161q0 32 -12.5 46.5t-28.5 14.5q-40 0 -40 -61q0 -28 12 -42.5t28 -14.5q17 0 29 14.5t12 42.5z" />
    <glyph glyph-name="Korea1.217" unicode="&#x25c1;" horiz-adv-x="970" 
d="M762 -51l-657 415l657 435v-850zM686 89v569l-437 -292z" />
    <glyph glyph-name="Korea1.218" unicode="&#x25c0;" horiz-adv-x="970" 
d="M762 -51l-657 415l657 435v-850z" />
    <glyph glyph-name="Korea1.219" unicode="&#x25b7;" horiz-adv-x="970" 
d="M821 364l-658 -415v850zM240 658v-569l436 277z" />
    <glyph glyph-name="Korea1.220" unicode="&#x25b6;" horiz-adv-x="970" 
d="M821 364l-658 -415v850z" />
    <glyph glyph-name="Korea1.221" unicode="&#x2664;" horiz-adv-x="970" 
d="M436 -16h103q-25 86 -29 152q-5 64 36 64q18 0 51 -22q66 -36 98 -36q44 0 62 36.5t18 84.5q0 101 -145 270q-10 12 -35 40.5t-39.5 45.5t-34.5 42.5t-34 46.5q-16 -24 -36 -50t-34 -42t-39 -44.5t-35 -39.5q-69 -81 -106 -143.5t-37 -125.5q0 -48 17.5 -84.5t61.5 -36.5
q33 0 97 36q5 3 16.5 9.5t19.5 9.5t17 3q41 0 36 -64q-4 -66 -29 -152zM630 -86h-285v37q42 82 52 159q-72 -39 -118 -39q-69 0 -110.5 55t-41.5 130q0 88 42 160.5t124 162.5q138 150 195 249q71 -117 194 -249q83 -91 124.5 -163t41.5 -160q0 -75 -41.5 -130t-111.5 -55
q-44 0 -116 38l-1 1q11 -84 52 -159v-37z" />
    <glyph glyph-name="Korea1.222" unicode="&#x2660;" horiz-adv-x="970" 
d="M630 -86h-285v37q42 82 52 159q-72 -39 -118 -39q-69 0 -110.5 55t-41.5 130q0 88 42 160.5t124 162.5q138 150 195 249q71 -117 194 -249q83 -91 124.5 -163t41.5 -160q0 -75 -41.5 -130t-111.5 -55q-44 0 -116 38l-1 1q11 -84 52 -159v-37z" />
    <glyph glyph-name="Korea1.223" unicode="&#x2661;" horiz-adv-x="970" 
d="M775 555q0 58 -32.5 98t-91.5 40q-16 0 -31 -4.5t-26.5 -10t-24.5 -17.5t-20.5 -19.5t-18.5 -24t-15.5 -24t-15.5 -26t-13 -22.5q-16 29 -27 46t-32.5 45t-46.5 42.5t-51 14.5q-57 0 -95 -34t-38 -100q0 -51 19 -105.5t57 -112.5t68 -98t80.5 -99t65.5 -79
q289 317 289 490zM851 557q0 -59 -28.5 -130.5t-67.5 -133t-94 -129t-94 -109.5t-82 -84q-71 74 -121.5 132.5t-113 143t-96.5 166t-34 152.5q0 91 55.5 143t142.5 52q95 0 167 -97q37 48 74.5 72.5t92.5 24.5q95 0 147 -54t52 -149z" />
    <glyph glyph-name="Korea1.224" unicode="&#x2665;" horiz-adv-x="970" 
d="M851 557q0 -59 -28.5 -130.5t-67.5 -133t-94 -129t-94 -109.5t-82 -84q-71 74 -121.5 132.5t-113 143t-96.5 166t-34 152.5q0 91 55.5 143t142.5 52q95 0 167 -97q37 48 74.5 72.5t92.5 24.5q95 0 147 -54t52 -149z" />
    <glyph glyph-name="Korea1.225" unicode="&#x2667;" horiz-adv-x="970" 
d="M416 -7h134q-36 117 -36 179q0 43 24 50q25 7 54 -18q77 -75 136 -75q55 0 86 40t31 96q0 54 -32.5 94t-83.5 40q-30 0 -54.5 -4.5t-38 -9.5t-50.5 -20q-20 -8 -40 3.5t-20 35.5q0 27 39 71q60 70 60 140q0 55 -40.5 87.5t-102.5 32.5q-55 0 -98 -30t-43 -90
q0 -67 86 -172q14 -17 14 -38q0 -26 -20.5 -39t-46.5 1q-61 32 -139 32q-49 0 -81.5 -40.5t-32.5 -93.5q0 -56 30 -96t85 -40q54 0 139 75q25 24 51 18q13 -3 20.5 -18.5t5.5 -35.5q-4 -76 -36 -175zM622 -22v-38h-278v38q42 73 50 171l-27 -27q-55 -55 -132 -55
q-80 0 -131.5 57t-51.5 141q0 78 50.5 134.5t131.5 56.5q77 0 137 -32q-93 111 -93 191q0 81 60 129t144 48q89 0 148 -49t59 -128q0 -84 -90 -189q56 30 131 30q83 0 133.5 -56.5t50.5 -134.5q0 -84 -52.5 -141t-132.5 -57q-75 0 -130 55q-21 22 -27 26q9 -90 50 -170z" />
    <glyph glyph-name="Korea1.226" unicode="&#x2663;" horiz-adv-x="970" 
d="M622 -22v-38h-278v38q42 73 50 171l-27 -27q-55 -55 -132 -55q-80 0 -131.5 57t-51.5 141q0 78 50.5 134.5t131.5 56.5q77 0 137 -32q-93 111 -93 191q0 81 60 129t144 48q89 0 148 -49t59 -128q0 -84 -90 -189q56 30 131 30q83 0 133.5 -56.5t50.5 -134.5
q0 -84 -52.5 -141t-132.5 -57q-75 0 -130 55q-21 22 -27 26q9 -90 50 -170z" />
    <glyph glyph-name="Korea1.227" horiz-adv-x="0" 
 />
    <glyph glyph-name="Korea1.228" unicode="&#x25c8;" horiz-adv-x="970" 
d="M845 370l-360 366l-360 -366l361 -367zM734 370l-248 -249l-249 249l249 248zM953 367l-467 -472l-468 471l467 471z" />
    <glyph glyph-name="Korea1.229" unicode="&#x25a3;" horiz-adv-x="970" 
d="M695 153h-420v422h420v-422zM888 -36h-803v804h803v-804zM816 37v659h-657v-659h657z" />
    <glyph glyph-name="Korea1.230" unicode="&#x25d0;" horiz-adv-x="970" 
d="M495 699v-666q132 4 226.5 102t94.5 232q0 133 -94.5 231t-226.5 101zM890 367q0 -167 -119.5 -287.5t-285.5 -120.5t-286 120.5t-120 287.5q0 166 119.5 285.5t286.5 119.5q109 0 202.5 -54.5t148 -148t54.5 -202.5z" />
    <glyph glyph-name="Korea1.231" unicode="&#x25d1;" horiz-adv-x="970" 
d="M474 33v666q-132 -3 -226.5 -101t-94.5 -231q0 -134 94.5 -232t226.5 -102zM79 367q0 167 119.5 286t285.5 119q167 0 286.5 -119.5t119.5 -285.5q0 -167 -120 -287.5t-286 -120.5t-285.5 120.5t-119.5 287.5z" />
    <glyph glyph-name="Korea1.232" unicode="&#x2592;" horiz-adv-x="970" 
d="M539 -28h-89v89h89v-89zM680 -28v89h89v-89h-89zM655 61v-89h-91v89h91zM311 61v-89h-89v89h89zM196 61v-89h-91v89h91zM425 61v-89h-90v89h90zM794 -28v89h90v-89h-90zM539 86h-89v87h89v-87zM680 86v87h89v-87h-89zM655 173v-87h-91v87h91zM311 173v-87h-89v87h89z
M196 173v-87h-91v87h91zM425 173v-87h-90v87h90zM794 86v87h90v-87h-90zM539 197h-89v90h89v-90zM680 197v90h89v-90h-89zM655 287v-90h-91v90h91zM311 287v-90h-89v90h89zM196 287v-90h-91v90h91zM425 287v-90h-90v90h90zM794 197v90h90v-90h-90zM539 312h-89v90h89v-90z
M680 312v90h89v-90h-89zM655 402v-90h-91v90h91zM311 402v-90h-89v90h89zM196 402v-90h-91v90h91zM425 402v-90h-90v90h90zM794 312v90h90v-90h-90zM539 429h-89v87h89v-87zM680 429v87h89v-87h-89zM655 516v-87h-91v87h91zM311 516v-87h-89v87h89zM196 516v-87h-91v87h91z
M425 516v-87h-90v87h90zM794 429v87h90v-87h-90zM539 541h-89v89h89v-89zM680 541v89h89v-89h-89zM655 630v-89h-91v89h91zM311 630v-89h-89v89h89zM196 630v-89h-91v89h91zM425 630v-89h-90v89h90zM794 541v89h90v-89h-90zM539 655h-89v92h89v-92zM680 655v92h89v-92h-89z
M655 747v-92h-91v92h91zM311 747v-92h-89v92h89zM196 747v-92h-91v92h91zM425 747v-92h-90v92h90zM794 655v92h90v-92h-90z" />
    <glyph glyph-name="Korea1.233" unicode="&#x25a4;" horiz-adv-x="970" 
d="M85 768h803v-802h-803v802zM153 153v-117h666v117h-666zM153 337v-120h666v120h-666zM153 519v-118h666v118h-666zM153 703v-118h666v118h-666z" />
    <glyph glyph-name="Korea1.234" unicode="&#x25a5;" horiz-adv-x="970" 
d="M85 -34v802h803v-802h-803zM700 34h118v666h-118v-666zM517 34h118v666h-118v-666zM334 34h119v666h-119v-666zM153 34h117v666h-117v-666z" />
    <glyph glyph-name="Korea1.235" unicode="&#x25a8;" horiz-adv-x="970" 
d="M85 768h803v-802h-803v802zM819 32v68l-66 -68h66zM819 190v181l-339 -339h184zM819 468v187l-616 -623h181zM153 78l620 626h-189l-431 -434v-192zM153 364l335 340h-182l-153 -159v-181zM153 635l66 69h-66v-69z" />
    <glyph glyph-name="Korea1.236" unicode="&#x25a7;" horiz-adv-x="970" 
d="M85 768h803v-802h-803v802zM154 100v-68h66zM154 371v-181l154 -158h185zM154 655v-187l435 -436h181zM200 704l620 -626v192l-431 434h-189zM485 704l335 -340v181l-153 159h-182zM754 704l66 -69v69h-66z" />
    <glyph glyph-name="Korea1.237" unicode="&#x25a6;" horiz-adv-x="970" 
d="M85 768h803v-802h-803v802zM517 337v-120h118v120h-118zM517 519v-118h118v118h-118zM334 337v-120h119v120h-119zM334 519v-118h119v118h-119zM517 153v-117h118v117h-118zM700 337v-120h117v120h-117zM334 153v-117h119v117h-119zM700 519v-118h117v118h-117zM151 337
v-120h118v120h-118zM635 585v115h-118v-115h118zM700 153v-117h117v117h-117zM151 519v-118h118v118h-118zM453 585v115h-119v-115h119zM151 153v-117h118v117h-118zM817 585v115h-117v-115h117zM151 700v-115h118v115h-118z" />
    <glyph glyph-name="Korea1.238" unicode="&#x25a9;" horiz-adv-x="970" 
d="M240 369l101 -104l103 104l-103 102zM384 222l99 -99l101 102l-98 101zM483 613l-99 -99l102 -103l98 100zM529 369l99 -101l99 101l-99 99zM143 551v-85l54 -56l102 104l-97 99zM143 271v-86l59 -61l97 98l-102 104zM581 23h85l60 60l-98 98l-102 -101zM667 713h-86
l-55 -57l102 -102l98 99zM826 468v82l-59 60l-98 -98l101 -101zM826 186v82l-56 56l-100 -100l97 -98zM298 23h85l56 57l-98 99l-98 -99zM383 713h-85l-55 -57l98 -99l98 100zM143 630l20 22l-20 19v-41zM143 64l21 21l-21 21v-42zM826 630v40l-19 -19zM826 66v40l-19 -20z
M765 43l-19 -20h38zM745 713l20 -19l20 19h-40zM221 23l-15 18l-18 -18h33zM187 713l19 -18l16 18h-35zM143 354l12 15l-12 13v-28zM826 355v25l-12 -11zM469 713l13 -14l12 14h-25zM494 23l-12 14l-13 -14h25zM85 768h803v-802h-803v802z" />
    <glyph glyph-name="Korea1.239" unicode="&#x2668;" horiz-adv-x="970" 
d="M684 340q0 -50 -42 -128q-17 -29 -22 -42q-2 -9 -8.5 -31t-8.5 -34h-23q-22 60 1 154q15 58 15 94q0 32 -20 106q-19 78 -19 116q0 34 32 100q21 41 35 95h23q22 -51 4 -122q-9 -58 -9 -82q0 -38 21 -107q21 -89 21 -119zM563 353q0 -22 -4 -43.5t-14.5 -46t-16.5 -37
t-21.5 -41t-19.5 -35.5q-11 -24 -18 -53h-26q-12 48 -8 81q1 18 15 68q17 68 17 101q0 34 -22 106q-22 74 -22 116q0 30 9 59.5t24.5 65t21.5 53.5q12 28 13 71l28 -2q24 -51 21 -94q-1 -25 -11.5 -73.5t-10.5 -73.5q0 -36 21 -105q24 -76 24 -117zM424 340q0 -29 -8.5 -56
t-27.5 -65t-24 -49q-11 -26 -18 -65h-23q-19 39 -18 75q1 26 12 70t13 55q3 23 3 42q0 45 -16 107q-16 68 -16 121q0 40 30 98q28 73 32 98h27q14 -42 1 -121q-10 -54 -10 -82q0 -36 23 -114q20 -78 20 -114zM884 182q0 -66 -42.5 -112.5t-110.5 -67.5t-127 -29t-118 -8
q-45 0 -91.5 4t-104 18t-100.5 35t-72.5 59.5t-29.5 88.5q0 48 39 88.5t84.5 61t92.5 31.5l8 -28q-50 -19 -93 -56.5t-43 -75.5q0 -30 21.5 -51.5t51 -32.5t75 -17.5t77.5 -7.5t75 -1q44 0 92.5 5t105 17t93 38t36.5 62q0 33 -33.5 63t-73.5 49l13 26q71 -20 123 -59
t52 -100z" />
    <glyph glyph-name="Korea1.240" unicode="&#x260f;" horiz-adv-x="970" 
d="M481 727q224 0 337 -74q91 -61 101 -166q2 -39 -15.5 -63t-47.5 -20q-70 7 -125 32q-56 26 -54 64q0 3 10 33q8 23 7 34q-5 30 -37 32l-2 -47q-4 -64 29 -123q15 -27 55 -72q2 -2 6 -7q52 -60 67 -100q33 -98 42 -159q2 -20 -8 -34.5t-30 -14.5h-671q-19 0 -28.5 14
t-7.5 35q2 23 15.5 75t25.5 84q15 44 72 107q37 39 56 72q35 58 26 170q-30 -2 -36 -32q-2 -9 7 -34q1 -4 3.5 -11.5t4 -12.5t1.5 -9q2 -38 -54 -64q-53 -25 -123 -32q-32 -4 -49 20t-15 63q8 104 101 166q112 74 337 74zM482 682q-149 0 -246 -39q-63 -24 -98.5 -60
t-45.5 -96q-3 -17 2.5 -25.5t16.5 -7.5q55 4 95 27q32 14 32 25q-14 32 -17 50q-4 30 24 58.5t79 32.5q11 1 17 -3t7.5 -8.5t2.5 -13.5q3 -36 3 -105q0 -63 -33 -117q-18 -28 -55 -67q-43 -45 -60 -78q-11 -19 -24 -69.5t-18 -86.5q0 -4 16 -4h602q15 0 15 4q-4 28 -17 82
t-24 74q-22 37 -61 78q-34 36 -54 67q-34 53 -34 117q0 81 4 105q1 9 2.5 13.5t7.5 8.5t17 3q51 -4 78.5 -32.5t23.5 -58.5q-1 -13 -16 -50q0 -9 33 -25q50 -24 94 -27q10 -1 15.5 7.5t2.5 25.5v-1q-8 60 -44 96.5t-99 60.5q-97 39 -244 39zM665 282q0 -77 -54.5 -126.5
t-131.5 -49.5q-75 0 -130 48.5t-55 127.5q0 78 53 127.5t132 49.5q76 0 131 -48.5t55 -128.5zM618 282q0 58 -40 96t-99 38q-58 0 -99 -37t-41 -97q0 -57 40.5 -94t98.5 -37q56 0 98 37t42 94zM592 635v-82q0 -51 -64 -51h-97q-61 0 -61 50v90q69 -14 116 -14q43 0 106 7z
M545 560v30q-54 -3 -59 -3q-36 0 -74 6v-27q0 -24 17 -24h101q10 0 12.5 3.5t2.5 14.5z" />
    <glyph glyph-name="Korea1.241" unicode="&#x260e;" horiz-adv-x="970" 
d="M481 727q224 0 337 -74q91 -61 101 -166q2 -39 -15.5 -63t-47.5 -20q-70 7 -125 32q-56 26 -54 64q0 3 10 33q8 23 7 34q-5 30 -37 32l-2 -47q-4 -64 29 -123q15 -27 55 -72q2 -2 6 -7q52 -60 67 -100q33 -98 42 -159q2 -20 -8 -34.5t-30 -14.5h-671q-19 0 -28.5 14
t-7.5 35q2 23 15.5 75t25.5 84q15 44 72 107q37 39 56 72q35 58 26 170q-30 -2 -36 -32q-2 -9 7 -34q1 -4 3.5 -11.5t4 -12.5t1.5 -9q2 -38 -54 -64q-53 -25 -123 -32q-32 -4 -49 20t-15 63q8 104 101 166q112 74 337 74zM639 291q0 71 -49.5 114.5t-117.5 43.5
q-70 0 -118 -44.5t-48 -113.5q0 -71 49.5 -114.5t116.5 -43.5q70 0 118.5 44.5t48.5 113.5zM569 547v68q-106 -13 -192 5v-74q0 -38 50 -38h91q51 0 51 39z" />
    <glyph glyph-name="Korea1.242" unicode="&#x261c;" horiz-adv-x="970" 
d="M197 428h-6q-18 0 -28 0.5t-29 1.5t-30.5 5t-23.5 10t-17 16t-3 24q7 46 131 46q51 0 147 2q19 0 62 0.5t61 0.5q86 0 143 -4q68 -4 141 -57q12 -4 44 -4v32h114v-262h-115v23h-15q-45 -32 -125.5 -47.5t-163.5 -15.5q-51 0 -101 6q-33 4 -47 29t1 42q-23 7 -31.5 27.5
t4.5 36.5q-26 6 -28 37q-1 31 36 45q-7 0 -121 6zM524 505q-14 0 -42 -2q-36 -16 -50 -28.5t-32 -42.5q15 -5 28 -1t17 7.5t12 11.5q13 15 29 15q4 0 7 -6.5t1 -12.5q29 -6 57 11q11 5 17.5 3.5t7.5 -7.5q1 -15 -10 -34q9 -17 64 -35q23 -6 46 -9q47 -7 47 -18q0 -8 -14 -11
t-32.5 -1t-34 4.5t-21.5 4.5q-68 24 -91 65q-9 -3 -42 -3q2 -1 6.5 -2t6 -1.5t4 -2.5t5 -5t5.5 -9q9 -19 -4 -43q22 -11 24 -27q3 -15 -5 -31q24 -15 24 -33q0 -17 -7 -28q161 13 219 62h23v140q-42 -4 -86 27q-58 42 -179 42zM379 453q14 29 42 50l-229 -3q-54 -3 -74 -6
t-20 -13q-1 -10 17 -13t77 -5l55 -4q92 -6 132 -6zM849 272v197h-26v-197h26zM460 396q-42 6 -72 6q-48 0 -65 -14q-7 -6 -1 -11.5t18 -7.5q26 -4 80 -4q45 0 57 6q11 4 3 14q-6 9 -20 11zM518 261q0 10 -73 9l-68 -1q-6 0 -9 -5.5t-1 -12t10 -9.5q16 -6 62 -8
q20 0 30.5 0.5t23.5 3t19 8t6 15.5zM500 317q2 8 -9.5 12t-24.5 4h-106q-12 0 -14.5 -12t10.5 -16q10 -4 99 -4q40 0 45 16z" />
    <glyph glyph-name="Korea1.243" unicode="&#x261e;" horiz-adv-x="970" 
d="M768 428q-114 -6 -121 -6q37 -14 36 -45q-2 -31 -28 -37q13 -16 5 -36.5t-31 -27.5q15 -17 0.5 -42t-47.5 -29q-50 -6 -101 -6q-83 0 -163.5 15.5t-125.5 47.5h-14v-23h-116v262h115v-32q31 0 43 4q74 53 141 57q57 4 143 4q18 0 61.5 -0.5t62.5 -0.5q94 -2 146 -2
q124 0 131 -46q5 -40 -51 -52q-27 -5 -86 -5zM441 505q-121 0 -179 -42q-44 -31 -85 -27v-140h22q58 -49 219 -62q-7 11 -7 28q0 18 25 33q-9 14 -6 31t24 27q-13 24 -4 43q3 6 5.5 9t5 5t4 2.5t6 1.5t6.5 2q-33 0 -41 3q-24 -41 -92 -65q-6 -2 -21.5 -4.5t-34 -4.5t-32.5 1
t-14 11q0 11 47 18q21 3 46 9q55 18 64 35q-11 19 -10 34q1 6 8 7.5t17 -3.5q29 -17 57 -11q-2 6 1 12.5t7 6.5q17 0 29 -15q23 -25 58 -18q-19 31 -33 43t-50 28q-28 2 -42 2zM586 453q40 0 132 6l55 4q59 2 77 5t17 13q0 10 -20 13t-74 6l-229 3q28 -21 42 -50zM116 469
v-197h27v197h-27zM505 396q-22 -4 -23 -17q0 -6 6 -8q14 -6 57 -6q54 0 80 4q12 2 18 7.5t-1 11.5q-15 14 -65 14q-30 0 -72 -6zM447 261q0 -10 6 -15.5t19 -8t23.5 -3t30.5 -0.5q46 2 62 8q8 3 10 9.5t-1 12t-9 5.5l-68 1q-73 1 -73 -9zM466 317q2 -8 17 -12t27 -4
q89 0 99 4q13 4 10.5 16t-14.5 12h-105q-14 0 -25.5 -4t-8.5 -12z" />
    <glyph glyph-name="Korea1.244" unicode="&#xb6;" horiz-adv-x="970" 
d="M470 816h187v-941h-77v868h-55v-868h-75v482q-84 7 -140.5 75.5t-56.5 155.5q0 91 61 159.5t156 68.5z" />
    <glyph glyph-name="Korea1.245" unicode="&#x2020;" horiz-adv-x="970" 
d="M545 6h-145v481h-131v113h131v144h145v-144h136v-113h-136v-481z" />
    <glyph glyph-name="Korea1.246" unicode="&#x2021;" horiz-adv-x="970" 
d="M545 6h-145v306h-131v112h131v72h-131v113h131v135h145v-135h136v-113h-136v-72h136v-112h-136v-306z" />
    <glyph glyph-name="Korea1.247" unicode="&#x2195;" horiz-adv-x="970" 
d="M675 113l-197 -259l-196 258l18 17l155 -108v697l-155 -107l-15 23l193 251l196 -253l-21 -16l-145 104v-700l151 111z" />
    <glyph glyph-name="Korea1.248" unicode="&#x2197;" horiz-adv-x="970" 
d="M866 774l-87 -374l-36 6l-7 203l-595 -595l-37 38l592 593l-199 8l-2 34z" />
    <glyph glyph-name="Korea1.249" unicode="&#x2199;" horiz-adv-x="970" 
d="M864 753l-595 -598l204 -7l11 -34l-379 -87l88 374l33 -7l8 -198l592 592z" />
    <glyph glyph-name="Korea1.250" unicode="&#x2196;" horiz-adv-x="970" 
d="M864 48l-38 -36l-592 592l-8 -200l-34 -2l-87 371l379 -87l-10 -37l-204 -7z" />
    <glyph glyph-name="Korea1.251" unicode="&#x2198;" horiz-adv-x="970" 
d="M866 23l-371 88l2 34l199 8l-592 594l37 37l595 -595l7 204l35 10z" />
    <glyph glyph-name="Korea1.252" unicode="&#x266d;" horiz-adv-x="970" 
d="M676 357q8 -61 -21 -121t-81 -104.5t-116.5 -75.5t-126.5 -40v717h69v-297q60 52 126 52q16 0 31 -3q47 -10 79 -45t40 -83zM555 341q1 31 -15 53.5t-45 23.5q-47 3 -95 -59v-265q69 40 109.5 105t45.5 142z" />
    <glyph glyph-name="Korea1.253" unicode="&#x2669;" horiz-adv-x="970" 
d="M500 785h55v-644q-2 -73 -52.5 -132.5t-116.5 -59.5q-31 0 -52 16.5t-20 50.5q0 57 49.5 98.5t109.5 51.5q11 2 16 3.5t8 7t3 15.5v593z" />
    <glyph glyph-name="Korea1.254" unicode="&#x266a;" horiz-adv-x="970" 
d="M458 576v-435q0 -76 -67 -143q-49 -49 -103 -49q-32 0 -52 17t-20 50q0 51 50.5 95.5t109.5 54.5q16 2 21.5 6.5t5.5 19.5v593h41q49 -76 131 -140q37 -29 60 -49t54.5 -53.5t47.5 -69.5t16 -73q0 -81 -60.5 -153.5t-142.5 -124.5l-26 25q55 49 95.5 109t41.5 111
q-6 42 -38 75.5t-83 69.5q-54 39 -82 64z" />
    <glyph glyph-name="Korea1.255" unicode="&#x266c;" horiz-adv-x="970" 
d="M799 822v-580q0 -26 -13.5 -60.5t-35.5 -60.5q-53 -61 -110 -61q-30 0 -54 16.5t-24 43.5q0 70 54 112.5t110 46.5q25 2 25 16v225q-195 -42 -423 -93v-278q0 -75 -62 -142q-50 -50 -103 -50q-72 0 -72 66q0 51 50 95.5t109 55.5q9 2 12 3t7.5 3.5t6 7.5t1.5 13v508z
M751 649v35l-423 -96v-38z" />
    <glyph glyph-name="Korea1.256" unicode="&#x327f;" horiz-adv-x="1120" 
d="M321 369v-65h-254q-1 104 29.5 192t81 148.5t116 103t134 62t136.5 19.5q161 0 289 -98.5t178 -253.5h-77q-38 122 -148 206t-242 84q-164 0 -283.5 -112t-139.5 -286h180zM810 90h-132l-180 212v-212h-112v524h112v-180l170 180h135l-226 -244zM803 305v65h250
q2 -127 -42 -230t-117 -165t-158.5 -95t-172.5 -33q-165 0 -296 96t-179 257h71q38 -122 151 -205t253 -83q102 0 198 51t158.5 143t62.5 199h-179z" />
    <glyph glyph-name="Korea1.257" unicode="&#x321c;" horiz-adv-x="1142" 
d="M807 636v-79h-170q-8 -22 -21 -46q45 -15 80.5 -42t82.5 -77t65 -67h-122q-20 17 -51 48.5t-53.5 50.5t-45.5 29q-73 -81 -210 -140l-54 63q165 78 211 181h-175v79h463zM265 186v82h621v-82h-258v-207h-105v207h-258zM209 775h82q-133 -242 -133 -445q0 -201 133 -445
h-82q-140 224 -140 445q0 226 140 445zM848 775h83q139 -217 139 -445q0 -223 -139 -445h-83q133 241 133 445q0 206 -133 445z" />
    <glyph glyph-name="Korea1.258" unicode="&#x2116;" horiz-adv-x="1306" 
d="M565 -9h-139l-221 504v-504h-135v756h137l221 -512v512h137v-756zM1077 273q0 -140 -58 -215t-165 -75q-106 0 -164 74.5t-58 215.5q0 118 60 199t162 81t162.5 -79.5t60.5 -200.5zM938 273q0 78 -21 135t-63 57t-63.5 -57t-21.5 -135q0 -92 21 -147t64 -55t63.5 55.5
t20.5 146.5zM1084 48q0 33 22 58t53 25q32 0 54.5 -25t22.5 -58q0 -34 -22.5 -57t-54.5 -23t-53.5 23t-21.5 57z" />
    <glyph glyph-name="Korea1.259" unicode="&#x33c7;" horiz-adv-x="990" 
d="M384 143l64 -72q-63 -91 -170 -91q-78 0 -130.5 54.5t-74.5 140.5t-22 199q0 178 62 291t175 113q45 0 88 -23t75 -63l-66 -73q-25 26 -46 34.5t-53 8.5q-51 0 -88.5 -82t-37.5 -206q0 -137 35.5 -208t90.5 -71q68 0 98 48zM667 457q-87 0 -87 -193q0 -187 87 -187
q90 0 90 187q0 91 -19 142t-71 51zM667 555q91 0 144 -76.5t53 -214.5q0 -134 -53.5 -209.5t-143.5 -75.5q-100 0 -147.5 80t-47.5 205q0 138 52 214.5t143 76.5zM851 -56v109h100v-109h-100z" />
    <glyph glyph-name="Korea1.260" unicode="&#x2122;" horiz-adv-x="964" 
d="M392 747v-79h-129v-377h-102v377h-126v79h357zM894 747v-456h-89v325l-121 -173h-28l-123 174v-326h-89v456h86l140 -197l139 197h85z" />
    <glyph glyph-name="Korea1.261" unicode="&#x33c2;" horiz-adv-x="1107" 
d="M964 -56v104h95v-104h-95zM928 -9h-96v362q0 43 -7.5 61.5t-26.5 18.5q-32 0 -32 -80v-362h-96v362q0 80 -33 80t-33 -80v-362h-96v556h97v-69q28 61 83 61q46 0 71 -69q27 69 66 69q57 0 80 -50.5t23 -152.5v-345zM382 -55v104h95v-104h-95zM256 181v63q-20 5 -54 5
q-37 0 -65 -24.5t-28 -66.5q0 -36 15.5 -56t39.5 -18q42 1 67 35.5t25 61.5zM95 411l-55 76q62 68 148 68q76 0 119 -57.5t43 -129.5v-380h-85l-9 55q-13 -29 -48 -49t-58 -20q-59 -2 -96.5 46t-37.5 137q0 24 5.5 47.5t18.5 48.5t33 43.5t52 30.5t72 12q43 0 59 -2v29
q0 38 -21.5 62t-46.5 24q-45 0 -93 -41z" />
    <glyph glyph-name="Korea1.262" unicode="&#x33d8;" horiz-adv-x="1089" 
d="M276 268q3 174 -59 174q-19 0 -31 -14.5t-17 -43.5t-6.5 -53.5t-1.5 -64.5q0 -38 1 -60.5t6 -53t17 -45.5t31 -15q58 0 60 176zM378 268q0 -53 -6.5 -100t-21.5 -91.5t-44 -70.5t-70 -26q-42 0 -75 50v-263h-99v783h99v-58q32 60 77 60q73 0 106.5 -78t33.5 -206z
M950 -56v104h96v-104h-96zM914 -9h-96v362q0 43 -7 61.5t-26 18.5q-33 0 -33 -80v-362h-95v362q0 80 -33 80q-34 0 -34 -80v-362h-95v556h96v-69q30 61 83 61q23 0 42 -19t29 -50q27 69 67 69q57 0 79.5 -50.5t22.5 -152.5v-345zM364 -56v104h96v-104h-96z" />
    <glyph glyph-name="Korea1.263" unicode="&#x2121;" horiz-adv-x="1157" 
d="M527 747v-115h-180v-641h-136v641h-176v115h492zM951 747h136v-756h-136v756zM681 -23q-6 0 -17 1t-37.5 6.5t-51.5 14.5t-54.5 29t-51 46.5t-36 69.5t-14.5 96q0 117 68 189t180 72q105 0 168.5 -70.5t63.5 -189.5v-27h-350q8 -55 47 -92t99 -37q93 0 184 70v-123
q-8 -6 -24 -15t-67.5 -24.5t-106.5 -15.5zM551 297h219q-13 101 -103 101q-46 0 -77 -27.5t-39 -73.5z" />
    <glyph glyph-name="Korea1.264" unicode="&#xff01;" horiz-adv-x="1000" 
d="M556 135h-110l-27 635h163zM418 -28q0 34 23.5 58t57.5 24q33 0 57.5 -24t24.5 -58t-24.5 -58t-57.5 -24q-34 0 -57.5 24t-23.5 58z" />
    <glyph glyph-name="Korea1.265" unicode="&#xff02;" horiz-adv-x="1000" 
d="M459 629h-89l-16 241h124zM625 629h-89l-16 241h125z" />
    <glyph glyph-name="Korea1.266" unicode="&#xff03;" horiz-adv-x="1000" 
d="M166 545h173l45 217h111l-45 -217h177l46 217h109l-46 -217h97v-94h-117l-36 -166h153v-97h-173l-46 -212h-110l46 212h-177l-46 -212h-110l46 212h-97v97h117l35 166h-152v94zM606 451h-177l-35 -166h176z" />
    <glyph glyph-name="Korea1.267" unicode="&#xff04;" horiz-adv-x="1000" 
d="M731 644l-42 -110q-68 53 -128 69v-196q90 -33 140 -92.5t50 -124.5q0 -71 -45 -128.5t-145 -76.5v-78h-116v76q-95 11 -196 71v159q111 -97 196 -114v218q-99 33 -145.5 85.5t-49.5 111.5q0 68 49 127.5t146 75.5v77h116v-76q48 -8 90.5 -26.5t60.5 -33.5zM445 452v149
q-62 -17 -62 -72q0 -27 14 -43.5t48 -33.5zM561 262v-156q56 22 56 74t-56 82z" />
    <glyph glyph-name="Korea1.268" unicode="&#xff05;" horiz-adv-x="1000" 
d="M303 754q71 0 120.5 -51t49.5 -129t-49 -128.5t-121 -50.5q-74 0 -123 49.5t-49 129.5q0 72 47.5 126t124.5 54zM311 -24h-113q274 442 489 781h111q-74 -120 -237.5 -381.5t-249.5 -399.5zM302 488q25 0 42.5 24t17.5 60q0 39 -17.5 63t-42.5 24q-27 0 -45 -24t-18 -63
q0 -37 18 -60.5t45 -23.5zM699 343q72 0 121 -50t49 -129q0 -77 -46.5 -128t-123.5 -51q-75 0 -123 50.5t-48 128.5q0 72 48.5 125.5t122.5 53.5zM699 77q25 0 42.5 23.5t17.5 61.5t-17.5 61.5t-42.5 23.5q-27 0 -44.5 -23.5t-17.5 -61.5q0 -39 17.5 -62t44.5 -23z" />
    <glyph glyph-name="Korea1.269" unicode="&#xff06;" horiz-adv-x="1000" 
d="M825 -10h-167q-8 10 -32 38.5t-36 45.5q-58 -48 -104 -69t-111 -21q-82 0 -141.5 53t-59.5 134q0 119 163 223q-30 33 -52 78.5t-22 85.5q0 68 51.5 123t143.5 55q87 0 138 -48.5t51 -117.5q0 -99 -129 -194q5 -7 80 -107q37 55 61 108h135q-34 -97 -114 -210
q20 -25 69 -85t76 -92zM513 173l-104 130q-98 -73 -98 -127q0 -29 20 -51.5t51 -24.5q38 0 73 20t58 53zM447 463q73 50 73 104q0 26 -17.5 44.5t-44.5 18.5q-24 0 -43 -18t-19 -42q0 -8 1.5 -17t4 -15.5t7 -15.5l7 -14t8.5 -14t8 -11.5t8 -10.5z" />
    <glyph glyph-name="Korea1.270" unicode="&#xff07;" horiz-adv-x="1000" 
d="M542 629h-89l-15 241h124z" />
    <glyph glyph-name="Korea1.271" unicode="&#xff08;" horiz-adv-x="1000" 
d="M650 -163h-93q-105 132 -156 249t-51 262q0 68 13.5 133.5t31 112t50 102.5t53.5 85t59 80h92q-37 -56 -58.5 -95.5t-48 -104.5t-39.5 -143t-13 -172q0 -288 160 -509z" />
    <glyph glyph-name="Korea1.272" unicode="&#xff09;" horiz-adv-x="1000" 
d="M351 861h92q55 -73 86 -120.5t62 -111t44 -131t13 -149.5q0 -85 -17 -159.5t-52.5 -142.5t-61.5 -107.5t-74 -102.5h-91q36 56 56.5 94t47 103t39.5 144t13 173q0 293 -157 510z" />
    <glyph glyph-name="Korea1.273" unicode="&#xff0a;" horiz-adv-x="1000" 
d="M575 568q0 -7 -1 -11q146 -40 146 -89q0 -31 -31 -41q-6 -3 -20 -3q-15 0 -29 7q-44 24 -99 72q-1 -1 -3 -2l-4 -2q17 -72 17 -121q0 -8 -4 -20q-12 -33 -46 -33q-22 0 -37.5 14t-15.5 36q0 43 16 121l-10 5q-47 -44 -95 -71l-14 -3q-7 -3 -15 -3q-12 0 -19 3
q-31 10 -31 39t29 44h-1q29 17 110 45q-1 5 -1 13v8q-137 43 -137 89q0 11 7 23q9 13 24 19q7 2 19 2q18 0 29 -7q45 -28 93 -70q6 6 11 7q-15 85 -15 114q0 8 5 20q11 36 48 36q22 0 36 -14.5t14 -37.5q0 -52 -17 -120l9 -6q50 48 97 72l14 4q8 2 15 2q8 1 19 -2
q32 -12 32 -41q0 -25 -28 -44q-46 -26 -117 -49v-5z" />
    <glyph glyph-name="Korea1.274" unicode="&#xff0b;" horiz-adv-x="1000" 
d="M440 100v218h-219v111h219v216h120v-216h218v-111h-218v-218h-120z" />
    <glyph glyph-name="Korea1.275" unicode="&#xff0c;" horiz-adv-x="1000" 
d="M497 -128h-89l56 208h127z" />
    <glyph glyph-name="Korea1.276" unicode="&#xff0d;" horiz-adv-x="1000" 
d="M694 318h-389v111h389v-111z" />
    <glyph glyph-name="Korea1.277" unicode="&#xff0e;" horiz-adv-x="1000" 
d="M418 -8q0 34 24 58t58 24t58 -24t24 -58q0 -33 -24 -57t-58 -24t-58 24t-24 57z" />
    <glyph glyph-name="Korea1.278" unicode="&#xff0f;" horiz-adv-x="1000" 
d="M334 -18l222 772h109l-222 -772h-109z" />
    <glyph glyph-name="Korea1.279" unicode="&#xff10;" horiz-adv-x="1000" 
d="M499 756q118 0 189 -99t71 -289q0 -181 -70 -283.5t-190 -102.5t-189 103t-69 283t67.5 284t190.5 104zM499 640q-55 0 -87 -71t-32 -202q0 -128 31.5 -198.5t87.5 -70.5q55 0 88 72t33 197q0 130 -32.5 201.5t-88.5 71.5z" />
    <glyph glyph-name="Korea1.280" unicode="&#xff11;" horiz-adv-x="1000" 
d="M520 601l-139 -97l-39 103l193 140h122v-756h-137v610z" />
    <glyph glyph-name="Korea1.281" unicode="&#xff12;" horiz-adv-x="1000" 
d="M494 756q56 0 100.5 -16t71 -40.5t44.5 -56t24.5 -59.5t6.5 -53q0 -131 -114 -258l-156 -172h276v-110h-494v40l301 352q49 63 49 136q0 53 -31.5 89.5t-90.5 36.5q-88 0 -169 -70l-36 100q88 81 218 81z" />
    <glyph glyph-name="Korea1.282" unicode="&#xff13;" horiz-adv-x="1000" 
d="M463 645q-71 0 -154 -73l-43 106q84 79 213 79q101 0 171 -57.5t70 -144.5q0 -118 -100 -169q121 -55 121 -177q0 -102 -73.5 -166t-195.5 -64q-126 0 -214 62v146q108 -94 218 -94q10 0 25.5 3.5t41.5 13.5t43.5 36.5t17.5 65.5q0 46 -37.5 79t-109.5 33h-101v106h110
q24 0 48.5 8t47 34.5t22.5 66.5q0 47 -32.5 76.5t-88.5 29.5z" />
    <glyph glyph-name="Korea1.283" unicode="&#xff14;" horiz-adv-x="1000" 
d="M200 141v43l366 563h121v-498h112v-108h-112v-150h-133v150h-354zM378 249h176v280z" />
    <glyph glyph-name="Korea1.284" unicode="&#xff15;" horiz-adv-x="1000" 
d="M451 -27q-111 0 -194 48v142q90 -74 191 -74q15 0 34 4t49.5 15t50.5 40t20 72q0 12 -2 26t-13.5 37t-30 40t-56.5 30t-89 13q-60 0 -130 -22l27 402h405v-109h-278l-15 -172q26 3 50 3q126 0 199 -69.5t73 -181.5q0 -15 -2 -33t-19.5 -61t-49.5 -74
q-46 -43 -108.5 -59.5t-111.5 -16.5z" />
    <glyph glyph-name="Korea1.285" unicode="&#xff16;" horiz-adv-x="1000" 
d="M648 747l-186 -297q24 5 52 5q112 0 181.5 -65t69.5 -170q0 -101 -77 -172t-189 -71q-114 0 -189 68t-75 176q0 49 17.5 101t33 78.5t19.5 29.5l194 317h149zM369 217q0 -56 37.5 -93.5t94.5 -37.5q55 0 93 38.5t38 92.5q0 58 -36 95t-95 37q-57 0 -94.5 -37t-37.5 -95z
" />
    <glyph glyph-name="Korea1.286" unicode="&#xff17;" horiz-adv-x="1000" 
d="M316 -9l262 645h-329v109h501v-38l-289 -716h-145z" />
    <glyph glyph-name="Korea1.287" unicode="&#xff18;" horiz-adv-x="1000" 
d="M749 550q0 -109 -96 -159q116 -56 116 -191q0 -96 -75.5 -159t-193.5 -63q-117 0 -193 63t-76 159q0 136 117 191q-97 51 -97 159q0 86 69 149q70 60 180 60q113 0 181 -60q68 -59 68 -149zM500 84q58 0 97 36t39 89q0 55 -38.5 91t-97.5 36q-58 0 -97 -36t-39 -91
q0 -53 39 -89t97 -36zM500 653q-51 0 -84.5 -31.5t-33.5 -78.5q0 -46 33.5 -77t84.5 -31t85 31t34 77q0 47 -34 78.5t-85 31.5z" />
    <glyph glyph-name="Korea1.288" unicode="&#xff19;" horiz-adv-x="1000" 
d="M352 -9l187 296q-24 -5 -54 -5q-110 0 -180 64.5t-70 170.5q0 101 77.5 171.5t189.5 70.5q114 0 188.5 -67.5t74.5 -174.5q0 -99 -67 -208l-197 -318h-149zM367 519q0 -58 37.5 -94.5t94.5 -36.5q58 0 95 37.5t37 93.5q0 55 -36.5 93t-95.5 38q-55 0 -93.5 -38.5
t-38.5 -92.5z" />
    <glyph glyph-name="Korea1.289" unicode="&#xff1a;" horiz-adv-x="1000" 
d="M503 666q33 0 57 -23t24 -56q0 -34 -23.5 -57.5t-57.5 -23.5q-33 0 -56 23.5t-23 57.5q0 33 23 56t56 23zM497 223q32 0 55.5 -23t23.5 -56q0 -34 -23 -57.5t-56 -23.5q-35 0 -58 23.5t-23 57.5q0 33 23.5 56t57.5 23z" />
    <glyph glyph-name="Korea1.290" unicode="&#xff1b;" horiz-adv-x="1000" 
d="M517 666q33 0 57 -23t24 -56q0 -34 -24 -57.5t-57 -23.5q-34 0 -57 23.5t-23 57.5q0 33 23 56t57 23zM490 29h-89l57 208h127z" />
    <glyph glyph-name="Korea1.291" unicode="&#xff1c;" horiz-adv-x="1000" 
d="M221 311v102l558 236v-120l-404 -166q218 -92 404 -168v-120z" />
    <glyph glyph-name="Korea1.292" unicode="&#xff1d;" horiz-adv-x="1000" 
d="M778 197h-557v111h557v-111zM778 438h-557v112h557v-112z" />
    <glyph glyph-name="Korea1.293" unicode="&#xff1e;" horiz-adv-x="1000" 
d="M778 411v-102l-557 -235v121q350 142 406 166l-406 168v120z" />
    <glyph glyph-name="Korea1.294" unicode="&#xff1f;" horiz-adv-x="1000" 
d="M470 669q-32 0 -70 -14.5t-60 -28.5l-21 -15l-42 107q100 61 209 61q97 0 167 -59.5t70 -172.5q0 -36 -15 -72t-31.5 -57.5t-45.5 -53.5q-50 -59 -65 -93q-3 -6 -6 -13q-19 -55 -19 -123h-136q0 160 116 292q56 60 56 121q0 59 -25 85q-32 36 -82 36zM396 -28q0 34 24 58
t58 24q33 0 56.5 -24t23.5 -58t-23.5 -58t-56.5 -24q-34 0 -58 24t-24 58z" />
    <glyph glyph-name="Korea1.295" unicode="&#xff20;" horiz-adv-x="1000" 
d="M625 654h125l-73 -363q-1 -15 -7 -38q-10 -45 -10 -47q0 -26 20 -26q50 0 113.5 81.5t63.5 198.5q0 140 -97.5 229.5t-242.5 89.5q-180 0 -290.5 -125.5t-110.5 -309.5q0 -85 23.5 -152.5t62.5 -111t93 -73t111 -41.5t120 -12q216 0 339 146h128q-14 -21 -19 -29
t-31 -39.5t-47.5 -49.5t-61.5 -46t-81.5 -44t-100.5 -28t-123 -12q-131 0 -233 39t-163.5 107t-93 154t-31.5 186q0 68 16 139t54.5 144t95 129.5t146.5 92.5t201 36q87 0 160.5 -24.5t125 -65.5t87.5 -95.5t53 -114.5t17 -122q0 -78 -25.5 -145.5t-65 -111.5t-77 -72
t-72.5 -42q-36 -12 -78 -12q-91 0 -107 63q-70 -63 -142 -63q-86 0 -143 68.5t-57 176.5q0 81 35 161t99.5 134t139.5 54q31 0 70.5 -15.5t72.5 -54.5q7 34 11 56zM327 306q0 -60 25.5 -97t62.5 -37q67 0 113.5 81t46.5 184q0 62 -27 97t-66 35q-48 0 -85 -45.5t-53.5 -104
t-16.5 -113.5z" />
    <glyph glyph-name="Korea1.296" unicode="&#xff21;" horiz-adv-x="1000" 
d="M548 754l321 -763h-141q-29 67 -85 201h-296q-9 -22 -25.5 -63t-30 -74.5t-25.5 -63.5h-135l309 763h108zM394 308h201q-11 26 -47 110t-55 131q-10 -25 -45.5 -109.5t-53.5 -131.5z" />
    <glyph glyph-name="Korea1.297" unicode="&#xff22;" horiz-adv-x="1000" 
d="M607 394q74 -23 114.5 -73t40.5 -117q0 -45 -16 -81.5t-41.5 -59.5t-47.5 -36t-43 -20q-40 -16 -115 -16h-262v756h209q49 0 92 -10t82.5 -31.5t62.5 -62.5t23 -96q0 -98 -99 -153zM373 631v-197h59q20 0 34 1t34 6.5t33 16t22.5 30.5t9.5 48v5q0 50 -34.5 70t-101.5 20
h-56zM373 105h84q165 0 165 107q0 106 -168 106h-81v-213z" />
    <glyph glyph-name="Korea1.298" unicode="&#xff23;" horiz-adv-x="1000" 
d="M776 583q-96 53 -174 53q-127 0 -205.5 -73t-78.5 -197q0 -129 82 -200t213 -71q91 0 200 61v-129q-108 -50 -213 -50q-184 0 -303 104t-119 285q0 178 118 283.5t303 105.5q59 0 114.5 -14t82.5 -28l26 -14q-8 -22 -24 -62t-22 -54z" />
    <glyph glyph-name="Korea1.299" unicode="&#xff24;" horiz-adv-x="1000" 
d="M168 747h243q40 0 70.5 -2t78.5 -13.5t86 -32t78.5 -60.5t68.5 -96q38 -81 38 -175q0 -59 -16 -111.5t-33 -83t-48 -62t-41.5 -39l-31.5 -22.5q-39 -27 -91 -41t-85 -16t-84 -2h-233v756zM404 631h-100v-524h108q280 0 280 266q0 84 -29.5 140t-99.5 90q-38 18 -70.5 23
t-88.5 5z" />
    <glyph glyph-name="Korea1.300" unicode="&#xff25;" horiz-adv-x="1000" 
d="M711 747v-116h-296v-199h285v-115h-285v-210h307v-116h-444v756h433z" />
    <glyph glyph-name="Korea1.301" unicode="&#xff26;" horiz-adv-x="1000" 
d="M706 747v-117h-276v-183h274v-116h-274v-340h-137v756h413z" />
    <glyph glyph-name="Korea1.302" unicode="&#xff27;" horiz-adv-x="1000" 
d="M696 110v165h-118v115h255v-363q-123 -50 -244 -50q-184 0 -303.5 104t-119.5 285q0 178 119 283.5t302 105.5q59 0 115.5 -14t83.5 -28l27 -14l-47 -116q-94 53 -176 53q-126 0 -204.5 -73t-78.5 -197q0 -73 27 -128t70.5 -85t89.5 -44t92 -14q24 0 51.5 3.5t42.5 7.5z
" />
    <glyph glyph-name="Korea1.303" unicode="&#xff28;" horiz-adv-x="1000" 
d="M825 747v-756h-136v319h-378v-319h-136v756h136v-318h378v318h136z" />
    <glyph glyph-name="Korea1.304" unicode="&#xff29;" horiz-adv-x="1000" 
d="M568 747v-756h-136v756h136z" />
    <glyph glyph-name="Korea1.305" unicode="&#xff2a;" horiz-adv-x="1000" 
d="M398 -202q-39 90 -46 109q38 -5 58 -5q58 0 82 29q20 25 20 122v694h136v-694q0 -74 -12 -121q-17 -55 -52 -89q-55 -50 -135 -50z" />
    <glyph glyph-name="Korea1.306" unicode="&#xff2b;" horiz-adv-x="1000" 
d="M329 747v-756h-136v756h136zM489 384q44 -54 151.5 -187t165.5 -206h-167l-305 393q36 54 77 114.5t91.5 134t78.5 114.5h168q-39 -54 -126.5 -176t-133.5 -187z" />
    <glyph glyph-name="Korea1.307" unicode="&#xff2c;" horiz-adv-x="1000" 
d="M417 747v-639h301v-117h-436v756h135z" />
    <glyph glyph-name="Korea1.308" unicode="&#xff2d;" horiz-adv-x="1000" 
d="M856 747v-756h-131v556q-20 -28 -91.5 -130t-109.5 -157h-46l-204 288v-557h-130v756h125l232 -326l230 326h125z" />
    <glyph glyph-name="Korea1.309" unicode="&#xff2e;" horiz-adv-x="1000" 
d="M824 747v-756h-119q-219 296 -400 544v-544h-129v756h115l403 -547v547h130z" />
    <glyph glyph-name="Korea1.310" unicode="&#xff2f;" horiz-adv-x="1000" 
d="M908 368q0 -165 -115 -278t-294 -113q-183 0 -295.5 112.5t-112.5 278.5t113.5 279.5t294.5 113.5q180 0 294.5 -113.5t114.5 -279.5zM499 640q-119 0 -194 -78t-75 -194t74 -193.5t195 -77.5q118 0 193.5 78t75.5 193t-75 193.5t-194 78.5z" />
    <glyph glyph-name="Korea1.311" unicode="&#xff30;" horiz-adv-x="1000" 
d="M729 621q18 -39 18 -94q0 -40 -13 -76t-41.5 -69t-82.5 -53t-128 -20h-92v-318h-138v756h210q46 0 75.5 -3t70 -14t70.5 -38.5t51 -70.5zM576 453q31 23 31 74q0 101 -124 101h-92v-200h101q56 0 84 25z" />
    <glyph glyph-name="Korea1.312" unicode="&#xff31;" horiz-adv-x="1000" 
d="M908 368q0 -135 -78.5 -237.5t-209.5 -138.5q34 -20 92.5 -39.5t82.5 -19.5q42 0 65 7q-15 -19 -44.5 -57t-44.5 -57q-193 23 -340 158q-155 20 -247.5 127t-92.5 257q0 166 114 279.5t294 113.5q181 0 295 -113.5t114 -279.5zM499 640q-119 0 -194 -78.5t-75 -193.5
q0 -116 74.5 -193.5t194.5 -77.5q118 0 193 78t75 193q0 116 -74.5 194t-193.5 78z" />
    <glyph glyph-name="Korea1.313" unicode="&#xff32;" horiz-adv-x="1000" 
d="M694 137q54 -99 84 -146h-155q-32 48 -76 128q-46 83 -76 124.5t-64 56.5q-22 9 -50 11v-320h-136v756h194q123 0 189.5 -62.5t66.5 -153.5q0 -62 -34 -110q-36 -46 -97 -71q29 -22 58.5 -60.5t45.5 -65t50 -87.5zM499 456q34 28 34 77t-33 76q-36 26 -90 26h-52v-207h51
q59 0 90 28z" />
    <glyph glyph-name="Korea1.314" unicode="&#xff33;" horiz-adv-x="1000" 
d="M546 112q35 25 35 62q0 69 -83 121q-124 81 -167 132t-43 128q0 85 59.5 143t167.5 58q51 0 99.5 -18.5t71.5 -37.5l22 -18l-47 -115q-76 73 -149 73q-47 0 -71 -20q-11 -8 -17 -22.5t-6 -24.5l-1 -10q0 -35 36 -73q33 -29 126 -92q38 -25 62.5 -47.5t47 -67t22.5 -98.5
q0 -93 -61 -148t-161 -55q-107 0 -198 66v173q102 -122 191 -124q42 0 64 15z" />
    <glyph glyph-name="Korea1.315" unicode="&#xff34;" horiz-adv-x="1000" 
d="M796 747v-115h-230v-641h-137v641h-226v115h593z" />
    <glyph glyph-name="Korea1.316" unicode="&#xff35;" horiz-adv-x="1000" 
d="M500 -21q-42 0 -81 6t-84.5 26t-78.5 52.5t-55 90.5t-22 135v458h139v-490q0 -72 47 -116.5t135 -44.5t135 44.5t47 116.5v490h138v-458q0 -77 -22 -135t-54.5 -90.5t-78 -52.5t-84.5 -26t-81 -6z" />
    <glyph glyph-name="Korea1.317" unicode="&#xff36;" horiz-adv-x="1000" 
d="M822 747l-292 -761h-57q-15 39 -126.5 325t-168.5 436h143q29 -80 89 -239.5t90 -239.5q22 59 83.5 224t94.5 255h144z" />
    <glyph glyph-name="Korea1.318" unicode="&#xff37;" horiz-adv-x="1000" 
d="M997 747l-261 -761h-53l-183 543l-185 -543h-53l-259 761h144l143 -474l147 474h127l146 -476l143 476h144z" />
    <glyph glyph-name="Korea1.319" unicode="&#xff38;" horiz-adv-x="1000" 
d="M852 756l-268 -372q202 -280 292 -402h-167l-209 287l-211 -287h-166l292 402l-268 372h167l186 -256l184 256h168z" />
    <glyph glyph-name="Korea1.320" unicode="&#xff39;" horiz-adv-x="1000" 
d="M844 747l-275 -382v-374h-138v374q-51 69 -144 199t-131 183h157l186 -259l189 259h156z" />
    <glyph glyph-name="Korea1.321" unicode="&#xff3a;" horiz-adv-x="1000" 
d="M822 747l-413 -642h410v-114h-641q87 132 415 641h-381v115h610z" />
    <glyph glyph-name="Korea1.322" unicode="&#xff3b;" horiz-adv-x="1000" 
d="M638 853v-109h-143v-809h143v-107h-277v1025h277z" />
    <glyph glyph-name="Korea1.323" unicode="&#xffe6;" horiz-adv-x="1000" 
d="M14 362v98h86l-97 287h144l86 -287h115l89 287h127l88 -287h115l86 287h144l-99 -287h89v-98h-122l-129 -376h-53l-127 376h-113l-128 -376h-53l-128 376h-120zM682 362l28 -91l27 91h-55zM263 362l27 -89l27 89h-54zM500 529l-24 -69h47z" />
    <glyph glyph-name="Korea1.324" unicode="&#xff3d;" horiz-adv-x="1000" 
d="M362 -172v107h142v810h-142v108h275v-1025h-275z" />
    <glyph glyph-name="Korea1.325" unicode="&#xff3e;" horiz-adv-x="1000" 
d="M379 315h-131l201 455h101l202 -455h-131q-54 127 -121 296z" />
    <glyph glyph-name="Korea1.326" unicode="&#xff3f;" horiz-adv-x="1000" 
d="M200 -82h599v-76h-599v76z" />
    <glyph glyph-name="Korea1.327" unicode="&#xff40;" horiz-adv-x="1000" 
d="M535 818l73 -183h-88q-17 25 -61.5 86.5t-67.5 96.5h144z" />
    <glyph glyph-name="Korea1.328" unicode="&#xff41;" horiz-adv-x="1000" 
d="M671 75q5 0 20 10t27 20l13 10v-95q-40 -26 -61.5 -34t-47.5 -8q-64 0 -86 39q-60 -39 -130 -39q-63 0 -100.5 38.5t-37.5 89.5q0 72 45 114.5t157 81.5l60 21q0 71 -71 71q-61 0 -137 -70l-45 85q36 41 89.5 67t99.5 26q79 0 137 -41t58 -122v-251q0 -13 10 -13z
M530 102v135l-14 -4q-28 -10 -45 -17.5t-36 -20t-27.5 -30.5t-8.5 -42q0 -26 15.5 -41.5t39.5 -15.5q38 0 76 36z" />
    <glyph glyph-name="Korea1.329" unicode="&#xff42;" horiz-adv-x="1000" 
d="M263 17v730h132v-271q51 28 117 28q106 0 165 -74t59 -185q0 -60 -17.5 -107.5t-45 -76t-64 -47t-70.5 -25.5t-70 -7q-119 0 -206 35zM395 358v-264q29 -8 57 -8q67 0 109.5 37.5t42.5 118.5q0 67 -32.5 111.5t-86.5 44.5q-52 0 -90 -40z" />
    <glyph glyph-name="Korea1.330" unicode="&#xff43;" horiz-adv-x="1000" 
d="M680 363q-70 32 -111 32q-69 0 -115 -43.5t-46 -112.5q0 -78 47 -118.5t121 -40.5q57 0 136 44v-115q-83 -32 -143 -32q-127 0 -210 68t-83 193q0 118 84 190t209 72q40 0 78.5 -10t57.5 -20l19 -9q-39 -87 -44 -98z" />
    <glyph glyph-name="Korea1.331" unicode="&#xff44;" horiz-adv-x="1000" 
d="M605 747h133v-736q-90 -29 -180 -29q-149 0 -223 73.5t-74 191.5q0 117 73.5 187t180.5 70q51 0 90 -16v259zM395 237q0 -39 12.5 -68.5t29 -44.5t39 -23.5t37 -10.5t28.5 -2q50 0 64 6v288q-30 20 -73 20q-57 0 -97 -42.5t-40 -122.5z" />
    <glyph glyph-name="Korea1.332" unicode="&#xff45;" horiz-adv-x="1000" 
d="M522 -23q-6 0 -17 1t-37.5 6.5t-51.5 14.5t-54.5 29t-51 46.5t-36 69.5t-14.5 96q0 117 68 189t180 72q105 0 168.5 -70.5t63.5 -189.5v-27h-350q8 -55 47 -92t99 -37q93 0 184 70v-123q-8 -6 -24 -15t-67.5 -24.5t-106.5 -15.5zM392 297h219q-13 101 -103 101
q-46 0 -77 -27.5t-39 -73.5z" />
    <glyph glyph-name="Korea1.333" unicode="&#xff46;" horiz-adv-x="1000" 
d="M672 748v-113q-24 6 -33 8l1 -1q-12 3 -22 3q-30 0 -49 -9.5t-27.5 -28.5t-11 -37t-2.5 -46v-29h84v-103h-84v-401h-133v401h-68v103h68v23q0 114 52 175.5t134 61.5q39 0 91 -7z" />
    <glyph glyph-name="Korea1.334" unicode="&#xff47;" horiz-adv-x="1000" 
d="M753 488l-19 -93h-63q36 -43 36 -98q0 -42 -17 -75t-37.5 -50t-51 -28.5t-45.5 -14.5t-33 -5q-21 -4 -32 -6.5t-20.5 -9t-9.5 -15.5q0 -16 27 -27t95 -24q171 -34 171 -145q0 -79 -70.5 -122.5t-186.5 -43.5q-107 0 -179 43.5t-72 112.5q0 96 117 133q-41 30 -41 61
q0 23 19 42t49 31q-103 48 -103 155q0 86 64 132.5t173 46.5h229zM619 -111q0 21 -17.5 35.5t-44 21t-46.5 9t-35 2.5q-44 0 -71 -18t-27 -45q0 -65 121 -65q55 0 87.5 15.5t32.5 44.5zM576 307q0 33 -23.5 58t-54.5 25q-35 0 -58 -25t-23 -59q0 -40 21.5 -62.5t60.5 -22.5
q33 0 55 24.5t22 61.5z" />
    <glyph glyph-name="Korea1.335" unicode="&#xff48;" horiz-adv-x="1000" 
d="M408 747v-292q55 50 135 50q90 0 134.5 -59.5t44.5 -167.5v-287h-133v305q0 57 -21.5 86t-52.5 29q-54 0 -107 -61v-359h-131v756h131z" />
    <glyph glyph-name="Korea1.336" unicode="&#xff49;" horiz-adv-x="1000" 
d="M427 651q0 30 21.5 52t51.5 22t51.5 -22t21.5 -52t-21.5 -52t-51.5 -22t-51.5 22t-21.5 52zM564 488v-497h-129v497h129z" />
    <glyph glyph-name="Korea1.337" unicode="&#xff4a;" horiz-adv-x="1000" 
d="M414 -227l-40 95q75 14 95 45q18 30 18 117v458h132v-465q0 -87 -24 -141t-91 -88q-35 -19 -90 -21zM479 651q0 30 21.5 52t51.5 22t51.5 -22t21.5 -52t-21.5 -52t-51.5 -22t-51.5 22t-21.5 52z" />
    <glyph glyph-name="Korea1.338" unicode="&#xff4b;" horiz-adv-x="1000" 
d="M376 747v-756h-131v756h131zM532 249q63 -74 223 -258h-167l-208 256l181 248h153z" />
    <glyph glyph-name="Korea1.339" unicode="&#xff4c;" horiz-adv-x="1000" 
d="M566 747v-756h-132v756h132z" />
    <glyph glyph-name="Korea1.340" unicode="&#xff4d;" horiz-adv-x="1000" 
d="M129 488h130v-42q68 53 130 53q89 0 147 -75q44 41 79 58t79 17q177 0 177 -204v-304h-130v297q0 109 -80 109q-52 0 -96 -52v-354h-130v293q0 54 -15 84t-62 30q-49 0 -99 -53v-354h-130v497z" />
    <glyph glyph-name="Korea1.341" unicode="&#xff4e;" horiz-adv-x="1000" 
d="M277 488h135v-38q63 49 130 49q64 0 119 -44t59 -128v1q2 -16 2 -54v-283h-133v282q0 126 -79 126q-52 0 -98 -58v-350h-135v497z" />
    <glyph glyph-name="Korea1.342" unicode="&#xff4f;" horiz-adv-x="1000" 
d="M782 242q0 -111 -79.5 -187t-203.5 -76q-126 0 -204 75.5t-78 187.5q0 110 78.5 186t203.5 76t204 -76t79 -186zM499 398q-66 0 -108.5 -45.5t-42.5 -111.5q0 -67 41.5 -112t109.5 -45q65 0 107.5 45.5t42.5 111.5t-42 111.5t-108 45.5z" />
    <glyph glyph-name="Korea1.343" unicode="&#xff50;" horiz-adv-x="1000" 
d="M261 -266v734q91 32 183 32q141 0 217.5 -71t76.5 -196q0 -113 -69.5 -185t-182.5 -72q-36 0 -91 15v-257h-134zM395 386v-291q26 -21 74 -21q57 0 96.5 44t39.5 124q0 79 -43 114.5t-110 35.5z" />
    <glyph glyph-name="Korea1.344" unicode="&#xff51;" horiz-adv-x="1000" 
d="M738 468v-734h-133v258q-50 -16 -90 -16q-105 0 -179.5 68.5t-74.5 188.5q0 52 15.5 97.5t48 84.5t92 62t140.5 23q40 0 85.5 -8t70.5 -16zM605 96v290q-20 6 -56 6q-67 0 -110.5 -35.5t-43.5 -114.5q0 -80 37 -124t100 -44q47 0 73 22z" />
    <glyph glyph-name="Korea1.345" unicode="&#xff52;" horiz-adv-x="1000" 
d="M643 342q-61 46 -92 46q-36 0 -70 -45.5t-34 -106.5v-245h-131v497h131v-75q60 86 130 86q48 0 107 -42z" />
    <glyph glyph-name="Korea1.346" unicode="&#xff53;" horiz-adv-x="1000" 
d="M674 452l-38 -96q-89 44 -134 44q-43 0 -43 -33q0 -8 4 -15t16.5 -16.5t19 -14.5t26.5 -18q3 -2 31 -19t42 -28q81 -71 81 -136q0 -21 -9.5 -44t-29.5 -46t-57.5 -37.5t-86.5 -14.5q-34 0 -67 7t-53.5 15t-55.5 24v131q112 -76 166 -76q20 0 37.5 11t17.5 28q0 19 -18 36
t-54 41q-2 1 -3 2t-3 2t-3 2q-71 47 -87 61q-50 50 -50 106t46.5 95t126.5 39q78 0 178 -50z" />
    <glyph glyph-name="Korea1.347" unicode="&#xff54;" horiz-adv-x="1000" 
d="M550 -17h-1q-86 4 -121 44q-25 28 -32 63t-7 95v206h-84v21l215 210v-128h150v-103h-150v-196q0 -29 1 -45t6 -33.5t16.5 -25t30.5 -7.5q20 0 50 10.5t50 21.5l20 10v-108q0 -3 -20.5 -11t-56 -16t-67.5 -8z" />
    <glyph glyph-name="Korea1.348" unicode="&#xff55;" horiz-adv-x="1000" 
d="M722 -9h-133v38q-55 -46 -130 -46q-87 0 -139 58q-43 51 -43 166v281h134v-280q0 -22 0.5 -34.5t4.5 -33.5t12 -32t23.5 -20t38.5 -9q47 0 99 59v350h133v-497z" />
    <glyph glyph-name="Korea1.349" unicode="&#xff56;" horiz-adv-x="1000" 
d="M621 488h141l-232 -506h-58q-199 428 -234 506h140l124 -273q39 91 119 273z" />
    <glyph glyph-name="Korea1.350" unicode="&#xff57;" horiz-adv-x="1000" 
d="M907 488l-224 -506h-53l-131 305l-128 -305h-53q-81 178 -225 506h139q19 -44 55.5 -132t55.5 -132q74 176 112 264h90l113 -266l109 266h140z" />
    <glyph glyph-name="Korea1.351" unicode="&#xff58;" horiz-adv-x="1000" 
d="M573 243l218 -252h-159l-136 159q-25 -29 -69.5 -84.5t-60.5 -74.5h-158l209 252l-209 245h158q46 -54 130 -150l122 150h160q-40 -46 -112.5 -133.5t-92.5 -111.5z" />
    <glyph glyph-name="Korea1.352" unicode="&#xff59;" horiz-adv-x="1000" 
d="M760 488l-338 -722h-141l154 328q-37 74 -105 212t-90 182h144l120 -246l113 246h143z" />
    <glyph glyph-name="Korea1.353" unicode="&#xff5a;" horiz-adv-x="1000" 
d="M479 96h249v-105h-463l253 391h-234v106h451q-35 -53 -121.5 -186.5t-134.5 -205.5z" />
    <glyph glyph-name="Korea1.354" unicode="&#xff5b;" horiz-adv-x="1000" 
d="M626 863h47v-101h-33q-55 0 -66 -29t-11 -150q0 -82 -14 -131.5t-34 -70t-57 -38.5q61 -31 83 -85.5t22 -158.5q0 -54 1 -79.5t4.5 -49t13 -30.5t22 -11t36.5 -4h33v-104h-47q-30 0 -51.5 2.5t-49 14.5t-44 33t-28.5 61t-12 96q0 155 -19 206.5t-95 54.5v106
q70 3 91.5 47t21.5 152q0 74 9.5 125t24 79t41 43t50 18.5t61.5 3.5z" />
    <glyph glyph-name="Korea1.355" unicode="&#xff5c;" horiz-adv-x="1000" 
d="M443 -167v1043h114v-1043h-114z" />
    <glyph glyph-name="Korea1.356" unicode="&#xff5d;" horiz-adv-x="1000" 
d="M327 863h48q38 0 61.5 -3.5t49.5 -18.5t40.5 -43t24 -79t9.5 -125q0 -108 21.5 -152t91.5 -47v-106q-76 -3 -95 -54.5t-19 -206.5q0 -56 -12 -96t-28.5 -61t-44 -33t-48.5 -14.5t-51 -2.5h-48v104h17q4 0 11 0.5t9 0.5q19 0 30 2t20 10t13 17t6.5 32t3 45.5t0.5 66.5
q0 104 22 158.5t83 85.5q-34 18 -54.5 40t-35.5 72t-15 128q0 119 -10 148t-62 30q-1 1 -4 1h-34v101z" />
    <glyph glyph-name="Korea1.357" unicode="&#xffe3;" horiz-adv-x="1000" 
d="M14 782v98h973v-98h-973z" />
    <glyph glyph-name="Korea1.358" unicode="&#x3131;" 
d="M748 147h-137v363h-486v110h577q24 0 35 -11.5t11 -28.5v-433z" />
    <glyph glyph-name="Korea1.359" unicode="&#x3132;" 
d="M753 142h-136v372h-174v109h264q46 0 46 -39v-442zM363 142h-134l44 372h-172v109h265q23 0 34.5 -11.5t11.5 -28.5z" />
    <glyph glyph-name="Korea1.360" unicode="&#x3133;" 
d="M357 563q22 0 34 -12t12 -28v-259l5 5q5 5 11 12t15 18t18 24t18 28.5t17 33.5t14.5 37t10 41t3.5 44v56h138v-47q0 -48 -11 -97q39 -20 72 -72.5t71 -147.5h-136q-29 93 -49 121q-40 -67 -125 -138l-72 79v-65h-135v264h-140v103h229z" />
    <glyph glyph-name="Korea1.361" unicode="&#x3134;" 
d="M261 593v-313h492v-109h-520q-58 0 -83 21t-25 69v332h136z" />
    <glyph glyph-name="Korea1.362" unicode="&#x3135;" 
d="M755 465h-97q-4 -31 -11 -54q71 -41 150 -207h-133q-49 95 -64 115q-38 -52 -140 -127l-65 87q5 2 12.5 6.5t28.5 20.5t37.5 35.5t32.5 52.5t20 71h-108v104h337v-104zM385 206h-137q-57 0 -79 18t-22 65v280h136v-260h102v-103z" />
    <glyph glyph-name="Korea1.363" unicode="&#x3136;" 
d="M386 443h399v-89h-51q18 -28 18 -59q0 -58 -45 -91.5t-122 -33.5t-121.5 33.5t-44.5 90.5q0 36 17 60h-50v89zM404 186h-150q-56 0 -78 17.5t-22 64.5v289h136v-268h114v-103zM705 550v-87q-165 0 -240 31v103q81 -47 240 -47zM584 353q-16 0 -26 -14t-10 -37
q0 -25 10 -39.5t26 -14.5q34 0 36 54q-2 51 -36 51z" />
    <glyph glyph-name="Korea1.364" unicode="&#x3137;" 
d="M261 489v-210h492v-109h-520q-58 0 -83 21t-25 69v337h618v-108h-482z" />
    <glyph glyph-name="Korea1.365" unicode="&#x3138;" 
d="M416 600h337v-110h-204v-211h214v-109h-534q-58 0 -83 21t-25 69v340h253v-110h-120v-211h162v321z" />
    <glyph glyph-name="Korea1.366" unicode="&#x3139;" 
d="M753 621v-285h-492v-80h507v-109h-535q-58 0 -83 21t-25 70v207h492v65h-492v111h628z" />
    <glyph glyph-name="Korea1.367" unicode="&#x313a;" 
d="M286 335v-51h174v-103h-210q-55 0 -76 16.5t-21 60.5v178h153v48h-153v102h287v-251h-154zM699 586q22 0 33.5 -11t12.5 -27v-367h-133v303h-141v102h228z" />
    <glyph glyph-name="Korea1.368" unicode="&#x313b;" 
d="M745 586v-405h-185q-57 0 -78.5 18t-21.5 65v322h285zM286 335v-51h154v-103h-190q-55 0 -76 16.5t-21 60.5v178h134v48h-134v102h268v-251h-135zM621 484h-38v-200h38v200z" />
    <glyph glyph-name="Korea1.369" unicode="&#x313c;" 
d="M620 586h125v-405h-191q-56 0 -77.5 18t-21.5 65v322h125v-115h40v115zM286 335v-51h149v-103h-185q-55 0 -76 16.5t-21 60.5v178h130v48h-130v102h264v-251h-131zM620 370h-40v-85h40v85z" />
    <glyph glyph-name="Korea1.370" unicode="&#x313d;" 
d="M687 577v-72q0 -48 -17 -101q97 -38 150 -221h-134q-24 78 -43 107q-8 12 -18 24q-48 -76 -133 -148l-61 71v-57h-211q-55 0 -76 17t-21 61v173h156v40h-156v105h289v-246h-153v-44h172v-22q22 18 43 42t44.5 79t23.5 117v75h145z" />
    <glyph glyph-name="Korea1.371" unicode="&#x313e;" 
d="M286 329v-45h161v-103h-197q-55 0 -76 16.5t-21 60.5v172h143v42h-143v103h276v-246h-143zM597 284h156v-103h-187q-56 0 -78 18t-22 65v311h281v-103h-150v-42h143v-101h-143v-45z" />
    <glyph glyph-name="Korea1.372" unicode="&#x313f;" 
d="M766 576v-107h-27v-125q0 -33 -12 -55h44v-108h-329v108h38v180h-33v107h319zM264 330v-44h157v-105h-195q-55 0 -76.5 17t-21.5 60v173h151v40h-151v105h284v-246h-148zM586 469v-180h38q9 9 9 38v142h-47z" />
    <glyph glyph-name="Korea1.373" unicode="&#x3140;" 
d="M286 335v-51h154v-103h-190q-55 0 -76 17t-21 61v177h125v48h-125v103h258v-252h-125zM434 452h353v-90h-48q19 -31 19 -65q0 -59 -40.5 -93t-110.5 -34q-69 0 -109.5 34.5t-40.5 92.5q0 40 19 65h-42v90zM721 563v-87q-155 0 -226 31v106q44 -27 109.5 -38.5
t116.5 -11.5zM605 360q-29 0 -29 -55q0 -57 29 -57q30 0 30 57q0 55 -30 55z" />
    <glyph glyph-name="Korea1.374" unicode="&#x3141;" 
d="M760 600v-434h-523q-57 0 -82.5 21t-25.5 69v344h631zM624 275v215h-359v-215h359z" />
    <glyph glyph-name="Korea1.375" unicode="&#x3142;" 
d="M622 615h138v-454h-523q-57 0 -82.5 21.5t-25.5 68.5v364h136v-136h357v136zM622 370h-357v-100h357v100z" />
    <glyph glyph-name="Korea1.376" unicode="&#x3143;" 
d="M511 615v-133h121v134h133v-454h-535q-57 0 -82.5 21.5t-25.5 68.5v364h133v-134h122v133h134zM255 375v-106h122v106h-122zM632 375h-121v-106h121v106z" />
    <glyph glyph-name="Korea1.377" unicode="&#x3144;" 
d="M675 573v-58q0 -53 -10 -96q86 -57 145 -231h-134q-1 3 -7 20.5t-12 32t-16 36t-20 37.5q-32 -61 -126 -143l-64 74v-60h-204q-57 0 -79 18t-22 65v305h123v-103h59v103h123v-305q14 12 28 29.5t33 47.5t31 72.5t12 88.5v67h140zM308 367h-59v-78h59v78z" />
    <glyph glyph-name="Korea1.378" unicode="&#x3145;" 
d="M379 639h153q-13 -102 -53 -177q62 -16 114 -50t81.5 -67t77.5 -90t84 -93h-176q-17 18 -53.5 60t-59 66.5t-56 51t-62.5 38.5q-104 -143 -297 -235l-74 83q39 21 76.5 47t78.5 64.5t73 82t57.5 100.5t35.5 119z" />
    <glyph glyph-name="Korea1.379" unicode="&#x3146;" 
d="M324 144l-70 83q52 26 93 67q-24 29 -40 44q-64 -96 -172 -159l-71 81q91 57 140 152t59 201h146q-11 -110 -50 -189q40 -19 61 -38q64 108 75 227h145q-8 -97 -51 -192q38 -15 70.5 -42.5t49.5 -49t54 -76t57 -81.5h-160q-12 16 -39 57.5t-45 63.5t-38 36
q-80 -119 -214 -185z" />
    <glyph glyph-name="Korea1.380" unicode="&#x3147;" 
d="M444 638q138 0 228.5 -65.5t90.5 -188.5q0 -122 -90.5 -187t-228.5 -65t-228.5 65t-90.5 187q0 124 90.5 189t228.5 65zM444 534q-83 0 -132 -40.5t-49 -109.5q0 -68 49 -108t132 -40q85 0 134.5 40t49.5 108q0 69 -49.5 109.5t-134.5 40.5z" />
    <glyph glyph-name="Korea1.381" unicode="&#x3148;" 
d="M164 154l-73 87q30 14 72.5 43t101 90t92.5 130h-222v107h621v-107h-236q-9 -27 -23 -48q44 -16 90 -51.5t76.5 -68.5t76.5 -85.5t72 -78.5h-164q-24 25 -70 77t-76 80t-61 43q-104 -131 -277 -218z" />
    <glyph glyph-name="Korea1.382" unicode="&#x3149;" 
d="M455 503v105h309v-105h-108q-8 -57 -31 -105q39 -20 66 -47.5t68.5 -88.5t60.5 -85h-160q-15 22 -34 53t-33 51t-25 31q-82 -99 -225 -162l-68 82q43 23 76 46q-18 26 -37 48q-57 -76 -170 -144l-70 79q82 56 117 113t44 129h-117v105h314v-105h-48q-6 -34 -20 -84
q43 -22 78 -61q52 63 67 145h-54z" />
    <glyph glyph-name="Korea1.383" unicode="&#x314a;" 
d="M141 535h607v-106h-220q-12 -23 -28 -45q45 -13 86.5 -38.5t68.5 -49t78 -72t85 -77.5h-181q-13 12 -42.5 40t-44 41.5t-37 32.5t-40.5 31t-34 19q-95 -93 -276 -181l-73 84q185 92 269 215h-218v106zM600 667v-98q-210 0 -315 29v111q114 -42 315 -42z" />
    <glyph glyph-name="Korea1.384" unicode="&#x314b;" 
d="M748 119h-137v167h-482v108h482v138h-486v108h577q46 0 46 -37v-484z" />
    <glyph glyph-name="Korea1.385" unicode="&#x314c;" 
d="M261 259h502v-109h-530q-58 0 -83 21.5t-25 69.5v368h628v-109h-492v-66h482v-108h-482v-67z" />
    <glyph glyph-name="Korea1.386" unicode="&#x314d;" 
d="M653 271h128v-110h-674v110h115v234h-104v109h653v-109h-98v-156q0 -45 -20 -78zM359 271h155q22 16 22 56v178h-177v-234z" />
    <glyph glyph-name="Korea1.387" unicode="&#x314e;" 
d="M787 523v-108h-115q39 -48 39 -111q0 -94 -76 -145q-73 -51 -191 -51q-72 0 -130.5 19t-98 65t-39.5 112q0 63 39 111h-113v108h685zM444 413q-59 0 -94 -27.5t-35 -73.5t35 -73.5t94 -27.5q61 0 96.5 27t35.5 74t-35.5 74t-96.5 27zM280 591v122q48 -26 116.5 -39.5
t109.5 -15.5t103 -2v-105q-218 0 -329 40z" />
    <glyph glyph-name="Korea1.388" unicode="&#x314f;" 
d="M449 798v-309h126v-111h-126v-491h-135v911h135z" />
    <glyph glyph-name="Korea1.389" unicode="&#x3150;" 
d="M416 781v-292h57v309h133v-911h-133v491h-57v-469h-134v872h134z" />
    <glyph glyph-name="Korea1.390" unicode="&#x3151;" 
d="M449 798v-174h126v-111h-126v-163h126v-111h-126v-352h-135v911h135z" />
    <glyph glyph-name="Korea1.391" unicode="&#x3152;" 
d="M416 781v-157h57v174h133v-911h-133v352h-57v-330h-134v872h134zM416 513v-163h57v163h-57z" />
    <glyph glyph-name="Korea1.392" unicode="&#x3153;" 
d="M312 366v110h130v322h136v-911h-136v479h-130z" />
    <glyph glyph-name="Korea1.393" unicode="&#x3154;" 
d="M248 366v110h78v305h134v-872h-134v457h-78zM640 798v-911h-133v911h133z" />
    <glyph glyph-name="Korea1.394" unicode="&#x3155;" 
d="M316 240v109h122v160h-122v110h122v179h135v-911h-135v353h-122z" />
    <glyph glyph-name="Korea1.395" unicode="&#x3156;" 
d="M653 798v-911h-134v911h134zM235 232v109h104v168h-104v110h104v162h134v-872h-134v323h-104z" />
    <glyph glyph-name="Korea1.396" unicode="&#x3157;" 
d="M375 454h139v-165h345v-109h-828v109h344v165z" />
    <glyph glyph-name="Korea1.397" unicode="&#x3158;" 
d="M223 297h137v-143q144 13 215 44v-112q-144 -43 -310 -43h-244v109h202v145zM755 798v-348h113v-111h-113v-452h-136v911h136z" />
    <glyph glyph-name="Korea1.398" unicode="&#x3159;" 
d="M664 781v-331h46v348h134v-911h-134v452h-46v-430h-134v872h134zM211 280h136v-136q100 6 154 30v-111q-33 -11 -117 -21.5t-164 -10.5h-175v110h166v139z" />
    <glyph glyph-name="Korea1.399" unicode="&#x315a;" 
d="M271 289h138v-136q153 11 231 45v-112q-138 -43 -309 -43h-262v109h202v137zM820 798v-911h-135v911h135z" />
    <glyph glyph-name="Korea1.400" unicode="&#x315b;" 
d="M525 435h137v-157h197v-109h-828v109h195v157h138v-157h161v157z" />
    <glyph glyph-name="Korea1.401" unicode="&#x315c;" 
d="M31 378v109h828v-109h-345v-277h-139v277h-344z" />
    <glyph glyph-name="Korea1.402" unicode="&#x315d;" 
d="M520 44v111h165v643h135v-911h-135v157h-165zM340 284q195 0 300 45v-111q-95 -32 -233 -41v-289h-138v286h-200v110h271z" />
    <glyph glyph-name="Korea1.403" unicode="&#x315e;" 
d="M419 36v111h115v634h134v-872h-134v127h-115zM844 798v-911h-134v911h134zM211 -112v286h-166v110h185q194 0 271 35v-112q-44 -16 -154 -27v-292h-136z" />
    <glyph glyph-name="Korea1.404" unicode="&#x315f;" 
d="M820 798v-911h-135v911h135zM340 284q195 0 300 45v-111q-92 -31 -227 -41v-289h-138v286h-206v110h271z" />
    <glyph glyph-name="Korea1.405" unicode="&#x3160;" 
d="M31 367v110h828v-110h-187v-276h-139v276h-179v-267h-138v267h-185z" />
    <glyph glyph-name="Korea1.406" unicode="&#x3161;" 
d="M31 275v109h828v-109h-828z" />
    <glyph glyph-name="Korea1.407" unicode="&#x3162;" 
d="M820 798v-911h-135v911h135zM340 152q195 0 300 46v-112q-138 -43 -309 -43h-262v109h271z" />
    <glyph glyph-name="Korea1.408" unicode="&#x3163;" 
d="M512 798v-911h-136v911h136z" />
    <glyph glyph-name="Korea1.409" unicode="&#x3165;" 
d="M430 206h-137q-57 0 -79 18t-22 65v280h136v-260h102v-103zM710 206h-137q-57 0 -79 18t-22 65v280h136v-260h102v-103z" />
    <glyph glyph-name="Korea1.410" unicode="&#x3166;" 
d="M700 206h-137q-57 0 -79 18t-22 65v280h238v-103h-102v-157h102v-103zM420 206h-137q-57 0 -79 18t-22 65v280h136v-260h102v-103z" />
    <glyph glyph-name="Korea1.411" unicode="&#x3167;" 
d="M472 182l-72 82q112 112 112 243v66h138v-57q0 -48 -11 -97q39 -20 72 -72.5t71 -147.5h-136q-25 88 -49 121q-40 -67 -125 -138zM382 206h-137q-57 0 -79 18t-22 65v280h136v-260h102v-103z" />
    <glyph glyph-name="Korea1.412" unicode="&#x3168;" 
d="M387 206h-137q-57 0 -79 18t-22 65v280h136v-260h102v-103zM409 208l180 396l181 -396h-361zM589 420l-55 -141h110z" />
    <glyph glyph-name="Korea1.413" unicode="&#x3169;" 
d="M155 335v-51h137v-103h-172q-52 0 -72 16.5t-20 60.5v178h117v48h-117v102h245v-251h-118zM491 586q42 0 44 -38v-367h-127v303h-106v102h189zM613 169l-68 82q6 7 12.5 15t22 34t27 52t21 65t9.5 77v92h131v-83q0 -53 -10 -97q36 -20 62 -70t60 -150h-130q-1 7 -5 32
t-6.5 35.5t-8 26.5t-12.5 27q-54 -94 -105 -138z" />
    <glyph glyph-name="Korea1.414" unicode="&#x316a;" 
d="M277 329v-45h161v-103h-197q-55 0 -76 16.5t-21 60.5v172h143v42h-143v103h276v-246h-143zM588 284h156v-103h-187q-56 0 -78 18t-22 65v311h281v-103h-150v-188z" />
    <glyph glyph-name="Korea1.415" unicode="&#x316b;" 
d="M435 586h112v-405h-166q-54 0 -74.5 18t-20.5 65v322h111v-115h38v115zM151 335v-51h115v-103h-149q-53 0 -73.5 16.5t-20.5 60.5v178h97v48h-97v102h226v-251h-98zM435 370h-38v-85h38v85zM617 169l-66 82q5 6 12 15t21.5 34t26 51.5t20.5 65.5t9 77v92h127v-83
q0 -53 -10 -97q34 -20 59 -69.5t59 -150.5h-126q-1 4 -2.5 16.5t-2.5 17.5t-3 15.5t-3.5 16.5t-3.5 15t-4.5 15t-5.5 12.5t-7 12.5q-39 -83 -100 -138z" />
    <glyph glyph-name="Korea1.416" unicode="&#x316c;" 
d="M243 335v-51h174v-103h-210q-55 0 -76 16.5t-21 60.5v178h153v48h-153v102h287v-251h-154zM431 181l180 420l181 -420h-361zM611 383l-38 -104h76z" />
    <glyph glyph-name="Korea1.417" unicode="&#x316d;" 
d="M261 335v-51h154v-103h-190q-55 0 -76 17t-21 61v177h125v48h-125v103h258v-252h-125zM592 465q67 0 111 -38.5t44 -110.5t-44 -110t-111 -38t-110.5 38t-43.5 110t43.5 110.5t110.5 38.5zM593 367q-31 0 -31 -50t31 -50t31 50t-31 50zM747 587v-103h-309v103h309z" />
    <glyph glyph-name="Korea1.418" unicode="&#x316e;" 
d="M413 586v-405h-185q-57 0 -78.5 18t-21.5 65v322h285zM289 484h-38v-200h38v200zM618 586h125v-405h-191q-56 0 -77.5 18t-21.5 65v322h125v-115h40v115zM618 370h-40v-85h40v85z" />
    <glyph glyph-name="Korea1.419" unicode="&#x316f;" 
d="M412 586v-405h-185q-57 0 -78.5 18t-21.5 65v322h285zM288 484h-38v-200h38v200zM501 169l-72 82q112 112 112 243v92h138v-83q0 -48 -11 -97q39 -20 72 -72.5t71 -147.5h-136q-25 88 -49 121q-40 -67 -125 -138z" />
    <glyph glyph-name="Korea1.420" unicode="&#x3170;" 
d="M412 586v-405h-185q-57 0 -78.5 18t-21.5 65v322h285zM288 484h-38v-200h38v200zM431 181l180 420l181 -420h-361zM611 383l-38 -104h76z" />
    <glyph glyph-name="Korea1.421" unicode="&#x3171;" 
d="M444 268q67 0 111 -38.5t44 -110.5t-44 -110t-111 -38t-110.5 38t-43.5 110t43.5 110.5t110.5 38.5zM445 170q-31 0 -31 -50t31 -50t31 50t-31 50zM757 717v-404h-523q-57 0 -82.5 21t-25.5 69v314h631zM621 422v185h-359v-185h359z" />
    <glyph glyph-name="Korea1.422" unicode="&#x3172;" 
d="M306 586h125v-405h-191q-56 0 -77.5 18t-21.5 65v322h125v-115h40v115zM306 370h-40v-85h40v85zM695 586q22 0 33.5 -11t12.5 -27v-367h-133v303h-141v102h228z" />
    <glyph glyph-name="Korea1.423" unicode="&#x3173;" 
d="M303 586h125v-405h-191q-56 0 -77.5 18t-21.5 65v322h125v-115h40v115zM303 370h-40v-85h40v85zM595 284h156v-103h-187q-56 0 -78 18t-22 65v322h281v-103h-150v-199z" />
    <glyph glyph-name="Korea1.424" unicode="&#x3174;" 
d="M205 586h112v-405h-166q-54 0 -74.5 18t-20.5 65v322h111v-115h38v115zM205 370h-38v-85h38v85zM387 169l-66 82q5 6 12 15t21.5 34t26 51.5t20.5 65.5t9 77v92h127v-83q0 -53 -10 -97q34 -20 59 -69.5t59 -150.5h-126q-1 4 -2.5 16.5t-2.5 17.5t-3 15.5t-3.5 16.5
t-3.5 15t-4.5 15t-5.5 12.5t-7 12.5q-39 -83 -100 -138zM784 586q22 0 33.5 -11t12.5 -27v-367h-133v303h-111v102h198z" />
    <glyph glyph-name="Korea1.425" unicode="&#x3175;" 
d="M174 586h112v-405h-166q-54 0 -74.5 18t-20.5 65v322h111v-115h38v115zM174 370h-38v-85h38v85zM356 169l-66 82q5 6 12 15t21.5 34t26 51.5t20.5 65.5t9 77v92h127v-83q0 -53 -10 -97q34 -20 59 -69.5t59 -150.5h-126q-1 4 -2.5 16.5t-2.5 17.5t-3 15.5t-3.5 16.5
t-3.5 15t-4.5 15t-5.5 12.5t-7 12.5q-39 -83 -100 -138zM747 284h126v-103h-157q-56 0 -78 18t-22 65v322h251v-103h-120v-199z" />
    <glyph glyph-name="Korea1.426" unicode="&#x3176;" 
d="M268 586h125v-405h-191q-56 0 -77.5 18t-21.5 65v322h125v-115h40v115zM268 370h-40v-85h40v85zM783 482h-97q-8 -75 -11 -83q71 -41 150 -207h-133q-49 95 -64 115q-38 -52 -140 -127l-65 87q5 3 12.5 9.5t28.5 27.5t37.5 44t32.5 59.5t20 74.5h-108v104h337v-104z" />
    <glyph glyph-name="Korea1.427" unicode="&#x3177;" 
d="M300 586h125v-405h-191q-56 0 -77.5 18t-21.5 65v322h125v-115h40v115zM300 370h-40v-85h40v85zM598 284h156v-103h-187q-56 0 -78 18t-22 65v322h281v-103h-150v-48h143v-101h-143v-50z" />
    <glyph glyph-name="Korea1.428" unicode="&#x3178;" 
d="M620 725h138v-424h-523q-57 0 -82.5 21.5t-25.5 68.5v334h136v-121h357v121zM620 495h-357v-85h357v85zM444 268q67 0 111 -38.5t44 -110.5t-44 -110t-111 -38t-110.5 38t-43.5 110t43.5 110.5t110.5 38.5zM445 170q-31 0 -31 -50t31 -50t31 50t-31 50z" />
    <glyph glyph-name="Korea1.429" unicode="&#x3179;" 
d="M516 725v-118h121v119h133v-424h-535q-57 0 -82.5 21.5t-25.5 68.5v334h133v-119h122v118h134zM260 500v-91h122v91h-122zM637 500h-121v-91h121v91zM444 268q67 0 111 -38.5t44 -110.5t-44 -110t-111 -38t-110.5 38t-43.5 110t43.5 110.5t110.5 38.5zM445 170
q-31 0 -31 -50t31 -50t31 50t-31 50z" />
    <glyph glyph-name="Korea1.430" unicode="&#x317a;" 
d="M170 169l-72 82q112 112 112 243v92h138v-83q0 -48 -11 -97q39 -20 72 -72.5t71 -147.5h-136q-25 88 -49 121q-40 -67 -125 -138zM693 586q22 0 33.5 -11t12.5 -27v-367h-133v303h-141v102h228z" />
    <glyph glyph-name="Korea1.431" unicode="&#x317b;" 
d="M169 169l-72 82q112 112 112 243v92h138v-83q0 -48 -11 -97q39 -20 72 -72.5t71 -147.5h-136q-25 88 -49 121q-40 -67 -125 -138zM761 186h-157q-57 0 -79 18t-22 65v317h136v-297h122v-103z" />
    <glyph glyph-name="Korea1.432" unicode="&#x317c;" 
d="M761 186h-157q-57 0 -79 18t-22 65v317h258v-103h-122v-194h122v-103zM169 169l-72 82q112 112 112 243v92h138v-83q0 -48 -11 -97q39 -20 72 -72.5t71 -147.5h-136q-25 88 -49 121q-40 -67 -125 -138z" />
    <glyph glyph-name="Korea1.433" unicode="&#x317d;" 
d="M158 169l-72 82q112 112 112 243v97h138v-88q0 -48 -11 -97q39 -20 72 -72.5t71 -147.5h-136q-25 88 -49 121q-40 -67 -125 -138zM646 591h125v-405h-191q-56 0 -77.5 18t-21.5 65v322h125v-115h40v115zM646 375h-40v-85h40v85z" />
    <glyph glyph-name="Korea1.434" unicode="&#x317e;" 
d="M137 169l-72 82q112 112 112 243v97h138v-88q0 -48 -11 -97q39 -20 72 -72.5t71 -147.5h-136q-25 88 -49 121q-40 -67 -125 -138zM789 487h-97q-7 -64 -11 -76q71 -41 150 -207h-133q-49 95 -64 115q-38 -52 -140 -127l-65 87q5 3 12.5 8.5t28.5 25.5t37.5 42.5t32.5 58
t20 73.5h-108v104h337v-104z" />
    <glyph glyph-name="Korea1.435" unicode="&#x317f;" 
d="M129 133l306 551l306 -551h-612zM301 244h266l-132 246z" />
    <glyph glyph-name="Korea1.436" unicode="&#x3180;" 
d="M231 593q90 0 145.5 -58.5t55.5 -159.5q0 -99 -55 -158t-146 -59q-93 0 -146.5 60t-53.5 157q0 100 54.5 159t145.5 59zM233 490q-34 0 -53.5 -31t-19.5 -84q0 -52 19.5 -83t53.5 -31q32 0 51.5 31t19.5 83t-19.5 83.5t-51.5 31.5zM653 593q90 0 145.5 -58.5t55.5 -159.5
q0 -99 -55 -158t-146 -59q-93 0 -146.5 60t-53.5 157q0 100 54.5 159t145.5 59zM655 490q-34 0 -53.5 -31t-19.5 -84q0 -52 19.5 -83t53.5 -31q32 0 51.5 31t19.5 83t-19.5 83.5t-51.5 31.5z" />
    <glyph glyph-name="Korea1.437" unicode="&#x3181;" 
d="M240 359q0 79 35 133.5t98 74.5v140h135v-140q62 -20 97.5 -74t35.5 -134q0 -99 -55 -158t-146 -59q-93 0 -146.5 60t-53.5 157zM442 474q-34 0 -53.5 -31t-19.5 -84q0 -52 19.5 -83t53.5 -31q32 0 51.5 31t19.5 83t-19.5 83.5t-51.5 31.5z" />
    <glyph glyph-name="Korea1.438" unicode="&#x3182;" 
d="M325 569v-102q90 -34 90 -138q0 -72 -44 -110t-111 -38t-110.5 38t-43.5 110q0 101 84 136v104h135zM261 380q-31 0 -31 -50t31 -50t31 50t-31 50zM498 188l-72 82q112 112 112 243v55h138v-46q0 -48 -11 -97q39 -20 72 -72.5t71 -147.5h-136q-25 88 -49 121
q-40 -67 -125 -138z" />
    <glyph glyph-name="Korea1.439" unicode="&#x3183;" 
d="M325 569v-102q90 -34 90 -138q0 -72 -44 -110t-111 -38t-110.5 38t-43.5 110q0 101 84 136v104h135zM261 380q-31 0 -31 -50t31 -50t31 50t-31 50zM410 183l180 420l181 -420h-361zM590 385l-38 -104h76z" />
    <glyph glyph-name="Korea1.440" unicode="&#x3184;" 
d="M444 268q67 0 111 -38.5t44 -110.5t-44 -110t-111 -38t-110.5 38t-43.5 110t43.5 110.5t110.5 38.5zM445 170q-31 0 -31 -50t31 -50t31 50t-31 50zM658 406h128v-110h-674v110h115v204h-104v109h653v-109h-98v-126q0 -45 -20 -78zM364 406h155q22 16 22 56v148h-177v-204
z" />
    <glyph glyph-name="Korea1.441" unicode="&#x3185;" 
d="M611 465q67 0 111 -38.5t44 -110.5t-44 -110t-111 -38t-110.5 38t-43.5 110t43.5 110.5t110.5 38.5zM612 367q-31 0 -31 -50t31 -50t31 50t-31 50zM766 587v-103h-309v103h309zM267 465q67 0 111 -38.5t44 -110.5t-44 -110t-111 -38t-110.5 38t-43.5 110t43.5 110.5
t110.5 38.5zM268 367q-31 0 -31 -50t31 -50t31 50t-31 50zM422 587v-103h-309v103h309z" />
    <glyph glyph-name="Korea1.442" unicode="&#x3186;" 
d="M129 509v110h628v-110h-628zM442 466q130 0 214.5 -50t84.5 -141t-84.5 -141t-214.5 -50q-129 0 -213.5 50t-84.5 141t84.5 141t213.5 50zM442 361q-74 0 -117 -23t-43 -63t43 -62.5t117 -22.5q76 0 119.5 22.5t43.5 62.5t-43.5 63t-119.5 23z" />
    <glyph glyph-name="Korea1.443" unicode="&#x3187;" 
d="M760 798v-238h113v-111h-113v-89h113v-111h-113v-362h-136v911h136zM258 297h137v-143q119 15 185 44v-112q-144 -43 -310 -43h-244v109h62v145h137v-145h33v145z" />
    <glyph glyph-name="Korea1.444" unicode="&#x3188;" 
d="M669 781v-231h46v248h134v-911h-134v362h-46v-340h-134v872h134zM256 280h126v-136q70 6 124 30v-111q-33 -11 -117 -21.5t-164 -10.5h-175v110h55v139h120v-139h31v139zM669 439v-79h46v79h-46z" />
    <glyph glyph-name="Korea1.445" unicode="&#x3189;" 
d="M825 798v-911h-135v911h135zM306 297h138v-144q127 13 201 45v-112q-138 -43 -309 -43h-262v109h54v145h137v-145h41v145z" />
    <glyph glyph-name="Korea1.446" unicode="&#x318a;" 
d="M525 -63v101h165v26h-165v101h165v633h135v-911h-135v50h-165zM278 -112h-127v286h-77v110h271q195 0 300 45v-111q-93 -32 -203 -41v-289h-128v286h-36v-286z" />
    <glyph glyph-name="Korea1.447" unicode="&#x318b;" 
d="M424 -56v91h115v27h-115v101h115v618h134v-872h-134v35h-115zM849 798v-911h-134v911h134zM228 -112h-117v286h-61v110h185q194 0 271 35v-112q-46 -16 -121 -27v-292h-126v286h-31v-286z" />
    <glyph glyph-name="Korea1.448" unicode="&#x318c;" 
d="M278 -112h-127v286h-77v110h271q195 0 300 45v-111q-89 -30 -197 -41v-289h-128v286h-42v-286zM825 798v-911h-135v911h135z" />
    <glyph glyph-name="Korea1.449" unicode="&#x318d;" 
d="M366 325q0 30 21 51t51 21t51 -21t21 -51t-21 -51t-51 -21t-51 21t-21 51z" />
    <glyph glyph-name="Korea1.450" unicode="&#x318e;" 
d="M597 798v-911h-136v911h136zM246 325q0 30 21 51t51 21t51 -21t21 -51t-21 -51t-51 -21t-51 21t-21 51z" />
    <glyph glyph-name="Korea1.451" unicode="&#x2170;" horiz-adv-x="873" 
d="M354 -9v544h129v-544h-129zM341 617v153h154v-153h-154z" />
    <glyph glyph-name="Korea1.452" unicode="&#x2171;" horiz-adv-x="873" 
d="M229 -9v544h128v-544h-128zM215 617v153h154v-153h-154zM483 -9v544h129v-544h-129zM470 617v153h155v-153h-155z" />
    <glyph glyph-name="Korea1.453" unicode="&#x2172;" horiz-adv-x="873" 
d="M125 -9v544h130v-544h-130zM112 617v153h154v-153h-154zM355 -9v544h130v-544h-130zM343 617v153h154v-153h-154zM585 -9v544h129v-544h-129zM573 617v153h153v-153h-153z" />
    <glyph glyph-name="Korea1.454" unicode="&#x2173;" horiz-adv-x="873" 
d="M109 -9v544h129v-544h-129zM97 617v153h152v-153h-152zM415 535l114 -335l114 335h135l-191 -543h-115l-192 543h135z" />
    <glyph glyph-name="Korea1.455" unicode="&#x2174;" horiz-adv-x="873" 
d="M306 535l113 -335l116 335h135l-192 -543h-114l-194 543h136z" />
    <glyph glyph-name="Korea1.456" unicode="&#x2175;" horiz-adv-x="873" 
d="M724 535v-544h-129v544h129zM736 770v-153h-153v153h153zM303 200l115 335h135l-192 -543h-116l-190 543h135z" />
    <glyph glyph-name="Korea1.457" unicode="&#x2176;" horiz-adv-x="873" 
d="M611 535v-544h-125v544h125zM625 770v-153h-152v153h152zM232 200l92 335h132l-168 -543h-114l-166 543h131zM803 535v-544h-125v544h125zM815 770v-153h-149v153h149z" />
    <glyph glyph-name="Korea1.458" unicode="&#x2177;" horiz-adv-x="873" 
d="M500 535v-544h-109v544h109zM512 770v-153h-131v153h131zM188 200l63 335h116l-129 -543h-100l-127 543h112zM659 535v-544h-109v544h109zM670 770v-153h-129v153h129zM817 535v-544h-107v544h107zM829 770v-153h-131v153h131z" />
    <glyph glyph-name="Korea1.459" unicode="&#x2178;" horiz-adv-x="873" 
d="M109 -9v544h129v-544h-129zM97 617v153h152v-153h-152zM294 -9l178 275l-176 269h145l103 -155l104 156h144l-176 -272l179 -273h-143l-107 161l-105 -161h-146z" />
    <glyph glyph-name="Korea1.460" unicode="&#x2179;" horiz-adv-x="873" 
d="M169 -9l178 275l-176 269h145l102 -155l104 156h144l-176 -272l179 -273h-143l-107 161l-104 -161h-146z" />
    <glyph glyph-name="Korea1.461" unicode="&#x2160;" horiz-adv-x="873" 
d="M364 -9v774h129v-774h-129z" />
    <glyph glyph-name="Korea1.462" unicode="&#x2161;" horiz-adv-x="873" 
d="M265 -9v779h128v-779h-128zM474 -9v779h129v-779h-129z" />
    <glyph glyph-name="Korea1.463" unicode="&#x2162;" horiz-adv-x="873" 
d="M172 -9v779h129v-779h-129zM372 -9v779h129v-779h-129zM571 -9v779h130v-779h-130z" />
    <glyph glyph-name="Korea1.464" unicode="&#x2163;" horiz-adv-x="873" 
d="M72 -9v779h130v-779h-130zM670 770h137l-217 -779h-128l-218 779h138l144 -558z" />
    <glyph glyph-name="Korea1.465" unicode="&#x2164;" horiz-adv-x="873" 
d="M600 770h138l-250 -779h-129l-251 779h137l177 -558z" />
    <glyph glyph-name="Korea1.466" unicode="&#x2165;" horiz-adv-x="873" 
d="M774 770v-779h-129v779h129zM40 770h137l145 -558l142 558h138l-217 -779h-128z" />
    <glyph glyph-name="Korea1.467" unicode="&#x2166;" horiz-adv-x="873" 
d="M628 770v-779h-125v779h125zM15 770h124l107 -558l106 558h125l-167 -779h-128zM803 770v-779h-124v779h124z" />
    <glyph glyph-name="Korea1.468" unicode="&#x2167;" horiz-adv-x="873" 
d="M507 770v-779h-113v779h113zM7 770h106l75 -558l72 558h108l-117 -779h-128zM657 770v-779h-113v779h113zM807 770v-779h-112v779h112z" />
    <glyph glyph-name="Korea1.469" unicode="&#x2168;" horiz-adv-x="873" 
d="M48 -9v779h129v-779h-129zM220 -9l220 393l-211 386h144l140 -256l140 256h147l-213 -386l220 -393h-146l-147 264l-147 -264h-147z" />
    <glyph glyph-name="Korea1.470" unicode="&#x2169;" horiz-adv-x="873" 
d="M126 -9l220 393l-212 386h146l138 -256l141 256h148l-214 -386l220 -393h-146l-148 264l-146 -264h-147z" />
    <glyph glyph-name="Korea1.471" unicode="&#x391;" horiz-adv-x="724" 
d="M33 -9l261 779h125l262 -779h-137l-63 190h-246l-67 -190h-135zM272 293h173l-88 265z" />
    <glyph glyph-name="Korea1.472" unicode="&#x392;" horiz-adv-x="670" 
d="M575 569q0 -103 -69 -160q54 -29 78.5 -82t22.5 -113q-4 -100 -70 -161.5t-191 -61.5h-254v779h254q95 0 162 -51.5t67 -149.5zM348 658h-128v-205h140q38 0 60.5 30.5t22.5 81.5q0 44 -27 68.5t-68 24.5zM220 103h135q57 0 88.5 33.5t31.5 91.5q0 53 -29 85t-79 32h-147
v-242z" />
    <glyph glyph-name="Korea1.473" unicode="&#x393;" horiz-adv-x="580" 
d="M517 770v-113h-307v-666h-131v779h438z" />
    <glyph glyph-name="Korea1.474" unicode="&#x394;" horiz-adv-x="724" 
d="M683 -9h-643l257 779h128zM362 572l-153 -467h304z" />
    <glyph glyph-name="Korea1.475" unicode="&#x395;" horiz-adv-x="625" 
d="M569 103v-112h-482v779h471v-112h-342v-205h327v-109h-327v-241h353z" />
    <glyph glyph-name="Korea1.476" unicode="&#x396;" horiz-adv-x="621" 
d="M553 103v-112h-512v89l341 578h-313v112h477v-83l-342 -584h349z" />
    <glyph glyph-name="Korea1.477" unicode="&#x397;" horiz-adv-x="713" 
d="M618 770v-779h-128v351h-268v-351h-128v779h128v-317h268v317h128z" />
    <glyph glyph-name="Korea1.478" unicode="&#x398;" horiz-adv-x="774" 
d="M254 314v114h264v-114h-264zM63 369q0 112 33.5 203t107.5 149.5t178 58.5q102 0 178 -58t113 -150t37 -203q0 -109 -36 -199.5t-112.5 -148.5t-179.5 -58q-104 0 -178 58t-107.5 148t-33.5 200zM382 76q92 0 141.5 87t49.5 206q0 77 -21 143t-65.5 109t-104.5 43
q-88 0 -139 -87.5t-51 -207.5q0 -119 50 -206t140 -87z" />
    <glyph glyph-name="Korea1.479" unicode="&#x399;" horiz-adv-x="305" 
d="M215 770v-779h-129v779h129z" />
    <glyph glyph-name="Korea1.480" unicode="&#x39a;" horiz-adv-x="673" 
d="M203 770v-292l250 292h166l-324 -371l369 -408h-168l-293 329v-329h-121v779h121z" />
    <glyph glyph-name="Korea1.481" unicode="&#x39b;" horiz-adv-x="724" 
d="M671 -9h-136l-179 557l-176 -557h-139l251 779h128z" />
    <glyph glyph-name="Korea1.482" unicode="&#x39c;" horiz-adv-x="839" 
d="M740 770v-779h-126v504l-145 -319h-110l-142 319v-504h-124v779h118l206 -440l203 440h120z" />
    <glyph glyph-name="Korea1.483" unicode="&#x39d;" horiz-adv-x="724" 
d="M624 770v-779h-134l-268 541v-541h-128v779h134l267 -537v537h129z" />
    <glyph glyph-name="Korea1.484" unicode="&#x39e;" horiz-adv-x="625" 
d="M572 658h-517v112h517v-112zM55 -9l-1 112h520v-112h-519zM121 338v110h394v-110h-394z" />
    <glyph glyph-name="Korea1.485" unicode="&#x39f;" horiz-adv-x="774" 
d="M64 369q0 112 33.5 203t107.5 149.5t177 58.5t179 -58t113 -150t37 -203q0 -109 -36 -199.5t-112.5 -148.5t-180.5 -58t-177.5 58t-107 148t-33.5 200zM382 76q63 0 108 44t64.5 108.5t19.5 140.5q0 121 -51 208t-141 87q-88 0 -138.5 -87.5t-50.5 -207.5q0 -75 20 -140
t64 -109t105 -44z" />
    <glyph glyph-name="Korea1.486" unicode="&#x3a0;" horiz-adv-x="654" 
d="M580 770v-779h-130v666h-245v-666h-131v779h506z" />
    <glyph glyph-name="Korea1.487" unicode="&#x3a1;" horiz-adv-x="645" 
d="M87 770h247q104 0 176.5 -73t72.5 -179q0 -111 -72 -181.5t-177 -70.5h-118v-275h-129v779zM336 658h-120v-279h120q48 0 80 39.5t32 99.5q0 61 -32 100.5t-80 39.5z" />
    <glyph glyph-name="Korea1.488" unicode="&#x3a3;" horiz-adv-x="628" 
d="M579 652h-340l229 -273l-214 -271h332v-117h-510v94l235 291l-235 276v118h503v-118z" />
    <glyph glyph-name="Korea1.489" unicode="&#x3a4;" horiz-adv-x="599" 
d="M573 770v-112h-206v-667h-129v667h-208v112h543z" />
    <glyph glyph-name="Korea1.490" unicode="&#x3a5;" horiz-adv-x="627" 
d="M20 770h138l152 -346l151 346h141l-228 -505v-274h-129v275z" />
    <glyph glyph-name="Korea1.491" unicode="&#x3a6;" horiz-adv-x="679" 
d="M407 773v-121q101 -10 169 -83t68 -178q0 -104 -68.5 -178t-168.5 -84v-138h-127v137q-103 10 -173 83t-70 180q0 108 71 180t172 81v121h127zM171 391q0 -52 34 -92.5t75 -46.5v276q-42 -5 -75.5 -44.5t-33.5 -92.5zM509 391q0 51 -31 91.5t-71 45.5v-277q40 5 71 46.5
t31 93.5z" />
    <glyph glyph-name="Korea1.492" unicode="&#x3a7;" horiz-adv-x="627" 
d="M17 -9l221 393l-215 386h146l141 -256l140 256h147l-215 -386l221 -393h-146l-147 264l-148 -264h-145z" />
    <glyph glyph-name="Korea1.493" unicode="&#x3a8;" horiz-adv-x="679" 
d="M59 450v320h129v-319q0 -51 25 -87.5t65 -54.5v461h132v-459q35 18 57.5 54.5t22.5 85.5v319h128v-320q0 -104 -59.5 -176t-148.5 -93v-190h-132v188q-96 22 -157.5 93t-61.5 178z" />
    <glyph glyph-name="Korea1.494" unicode="&#x3a9;" horiz-adv-x="671" 
d="M319 226v-235h-268v119h147v42q-166 81 -166 293q0 152 90.5 245.5t214.5 93.5q126 0 214 -93.5t88 -245.5q0 -107 -45.5 -181.5t-122.5 -112.5v-41h150v-119h-268v233q77 28 114.5 77t37.5 144q0 102 -47 162.5t-121 60.5q-72 0 -121 -60.5t-49 -162.5q0 -176 152 -219z
" />
    <glyph glyph-name="Korea1.495" unicode="&#x3b1;" horiz-adv-x="623" 
d="M583 82l-70 -110q-72 51 -100 96q-18 -38 -57 -63.5t-88 -25.5q-209 0 -209 307q0 59 10 110t32 97.5t65 73.5t102 27q47 0 84 -17.5t56 -45.5q7 34 23 63h140q-76 -162 -76 -311q0 -84 26 -133t62 -68zM190 286q5 -189 80 -189q45 0 70 62.5t25 126.5q0 73 -22 132
t-62 59q-27 0 -46.5 -19.5t-28.5 -50.5t-13 -61.5t-3 -59.5z" />
    <glyph glyph-name="Korea1.496" unicode="&#x3b2;" horiz-adv-x="581" 
d="M222 -7v-189h-128v780q0 84 47.5 138.5t137.5 54.5t143 -55.5t53 -146.5q0 -49 -20.5 -93t-49.5 -72q53 -22 81.5 -74.5t28.5 -105.5q0 -116 -64.5 -185t-154.5 -69q-38 0 -74 17zM388 230q0 57 -37 88t-90 31v109q36 0 62 31.5t26 85.5q0 43 -19 67t-51 24
q-29 0 -43 -22.5t-14 -56.5v-471q30 -16 69 -16q42 0 69.5 39t27.5 91z" />
    <glyph glyph-name="Korea1.497" unicode="&#x3b3;" horiz-adv-x="580" 
d="M562 506l-197 -378q35 -146 35 -202q0 -61 -41.5 -103.5t-85.5 -42.5q-70 -1 -105 35.5t-35 94.5q0 31 17 75t31.5 70t45.5 78l-68 296q-4 17 -17 17q-8 0 -13 -5q-5 -7 -27 -42l-88 75q58 95 140 95q100 0 127 -109l34 -175l146 292zM265 -106q23 0 23 32q0 17 -4 33
l-11 46l-26 -43q-7 -13 -7 -37q1 -31 25 -31z" />
    <glyph glyph-name="Korea1.498" unicode="&#x3b4;" horiz-adv-x="591" 
d="M527 259q0 -134 -58 -214t-175 -80q-114 0 -171.5 81.5t-57.5 212.5q0 84 20 140t69 101q-55 57 -55 117q0 67 50 115t149 48q100 0 203 -88l-78 -94q-79 66 -126 66q-59 0 -59 -45q0 -22 14.5 -38.5t37.5 -22.5l49 -12q188 -47 188 -287zM397 259q-4 176 -103 176
q-52 0 -75.5 -49.5t-23.5 -126.5t24 -127t75 -50q36 0 60.5 27t34 65t8.5 85z" />
    <glyph glyph-name="Korea1.499" unicode="&#x3b5;" horiz-adv-x="563" 
d="M65 175q0 33 16.5 67.5t45.5 58.5q-51 46 -51 101q0 90 63 137t155 47q141 0 206 -115l-92 -76q-21 39 -52.5 57t-61.5 18q-38 0 -60 -18t-22 -46q0 -22 12 -41t29 -19h114v-113h-114q-23 0 -38 -16.5t-15 -40.5q0 -84 98 -84q67 0 126 83l90 -83q-45 -56 -101.5 -86.5
t-114.5 -30.5q-233 0 -233 200z" />
    <glyph glyph-name="Korea1.500" unicode="&#x3b6;" horiz-adv-x="616" 
d="M339 142h75q70 0 123.5 -51.5t42.5 -130.5q-3 -23 -11 -44t-28.5 -48t-51.5 -46.5t-84.5 -33t-122.5 -14.5v126q53 0 104.5 18.5t58.5 40.5q22 66 -40 66h-66q-123 0 -198.5 92.5t-75.5 233.5q0 165 86 276q-51 8 -86 17v126q110 -28 207 -28q84 0 197 25v-125
q-24 -8 -73 -14t-61 -8q-59 -11 -98.5 -96t-39.5 -169q0 -83 35.5 -148t106.5 -65z" />
    <glyph glyph-name="Korea1.501" unicode="&#x3b7;" horiz-adv-x="630" 
d="M216 566v-61q60 68 124 68q91 0 149 -57.5t58 -165.5v-587h-131v581q0 53 -28 85t-65 32q-49 0 -78 -31.5t-29 -76.5v-362h-131v575h131z" />
    <glyph glyph-name="Korea1.502" unicode="&#x3b8;" horiz-adv-x="588" 
d="M524 375q0 -90 -9 -155.5t-33 -123.5t-71.5 -88t-117.5 -30q-54 0 -94.5 20t-66 54t-41 85.5t-21 108.5t-5.5 129q0 71 5.5 126t20.5 108.5t40 88t66 55.5t96 21q68 0 115 -31.5t71.5 -89.5t34.5 -125t10 -153zM293 93q90 0 98 226h-195q2 -110 23.5 -168t73.5 -58z
M293 660q-86 0 -96 -224h194q-8 224 -98 224z" />
    <glyph glyph-name="Korea1.503" unicode="&#x3b9;" horiz-adv-x="335" 
d="M103 -9v580h131v-580h-131z" />
    <glyph glyph-name="Korea1.504" unicode="&#x3ba;" horiz-adv-x="553" 
d="M269 493q51 92 113 92q31 0 68.5 -16t59.5 -50l-61 -110q-18 34 -47 34q-27 0 -55 -54q-5 -8 -20 -44t-27 -50l230 -302h-146l-173 220v-220h-128v582h128v-189q11 14 58 107z" />
    <glyph glyph-name="Korea1.505" unicode="&#x3bb;" horiz-adv-x="657" 
d="M257 323l-94 -332h-139l165 548l-24 83q-6 20 -20.5 34.5t-26.5 17.5l-60 20l31 116l59 -17q52 -17 84.5 -42t50.5 -77l181 -549q12 -39 28 -39q13 0 33 17.5t37 51.5l70 -95q-21 -40 -65 -71.5t-87 -31.5q-45 0 -83.5 31.5t-56.5 90.5z" />
    <glyph glyph-name="Korea1.506" unicode="&#x3bc;" horiz-adv-x="622" 
d="M215 -237h-131v813h131v-363q0 -54 26 -85.5t61 -31.5q53 0 84.5 40.5t31.5 103.5v336h128v-585h-128v63q-19 -37 -53 -55t-68 -18q-39 0 -82 26v-244z" />
    <glyph glyph-name="Korea1.507" unicode="&#x3bd;" horiz-adv-x="567" 
d="M351 577h133q9 -57 9 -125q0 -226 -146 -461h-116l-167 586h135l108 -387q52 148 52 268q0 70 -8 119z" />
    <glyph glyph-name="Korea1.508" unicode="&#x3be;" horiz-adv-x="634" 
d="M72 663v125q109 -32 214 -32q106 0 202 29v-123q-94 -23 -192 -23q-11 0 -21 -21t-10 -41q0 -54 35 -54h188v-114h-139q-54 0 -80 -13q-31 -17 -46 -57t-15 -84q0 -59 38 -103t110 -44h58q74 0 129 -39t55 -122q0 -33 -13 -63.5t-44 -61.5t-93 -50t-149 -19v127
q59 0 111.5 21.5t52.5 44.5q0 45 -47 45h-60q-281 0 -281 263q0 58 24.5 119t66.5 96q-23 29 -30 49t-8 57q0 14 7 37.5t16 36.5q-31 3 -79 14z" />
    <glyph glyph-name="Korea1.509" unicode="&#x3bf;" horiz-adv-x="660" 
d="M326 467q-50 0 -86.5 -56t-36.5 -144q0 -72 34 -133t89 -61q58 0 93 60.5t35 133.5q0 78 -34 139t-94 61zM326 572q111 0 183 -82t72 -223q0 -138 -72 -218.5t-183 -80.5q-116 0 -183 87.5t-67 211.5q0 142 70.5 223.5t179.5 81.5z" />
    <glyph glyph-name="Korea1.510" unicode="&#x3c0;" horiz-adv-x="709" 
d="M59 448v120h561v-120h-105v-305q0 -47 24 -47q32 0 74 47l44 -121q-53 -56 -122 -56q-65 0 -111.5 41t-46.5 126v315h-81v-195q0 -92 -35.5 -177.5t-106.5 -130.5l-81 103q85 82 85 173v227h-99z" />
    <glyph glyph-name="Korea1.511" unicode="&#x3c1;" horiz-adv-x="601" 
d="M544 281q0 -81 -23.5 -148t-75 -110t-123.5 -43q-64 0 -113 27v-244h-132v517q0 83 20 143.5t55.5 94t76.5 49t90 15.5q108 0 166.5 -86.5t58.5 -214.5zM415 280q0 188 -101 188q-105 0 -105 -188q0 -98 15 -127q11 -23 35 -41t48 -18q108 0 108 186z" />
    <glyph glyph-name="Korea1.512" unicode="&#x3c3;" horiz-adv-x="648" 
d="M551 278q0 -138 -64.5 -223t-181.5 -85q-119 0 -182.5 85.5t-63.5 222.5q0 138 63 222.5t183 84.5h298v-116h-95q43 -68 43 -191zM425 278q0 51 -10.5 94t-39 74.5t-70.5 31.5q-41 0 -69 -31.5t-39.5 -75t-11.5 -93.5q0 -81 29.5 -140.5t90.5 -59.5q43 0 71 33t38.5 75.5
t10.5 91.5z" />
    <glyph glyph-name="Korea1.513" unicode="&#x3c4;" horiz-adv-x="517" 
d="M468 568v-120h-150v-305q0 -27 10.5 -35t26.5 -8h74v-115h-90q-33 0 -67 13t-54 36q-34 44 -34 116v298h-144v120h428z" />
    <glyph glyph-name="Korea1.514" unicode="&#x3c5;" horiz-adv-x="614" 
d="M92 569h132v-367q0 -50 19 -82.5t60 -32.5q43 0 69 67t26 179q0 97 -67 177l92 82q48 -51 77 -125.5t29 -133.5q0 -97 -21.5 -169.5t-49.5 -108t-65 -57t-58 -25.5t-39 -4q-94 0 -149 65.5t-55 167.5v367z" />
    <glyph glyph-name="Korea1.515" unicode="&#x3c6;" horiz-adv-x="679" 
d="M383 578q115 0 180 -79.5t65 -216.5q0 -84 -22.5 -148.5t-75 -106t-129.5 -42.5v-212h-127v212q-113 5 -168 91.5t-55 209.5q0 194 157 306l72 -93q9 34 38.5 56.5t64.5 22.5zM274 102v362q0 12 3 24q-102 -86 -102 -202q0 -71 26 -124.5t73 -59.5zM401 450v-349
q51 3 75.5 56.5t23.5 124.5q-1 68 -24 124t-68 56q-7 0 -7 -12z" />
    <glyph glyph-name="Korea1.516" unicode="&#x3c7;" horiz-adv-x="654" 
d="M39 -234l208 385l-207 390h158l133 -253l129 254h150l-207 -391l210 -385h-157l-134 240l-126 -240h-157z" />
    <glyph glyph-name="Korea1.517" unicode="&#x3c8;" horiz-adv-x="660" 
d="M67 241v326h130v-325q0 -97 70 -136v461h130v-461q66 37 66 136v325h129v-326q0 -111 -54 -173.5t-141 -86.5v-208h-130v208q-90 21 -145 84.5t-55 175.5z" />
    <glyph glyph-name="Korea1.518" unicode="&#x3c9;" horiz-adv-x="721" 
d="M304 354h124v-139q0 -121 46 -121q25 0 42 32t23.5 69.5t6.5 72.5q0 188 -102 196v118q228 -23 228 -314q0 -52 -10.5 -101t-32.5 -93.5t-62 -71t-93 -26.5q-68 0 -109 38q-43 -38 -109 -38q-55 0 -96 28t-62.5 74t-31 93.5t-9.5 96.5q0 61 11 113t36 98t71.5 72.5
t111.5 27.5v-115q-32 -3 -54.5 -24t-32 -53t-13.5 -60t-4 -59q0 -62 18.5 -118t54.5 -56q48 0 48 123v137z" />
    <glyph glyph-name="Korea1.519" unicode="&#x2500;" horiz-adv-x="970" 
d="M970 292h-970v75h970v-75z" />
    <glyph glyph-name="Korea1.520" unicode="&#x2502;" horiz-adv-x="970" 
d="M527 -175h-82v1000h82v-1000z" />
    <glyph glyph-name="Korea1.521" unicode="&#x250c;" horiz-adv-x="970" 
d="M970 292h-443v-467h-82v542h525v-75z" />
    <glyph glyph-name="Korea1.522" unicode="&#x2510;" horiz-adv-x="970" 
d="M527 -175h-82v467h-445v75h527v-542z" />
    <glyph glyph-name="Korea1.523" unicode="&#x2518;" horiz-adv-x="970" 
d="M527 292h-527v75h445v458h82v-533z" />
    <glyph glyph-name="Korea1.524" unicode="&#x2514;" horiz-adv-x="970" 
d="M970 292h-525v533h82v-458h443v-75z" />
    <glyph glyph-name="Korea1.525" unicode="&#x251c;" horiz-adv-x="970" 
d="M970 292h-443v-467h-82v1000h82v-458h443v-75z" />
    <glyph glyph-name="Korea1.526" unicode="&#x252c;" horiz-adv-x="970" 
d="M970 292h-443v-467h-82v467h-445v75h970v-75z" />
    <glyph glyph-name="Korea1.527" unicode="&#x2524;" horiz-adv-x="970" 
d="M527 -175h-82v467h-445v75h445v458h82v-1000z" />
    <glyph glyph-name="Korea1.528" unicode="&#x2534;" horiz-adv-x="970" 
d="M970 292h-970v75h445v458h82v-458h443v-75z" />
    <glyph glyph-name="Korea1.529" unicode="&#x253c;" horiz-adv-x="970" 
d="M970 292h-443v-467h-82v467h-445v75h445v458h82v-458h443v-75z" />
    <glyph glyph-name="Korea1.530" unicode="&#x2501;" horiz-adv-x="970" 
d="M970 270h-970v119h970v-119z" />
    <glyph glyph-name="Korea1.531" unicode="&#x2503;" horiz-adv-x="970" 
d="M547 -175h-125v1000h125v-1000z" />
    <glyph glyph-name="Korea1.532" unicode="&#x250f;" horiz-adv-x="970" 
d="M970 270h-423v-445h-125v564h548v-119z" />
    <glyph glyph-name="Korea1.533" unicode="&#x2513;" horiz-adv-x="970" 
d="M547 -175h-125v445h-422v119h547v-564z" />
    <glyph glyph-name="Korea1.534" unicode="&#x251b;" horiz-adv-x="970" 
d="M547 270h-547v119h422v436h125v-555z" />
    <glyph glyph-name="Korea1.535" unicode="&#x2517;" horiz-adv-x="970" 
d="M970 270h-548v555h125v-436h423v-119z" />
    <glyph glyph-name="Korea1.536" unicode="&#x2523;" horiz-adv-x="970" 
d="M970 270h-423v-445h-125v1000h125v-436h423v-119z" />
    <glyph glyph-name="Korea1.537" unicode="&#x2533;" horiz-adv-x="970" 
d="M970 270h-423v-445h-125v445h-422v119h970v-119z" />
    <glyph glyph-name="Korea1.538" unicode="&#x252b;" horiz-adv-x="970" 
d="M547 -174h-125v444h-422v119h422v436h125v-999z" />
    <glyph glyph-name="Korea1.539" unicode="&#x253b;" horiz-adv-x="970" 
d="M970 270h-970v119h422v436h125v-436h423v-119z" />
    <glyph glyph-name="Korea1.540" unicode="&#x254b;" horiz-adv-x="970" 
d="M970 270h-423v-445h-125v445h-422v119h422v436h125v-436h423v-119z" />
    <glyph glyph-name="Korea1.541" unicode="&#x2520;" horiz-adv-x="970" 
d="M970 292h-423v-467h-125v1000h125v-458h423v-75z" />
    <glyph glyph-name="Korea1.542" unicode="&#x252f;" horiz-adv-x="970" 
d="M970 270h-443v-445h-82v445h-445v119h970v-119z" />
    <glyph glyph-name="Korea1.543" unicode="&#x2528;" horiz-adv-x="970" 
d="M547 -175h-125v467h-422v75h422v458h125v-1000z" />
    <glyph glyph-name="Korea1.544" unicode="&#x2537;" horiz-adv-x="970" 
d="M970 270h-970v119h445v436h82v-436h443v-119z" />
    <glyph glyph-name="Korea1.545" unicode="&#x253f;" horiz-adv-x="970" 
d="M970 270h-443v-445h-82v445h-445v119h445v436h82v-436h443v-119z" />
    <glyph glyph-name="Korea1.546" unicode="&#x251d;" horiz-adv-x="970" 
d="M970 270h-443v-445h-82v1000h82v-436h443v-119z" />
    <glyph glyph-name="Korea1.547" unicode="&#x2530;" horiz-adv-x="970" 
d="M970 292h-423v-467h-124v467h-423v75h970v-75z" />
    <glyph glyph-name="Korea1.548" unicode="&#x2525;" horiz-adv-x="970" 
d="M527 -174h-82v444h-445v119h445v436h82v-999z" />
    <glyph glyph-name="Korea1.549" unicode="&#x2538;" horiz-adv-x="970" 
d="M970 292h-970v75h422v458h125v-458h423v-75z" />
    <glyph glyph-name="Korea1.550" unicode="&#x2542;" horiz-adv-x="970" 
d="M970 292h-423v-467h-125v467h-422v75h422v458h125v-458h423v-75z" />
    <glyph glyph-name="Korea1.551" unicode="&#x2512;" horiz-adv-x="970" 
d="M547 -175h-124v467h-423v75h547v-542z" />
    <glyph glyph-name="Korea1.552" unicode="&#x2511;" horiz-adv-x="970" 
d="M527 -175h-82v445h-445v119h527v-564z" />
    <glyph glyph-name="Korea1.553" unicode="&#x251a;" horiz-adv-x="970" 
d="M547 292h-547v75h422v458h125v-533z" />
    <glyph glyph-name="Korea1.554" unicode="&#x2519;" horiz-adv-x="970" 
d="M527 270h-527v119h445v436h82v-555z" />
    <glyph glyph-name="Korea1.555" unicode="&#x2516;" horiz-adv-x="970" 
d="M970 292h-548v533h125v-458h423v-75z" />
    <glyph glyph-name="Korea1.556" unicode="&#x2515;" horiz-adv-x="970" 
d="M970 270h-525v555h82v-436h443v-119z" />
    <glyph glyph-name="Korea1.557" unicode="&#x250e;" horiz-adv-x="970" 
d="M970 292h-423v-467h-125v542h548v-75z" />
    <glyph glyph-name="Korea1.558" unicode="&#x250d;" horiz-adv-x="970" 
d="M970 270h-443v-445h-82v564h525v-119z" />
    <glyph glyph-name="Korea1.559" unicode="&#x251e;" horiz-adv-x="970" 
d="M970 292h-443v-467h-82v467h-23v533h125v-458h423v-75z" />
    <glyph glyph-name="Korea1.560" unicode="&#x251f;" horiz-adv-x="970" 
d="M970 292h-423v-467h-125v542h23v458h82v-458h443v-75z" />
    <glyph glyph-name="Korea1.561" unicode="&#x2521;" horiz-adv-x="970" 
d="M970 270h-443v-445h-82v444h-23v556h125v-436h423v-119z" />
    <glyph glyph-name="Korea1.562" unicode="&#x2522;" horiz-adv-x="970" 
d="M970 270h-423v-445h-125v564h23v436h82v-436h443v-119z" />
    <glyph glyph-name="Korea1.563" unicode="&#x2526;" horiz-adv-x="970" 
d="M547 292h-20v-467h-82v467h-445v75h422v458h125v-533z" />
    <glyph glyph-name="Korea1.564" unicode="&#x2527;" horiz-adv-x="970" 
d="M547 -176h-125v468h-422v75h445v458h82v-458h20v-543z" />
    <glyph glyph-name="Korea1.565" unicode="&#x2529;" horiz-adv-x="970" 
d="M547 270h-20v-444h-82v444h-445v119h422v436h125v-555z" />
    <glyph glyph-name="Korea1.566" unicode="&#x252a;" horiz-adv-x="970" 
d="M547 -175h-125v445h-422v119h445v436h82v-436h20v-564z" />
    <glyph glyph-name="Korea1.567" unicode="&#x252d;" horiz-adv-x="970" 
d="M970 292h-443v-467h-82v445h-445v119h527v-22h443v-75z" />
    <glyph glyph-name="Korea1.568" unicode="&#x252e;" horiz-adv-x="970" 
d="M970 270h-443v-445h-82v467h-445v75h445v22h525v-119z" />
    <glyph glyph-name="Korea1.569" unicode="&#x2531;" horiz-adv-x="970" 
d="M970 292h-423v-467h-125v445h-422v119h547v-22h423v-75z" />
    <glyph glyph-name="Korea1.570" unicode="&#x2532;" horiz-adv-x="970" 
d="M970 270h-423v-445h-125v467h-422v75h423v22h547v-119z" />
    <glyph glyph-name="Korea1.571" unicode="&#x2535;" horiz-adv-x="970" 
d="M970 292h-443v-22h-527v119h445v436h82v-458h443v-75z" />
    <glyph glyph-name="Korea1.572" unicode="&#x2536;" horiz-adv-x="970" 
d="M970 270h-525v22h-445v75h445v458h82v-436h443v-119z" />
    <glyph glyph-name="Korea1.573" unicode="&#x2539;" horiz-adv-x="970" 
d="M970 292h-423v-22h-547v119h422v436h125v-458h423v-75z" />
    <glyph glyph-name="Korea1.574" unicode="&#x253a;" horiz-adv-x="970" 
d="M970 270h-548v22h-422v75h422v458h125v-436h423v-119z" />
    <glyph glyph-name="Korea1.575" unicode="&#x253d;" horiz-adv-x="970" 
d="M970 292h-443v-467h-82v445h-445v119h445v436h82v-458h443v-75z" />
    <glyph glyph-name="Korea1.576" unicode="&#x253e;" horiz-adv-x="970" 
d="M970 270h-443v-445h-82v467h-445v75h445v458h82v-436h443v-119z" />
    <glyph glyph-name="Korea1.577" unicode="&#x2540;" horiz-adv-x="970" 
d="M970 292h-443v-467h-82v467h-445v75h422v458h125v-458h423v-75z" />
    <glyph glyph-name="Korea1.578" unicode="&#x2541;" horiz-adv-x="970" 
d="M970 292h-423v-467h-125v467h-422v75h445v458h82v-458h443v-75z" />
    <glyph glyph-name="Korea1.579" unicode="&#x2543;" horiz-adv-x="970" 
d="M970 292h-443v-467h-82v445h-445v119h422v436h125v-458h423v-75z" />
    <glyph glyph-name="Korea1.580" unicode="&#x2544;" horiz-adv-x="970" 
d="M970 270h-443v-445h-82v467h-445v75h422v458h125v-436h423v-119z" />
    <glyph glyph-name="Korea1.581" unicode="&#x2545;" horiz-adv-x="970" 
d="M970 292h-423v-467h-125v445h-422v119h445v436h82v-458h443v-75z" />
    <glyph glyph-name="Korea1.582" unicode="&#x2546;" horiz-adv-x="970" 
d="M970 270h-423v-445h-125v467h-422v75h445v458h82v-436h443v-119z" />
    <glyph glyph-name="Korea1.583" unicode="&#x2547;" horiz-adv-x="970" 
d="M970 270h-443v-445h-82v445h-445v119h422v436h125v-436h423v-119z" />
    <glyph glyph-name="Korea1.584" unicode="&#x2548;" horiz-adv-x="970" 
d="M970 270h-423v-445h-125v445h-422v119h445v436h82v-436h443v-119z" />
    <glyph glyph-name="Korea1.585" unicode="&#x2549;" horiz-adv-x="970" 
d="M970 292h-423v-467h-125v445h-422v119h422v436h125v-458h423v-75z" />
    <glyph glyph-name="Korea1.586" unicode="&#x254a;" horiz-adv-x="970" 
d="M970 270h-423v-445h-125v467h-422v75h422v458h125v-436h423v-119z" />
    <glyph glyph-name="Korea1.587" unicode="&#x3395;" horiz-adv-x="936" 
d="M106 -238l-106 33l166 756l108 -29l-85 -383q-4 -16 6.5 -30.5t25.5 -20.5q20 -6 37.5 1t22.5 20l95 442l105 -31l-90 -409q-2 -13 4.5 -24t17.5 -11q8 0 19 10t15 23l38 -38q19 15 57 53t54 55q-48 197 -26 368q11 93 57 161t114 68q67 0 101 -53t34 -133
q0 -188 -163 -428q2 -30 15.5 -54.5t29.5 -24.5q18 0 29 44l68 -56q-18 -45 -46.5 -70.5t-58.5 -25.5q-84 0 -119 105q-21 -29 -96 -98l-35 54q-30 -60 -96 -60q-45 0 -82 32q-38 -26 -98 -23q-38 6 -59 27zM743 661q-48 0 -70 -145q-12 -82 5 -229q62 130 81 201
q10 28 16 66t-0.5 72.5t-31.5 34.5z" />
    <glyph glyph-name="Korea1.588" unicode="&#x3396;" horiz-adv-x="954" 
d="M758 661q-50 0 -70 -145q-13 -86 4 -229q62 130 81 201q10 29 16 66.5t0 72t-31 34.5zM559 -13l-55 85q31 24 106 107q-48 201 -26 368q11 93 57.5 161t113.5 68t101 -53t34 -133q0 -191 -163 -428q2 -30 15.5 -54.5t29.5 -24.5q19 0 30 44l67 -56q-18 -45 -46 -70.5
t-59 -25.5q-38 0 -69.5 26.5t-49.5 78.5q-23 -34 -86 -93zM493 -9h-96v362q0 80 -36 80q-35 0 -35 -80v-362h-96v362q0 80 -36 80t-36 -80v-362h-95v560h96v-73q30 61 86 61q23 0 43 -19.5t31 -49.5q13 32 31.5 50.5t37.5 18.5q57 0 81 -51t24 -152v-345z" />
    <glyph glyph-name="Korea1.589" unicode="&#x3397;" horiz-adv-x="895" 
d="M162 261v-22q0 -30 2.5 -52t9.5 -47.5t24 -39.5t43 -14q23 0 37.5 14.5t21 42.5t9 55t2.5 65q0 34 -2 59t-8.5 54t-21 44.5t-37.5 15.5q-78 0 -80 -175zM57 261q0 53 8.5 100.5t26.5 90t52 68t80 25.5q47 0 87 -57v280h107v-777h-107v63q-13 -43 -38 -61.5t-51 -18.5
q-60 0 -98.5 44t-52.5 105t-14 138zM698 661q-48 0 -70 -145q-12 -82 5 -229q62 130 81 201q10 28 16 66t-0.5 72.5t-31.5 34.5zM499 -13l-54 85q31 24 106 107q-48 197 -26 368q11 93 57 161t114 68q67 0 101 -53t34 -133q0 -188 -163 -428q2 -30 15.5 -54.5t29.5 -24.5
q18 0 29 44l68 -56q-18 -45 -46.5 -70.5t-58.5 -25.5q-84 0 -119 105q-27 -38 -87 -93z" />
    <glyph glyph-name="Korea1.590" unicode="&#x2113;" horiz-adv-x="579" 
d="M430 101l102 -66q-61 -115 -187 -115q-85 0 -149 74q-60 -14 -121 -14l-27 103q64 0 93 5q-51 109 -51 260q0 59 12.5 129t38 143t74 121t110.5 48q41 0 72.5 -26.5t48.5 -63.5t27.5 -85t13.5 -83t3 -65q0 -111 -49.5 -233t-130.5 -183q22 -31 44 -31q20 0 40.5 23
t35.5 59zM325 683q-35 0 -61 -64t-35 -128.5t-9 -108.5q0 -158 32 -233q50 55 77 152.5t27 185.5q0 45 -7.5 120.5t-23.5 75.5z" />
    <glyph glyph-name="Korea1.591" unicode="&#x3398;" horiz-adv-x="882" 
d="M680 661q-48 0 -70 -145q-12 -82 5 -229q62 130 81 201q10 28 16 66t-0.5 72.5t-31.5 34.5zM481 -13l-54 85q31 24 106 107q-48 197 -26 368q11 93 57 161t114 68q67 0 101 -53t34 -133q0 -188 -163 -428q2 -30 15.5 -54.5t29.5 -24.5q18 0 29 44l68 -56
q-18 -45 -46.5 -70.5t-58.5 -25.5q-84 0 -119 105q-27 -38 -87 -93zM436 548l-151 -247l148 -310h-122l-100 204l-31 -51v-153h-114v777h114v-432l124 212h132z" />
    <glyph glyph-name="Korea1.592" unicode="&#x33c4;" horiz-adv-x="891" 
d="M434 482l-65 -84q-37 40 -98 40q-50 0 -80.5 -50.5t-30.5 -121.5q0 -74 30.5 -124t82.5 -50q66 0 100 45q17 -22 69 -78q-31 -39 -78 -60.5t-91 -21.5q-108 0 -166.5 85t-58.5 204q0 136 61 210.5t162 74.5q91 0 163 -69zM841 482l-65 -84q-39 40 -97 40q-49 0 -79 -51
t-30 -121q0 -73 30 -123.5t79 -50.5q72 0 101 45q7 -7 22 -23.5t27.5 -30.5t21.5 -24q-32 -39 -79.5 -60.5t-92.5 -21.5q-106 0 -164.5 85t-58.5 204q0 136 61 210.5t162 74.5q51 0 88 -17t74 -52z" />
    <glyph glyph-name="Korea1.593" unicode="&#x33a3;" horiz-adv-x="1120" 
d="M481 -9h-96v362q0 43 -7 61.5t-26 18.5q-33 0 -33 -80v-362h-95v362q0 80 -33 80q-34 0 -34 -80v-362h-95v559h96v-72q30 61 83 61q48 0 71 -69q27 69 67 69q57 0 79.5 -50.5t22.5 -152.5v-345zM968 -9h-96v362q0 43 -7 61.5t-26 18.5q-33 0 -33 -80v-362h-95v362
q0 80 -33 80q-34 0 -34 -80v-362h-95v556h96v-69q30 61 83 61q23 0 42 -19t29 -50q27 69 67 69q57 0 79.5 -50.5t22.5 -152.5v-345zM1066 652q0 -37 -25 -63.5t-63 -26.5q-29 0 -53.5 18.5t-35.5 51.5l49 17q10 -30 38 -30q14 0 23.5 9.5t9.5 23.5q0 38 -33 38h-30v57h31
q12 0 19.5 9.5t7.5 21.5q0 13 -9 19t-19 6q-23 0 -31 -28l-50 16q8 30 30.5 51t50.5 21q33 0 58 -20t26 -58q0 -41 -26 -63q32 -21 32 -70z" />
    <glyph glyph-name="Korea1.594" unicode="&#x33a4;" horiz-adv-x="1053" 
d="M414 489l-61 -85q-38 45 -96 45q-48 0 -78 -52t-30 -131q0 -84 30 -134.5t80 -50.5q25 0 54 13t44 39q32 -37 64 -79q-28 -41 -73 -61t-89 -20q-101 0 -158.5 87t-57.5 206q0 145 58 217t156 72q89 0 157 -66zM881 -9h-96v362q0 80 -36 80q-35 0 -35 -80v-362h-96v362
q0 80 -36 80t-36 -80v-362h-95v556h96v-69q30 61 86 61q23 0 43 -19.5t30 -49.5q13 33 32 51t38 18q57 0 81 -51t24 -152v-345zM999 652q0 -37 -25 -63.5t-63 -26.5q-29 0 -54 18.5t-35 51.5l48 17q10 -30 39 -30q13 0 22.5 9.5t9.5 23.5q0 38 -32 38h-31v57h32q11 0 19 9.5
t8 21.5q0 25 -29 25q-22 0 -31 -28l-49 16q8 30 30.5 51t50.5 21q33 0 58 -20t26 -58q0 -39 -26 -63q32 -21 32 -70z" />
    <glyph glyph-name="Korea1.595" unicode="&#x33a5;" horiz-adv-x="945" 
d="M885 652q0 -37 -25.5 -63.5t-63.5 -26.5q-28 0 -53 18.5t-36 51.5l49 17q10 -30 39 -30q13 0 22.5 9.5t9.5 23.5q0 38 -32 38h-31v57h32q11 0 19 9.5t8 21.5q0 13 -9.5 19t-19.5 6q-22 0 -31 -28l-49 16q8 30 30.5 51t50.5 21q33 0 57.5 -20t25.5 -58q0 -41 -26 -63
q33 -22 33 -70zM171 549v-77q17 39 55 58t77 19q42 0 82 -25.5t60 -66.5q21 42 65.5 67t81.5 25q79 0 132 -50t53 -143v-365h-111v359q0 38 -26 65.5t-68 27.5q-41 0 -70.5 -28.5t-29.5 -77.5v-346h-107v360q0 43 -28 68t-66 25q-41 0 -70.5 -27.5t-29.5 -76.5v-349h-109
v558h109z" />
    <glyph glyph-name="Korea1.596" unicode="&#x33a6;" horiz-adv-x="1035" 
d="M886 -9h-96v362q0 80 -36 80q-35 0 -35 -80v-362h-95v362q0 80 -36 80t-36 -80v-362h-96v556h97v-69q28 61 85 61q23 0 43 -19.5t31 -49.5q13 32 31.5 50.5t37.5 18.5q57 0 81 -51t24 -152v-345zM432 548l-150 -247l147 -310h-121l-100 204l-32 -51v-153h-114v777h114
v-432l125 212h131zM974 652q0 -37 -25 -63.5t-63 -26.5q-29 0 -54 18.5t-36 51.5l49 17q10 -30 39 -30q13 0 22.5 9.5t9.5 23.5q0 38 -32 38h-31v57h32q11 0 19 9.5t8 21.5q0 25 -29 25q-22 0 -31 -28l-49 16q8 30 30.5 51t50.5 21q33 0 58 -20t25 -58q0 -41 -26 -63
q33 -22 33 -70z" />
    <glyph glyph-name="Korea1.597" unicode="&#x3399;" horiz-adv-x="855" 
d="M29 525h64v62q0 101 38.5 142.5t109.5 41.5h73v-107h-56q-27 0 -37 -20.5t-10 -68.5v-50h93v-106h-93v-426h-118v426h-64v106zM788 -9h-100v362q0 80 -36 80t-36 -80v-362h-99v362q0 80 -36 80t-36 -80v-362h-100v556h100v-69q30 61 86 61q24 0 46 -20t32 -49
q27 69 70 69q109 0 109 -203v-345z" />
    <glyph glyph-name="Korea1.598" unicode="&#x339a;" horiz-adv-x="990" 
d="M405 -9h-111v330q0 28 -1 40.5t-6 34t-18.5 31t-35.5 9.5q-60 0 -60 -106v-339h-111v559h111v-71q38 63 88 63q144 0 144 -221v-330zM923 -9h-100v362q0 80 -39 80q-17 0 -27.5 -20.5t-10.5 -59.5v-362h-100v362q0 80 -39 80q-38 0 -38 -80v-362h-100v556h101v-69
q28 61 88 61q24 0 47 -20t34 -49q12 32 32.5 50.5t39.5 18.5q112 0 112 -203v-345z" />
    <glyph glyph-name="Korea1.599" unicode="&#x339b;" horiz-adv-x="1035" 
d="M968 -9h-100v362q0 80 -39 80q-17 0 -27.5 -20.5t-10.5 -59.5v-362h-100v362q0 80 -39 80q-38 0 -38 -80v-362h-100v556h101v-69q28 61 88 61q24 0 47 -20t34 -49q12 32 32.5 50.5t39.5 18.5q112 0 112 -203v-345zM99 -238l-103 33l161 756l104 -29l-82 -383
q-3 -16 7 -30.5t25 -20.5q20 -6 36.5 1t20.5 20l92 442l103 -31l-88 -409q-2 -14 4.5 -24.5t16.5 -10.5q16 0 26 29l69 -45q-14 -41 -42 -62.5t-62 -21.5q-45 0 -79 32q-36 -26 -95 -23q-12 2 -30 10t-27 17z" />
    <glyph glyph-name="Korea1.600" unicode="&#x339c;" horiz-adv-x="1035" 
d="M481 -9h-96v362q0 43 -7 61.5t-26 18.5q-33 0 -33 -80v-362h-95v362q0 80 -33 80q-34 0 -34 -80v-362h-95v559h96v-72q30 61 83 61q48 0 71 -69q27 69 67 69q57 0 79.5 -50.5t22.5 -152.5v-345zM968 -9h-96v362q0 43 -7 61.5t-26 18.5q-33 0 -33 -80v-362h-95v362
q0 80 -33 80q-34 0 -34 -80v-362h-95v556h96v-69q30 61 83 61q23 0 42 -19t29 -50q27 69 67 69q57 0 79.5 -50.5t22.5 -152.5v-345z" />
    <glyph glyph-name="Korea1.601" unicode="&#x339d;" horiz-adv-x="945" 
d="M414 489l-61 -85q-38 45 -96 45q-48 0 -78 -52t-30 -131q0 -84 30 -134.5t80 -50.5q25 0 54 13t44 39q32 -37 64 -79q-28 -41 -73 -61t-89 -20q-101 0 -158.5 87t-57.5 206q0 145 58 217t156 72q89 0 157 -66zM881 -9h-96v362q0 80 -36 80q-35 0 -35 -80v-362h-96v362
q0 80 -36 80t-36 -80v-362h-95v556h96v-69q30 61 86 61q23 0 43 -19.5t30 -49.5q13 33 32 51t38 18q57 0 81 -51t24 -152v-345z" />
    <glyph glyph-name="Korea1.602" unicode="&#x339e;" horiz-adv-x="954" 
d="M887 -9h-96v362q0 80 -36 80q-35 0 -35 -80v-362h-95v362q0 80 -36 80t-36 -80v-362h-96v556h96v-69q30 61 86 61q23 0 43 -19.5t31 -49.5q13 32 31.5 50.5t37.5 18.5q57 0 81 -51t24 -152v-345zM433 548l-150 -247l147 -310h-121l-100 204l-32 -51v-153h-114v777h114
v-432l124 212h132z" />
    <glyph glyph-name="Korea1.603" unicode="&#x339f;" horiz-adv-x="1125" 
d="M481 -9h-96v362q0 43 -7 61.5t-26 18.5q-33 0 -33 -80v-362h-95v362q0 80 -33 80q-34 0 -34 -80v-362h-95v559h96v-72q30 61 83 61q48 0 71 -69q27 69 67 69q57 0 79.5 -50.5t22.5 -152.5v-345zM968 -9h-96v362q0 43 -7 61.5t-26 18.5q-33 0 -33 -80v-362h-95v362
q0 80 -33 80q-34 0 -34 -80v-362h-95v556h96v-69q30 61 83 61q23 0 42 -19t29 -50q27 69 67 69q57 0 79.5 -50.5t22.5 -152.5v-345zM1074 636v-61h-153v51l62 92q25 35 25 58q0 11 -7.5 18t-17.5 7q-17 0 -31 -40l-48 18q23 82 87 82q33 0 54 -23t21 -56q0 -43 -35 -93
l-33 -53h76z" />
    <glyph glyph-name="Korea1.604" unicode="&#x33a0;" horiz-adv-x="1053" 
d="M997 636v-61h-153v51l62 92q25 35 25 58q0 11 -7.5 18t-17.5 7q-16 0 -30 -40l-49 18q23 82 86 82q33 0 55 -23t22 -56q0 -43 -35 -93l-33 -53h75zM414 489l-61 -85q-38 45 -96 45q-48 0 -78 -52t-30 -131q0 -84 30 -134.5t80 -50.5q25 0 54 13t44 39q32 -37 64 -79
q-28 -41 -73 -61t-89 -20q-101 0 -158.5 87t-57.5 206q0 145 58 217t156 72q89 0 157 -66zM881 -9h-96v362q0 80 -36 80q-35 0 -35 -80v-362h-96v362q0 80 -36 80t-36 -80v-362h-95v556h96v-69q30 61 86 61q23 0 43 -19.5t30 -49.5q13 33 32 51t38 18q57 0 81 -51t24 -152
v-345z" />
    <glyph glyph-name="Korea1.605" unicode="&#x33a1;" horiz-adv-x="945" 
d="M171 549v-77q17 39 55 58t77 19q42 0 82 -25.5t60 -66.5q21 42 65.5 67t81.5 25q79 0 132 -50t53 -143v-365h-111v359q0 38 -26 65.5t-68 27.5q-41 0 -70.5 -28.5t-29.5 -77.5v-346h-107v360q0 43 -28 68t-66 25q-41 0 -70.5 -27.5t-29.5 -76.5v-349h-109v558h109z
M886 636v-61h-153v51l63 92q25 35 25 58q0 11 -7.5 18t-17.5 7q-17 0 -31 -40l-49 18q23 82 89 82q33 0 53.5 -22.5t20.5 -56.5q0 -43 -35 -93l-33 -53h75z" />
    <glyph glyph-name="Korea1.606" unicode="&#x33a2;" horiz-adv-x="1035" 
d="M886 -9h-96v362q0 80 -36 80q-35 0 -35 -80v-362h-95v362q0 80 -36 80t-36 -80v-362h-96v556h97v-69q28 61 85 61q23 0 43 -19.5t31 -49.5q13 32 31.5 50.5t37.5 18.5q57 0 81 -51t24 -152v-345zM432 548l-150 -247l147 -310h-121l-100 204l-32 -51v-153h-114v777h114
v-432l125 212h131zM976 636v-61h-153v51l62 92q25 35 25 58q0 11 -7.5 18t-17.5 7q-17 0 -31 -40l-49 18q23 82 87 82q33 0 54.5 -23t21.5 -56q0 -43 -35 -93l-33 -53h76z" />
    <glyph glyph-name="Korea1.607" unicode="&#x33ca;" horiz-adv-x="936" 
d="M759 192v41q-40 5 -68 5q-60 0 -83 -26.5t-23 -58.5q0 -28 20.5 -47.5t49.5 -19.5q45 0 74.5 35.5t29.5 70.5zM432 335v-344h-114v321q0 31 -5 56.5t-21 46t-41 20.5q-31 0 -52.5 -37t-21.5 -80v-327h-113v779h113v-282q16 27 43 45t48 18q47 0 81 -19t51 -52t24.5 -68.5
t7.5 -76.5zM868 347v-360h-100l-7 60q-59 -71 -128 -71q-73 0 -117.5 46t-44.5 133q0 28 11 58t34 59t67 47.5t102 18.5q32 0 74 -5v21q0 34 -23 63t-66 29q-59 0 -109 -53l-59 79q40 39 79.5 59.5t101.5 20.5q55 0 93.5 -19t57 -52t26.5 -65t8 -69z" />
    <glyph glyph-name="Korea1.608" unicode="&#x338d;" horiz-adv-x="954" 
d="M770 271q0 177 -64 177q-80 0 -80 -177q0 -180 71 -180q73 0 73 180zM882 550v-510q0 -45 -10 -89t-31 -84t-59.5 -65t-88.5 -25q-97 0 -168 63l57 82q18 -22 48 -36t58 -14q12 0 28 4q27 9 44 57t11 98q-31 -51 -83 -52q-50 -1 -85.5 24t-53.5 69.5t-25.5 92.5t-7.5 106
q0 75 16.5 136t55 102t93.5 41q28 0 54 -16.5t38 -46.5v63h109zM106 -238l-106 33l166 756l108 -29l-85 -383q-4 -16 6.5 -30.5t25.5 -20.5q20 -6 37.5 1t22.5 20l95 442l105 -31l-90 -409q-2 -13 4.5 -24t17.5 -11q17 0 27 29l72 -45q-15 -41 -44 -62.5t-64 -21.5
q-45 0 -82 32q-38 -26 -98 -23q-38 6 -59 27z" />
    <glyph glyph-name="Korea1.609" unicode="&#x338e;" horiz-adv-x="981" 
d="M799 271q0 177 -65 177q-79 0 -79 -177q0 -180 71 -180q73 0 73 180zM911 550v-510q0 -45 -10 -89t-31 -84t-59.5 -65t-88.5 -25q-98 0 -169 63l58 82q17 -22 47 -36t58 -14q13 0 29 4q27 9 44 57t11 98q-31 -50 -83 -52q-50 -1 -85.5 24t-54 69.5t-26 92.5t-7.5 106
q0 75 16.5 136t55.5 102t94 41q28 0 54 -16.5t38 -46.5v63h109zM493 -9h-96v362q0 80 -36 80q-35 0 -35 -80v-362h-96v362q0 80 -36 80t-36 -80v-362h-95v559h96v-72q30 61 86 61q23 0 43 -19.5t31 -49.5q13 32 31.5 50.5t37.5 18.5q57 0 81 -51t24 -152v-345z" />
    <glyph glyph-name="Korea1.610" unicode="&#x338f;" horiz-adv-x="882" 
d="M691 271q0 177 -65 177q-79 0 -79 -177q0 -180 71 -180q73 0 73 180zM803 550v-510q0 -45 -10 -89t-31 -84t-59.5 -65t-88.5 -25q-98 0 -169 63l58 82q17 -22 47 -36t58 -14q13 0 29 4q27 9 44 57t11 98q-31 -50 -83 -52q-50 -1 -86 24t-54 69.5t-26 93t-8 105.5
q0 117 42.5 198t124.5 81q28 0 54 -16.5t38 -46.5v63h109zM430 548l-150 -247l147 -310h-121l-100 204l-31 -51v-153h-113v777h113v-432l124 212h131z" />
    <glyph glyph-name="Korea1.611" unicode="&#x33cf;" horiz-adv-x="801" 
d="M747 105v-112h-82q-131 0 -131 144v307h-81v111h81v208h111v-208h94v-111h-94v-297q0 -24 9.5 -33t27.5 -9h65zM432 548l-150 -247l147 -310h-121l-100 204l-32 -51v-153h-114v777h114v-432l125 212h131z" />
    <glyph glyph-name="Korea1.612" unicode="&#x3388;" horiz-adv-x="945" 
d="M625 181v63q-20 5 -54 5q-37 0 -65 -24.5t-28 -66.5q0 -36 15.5 -56t39.5 -18q42 1 67 35.5t25 61.5zM878 -9h-100v771h100v-771zM317 136l66 -69q-23 -42 -63.5 -67.5t-83.5 -25.5q-86 -1 -132.5 79t-46.5 212q0 135 46.5 212.5t132.5 77.5q102 0 143 -79l-62 -68
q-21 25 -38 34t-41 5q-33 -5 -57 -56t-24 -126q0 -73 21 -127t58 -54q52 0 81 52zM464 411l-55 76q62 68 148 68q76 0 119 -57.5t43 -129.5v-380h-85l-9 55q-13 -29 -48 -49t-58 -20q-59 -2 -96.5 46t-37.5 137q0 24 5.5 47.5t18.5 48.5t33 43.5t52 30.5t72 12q43 0 59 -2
v29q0 38 -21.5 62t-46.5 24q-45 0 -93 -41z" />
    <glyph glyph-name="Korea1.613" unicode="&#x3389;" horiz-adv-x="1053" 
d="M748 153v95q-88 0 -92 -88q-2 -32 9.5 -58.5t35.5 -26.5q47 0 47 78zM986 -9h-98v776h98v-776zM524 130l58 -61q-8 45 -8 73q0 79 41.5 137t108.5 58q17 0 24 -1v42q0 36 -15.5 60t-38.5 24q-34 0 -67 -44l-46 51q-10 -8 -30 -25t-30 -25q-11 22 -29.5 31.5t-33.5 2.5h1
q-44 -17 -44 -176q0 -171 46 -192q39 -15 63 45zM228 308l108 -317h-92l-74 225l-13 -23v-202h-95v776h95v-404l89 184h98zM833 379v-388h-65l-7 54q-13 -32 -35.5 -50.5t-43.5 -18.5q-74 0 -100 88q-31 -89 -120 -89q-38 0 -66.5 27t-44 72.5t-22.5 96t-7 106.5
q0 66 13 126.5t45.5 106t79.5 45.5q46 0 73 -20.5t44 -59.5q21 31 55 55.5t73 24.5q65 0 96.5 -51.5t31.5 -124.5z" />
    <glyph glyph-name="Korea1.614" unicode="&#x33c8;" horiz-adv-x="945" 
d="M153 266q0 -28 3.5 -55t12.5 -55.5t29 -46.5t48 -18q43 0 63 51.5t20 125.5q0 30 -4 58.5t-13 55t-26 43t-39 16.5q-46 0 -69.5 -54t-24.5 -121zM49 266q0 70 17.5 132.5t59.5 107.5t102 45q23 0 52 -15.5t49 -42.5v273h107v-775h-107v48q-18 -29 -47.5 -44.5
t-55.5 -15.5q-59 0 -100.5 43t-59 106t-17.5 138zM765 553q0 108 -82 108h-67v-213h76q73 0 73 105zM786 219q0 124 -94 124h-76v-246h76q94 0 94 122zM890 219q0 -47 -10 -84.5t-24 -60.5t-35 -40t-37.5 -25t-38.5 -12.5t-31.5 -5t-21.5 -0.5h-184v776h175q91 0 138.5 -59
t47.5 -155q0 -100 -72 -150q47 -23 70.5 -74.5t22.5 -109.5z" />
    <glyph glyph-name="Korea1.615" unicode="&#x33a7;" horiz-adv-x="1035" 
d="M749 817l-214 -884h-89l209 884h94zM966 120q0 -73 -44 -113.5t-109 -40.5q-80 0 -159 66l59 71q47 -45 98 -45q24 1 37.5 15.5t13.5 36.5q0 13 -4 23t-12.5 18.5t-14.5 13t-20 13t-19 12.5q-34 23 -56 42t-42 50.5t-20 64.5q0 69 42 108.5t98 39.5q82 0 138 -56l-48 -70
q-41 31 -77 31q-21 0 -35.5 -11.5t-14.5 -32.5q0 -13 4 -24t14.5 -21t15.5 -15t21.5 -15.5t19.5 -12.5q31 -21 42.5 -29.5t33 -28.5t30 -41.5t8.5 -48.5zM483 215h-92v335q0 78 -34 78q-37 0 -37 -78v-335h-91v335q0 78 -36 78q-15 0 -25 -20t-10 -58v-335h-90v507h91v-56
q31 60 72 60q23 0 47.5 -18t31.5 -44q13 30 33 46t39 16q101 0 101 -196v-315z" />
    <glyph glyph-name="Korea1.616" unicode="&#x33a8;" horiz-adv-x="1062" 
d="M749 817l-214 -884h-89l209 884h94zM966 120q0 -73 -44 -113.5t-109 -40.5q-80 0 -159 66l59 71q47 -45 98 -45q24 1 37.5 15.5t13.5 36.5q0 13 -4 23t-12.5 18.5t-14.5 13t-20 13t-19 12.5q-34 23 -56 42t-42 50.5t-20 64.5q0 69 42 108.5t98 39.5q82 0 138 -56l-48 -70
q-41 31 -77 31q-21 0 -35.5 -11.5t-14.5 -32.5q0 -13 4 -24t14.5 -21t15.5 -15t21.5 -15.5t19.5 -12.5q31 -21 42.5 -29.5t33 -28.5t30 -41.5t8.5 -48.5zM483 215h-92v335q0 78 -34 78q-37 0 -37 -78v-335h-91v335q0 78 -36 78q-15 0 -25 -20t-10 -58v-335h-90v507h91v-56
q31 60 72 60q23 0 47.5 -18t31.5 -44q13 30 33 46t39 16q101 0 101 -196v-315zM1002 592v-60h-147v50l62 78q24 29 24 58q0 11 -7.5 18t-16.5 7q-17 0 -31 -40l-49 18q24 82 86 82q33 0 55 -23t22 -56q0 -40 -35 -93l-29 -39h66z" />
    <glyph glyph-name="Korea1.617" unicode="&#x33b0;" horiz-adv-x="886" 
d="M809 481l-59 -81q-55 48 -89 48q-30 0 -46.5 -15.5t-16.5 -41.5q0 -14 6.5 -25.5t20 -21.5t24.5 -16.5t31.5 -16t28.5 -14.5q35 -19 52.5 -30t37.5 -30t27.5 -42.5t7.5 -56.5q0 -46 -17.5 -80.5t-45.5 -52.5t-57.5 -26t-60.5 -8q-100 0 -191 95l70 85q22 -31 58.5 -52.5
t56.5 -21.5q29 0 50 15t21 47q0 15 -7.5 27.5t-25 23.5t-27 16t-33.5 15q-34 15 -53 26t-44.5 31t-37 47.5t-11.5 63.5q0 57 26.5 95t63.5 52t82 14q75 0 158 -69zM339 261q3 174 -87 174q-78 0 -78 -176q0 -174 77 -174q86 0 88 176zM449 261q0 -73 -16 -134.5t-58 -107
t-105 -45.5q-52 0 -96 57v-265h-112v784h112v-77q31 71 98 71q62 0 103.5 -43t57.5 -104t16 -136z" />
    <glyph glyph-name="Korea1.618" unicode="&#x33b1;" horiz-adv-x="891" 
d="M434 -9h-117v330q0 115 -70 115q-34 0 -50.5 -31.5t-16.5 -74.5v-339h-118v559h118v-71q39 63 97 63q157 0 157 -221v-330zM812 481l-60 -81q-53 48 -89 48q-29 0 -46 -16t-17 -41q0 -14 6.5 -25.5t20.5 -21.5t25 -16.5t31 -16t29 -14.5q36 -19 52.5 -30t36.5 -30
t28 -42.5t8 -56.5q0 -46 -17.5 -80.5t-45.5 -52.5t-57.5 -26t-60.5 -8q-101 0 -192 95l71 85q22 -31 58 -52.5t57 -21.5q29 0 50 15t21 47q0 15 -7.5 27.5t-25 23.5t-27 16t-33.5 15q-34 15 -53.5 26t-44.5 31t-37 47.5t-12 63.5q0 83 50.5 122t121.5 39q76 0 159 -69z" />
    <glyph glyph-name="Korea1.619" unicode="&#x33b2;" horiz-adv-x="927" 
d="M106 -238l-106 33l166 756l108 -29l-85 -383q-4 -16 6.5 -30.5t25.5 -20.5q20 -6 37.5 1t22.5 20l95 442l105 -31l-90 -409q-2 -13 4.5 -24t17.5 -11q17 0 27 29l61 -38l70 84q22 -31 58 -52.5t57 -21.5q29 0 50 15t21 47q0 15 -7.5 27.5t-25 23.5t-27 16t-33.5 15
q-34 15 -53.5 26t-44.5 31t-37 47.5t-12 63.5q0 83 50.5 122t121.5 39q76 0 159 -69l-60 -81q-53 48 -89 48q-29 0 -46 -16t-17 -41q0 -14 6.5 -25.5t20.5 -21.5t25 -16.5t31 -16t29 -14.5q36 -19 52.5 -30t36.5 -30t28 -42.5t8 -56.5q0 -46 -17.5 -80.5t-45.5 -52.5
t-57.5 -26t-60.5 -8q-95 0 -182 84q-15 -39 -43.5 -59t-62.5 -20q-45 0 -82 32q-38 -26 -98 -23q-38 6 -59 27z" />
    <glyph glyph-name="Korea1.620" unicode="&#x33b3;" horiz-adv-x="945" 
d="M870 481l-59 -81q-55 48 -89 48q-30 0 -46.5 -15.5t-16.5 -41.5q0 -14 6.5 -25.5t20 -21.5t24.5 -16.5t31.5 -16t28.5 -14.5q35 -19 52.5 -30t37.5 -30t27.5 -42.5t7.5 -56.5q0 -46 -17.5 -80.5t-45.5 -52.5t-57.5 -26t-59.5 -8q-101 0 -192 95l70 85q22 -31 58.5 -52.5
t56.5 -21.5q29 0 50 15t21 47q0 38 -64 69q-7 4 -22 10l-6 3q-34 15 -53.5 26t-44.5 31t-37 47.5t-12 63.5q0 57 26.5 95t63.5 52t82 14q75 0 158 -69zM492 -9h-96v362q0 80 -36 80q-35 0 -35 -80v-362h-96v362q0 80 -36 80t-36 -80v-362h-95v559h96v-72q30 61 86 61
q23 0 43 -19.5t31 -49.5q13 32 31.5 50.5t37.5 18.5q57 0 81 -51t24 -152v-345z" />
    <glyph glyph-name="Korea1.621" unicode="&#x33b4;" horiz-adv-x="909" 
d="M528 768l105 -526l108 526h118l-172 -777h-101l-176 777h118zM339 261q3 174 -87 174q-78 0 -78 -176q0 -174 77 -174q86 0 88 176zM449 261q0 -73 -16 -134.5t-58 -107t-105 -45.5q-52 0 -96 57v-265h-112v784h112v-77q31 71 98 71q62 0 103.5 -43t57.5 -104t16 -136z
" />
    <glyph glyph-name="Korea1.622" unicode="&#x33b5;" horiz-adv-x="909" 
d="M530 768l104 -526l108 526h119l-173 -777h-100l-176 777h118zM434 -9h-117v330q0 115 -70 115q-34 0 -50.5 -31.5t-16.5 -74.5v-339h-118v559h118v-71q39 63 97 63q157 0 157 -221v-330z" />
    <glyph glyph-name="Korea1.623" unicode="&#x33b6;" horiz-adv-x="945" 
d="M584 768l95 -526l99 526h119l-164 -777h-100l-167 777h118zM106 -238l-106 33l166 756l108 -29l-85 -383q-4 -16 6.5 -30.5t25.5 -20.5q20 -6 37.5 1t22.5 20l95 442l105 -31l-90 -409q-2 -13 4.5 -24t17.5 -11q17 0 27 29l72 -45q-15 -41 -44 -62.5t-64 -21.5
q-45 0 -82 32q-38 -26 -98 -23q-38 6 -59 27z" />
    <glyph glyph-name="Korea1.624" unicode="&#x33b7;" horiz-adv-x="949" 
d="M580 768l100 -526l104 526h119l-169 -777h-100l-171 777h117zM492 -9h-96v362q0 80 -36 80q-35 0 -35 -80v-362h-96v362q0 80 -36 80t-36 -80v-362h-95v559h96v-72q30 61 86 61q23 0 43 -19.5t31 -49.5q13 32 31.5 50.5t37.5 18.5q57 0 81 -51t24 -152v-345z" />
    <glyph glyph-name="Korea1.625" unicode="&#x33b8;" horiz-adv-x="891" 
d="M432 548l-150 -247l147 -310h-121l-100 204l-32 -51v-153h-114v777h114v-432l125 212h131zM518 768l100 -526l104 526h119l-169 -777h-101l-171 777h118z" />
    <glyph glyph-name="Korea1.626" unicode="&#x33b9;" horiz-adv-x="972" 
d="M613 768l95 -526l99 526h119l-164 -777h-101l-166 777h118zM475 765v-774h-99v438l-63 -281h-83l-65 279v-436h-103v774h104l107 -425l109 425h93z" />
    <glyph glyph-name="Korea1.627" unicode="&#x3380;" horiz-adv-x="945" 
d="M716 277l-50 248l-41 -248h91zM342 261q3 174 -87 174q-79 0 -79 -176q0 -174 78 -174q86 0 88 176zM571 -9h-118l167 777h100l174 -777h-120l-39 173h-131zM452 261q0 -73 -16 -134.5t-58 -107t-105 -45.5q-52 0 -97 57v-265h-111v784h111v-77q32 71 98 71
q63 0 104.5 -43t57.5 -104t16 -136z" />
    <glyph glyph-name="Korea1.628" unicode="&#x3381;" horiz-adv-x="963" 
d="M434 -9h-117v330q0 115 -70 115q-34 0 -50.5 -31.5t-16.5 -74.5v-339h-118v559h118v-71q39 63 97 63q157 0 157 -221v-330zM732 277l-51 248l-41 -248h92zM587 -9h-119l167 777h100l174 -777h-120l-38 173h-132z" />
    <glyph glyph-name="Korea1.629" unicode="&#x3382;" horiz-adv-x="954" 
d="M731 277l-43 245l-44 -245h87zM591 -9h-127q-26 -15 -55 -15q-46 0 -81 31q-43 -29 -103 -23q-12 1 -33 9.5t-29 18.5l-60 -241l-106 23l167 756l105 -29l-84 -382q-3 -17 8.5 -31.5t27.5 -20.5q21 -7 41.5 1.5t23.5 22.5q16 73 47 219.5t47 219.5q16 -5 51.5 -15
t55.5 -16l-89 -409q-3 -14 3 -24t17 -10q18 0 28 27l43 -28l150 693h100l164 -777h-119l-34 173h-125q-6 -33 -18.5 -95.5z" />
    <glyph glyph-name="Korea1.630" unicode="&#x3383;" horiz-adv-x="1012" 
d="M493 -9h-96v362q0 80 -36 80q-35 0 -35 -80v-362h-96v362q0 80 -36 80t-36 -80v-362h-95v556h96v-69q30 61 86 61q23 0 43 -19.5t31 -49.5q13 32 31.5 50.5t37.5 18.5q57 0 81 -51t24 -152v-345zM776 277l-51 248l-41 -248h92zM631 -9h-119l167 777h100l174 -777h-120
l-38 173h-132z" />
    <glyph glyph-name="Korea1.631" unicode="&#x3384;" horiz-adv-x="940" 
d="M433 548l-150 -247l147 -310h-121l-100 204l-32 -51v-153h-114v777h114v-432l124 212h132zM705 277l-51 248l-41 -248h92zM560 -9h-119l167 777h100l174 -777h-120l-38 173h-132z" />
    <glyph glyph-name="Korea1.632" unicode="&#x33ba;" horiz-adv-x="972" 
d="M819 767h106l-126 -776h-90l-48 387l-49 -387h-89l-125 776h105l62 -494l52 494h86l52 -500zM330 261q1 33 -0.5 55t-8.5 53.5t-25.5 48.5t-48.5 17q-23 0 -38.5 -15t-22.5 -42.5t-9.5 -54.5t-2.5 -64q0 -35 2 -60.5t9 -54t22.5 -44t39.5 -15.5q81 0 83 176zM440 261
q0 -54 -9 -102t-28 -91t-54.5 -68.5t-83.5 -25.5q-47 0 -91 57v-265h-112v784h112v-77q31 71 93 71q47 0 82 -24t54 -65.5t28 -89.5t9 -104z" />
    <glyph glyph-name="Korea1.633" unicode="&#x33bb;" horiz-adv-x="990" 
d="M840 767h106l-126 -776h-90l-49 387l-48 -387h-89l-126 776h106l62 -494l52 494h86l52 -500zM434 -9h-117v330q0 115 -70 115q-34 0 -50.5 -31.5t-16.5 -74.5v-339h-118v559h118v-71q39 63 97 63q157 0 157 -221v-330z" />
    <glyph glyph-name="Korea1.634" unicode="&#x33bc;" horiz-adv-x="1026" 
d="M872 767h106l-126 -776h-90l-48 387l-49 -387h-89l-125 776h105l62 -494l52 494h86l52 -500zM99 -238l-103 33l161 756l104 -29l-82 -383q-3 -16 7 -30.5t25 -20.5q20 -6 36.5 1t20.5 20l92 442l103 -31l-88 -409q-2 -14 4.5 -24.5t16.5 -10.5q16 0 26 29l69 -45
q-14 -41 -42 -62.5t-62 -21.5q-45 0 -79 32q-36 -26 -95 -23q-12 2 -30 10t-27 17z" />
    <glyph glyph-name="Korea1.635" unicode="&#x33bd;" horiz-adv-x="1035" 
d="M883 767h106l-126 -776h-90l-49 387l-48 -387h-89l-125 776h105l62 -494l52 494h86l52 -500zM483 -9h-97v362q0 42 -7.5 61t-25.5 19q-33 0 -33 -80v-362h-96v362q0 80 -32 80q-34 0 -34 -80v-362h-96v559h97v-72q28 61 81 61q23 0 43.5 -19.5t30.5 -49.5q12 33 29.5 51
t35.5 18q56 0 80 -51.5t24 -151.5v-345z" />
    <glyph glyph-name="Korea1.636" unicode="&#x33be;" horiz-adv-x="990" 
d="M832 767h106l-126 -776h-90l-49 387l-48 -387h-90l-125 776h106l62 -494l52 494h85l53 -500zM436 548l-151 -247l148 -310h-122l-100 204l-31 -51v-153h-114v777h114v-432l124 212h132z" />
    <glyph glyph-name="Korea1.637" unicode="&#x33bf;" horiz-adv-x="1035" 
d="M877 767h107l-121 -776h-90l-45 387l-45 -387h-89l-120 776h106l56 -494l49 494h85l49 -500zM442 765v-774h-94v438l-54 -281h-78l-57 279v-436h-97v774h98l96 -425l99 425h87z" />
    <glyph glyph-name="Korea1.638" unicode="&#x3390;" horiz-adv-x="873" 
d="M815 93v-102h-320v84l-1 -1l183 369h-170v104h308v-84l-190 -370h190zM445 767v-776h-116v353h-152v-353h-114v776h114v-313h152v313h116z" />
    <glyph glyph-name="Korea1.639" unicode="&#x3391;" horiz-adv-x="990" 
d="M937 94v-103h-265v81l149 371h-137v103h244v-88l-150 -364h159zM633 767v-776h-96v355h-85v-355h-96v776h96v-315h85v315h96zM229 308l108 -317h-92l-74 225l-13 -23v-202h-95v776h95v-404l89 184h98z" />
    <glyph glyph-name="Korea1.640" unicode="&#x3392;" horiz-adv-x="1017" 
d="M966 97v-106h-229v81l117 370h-106v108h209v-87l-122 -366h131zM710 766v-775h-96v360h-75v-360h-95v775h95v-307h75v307h96zM407 766v-775h-87v442l-56 -271h-58l-55 270v-441h-89v775h87l87 -410l86 410h85z" />
    <glyph glyph-name="Korea1.641" unicode="&#x3393;" horiz-adv-x="999" 
d="M950 97v-106h-228v81l117 370h-106v108h208v-87l-121 -366h130zM699 766v-775h-96v360h-75v-360h-95v775h95v-307h75v307h96zM394 398v-338q-50 -82 -150 -82q-103 0 -147 97t-44 296q0 72 9 137t29 127.5t60 99.5t96 37q62 0 96.5 -35.5t52.5 -96.5l-81 -53
q-28 81 -68 81q-23 0 -41.5 -29t-28 -75.5t-14.5 -95.5t-5 -97q0 -289 88 -289q27 0 49 22v189h-87v105h186z" />
    <glyph glyph-name="Korea1.642" unicode="&#x3394;" horiz-adv-x="967" 
d="M349 769v-104h-112v-675h-102v675h-117v104h331zM919 97v-106h-247v81l135 370h-124v108h227v-87l-140 -366h149zM645 766v-775h-96v360h-75v-360h-95v775h95v-307h75v307h96z" />
    <glyph glyph-name="Korea1.643" unicode="&#x2126;" horiz-adv-x="804" 
d="M354 232v-232h-263v113h141v49q-168 94 -168 270q0 83 28.5 146.5t76 99t102.5 52.5t115 17q132 0 227.5 -83t95.5 -231q0 -186 -176 -277v-43h146v-113h-266v232q158 52 158 201q0 95 -55.5 149.5t-129.5 54.5q-75 0 -130 -53.5t-55 -151.5q0 -154 153 -200z" />
    <glyph glyph-name="Korea1.644" unicode="&#x33c0;" horiz-adv-x="1017" 
d="M676 226v-235h-194v105h103v60q-65 38 -102.5 115.5t-37.5 175.5q0 156 74 240t181 84t182.5 -86t75.5 -237q0 -104 -40.5 -184t-104.5 -113v-55h104v-105h-193v237q61 23 94.5 81.5t33.5 138.5q0 103 -39.5 159t-112.5 56q-65 0 -106.5 -61.5t-41.5 -154.5
q0 -164 124 -221zM432 548l-150 -247l147 -310h-121l-100 204l-32 -51v-153h-114v777h114v-432l125 212h131z" />
    <glyph glyph-name="Korea1.645" unicode="&#x33c1;" horiz-adv-x="1053" 
d="M443 765v-774h-94v438l-54 -281h-78l-57 279v-436h-97v774h98l95 -425l99 425h88zM715 226v-235h-194v105h103v60q-66 38 -103.5 115.5t-37.5 175.5q0 156 74.5 240t181.5 84t182 -86t75 -237q0 -104 -40.5 -184t-104.5 -113v-55h105v-105h-194v237q61 23 95 81.5
t34 138.5q0 103 -39.5 159t-112.5 56q-65 0 -107 -62t-42 -154q0 -163 125 -221z" />
    <glyph glyph-name="Korea1.646" unicode="&#x338a;" horiz-adv-x="918" 
d="M857 766v-110h-241v-210h214v-109h-214v-346h-110v775h351zM340 261q3 174 -87 174q-78 0 -78 -176q0 -174 77 -174q86 0 88 176zM450 261q0 -73 -16 -134.5t-58 -107t-105 -45.5q-22 0 -48.5 15t-47.5 42v-265h-112v784h112v-77q31 71 98 71q62 0 103.5 -43t57.5 -104
t16 -136z" />
    <glyph glyph-name="Korea1.647" unicode="&#x338b;" horiz-adv-x="927" 
d="M868 766v-110h-240v-210h213v-109h-213v-346h-111v775h351zM444 -9h-117v330q0 115 -74 115q-35 0 -53.5 -32t-18.5 -74v-339h-117v559h117v-71q38 63 100 63q85 0 124 -61.5t39 -159.5v-330z" />
    <glyph glyph-name="Korea1.648" unicode="&#x338c;" horiz-adv-x="958" 
d="M547 -9v775h351v-110h-240v-210h216v-109h-216v-346h-111zM106 -238l-106 33l166 756l108 -29l-85 -383q-4 -16 6.5 -30.5t25.5 -20.5q20 -6 37.5 1t22.5 20l95 442l105 -31l-90 -409q-2 -13 4.5 -24t17.5 -11q17 0 27 29l72 -45q-15 -41 -44 -62.5t-64 -21.5
q-45 0 -82 32q-38 -26 -98 -23q-38 6 -59 27z" />
    <glyph glyph-name="Korea1.649" unicode="&#x33d6;" horiz-adv-x="1026" 
d="M959 -9h-102v776h102v-776zM464 -9h-95v362q0 44 -6 62t-25 18q-28 0 -28 -80v-362h-94v362q0 43 -6.5 61.5t-23.5 18.5q-29 0 -29 -80v-362h-94v559h95v-72q28 61 77 61q22 0 40.5 -19.5t28.5 -49.5q12 33 29.5 51t35.5 18q55 0 75 -50t20 -153v-345zM817 264
q0 -136 -39 -209.5t-117 -73.5q-77 0 -116.5 74t-39.5 209t39.5 209.5t116.5 74.5q81 0 118.5 -77t37.5 -207zM718 264q-2 97 -14.5 143.5t-42.5 46.5q-31 0 -43.5 -48t-12.5 -142q0 -93 12.5 -139t43.5 -46q59 0 57 185z" />
    <glyph glyph-name="Korea1.650" unicode="&#x33c5;" horiz-adv-x="927" 
d="M563 266q0 -28 3.5 -55t12.5 -55.5t29 -46.5t48 -18q43 0 63.5 51.5t20.5 125.5q0 41 -7 78t-27 66t-49 29q-46 0 -69.5 -54t-24.5 -121zM459 266q0 70 17.5 132.5t59.5 107.5t102 45q23 0 52.5 -15.5t49.5 -42.5v274h106v-771h-106v43q-18 -29 -48 -44.5t-56 -15.5
q-59 0 -100.5 43t-59 106t-17.5 138zM434 482l-65 -84q-37 40 -98 40q-50 0 -80.5 -50.5t-30.5 -121.5q0 -74 30.5 -124t82.5 -50q66 0 100 45q17 -22 69 -78q-31 -39 -78 -60.5t-91 -21.5q-108 0 -166.5 85t-58.5 204q0 136 61 210.5t162 74.5q91 0 163 -69z" />
    <glyph glyph-name="Korea1.651" unicode="&#x33ad;" horiz-adv-x="963" 
d="M574 364v-374h-88l-7 48q-15 -26 -37 -42.5t-45 -16.5q-56 0 -87.5 41.5t-31.5 128.5q0 34 11.5 67.5t34 62t60.5 43t85 7.5q0 61 -12.5 82.5t-36.5 21.5t-56 -27l-41 54l-59 -79q-14 26 -25 38t-27 12q-48 0 -48 -97v-343h-100v559h100v-70q11 26 33 42t41 16
q26 0 43 -12t37 -37q58 52 110 52q68 0 107 -53.5t39 -123.5zM607 264q0 279 127 279q19 0 39.5 -15.5t31.5 -44.5v284h94v-776h-94v56q-11 -26 -32.5 -41.5t-39.5 -15.5q-126 0 -126 274zM704 264q0 -165 47 -165q22 0 37 43.5t15 121.5q0 76 -15.5 123.5t-37.5 47.5
q-46 0 -46 -171zM478 192v38q-96 13 -96 -76q0 -64 40 -64q56 0 56 102z" />
    <glyph glyph-name="Korea1.652" unicode="&#x33ae;" horiz-adv-x="1053" 
d="M304 399v49q-7 1 -17 1q-23 4 -39.5 -19.5t-15.5 -59.5q0 -29 6.5 -46t12 -21t11.5 -4q42 0 42 100zM470 454q0 -62 3.5 -96t9 -43.5t13.5 -9.5q30 0 30 147q0 57 -4.5 96.5t-11 56.5t-14.5 17q-26 0 -26 -168zM752 805h79l-185 -867h-79zM1000 115q0 -63 -32.5 -103.5
t-86.5 -40.5q-68 0 -147 107l61 65q27 -44 47 -64t39 -20q36 0 36 55q0 38 -66 94q-91 81 -91 160q0 60 30.5 99t77.5 39q33 0 57 -20t54 -60l-55 -70q-16 30 -30 46t-26 15q-27 -3 -27 -50q1 -44 56 -84q57 -47 80 -92t23 -76zM607 923v-706h-81v18q-14 -28 -38 -28
q-46 0 -70.5 53.5t-24.5 193.5q0 265 95 265q22 0 38 -25v229h81zM377 564v-347h-73v17q-18 -27 -43 -27q-107 0 -102 161q2 85 44 131.5t101 36.5v26q0 62 -20 62t-44 -64l-45 48q-3 -6 -20 -31q-5 18 -14 33t-13 15q-7 0 -13 -19t-10 -56t-4 -84v-249h-80v501h80v-24
q17 25 31 25q35 0 58 -60q36 60 74 60q93 0 93 -155z" />
    <glyph glyph-name="Korea1.653" unicode="&#x33af;" horiz-adv-x="1065" 
d="M304 399v49q-7 1 -17 1q-23 4 -39.5 -19.5t-15.5 -59.5q0 -29 6.5 -46t12 -21t11.5 -4q42 0 42 100zM470 454q0 -62 3.5 -96t9 -43.5t13.5 -9.5q30 0 30 147q0 57 -4.5 96.5t-11 56.5t-14.5 17q-26 0 -26 -168zM752 805h79l-185 -867h-79zM1000 115q0 -63 -32.5 -103.5
t-86.5 -40.5q-68 0 -147 107l61 65q27 -44 47 -64t39 -20q36 0 36 55q0 38 -66 94q-91 81 -91 160q0 60 30.5 99t77.5 39q33 0 57 -20t54 -60l-55 -70q-16 30 -30 46t-26 15q-27 -3 -27 -50q1 -44 56 -84q57 -47 80 -92t23 -76zM607 923v-706h-81v18q-14 -28 -38 -28
q-46 0 -70.5 53.5t-24.5 193.5q0 265 95 265q22 0 38 -25v229h81zM377 564v-347h-73v17q-18 -27 -43 -27q-107 0 -102 161q2 85 44 131.5t101 36.5v26q0 62 -20 62t-44 -64l-45 48q-3 -6 -20 -31q-5 18 -14 33t-13 15q-7 0 -13 -19t-10 -56t-4 -84v-249h-80v501h80v-24
q17 25 31 25q35 0 58 -60q36 60 74 60q93 0 93 -155zM1015 592v-60h-147v50l63 78q24 29 24 58q0 11 -7.5 18t-16.5 7q-19 0 -31 -40l-50 18q24 82 87 82q33 0 54.5 -23t21.5 -56q0 -43 -35 -93l-29 -39h66z" />
    <glyph glyph-name="Korea1.654" unicode="&#x33db;" horiz-adv-x="837" 
d="M807 469l-73 -87q-38 50 -78 50q-33 0 -54.5 -25t-21.5 -97v-319h-116v559h116v-62q35 53 85 53q72 0 142 -72zM389 481l-60 -81q-53 48 -89 48q-29 0 -46 -16t-17 -41q0 -14 6.5 -25.5t20.5 -21.5t25 -16.5t31 -16t29 -14.5q36 -19 52.5 -30t36.5 -30t28 -42.5t8 -56.5
q0 -46 -17.5 -80.5t-45.5 -52.5t-57.5 -26t-60.5 -8q-101 0 -192 95l71 85q22 -31 58 -52.5t57 -21.5q29 0 50 15t21 47q0 15 -7.5 27.5t-25 23.5t-27 16t-33.5 15q-34 15 -53.5 26t-44.5 31t-37 47.5t-12 63.5q0 83 50.5 122t121.5 39q76 0 159 -69z" />
    <glyph glyph-name="Korea1.655" unicode="&#x33a9;" horiz-adv-x="900" 
d="M719 196v30q-36 6 -68 6q-59 0 -83 -22t-24 -51q0 -28 21 -48.5t50 -20.5q43 1 73.5 36.5t30.5 69.5zM338 521q0 55 -24.5 98.5t-80.5 43.5h-59v-284h59q56 0 80.5 42.5t24.5 99.5zM825 343v-352h-98l-6 61q-59 -72 -130 -72q-72 0 -116 46t-44 133q0 64 52 118.5
t161 54.5q33 0 75 -7v16q0 32 -21.5 64t-68.5 37q-57 0 -109 -52q-12 16 -33.5 45.5t-25.5 34.5q82 80 182 80q54 0 92.5 -19.5t56.5 -52.5t25.5 -65.5t7.5 -69.5zM445 521q0 -104 -57 -175t-168 -71h-46v-284h-112v777h160q111 0 167 -71.5t56 -175.5z" />
    <glyph glyph-name="Korea1.656" unicode="&#x33aa;" horiz-adv-x="981" 
d="M823 193v38q-17 4 -45 4q-59 0 -59 -80q0 -64 38 -64q26 1 42 21t20 40t4 41zM567 529q0 50 -16 93t-44 43h-37v-281h37q28 0 44 46t16 99zM919 382v-391h-79l-9 62q-10 -36 -37 -54.5t-52 -18.5q-57 0 -89 41.5t-32 128.5q0 31 6.5 58.5t21.5 56t47 45.5t77 17
q32 0 50 -4v37q0 38 -14 58.5t-36 20.5q-5 0 -9.5 -0.5t-9 -1.5t-7.5 -1.5t-7.5 -3t-6 -3t-7 -4t-6 -4t-7 -4.5t-7.5 -5l-43 59q-8 -51 -25 -92.5t-50 -72.5t-75 -31h-43v-284h-99v774h133q74 0 119.5 -69t45.5 -167l-1 -27q58 47 105 47q68 0 107 -49t39 -118zM229 308
l108 -317h-92l-74 225l-13 -23v-202h-95v776h95v-404l89 184h98z" />
    <glyph glyph-name="Korea1.657" unicode="&#x33ab;" horiz-adv-x="1053" 
d="M892 193v38q-17 4 -44 4q-28 0 -44 -20.5t-16 -59.5q0 -64 38 -64q26 1 42 21t20 40t4 41zM636 529q0 50 -16 93t-44 43h-37v-281h37q28 0 44 46t16 99zM988 382v-391h-79l-9 62q-10 -36 -36.5 -54.5t-52.5 -18.5q-56 0 -88.5 42t-32.5 128q0 31 6.5 58.5t21.5 56
t47 45.5t77 17q32 0 50 -4v37q0 38 -14 58.5t-36 20.5q-15 0 -27 -4t-18 -8t-21 -15l-43 59q-14 -81 -51.5 -138.5t-99.5 -57.5h-43v-284h-99v774h133q74 0 119.5 -69t45.5 -167l-1 -27q60 47 105 47q69 0 107.5 -49t38.5 -118zM407 766v-775h-87v442l-56 -271h-58l-55 270
v-441h-89v775h87l87 -410l86 410h85z" />
    <glyph glyph-name="Korea1.658" unicode="&#x33ac;" horiz-adv-x="1044" 
d="M388 398v-338q-51 -82 -150 -82q-103 0 -147 97t-44 296q0 72 9 137t29 127.5t60 99.5t96 37q62 0 96.5 -35.5t52.5 -96.5l-81 -53q-28 81 -68 81q-23 0 -41.5 -29t-28 -75.5t-14.5 -95.5t-5 -97q0 -289 87 -289q28 0 50 22v189h-87v105h186zM884 193v38q-17 4 -44 4
q-28 0 -44 -20.5t-16 -59.5q0 -64 38 -64q26 1 42 21t20 40t4 41zM628 529q0 50 -16 93t-44 43h-37v-281h37q28 0 44 46t16 99zM980 382v-391h-79l-9 62q-10 -36 -36.5 -54.5t-52.5 -18.5q-56 0 -88.5 42t-32.5 128q0 31 6.5 58.5t21.5 56t47 45.5t77 17q32 0 50 -4v37
q0 38 -14 58.5t-36 20.5q-15 0 -27 -4t-18 -8t-21 -15l-44 59q-8 -51 -25 -92.5t-50 -72.5t-75 -31h-43v-284h-99v774h133q74 0 119.5 -69t45.5 -167l-1 -27q58 47 105 47q69 0 107.5 -49t38.5 -118z" />
    <glyph glyph-name="Korea1.659" unicode="&#x33dd;" horiz-adv-x="981" 
d="M824 262q-2 175 -79 175q-23 0 -38 -15.5t-21 -45t-8 -53.5t-2 -59q0 -39 2 -65.5t8.5 -54.5t21.5 -42.5t38 -14.5q28 0 45.5 17t24 49t8 53.5t0.5 55.5zM930 262q0 -77 -14 -138t-52.5 -105t-98.5 -44q-23 0 -47 15.5t-42 45.5v-45h-103v776h103v-278q40 57 87 57
q46 0 80 -25.5t52 -68t26.5 -90t8.5 -100.5zM443 767h106l-121 -776h-90l-45 387l-45 -387h-89l-119 776h105l57 -494l48 494h86l48 -500z" />
    <glyph glyph-name="Korea1.660" unicode="&#x33d0;" horiz-adv-x="819" 
d="M176 -9h-113v776h113v-776zM746 -9h-101v362q0 39 -13 59.5t-33 20.5q-16 0 -29.5 -21t-13.5 -59v-362h-102v362q0 39 -13 59.5t-32 20.5q-17 0 -30 -21t-13 -59v-362h-103v556h104v-69q14 30 40 45.5t54 15.5q23 0 50.5 -22.5t37.5 -51.5q12 32 35 53t43 21
q57 0 88 -53.5t31 -149.5v-345z" />
    <glyph glyph-name="Korea1.661" unicode="&#x33d3;" horiz-adv-x="747" 
d="M178 -9h-114v775h114v-775zM530 273l166 -282h-134l-99 168l-97 -168h-135l166 283l-163 274h134l97 -167l95 167h136z" />
    <glyph glyph-name="Korea1.662" unicode="&#x33c3;" horiz-adv-x="937" 
d="M319 553q0 108 -81 108h-68v-213h77q72 0 72 105zM340 219q0 124 -93 124h-77v-246h77q93 0 93 122zM445 219q0 -47 -10 -84.5t-24 -60.5t-35 -40t-37.5 -25t-38.5 -12.5t-31.5 -5t-21.5 -0.5h-185v776h176q91 0 138.5 -59t47.5 -155q0 -100 -72 -150q46 -23 69.5 -74.5
t23.5 -109.5zM590 261q2 -176 89 -176q77 0 77 174q0 176 -78 176q-91 0 -88 -174zM481 261q0 76 16 136.5t57 103.5t104 43q67 0 98 -71v77h112v-784h-112v265q-45 -57 -96 -57q-48 0 -84 25.5t-56 68.5t-29.5 91.5t-9.5 101.5z" />
    <glyph glyph-name="Korea1.663" unicode="&#x33c9;" horiz-adv-x="936" 
d="M465 397v-302q-16 -45 -70 -81t-112 -36q-110 0 -172 107.5t-62 278.5q0 113 27 205.5t81 148.5t126 56q67 0 112 -34.5t65 -79.5l-70 -62q-39 62 -107 62q-57 0 -90.5 -88.5t-34.5 -207.5q-1 -122 32.5 -196.5t83.5 -74.5q70 0 95 43v159h-110v102h206zM685 184l91 355
h115l-199 -677q-14 -47 -52 -72.5t-78 -25.5h-76v102h67q37 0 43 26l30 112l-153 535h116z" />
    <glyph glyph-name="Korea1.664" unicode="&#x33dc;" horiz-adv-x="945" 
d="M789 548h109l-161 -557h-93l-162 557h111l97 -371zM476 691l-53 -81q-26 22 -65.5 39t-65.5 17q-46 0 -70 -28t-24 -73q0 -23 15 -44.5t31 -32.5t45 -28t37 -23q87 -49 128 -103t41 -133q0 -114 -66 -170.5t-149 -56.5q-119 0 -230 120l67 84q32 -36 75.5 -62.5
t74.5 -26.5q45 0 78 28t33 84q0 64 -101 122q-44 25 -70 42t-58.5 46.5t-48.5 67t-16 83.5q0 108 58.5 160.5t138.5 52.5q99 0 195 -84z" />
    <glyph glyph-name="Korea1.665" unicode="&#x33c6;" horiz-adv-x="1028" 
d="M687 -170l54 69q35 -37 65 -37q28 0 45 33t17 89v22q-23 -30 -54 -30q-130 0 -130 273q0 271 130 271q33 0 54 -24v24h89v-540q0 -96 -41.5 -151t-109.5 -55q-63 0 -119 56zM356 814h83l-78 -885h-87l12 130q-33 -48 -89 -48q-77 0 -117 81t-40 274q0 188 42 282.5
t115 94.5q77 0 121 -110l-72 -52q-24 72 -49 72q-30 0 -45.5 -91t-15.5 -197q0 -111 16 -186.5t45 -75.5q30 0 46 54l49 -35zM545 195l-14 -31v-173h-86v696h86v-350l77 183h88l-94 -232l106 -297h-90zM823 438q-25 0 -36.5 -55.5t-11.5 -133.5q0 -75 12 -130.5t36 -55.5
t34.5 28t10.5 90v137q0 120 -45 120z" />
    <glyph glyph-name="Korea1.666" unicode="&#xc6;" horiz-adv-x="875" 
d="M840 103v-112h-432v183h-151l-94 -183h-132l381 779h420v-112h-301v-211h284v-113h-284v-231h309zM299 279h109v224z" />
    <glyph glyph-name="Korea1.667" unicode="&#xd0;" horiz-adv-x="747" 
d="M123 770h236q151 0 243.5 -116t92.5 -278q0 -161 -93 -273t-243 -112h-236v330h-100v115h100v334zM252 103h103q97 0 151 78t54 195q0 125 -55 203.5t-150 78.5h-103v-222h150v-115h-150v-218z" />
    <glyph glyph-name="Korea1.668" unicode="&#xaa;" horiz-adv-x="533" 
d="M161 710l-60 73q61 49 150 49q78 0 133.5 -42t55.5 -119v-185q0 -36 20 -100h-132l-10 40q-33 -51 -118 -51q-62 0 -99.5 42.5t-37.5 104.5q0 55 32 90.5t78.5 48.5t107.5 13q24 0 35 -1q-7 59 -71 59q-43 0 -84 -22zM222 480q96 0 96 80v28q-25 -1 -40.5 -3t-40.5 -8
t-38 -19.5t-13 -34.5q0 -17 10 -30t26 -13zM473 234h-413v97h413v-97z" />
    <glyph glyph-name="Korea1.669" unicode="&#x126;" horiz-adv-x="733" 
d="M627 770v-119h87v-109h-87v-551h-128v331h-267v-331h-129v551h-87v109h87v119h129v-119h267v119h128zM232 433h267v109h-267v-109z" />
    <glyph glyph-name="Korea1.670" unicode="&#x132;" horiz-adv-x="687" 
d="M197 770v-779h-130v779h130zM238 46l56 99q60 -53 121 -53q43 0 63.5 23t20.5 80v575h129v-584q0 -92 -61 -153.5t-143 -61.5q-86 0 -186 75z" />
    <glyph glyph-name="Korea1.671" unicode="&#x13f;" horiz-adv-x="589" 
d="M544 103v-112h-448v779h129v-667h319zM490 521v-147h-139v147h139z" />
    <glyph glyph-name="Korea1.672" unicode="&#x141;" horiz-adv-x="653" 
d="M625 103v-112h-450v195l-38 -49h-133l171 221v412h128v-245l79 103h133l-212 -275v-250h322z" />
    <glyph glyph-name="Korea1.673" unicode="&#xd8;" horiz-adv-x="774" 
d="M64 375q0 112 33.5 201.5t107.5 146.5t177 57q30 0 65 -7l18 60h141l-36 -115q67 -53 104 -144.5t37 -198.5q0 -81 -21.5 -153t-61.5 -128t-103.5 -88.5t-142.5 -32.5q-16 0 -46 4l-33 -100h-138l46 146q-72 49 -109.5 143.5t-37.5 208.5zM193 375q0 -146 60 -223
l158 509q-12 3 -29 3q-88 0 -138.5 -84.5t-50.5 -204.5zM371 86h12q93 0 142 85t49 204q0 123 -49 204z" />
    <glyph glyph-name="Korea1.674" unicode="&#x152;" horiz-adv-x="873" 
d="M841 -9h-400q-56 -21 -113 -21q-138 0 -225 117.5t-87 290.5q0 113 38 207t112.5 151.5t170.5 57.5q39 0 75 -8h420v-114h-325v-215h306v-112h-306v-241h334v-113zM154 378q0 -81 19 -142.5t69.5 -104t128.5 -44.5v584q-7 1 -20 1q-66 0 -112.5 -45.5t-65.5 -110
t-19 -138.5z" />
    <glyph glyph-name="Korea1.675" unicode="&#xba;" horiz-adv-x="533" 
d="M262 722q-34 0 -59 -34.5t-25 -89.5q0 -48 23.5 -85t60.5 -37q36 0 59 37t23 85q0 49 -22 86.5t-60 37.5zM262 826q92 0 151 -62.5t59 -165.5q0 -104 -58.5 -165t-151.5 -61q-102 0 -156.5 64t-54.5 162q0 103 59.5 165.5t151.5 62.5zM473 234h-413v97h413v-97z" />
    <glyph glyph-name="Korea1.676" unicode="&#xde;" horiz-adv-x="586" 
d="M189 780v-134h117q105 0 177.5 -73t72.5 -183q0 -109 -73 -181.5t-177 -72.5h-117v-145h-130v789h130zM315 529h-126v-276h126q51 0 86 38.5t35 98.5q0 61 -35 100t-86 39z" />
    <glyph glyph-name="Korea1.677" unicode="&#x166;" horiz-adv-x="599" 
d="M571 780v-112h-207v-213h164v-110h-164v-354h-128v354h-162v110h162v213h-209v112h544z" />
    <glyph glyph-name="Korea1.678" unicode="&#x14a;" horiz-adv-x="713" 
d="M220 -181l66 106q72 -61 122 -61q43 0 67 29.5t24 88.5l-279 551v-542h-129v780h135l267 -536v536h129v-795q0 -91 -62 -160t-144 -69q-100 0 -196 72z" />
    <glyph glyph-name="Korea1.679" unicode="&#x3260;" horiz-adv-x="1142" 
d="M837 101h-123v326h-438v99h519q42 0 42 -36v-389zM69 330q0 203 147 350q148 145 354 145t354 -145q146 -146 146 -350q0 -99 -38.5 -190t-107.5 -158q-150 -147 -354 -147t-354 147q-69 68 -108 158.5t-39 189.5zM142 330q0 -88 33 -166.5t91 -136.5q125 -125 304 -125
t304 125q58 58 91 136.5t33 166.5q0 176 -124 305q-126 124 -304 124t-304 -124q-124 -129 -124 -305z" />
    <glyph glyph-name="Korea1.680" unicode="&#x3261;" horiz-adv-x="1142" 
d="M418 522v-282h443v-98h-468q-53 0 -75.5 18.5t-22.5 62.5v299h123zM69 330q0 203 147 350q148 145 354 145t354 -145q146 -146 146 -350q0 -99 -38.5 -190t-107.5 -158q-150 -147 -354 -147t-354 147q-69 68 -108 158.5t-39 189.5zM142 330q0 -88 33 -166.5t91 -136.5
q125 -125 304 -125t304 125q58 58 91 136.5t33 166.5q0 176 -124 305q-126 124 -304 124t-304 -124q-124 -129 -124 -305z" />
    <glyph glyph-name="Korea1.681" unicode="&#x3262;" horiz-adv-x="1142" 
d="M403 413v-189h443v-98h-468q-53 0 -75.5 19t-22.5 62v304h557v-98h-434zM69 330q0 203 147 350q148 145 354 145t354 -145q146 -146 146 -350q0 -99 -38.5 -190t-107.5 -158q-150 -147 -354 -147t-354 147q-69 68 -108 158.5t-39 189.5zM142 330q0 -88 33 -166.5
t91 -136.5q125 -125 304 -125t304 125q58 58 91 136.5t33 166.5q0 176 -124 305q-126 124 -304 124t-304 -124q-124 -129 -124 -305z" />
    <glyph glyph-name="Korea1.682" unicode="&#x3263;" horiz-adv-x="1142" 
d="M849 531v-256h-442v-72h456v-98h-482q-52 0 -74.5 19t-22.5 63v186h443v58h-443v100h565zM69 330q0 203 147 350q148 145 354 145t354 -145q146 -146 146 -350q0 -99 -38.5 -190t-107.5 -158q-150 -147 -354 -147t-354 147q-69 68 -108 158.5t-39 189.5zM142 330
q0 -88 33 -166.5t91 -136.5q125 -125 304 -125t304 125q58 58 91 136.5t33 166.5q0 176 -124 305q-126 124 -304 124t-304 -124q-124 -129 -124 -305z" />
    <glyph glyph-name="Korea1.683" unicode="&#x3264;" horiz-adv-x="1142" 
d="M853 508v-390h-470q-52 0 -74.5 18.5t-22.5 62.5v309h567zM731 216v193h-323v-193h323zM69 330q0 203 147 350q148 145 354 145t354 -145q146 -146 146 -350q0 -99 -38.5 -190t-107.5 -158q-150 -147 -354 -147t-354 147q-69 68 -108 158.5t-39 189.5zM142 330
q0 -88 33 -166.5t91 -136.5q125 -125 304 -125t304 125q58 58 91 136.5t33 166.5q0 176 -124 305q-126 124 -304 124t-304 -124q-124 -129 -124 -305z" />
    <glyph glyph-name="Korea1.684" unicode="&#x3265;" horiz-adv-x="1142" 
d="M731 522h124v-408h-470q-52 0 -74.5 19t-22.5 62v327h122v-122h321v122zM731 302h-321v-90h321v90zM69 330q0 203 147 350q148 145 354 145t354 -145q146 -146 146 -350q0 -99 -38.5 -190t-107.5 -158q-150 -147 -354 -147t-354 147q-69 68 -108 158.5t-39 189.5z
M142 330q0 -88 33 -166.5t91 -136.5q125 -125 304 -125t304 125q58 58 91 136.5t33 166.5q0 176 -124 305q-126 124 -304 124t-304 -124q-124 -129 -124 -305z" />
    <glyph glyph-name="Korea1.685" unicode="&#x3266;" horiz-adv-x="1142" 
d="M516 584h137q-11 -91 -47 -159q72 -19 120 -55.5t109 -110t92 -104.5h-158q-16 17 -48.5 54.5t-53 59.5t-50.5 46t-56 34q-93 -128 -268 -211l-66 74q101 54 184 148t105 224zM69 330q0 203 147 350q148 145 354 145t354 -145q146 -146 146 -350q0 -99 -38.5 -190
t-107.5 -158q-150 -147 -354 -147t-354 147q-69 68 -108 158.5t-39 189.5zM142 330q0 -88 33 -166.5t91 -136.5q125 -125 304 -125t304 125q58 58 91 136.5t33 166.5q0 176 -124 305q-126 124 -304 124t-304 -124q-124 -129 -124 -305z" />
    <glyph glyph-name="Korea1.686" unicode="&#x3267;" horiz-adv-x="1142" 
d="M571 553q124 0 205.5 -59t81.5 -170q0 -110 -81.5 -168.5t-205.5 -58.5t-205.5 58.5t-81.5 168.5q0 112 81.5 170.5t205.5 58.5zM571 459q-75 0 -119 -36.5t-44 -98.5q0 -61 44 -97t119 -36q77 0 121.5 35.5t44.5 97.5t-44.5 98.5t-121.5 36.5zM69 330q0 203 147 350
q148 145 354 145t354 -145q146 -146 146 -350q0 -99 -38.5 -190t-107.5 -158q-150 -147 -354 -147t-354 147q-69 68 -108 158.5t-39 189.5zM142 330q0 -88 33 -166.5t91 -136.5q125 -125 304 -125t304 125q58 58 91 136.5t33 166.5q0 176 -124 305q-126 124 -304 124
t-304 -124q-124 -129 -124 -305z" />
    <glyph glyph-name="Korea1.687" unicode="&#x3268;" horiz-adv-x="1142" 
d="M316 108l-66 78q27 12 65.5 38.5t91 81.5t82.5 117h-199v96h559v-96h-213q-7 -23 -21 -43q52 -19 97 -57t107 -109.5t80 -89.5h-148q-19 20 -62 68.5t-69.5 73t-54.5 38.5q-93 -118 -249 -196zM69 330q0 203 147 350q148 145 354 145t354 -145q146 -146 146 -350
q0 -99 -38.5 -190t-107.5 -158q-150 -147 -354 -147t-354 147q-69 68 -108 158.5t-39 189.5zM142 330q0 -88 33 -166.5t91 -136.5q125 -125 304 -125t304 125q58 58 91 136.5t33 166.5q0 176 -124 305q-126 124 -304 124t-304 -124q-124 -129 -124 -305z" />
    <glyph glyph-name="Korea1.688" unicode="&#x3269;" horiz-adv-x="1142" 
d="M296 458h547v-95h-198q-18 -30 -26 -40q40 -12 78 -35t62 -44t70.5 -65t76.5 -70h-163q-13 12 -38.5 36t-39.5 37t-34 30t-36 27.5t-31 17.5q-90 -89 -248 -163l-66 76q166 80 242 193h-196v95zM709 577v-88q-188 0 -283 26v100q104 -38 283 -38zM69 330q0 203 147 350
q148 145 354 145t354 -145q146 -146 146 -350q0 -99 -38.5 -190t-107.5 -158q-150 -147 -354 -147t-354 147q-69 68 -108 158.5t-39 189.5zM142 330q0 -88 33 -166.5t91 -136.5q125 -125 304 -125t304 125q58 58 91 136.5t33 166.5q0 176 -124 305q-126 124 -304 124
t-304 -124q-124 -129 -124 -305z" />
    <glyph glyph-name="Korea1.689" unicode="&#x326a;" horiz-adv-x="1142" 
d="M843 77h-123v150h-434v98h434v124h-438v97h519q42 0 42 -33v-436zM69 330q0 203 147 350q148 145 354 145t354 -145q146 -146 146 -350q0 -99 -38.5 -190t-107.5 -158q-150 -147 -354 -147t-354 147q-69 68 -108 158.5t-39 189.5zM142 330q0 -88 33 -166.5t91 -136.5
q125 -125 304 -125t304 125q58 58 91 136.5t33 166.5q0 176 -124 305q-126 124 -304 124t-304 -124q-124 -129 -124 -305z" />
    <glyph glyph-name="Korea1.690" unicode="&#x326b;" horiz-adv-x="1142" 
d="M404 214h452v-98h-477q-52 0 -74.5 19.5t-22.5 62.5v331h565v-98h-443v-59h434v-98h-434v-60zM69 330q0 203 147 350q148 145 354 145t354 -145q146 -146 146 -350q0 -99 -38.5 -190t-107.5 -158q-150 -147 -354 -147t-354 147q-69 68 -108 158.5t-39 189.5zM142 330
q0 -88 33 -166.5t91 -136.5q125 -125 304 -125t304 125q58 58 91 136.5t33 166.5q0 176 -124 305q-126 124 -304 124t-304 -124q-124 -129 -124 -305z" />
    <glyph glyph-name="Korea1.691" unicode="&#x326c;" horiz-adv-x="1142" 
d="M760 220h115v-99h-606v99h103v210h-93v98h587v-98h-88v-140q0 -41 -18 -70zM495 220h140q20 15 20 50v160h-160v-210zM69 330q0 203 147 350q148 145 354 145t354 -145q146 -146 146 -350q0 -99 -38.5 -190t-107.5 -158q-150 -147 -354 -147t-354 147q-69 68 -108 158.5
t-39 189.5zM142 330q0 -88 33 -166.5t91 -136.5q125 -125 304 -125t304 125q58 58 91 136.5t33 166.5q0 176 -124 305q-126 124 -304 124t-304 -124q-124 -129 -124 -305z" />
    <glyph glyph-name="Korea1.692" unicode="&#x326d;" horiz-adv-x="1142" 
d="M882 434v-97h-104q35 -43 35 -100q0 -85 -68 -131q-65 -46 -172 -46q-101 0 -171 44.5t-70 132.5q0 56 35 100h-102v97h617zM573 335q-53 0 -84.5 -24.5t-31.5 -66.5t31.5 -66.5t84.5 -24.5q55 0 87 24.5t32 66.5t-32 66.5t-87 24.5zM425 495v110q94 -52 297 -52v-94
q-196 0 -297 36zM69 330q0 203 147 350q148 145 354 145t354 -145q146 -146 146 -350q0 -99 -38.5 -190t-107.5 -158q-150 -147 -354 -147t-354 147q-69 68 -108 158.5t-39 189.5zM142 330q0 -88 33 -166.5t91 -136.5q125 -125 304 -125t304 125q58 58 91 136.5t33 166.5
q0 176 -124 305q-126 124 -304 124t-304 -124q-124 -129 -124 -305z" />
    <glyph glyph-name="Korea1.693" unicode="&#x326e;" horiz-adv-x="1142" 
d="M794 674v-232h94v-83h-94v-368h-101v683h101zM303 142l-46 63q50 29 84.5 55.5t69.5 66t52.5 93.5t17.5 120h-207v82h278q34 0 34 -30v-33q0 -140 -62 -242.5t-221 -174.5zM69 330q0 203 147 350q148 145 354 145t354 -145q146 -146 146 -350q0 -99 -38.5 -190
t-107.5 -158q-150 -147 -354 -147t-354 147q-69 68 -108 158.5t-39 189.5zM142 330q0 -88 33 -166.5t91 -136.5q125 -125 304 -125t304 125q58 58 91 136.5t33 166.5q0 176 -124 305q-126 124 -304 124t-304 -124q-124 -129 -124 -305z" />
    <glyph glyph-name="Korea1.694" unicode="&#x326f;" horiz-adv-x="1142" 
d="M789 674v-223h93v-83h-93v-377h-102v683h102zM283 288v336h101v-320q0 -38 17.5 -51t56.5 -13q88 0 184 40v-84q-24 -11 -80 -24t-122 -13q-83 0 -120 30.5t-37 98.5zM69 330q0 203 147 350q148 145 354 145t354 -145q146 -146 146 -350q0 -99 -38.5 -190t-107.5 -158
q-150 -147 -354 -147t-354 147q-69 68 -108 158.5t-39 189.5zM142 330q0 -88 33 -166.5t91 -136.5q125 -125 304 -125t304 125q58 58 91 136.5t33 166.5q0 176 -124 305q-126 124 -304 124t-304 -124q-124 -129 -124 -305z" />
    <glyph glyph-name="Korea1.695" unicode="&#x3270;" horiz-adv-x="1142" 
d="M584 541h-200v-244q0 -38 17 -50.5t56 -12.5q87 0 185 40v-86q-100 -36 -203 -36q-84 0 -121 30t-37 99v341h303v-81zM789 674v-223h93v-83h-93v-377h-102v683h102zM69 330q0 203 147 350q148 145 354 145t354 -145q146 -146 146 -350q0 -99 -38.5 -190t-107.5 -158
q-150 -147 -354 -147t-354 147q-69 68 -108 158.5t-39 189.5zM142 330q0 -88 33 -166.5t91 -136.5q125 -125 304 -125t304 125q58 58 91 136.5t33 166.5q0 176 -124 305q-126 124 -304 124t-304 -124q-124 -129 -124 -305z" />
    <glyph glyph-name="Korea1.696" unicode="&#x3271;" horiz-adv-x="1142" 
d="M452 218q50 0 106 12t90 27v-82q-101 -36 -214 -36q-82 0 -119 30t-37 99v170h210v103h-213v80h315v-263h-210v-76q0 -38 17.5 -51t54.5 -13zM797 674v-232h93v-83h-93v-368h-102v683h102zM69 330q0 203 147 350q148 145 354 145t354 -145q146 -146 146 -350
q0 -99 -38.5 -190t-107.5 -158q-150 -147 -354 -147t-354 147q-69 68 -108 158.5t-39 189.5zM142 330q0 -88 33 -166.5t91 -136.5q125 -125 304 -125t304 125q58 58 91 136.5t33 166.5q0 176 -124 305q-126 124 -304 124t-304 -124q-124 -129 -124 -305z" />
    <glyph glyph-name="Korea1.697" unicode="&#x3272;" horiz-adv-x="1142" 
d="M270 284v338h327v-439q-93 -32 -175 -32h-10q-76 1 -109 32.5t-33 100.5zM796 674v-232h94v-83h-94v-368h-101v683h101zM496 241v300h-125v-248q0 -33 14 -48t46 -15q34 0 65 11zM69 330q0 203 147 350q148 145 354 145t354 -145q146 -146 146 -350q0 -99 -38.5 -190
t-107.5 -158q-150 -147 -354 -147t-354 147q-69 68 -108 158.5t-39 189.5zM142 330q0 -88 33 -166.5t91 -136.5q125 -125 304 -125t304 125q58 58 91 136.5t33 166.5q0 176 -124 305q-126 124 -304 124t-304 -124q-124 -129 -124 -305z" />
    <glyph glyph-name="Korea1.698" unicode="&#x3273;" horiz-adv-x="1142" 
d="M495 626h102v-451q-92 -32 -178 -32h-9q-76 1 -108 33t-32 101v349h101v-158h124v158zM796 674v-232h94v-83h-94v-368h-101v683h101zM495 388h-124v-102q0 -34 13 -48.5t45 -14.5q33 0 66 12v153zM69 330q0 203 147 350q148 145 354 145t354 -145q146 -146 146 -350
q0 -99 -38.5 -190t-107.5 -158q-150 -147 -354 -147t-354 147q-69 68 -108 158.5t-39 189.5zM142 330q0 -88 33 -166.5t91 -136.5q125 -125 304 -125t304 125q58 58 91 136.5t33 166.5q0 176 -124 305q-126 124 -304 124t-304 -124q-124 -129 -124 -305z" />
    <glyph glyph-name="Korea1.699" unicode="&#x3274;" horiz-adv-x="1142" 
d="M791 674v-223h94v-83h-94v-377h-101v683h101zM663 164h-107q-10 15 -31 53.5t-40.5 68t-38.5 46.5q-53 -94 -158 -179l-54 61q6 5 17 14.5t38 41t48 66.5t38 89.5t17 111.5v91h106v-89q0 -73 -22 -139q43 -17 77.5 -62.5t109.5 -173.5zM69 330q0 203 147 350
q148 145 354 145t354 -145q146 -146 146 -350q0 -99 -38.5 -190t-107.5 -158q-150 -147 -354 -147t-354 147q-69 68 -108 158.5t-39 189.5zM142 330q0 -88 33 -166.5t91 -136.5q125 -125 304 -125t304 125q58 58 91 136.5t33 166.5q0 176 -124 305q-126 124 -304 124
t-304 -124q-124 -129 -124 -305z" />
    <glyph glyph-name="Korea1.700" unicode="&#x3275;" horiz-adv-x="1142" 
d="M429 629q83 0 131.5 -65.5t48.5 -177.5q0 -111 -48.5 -177t-131.5 -66q-82 0 -131 66t-49 177t49 177t131 66zM793 674v-232h94v-83h-94v-368h-101v683h101zM429 550q-36 0 -56.5 -44t-20.5 -121q0 -76 20.5 -120t56.5 -44q37 0 58 44t21 121q0 76 -21 120t-58 44z
M69 330q0 203 147 350q148 145 354 145t354 -145q146 -146 146 -350q0 -99 -38.5 -190t-107.5 -158q-150 -147 -354 -147t-354 147q-69 68 -108 158.5t-39 189.5zM142 330q0 -88 33 -166.5t91 -136.5q125 -125 304 -125t304 125q58 58 91 136.5t33 166.5q0 176 -124 305
q-126 124 -304 124t-304 -124q-124 -129 -124 -305z" />
    <glyph glyph-name="Korea1.701" unicode="&#x3276;" horiz-adv-x="1142" 
d="M642 164h-108q-8 14 -22.5 44t-24 48.5t-23 40t-26.5 34.5q-28 -52 -67 -95.5t-64 -61.5l-25 -17l-47 57q6 4 16 12.5t35.5 38.5t45 64.5t36.5 92t18 119.5h-116v81h339v-81h-115q-3 -77 -26 -143q21 -9 39.5 -24.5t36 -41t30 -46t34 -60t34.5 -62.5zM791 674v-232h94
v-83h-94v-368h-101v683h101zM69 330q0 203 147 350q148 145 354 145t354 -145q146 -146 146 -350q0 -99 -38.5 -190t-107.5 -158q-150 -147 -354 -147t-354 147q-69 68 -108 158.5t-39 189.5zM142 330q0 -88 33 -166.5t91 -136.5q125 -125 304 -125t304 125q58 58 91 136.5
t33 166.5q0 176 -124 305q-126 124 -304 124t-304 -124q-124 -129 -124 -305z" />
    <glyph glyph-name="Korea1.702" unicode="&#x3277;" horiz-adv-x="1142" 
d="M260 539h345v-80h-116q-6 -36 -21 -78q40 -19 74.5 -67t99.5 -166h-107q-4 9 -14 29l-14.5 29t-13 25.5t-14 26t-13 21t-14 20t-13.5 14.5q-62 -108 -157 -173l-47 57q5 3 13.5 9.5t31.5 30.5t41.5 51.5t37 73.5t24.5 97h-123v80zM791 675v-239h94v-84h-94v-360h-101v683
h101zM335 590v84q78 -30 199 -30v-77q-125 0 -199 23zM69 330q0 203 147 350q148 145 354 145t354 -145q146 -146 146 -350q0 -99 -38.5 -190t-107.5 -158q-150 -147 -354 -147t-354 147q-69 68 -108 158.5t-39 189.5zM142 330q0 -88 33 -166.5t91 -136.5q125 -125 304 -125
t304 125q58 58 91 136.5t33 166.5q0 176 -124 305q-126 124 -304 124t-304 -124q-124 -129 -124 -305z" />
    <glyph glyph-name="Korea1.703" unicode="&#x3278;" horiz-adv-x="1142" 
d="M303 142l-46 63q69 41 114.5 80.5t73.5 95.5h-171v82h199q8 46 8 77h-207v82h278q34 0 34 -30v-33q0 -140 -62 -242.5t-221 -174.5zM794 674v-232h94v-83h-94v-368h-101v683h101zM69 330q0 203 147 350q148 145 354 145t354 -145q146 -146 146 -350q0 -99 -38.5 -190
t-107.5 -158q-150 -147 -354 -147t-354 147q-69 68 -108 158.5t-39 189.5zM142 330q0 -88 33 -166.5t91 -136.5q125 -125 304 -125t304 125q58 58 91 136.5t33 166.5q0 176 -124 305q-126 124 -304 124t-304 -124q-124 -129 -124 -305z" />
    <glyph glyph-name="Korea1.704" unicode="&#x3279;" horiz-adv-x="1142" 
d="M644 277v-84q-88 -39 -211 -39q-82 0 -119 30t-37 99v338h312v-80h-210v-97h201v-79h-201v-68q0 -37 17 -50t55 -13q99 0 193 43zM788 674v-223h93v-83h-93v-377h-102v683h102zM69 330q0 203 147 350q148 145 354 145t354 -145q146 -146 146 -350q0 -99 -38.5 -190
t-107.5 -158q-150 -147 -354 -147t-354 147q-69 68 -108 158.5t-39 189.5zM142 330q0 -88 33 -166.5t91 -136.5q125 -125 304 -125t304 125q58 58 91 136.5t33 166.5q0 176 -124 305q-126 124 -304 124t-304 -124q-124 -129 -124 -305z" />
    <glyph glyph-name="Korea1.705" unicode="&#x327a;" horiz-adv-x="1142" 
d="M673 260v-82q-97 -41 -231 -41h-178v82h52v302h-49v81h373v-81h-48v-248q0 -28 -9 -43q33 7 90 30zM792 674v-232h94v-83h-94v-368h-101v683h101zM464 219q26 0 26 43v259h-72v-302h46zM69 330q0 203 147 350q148 145 354 145t354 -145q146 -146 146 -350
q0 -99 -38.5 -190t-107.5 -158q-150 -147 -354 -147t-354 147q-69 68 -108 158.5t-39 189.5zM142 330q0 -88 33 -166.5t91 -136.5q125 -125 304 -125t304 125q58 58 91 136.5t33 166.5q0 176 -124 305q-126 124 -304 124t-304 -124q-124 -129 -124 -305z" />
    <glyph glyph-name="Korea1.706" unicode="&#x327b;" horiz-adv-x="1142" 
d="M433 417q77 0 122.5 -43t45.5 -114q0 -72 -45.5 -115.5t-122.5 -43.5q-78 0 -122 43t-44 115t44 115t122 43zM790 676v-240h94v-84h-94v-360h-101v684h101zM632 516v-79h-400v79h400zM433 168q29 0 47.5 25t18.5 67q0 41 -18.5 66t-47.5 25t-47.5 -25t-18.5 -67
q0 -41 18.5 -66t47.5 -25zM540 615v-74q-137 0 -215 23v81q81 -30 215 -30zM69 330q0 203 147 350q148 145 354 145t354 -145q146 -146 146 -350q0 -99 -38.5 -190t-107.5 -158q-150 -147 -354 -147t-354 147q-69 68 -108 158.5t-39 189.5zM142 330q0 -88 33 -166.5
t91 -136.5q125 -125 304 -125t304 125q58 58 91 136.5t33 166.5q0 176 -124 305q-126 124 -304 124t-304 -124q-124 -129 -124 -305z" />
    <glyph glyph-name="Korea1.707" unicode="&#x24d0;" horiz-adv-x="1141" 
d="M724 170q5 0 18 8.5t24 17.5l10 8v-81q-55 -36 -92 -36q-54 0 -74 33q-51 -33 -111 -33q-54 0 -85.5 33t-31.5 76q0 61 38.5 97t133.5 70l50 18q0 60 -60 60q-51 0 -115 -60l-39 73q31 34 76.5 56.5t84.5 22.5q68 0 117 -34.5t49 -104.5v-213q0 -11 7 -11zM604 193v114
l-11 -3q-24 -8 -38 -14.5t-30 -17.5t-23.5 -26t-7.5 -35q0 -22 13 -35.5t34 -13.5q34 0 63 31zM69 330q0 203 147 350q148 145 354 145t354 -145q146 -146 146 -350q0 -99 -38.5 -190t-107.5 -158q-150 -147 -354 -147t-354 147q-69 68 -108 158.5t-39 189.5zM142 330
q0 -88 33 -166.5t91 -136.5q125 -125 304 -125t304 125q58 58 91 136.5t33 166.5q0 176 -124 305q-126 124 -304 124t-304 -124q-124 -129 -124 -305z" />
    <glyph glyph-name="Korea1.708" unicode="&#x24d1;" horiz-adv-x="1141" 
d="M417 39v621h113v-231q43 24 99 24q90 0 140.5 -63t50.5 -157q0 -64 -22 -110t-58 -69.5t-72.5 -34t-74.5 -10.5q-100 0 -176 30zM530 329v-224q21 -7 48 -7q57 0 93 32t36 100q0 57 -27.5 95t-73.5 38q-44 0 -76 -34zM69 330q0 203 147 350q148 145 354 145t354 -145
q146 -146 146 -350q0 -99 -38.5 -190t-107.5 -158q-150 -147 -354 -147t-354 147q-69 68 -108 158.5t-39 189.5zM142 330q0 -88 33 -166.5t91 -136.5q125 -125 304 -125t304 125q58 58 91 136.5t33 166.5q0 176 -124 305q-126 124 -304 124t-304 -124q-124 -129 -124 -305z
" />
    <glyph glyph-name="Korea1.709" unicode="&#x24d2;" horiz-adv-x="1141" 
d="M706 414q-58 28 -94 28q-59 0 -98 -37t-39 -96q0 -67 40 -101t103 -34q48 0 115 37v-98q-69 -27 -121 -27q-108 0 -178.5 57.5t-70.5 164.5q0 101 71 162t178 61q33 0 66 -8.5t49 -16.5l16 -8q-4 -9 -17.5 -38.5t-19.5 -45.5zM69 330q0 203 147 350q148 145 354 145
t354 -145q146 -146 146 -350q0 -99 -38.5 -190t-107.5 -158q-150 -147 -354 -147t-354 147q-69 68 -108 158.5t-39 189.5zM142 330q0 -88 33 -166.5t91 -136.5q125 -125 304 -125t304 125q58 58 91 136.5t33 166.5q0 176 -124 305q-126 124 -304 124t-304 -124
q-124 -129 -124 -305z" />
    <glyph glyph-name="Korea1.710" unicode="&#x24d3;" horiz-adv-x="1141" 
d="M603 660h114v-626q-77 -25 -154 -25q-126 0 -188.5 62.5t-62.5 163.5q0 99 62 158.5t153 59.5q45 0 76 -14v221zM425 226q0 -33 10.5 -58t25 -38t33.5 -20.5t31.5 -9t23.5 -1.5q41 0 54 6v244q-23 17 -62 17q-49 0 -82.5 -36.5t-33.5 -103.5zM69 330q0 203 147 350
q148 145 354 145t354 -145q146 -146 146 -350q0 -99 -38.5 -190t-107.5 -158q-150 -147 -354 -147t-354 147q-69 68 -108 158.5t-39 189.5zM142 330q0 -88 33 -166.5t91 -136.5q125 -125 304 -125t304 125q58 58 91 136.5t33 166.5q0 176 -124 305q-126 124 -304 124
t-304 -124q-124 -129 -124 -305z" />
    <glyph glyph-name="Korea1.711" unicode="&#x24d4;" horiz-adv-x="1141" 
d="M572 86q-9 0 -26 2t-54 14.5t-66.5 33.5t-53 67t-23.5 107q0 99 57.5 160.5t153.5 61.5q89 0 143 -60t54 -161v-23h-298q7 -47 40.5 -78.5t84.5 -31.5q80 0 156 60v-105q-7 -5 -20.5 -13t-57 -21t-90.5 -13zM461 358h186q-5 41 -27.5 63.5t-59.5 22.5q-39 0 -65.5 -23.5
t-33.5 -62.5zM69 330q0 203 147 350q148 145 354 145t354 -145q146 -146 146 -350q0 -99 -38.5 -190t-107.5 -158q-150 -147 -354 -147t-354 147q-69 68 -108 158.5t-39 189.5zM142 330q0 -88 33 -166.5t91 -136.5q125 -125 304 -125t304 125q58 58 91 136.5t33 166.5
q0 176 -124 305q-126 124 -304 124t-304 -124q-124 -129 -124 -305z" />
    <glyph glyph-name="Korea1.712" unicode="&#x24d5;" horiz-adv-x="1141" 
d="M69 330q0 203 147 350q148 145 354 145t354 -145q146 -146 146 -350q0 -99 -38.5 -190t-107.5 -158q-150 -147 -354 -147t-354 147q-69 68 -108 158.5t-39 189.5zM142 330q0 -88 33 -166.5t91 -136.5q125 -125 304 -125t304 125q58 58 91 136.5t33 166.5q0 176 -124 305
q-126 124 -304 124t-304 -124q-124 -129 -124 -305zM713 662v-96q-26 6 -28 6q-12 2 -18 2q-25 0 -41 -8t-23.5 -24t-9.5 -31.5t-2 -39.5v-24h72v-88h-72v-341h-113v341h-58v88h58v19q0 97 44 149.5t114 52.5q27 0 77 -6z" />
    <glyph glyph-name="Korea1.713" unicode="&#x24d6;" horiz-adv-x="1141" 
d="M777 641l-16 -79h-55q31 -36 31 -83q0 -36 -14 -64t-32 -42.5t-43.5 -24.5t-39 -12t-27.5 -4q-53 -9 -53 -27q0 -13 23 -22t81 -21q146 -29 146 -123q0 -67 -60 -104t-159 -37q-91 0 -152.5 36.5t-61.5 95.5q0 82 100 113q-35 25 -35 52q0 20 16 36.5t42 25.5
q-88 42 -88 132q0 73 54.5 112.5t147.5 39.5h195zM662 132q0 18 -15 30.5t-37 18t-39 7.5t-30 2q-37 0 -60.5 -15.5t-23.5 -38.5q0 -55 103 -55q47 0 74.5 13.5t27.5 37.5zM627 487q0 29 -20 50t-48 21q-29 0 -48.5 -21t-19.5 -50q0 -35 18 -54t51 -19q28 0 47.5 21t19.5 52
zM69 330q0 203 147 350q148 145 354 145t354 -145q146 -146 146 -350q0 -99 -38.5 -190t-107.5 -158q-150 -147 -354 -147t-354 147q-69 68 -108 158.5t-39 189.5zM142 330q0 -88 33 -166.5t91 -136.5q125 -125 304 -125t304 125q58 58 91 136.5t33 166.5q0 176 -124 305
q-126 124 -304 124t-304 -124q-124 -129 -124 -305z" />
    <glyph glyph-name="Korea1.714" unicode="&#x24d7;" horiz-adv-x="1141" 
d="M520 660v-248q46 43 115 43q77 0 114.5 -50.5t37.5 -142.5v-244h-113v259q0 48 -18.5 73t-44.5 25q-45 0 -91 -52v-305h-111v642h111zM69 330q0 203 147 350q148 145 354 145t354 -145q146 -146 146 -350q0 -99 -38.5 -190t-107.5 -158q-150 -147 -354 -147t-354 147
q-69 68 -108 158.5t-39 189.5zM142 330q0 -88 33 -166.5t91 -136.5q125 -125 304 -125t304 125q58 58 91 136.5t33 166.5q0 176 -124 305q-126 124 -304 124t-304 -124q-124 -129 -124 -305z" />
    <glyph glyph-name="Korea1.715" unicode="&#x24d8;" horiz-adv-x="1141" 
d="M508 584q0 26 18.5 44.5t44.5 18.5q25 0 43.5 -18.5t18.5 -44.5t-18.5 -44.5t-43.5 -18.5q-26 0 -44.5 18.5t-18.5 44.5zM624 445v-422h-108v422h108zM69 330q0 203 147 350q148 145 354 145t354 -145q146 -146 146 -350q0 -99 -38.5 -190t-107.5 -158
q-150 -147 -354 -147t-354 147q-69 68 -108 158.5t-39 189.5zM142 330q0 -88 33 -166.5t91 -136.5q125 -125 304 -125t304 125q58 58 91 136.5t33 166.5q0 176 -124 305q-126 124 -304 124t-304 -124q-124 -129 -124 -305z" />
    <glyph glyph-name="Korea1.716" unicode="&#x24d9;" horiz-adv-x="1141" 
d="M467 -36l-34 81q63 13 81 38q15 27 15 100v299h111v-305q0 -74 -20 -120t-77 -75q-31 -16 -76 -18zM521 621q0 26 18.5 44.5t44.5 18.5q25 0 43.5 -18.5t18.5 -44.5t-18.5 -44.5t-43.5 -18.5q-26 0 -44.5 18.5t-18.5 44.5zM69 330q0 203 147 350q148 145 354 145
t354 -145q146 -146 146 -350q0 -99 -38.5 -190t-107.5 -158q-150 -147 -354 -147t-354 147q-69 68 -108 158.5t-39 189.5zM142 330q0 -88 33 -166.5t91 -136.5q125 -125 304 -125t304 125q58 58 91 136.5t33 166.5q0 176 -124 305q-126 124 -304 124t-304 -124
q-124 -129 -124 -305z" />
    <glyph glyph-name="Korea1.717" unicode="&#x24da;" horiz-adv-x="1141" 
d="M498 660v-642h-112v642h112zM630 237q21 -24 191 -219h-143l-176 217l154 211h129q-11 -15 -67.5 -91.5t-87.5 -117.5zM69 330q0 203 147 350q148 145 354 145t354 -145q146 -146 146 -350q0 -99 -38.5 -190t-107.5 -158q-150 -147 -354 -147t-354 147q-69 68 -108 158.5
t-39 189.5zM142 330q0 -88 33 -166.5t91 -136.5q125 -125 304 -125t304 125q58 58 91 136.5t33 166.5q0 176 -124 305q-126 124 -304 124t-304 -124q-124 -129 -124 -305z" />
    </font>
</defs>
</svg>
